<?xml version="1.0" encoding="UTF-8"?>
<svg width="101px" height="70px" viewBox="0 0 101 70" version="1.1" xmlns="http://www.w3.org/2000/svg" xmlns:xlink="http://www.w3.org/1999/xlink">
    <!-- Generator: Sketch 55.2 (78181) - https://sketchapp.com -->
    <title>aepiphany</title>
    <desc>Created with Sketch.</desc>
    <defs>
        <polygon id="path-1" points="8.88215307e-06 1.11592816e-05 49.9577853 1.11592816e-05 49.9577853 47.1194556 8.88215307e-06 47.1194556"></polygon>
    </defs>
    <g id="Page-1" stroke="none" stroke-width="1" fill="none" fill-rule="evenodd">
        <g id="Desktop" transform="translate(-1635.000000, -303.000000)">
            <g id="aepiphany" transform="translate(1635.000000, 303.000000)">
                <path d="M9.936,62.476 L3.24,62.476 L1.854,65.626 L0,65.626 L5.706,53.026 L7.488,53.026 L13.212,65.626 L11.322,65.626 L9.936,62.476 Z M9.306,61.036 L6.588,54.862 L3.87,61.036 L9.306,61.036 Z M24.228,64.06 L24.228,65.626 L15.084,65.626 L15.084,53.026 L23.976,53.026 L23.976,54.592 L16.884,54.592 L16.884,58.462 L23.202,58.462 L23.202,59.992 L16.884,59.992 L16.884,64.06 L24.228,64.06 Z M31.95,55.996 C32.8740046,55.996 33.7019963,56.199998 34.434,56.608 C35.1660037,57.016002 35.7389979,57.5859963 36.153,58.318 C36.5670021,59.0500037 36.774,59.8959952 36.774,60.856 C36.774,61.8160048 36.5670021,62.6649963 36.153,63.403 C35.7389979,64.1410037 35.1660037,64.713998 34.434,65.122 C33.7019963,65.530002 32.8740046,65.734 31.95,65.734 C31.2659966,65.734 30.6390029,65.6020013 30.069,65.338 C29.4989972,65.0739987 29.016002,64.6900025 28.62,64.186 L28.62,69.118 L26.892,69.118 L26.892,56.086 L28.548,56.086 L28.548,57.598 C28.9320019,57.0699974 29.4179971,56.6710014 30.006,56.401 C30.5940029,56.1309987 31.2419965,55.996 31.95,55.996 Z M31.806,64.222 C32.4180031,64.222 32.9669976,64.0810014 33.453,63.799 C33.9390024,63.5169986 34.3229986,63.1210026 34.605,62.611 C34.8870014,62.1009975 35.028,61.5160033 35.028,60.856 C35.028,60.1959967 34.8870014,59.6110026 34.605,59.101 C34.3229986,58.5909975 33.9390024,58.1980014 33.453,57.922 C32.9669976,57.6459986 32.4180031,57.508 31.806,57.508 C31.205997,57.508 30.6630024,57.6489986 30.177,57.931 C29.6909976,58.2130014 29.3070014,58.6059975 29.025,59.11 C28.7429986,59.6140025 28.602,60.1959967 28.602,60.856 C28.602,61.5160033 28.7399986,62.1009975 29.016,62.611 C29.2920014,63.1210026 29.6759975,63.5169986 30.168,63.799 C30.6600025,64.0810014 31.205997,64.222 31.806,64.222 Z M39.168,56.086 L40.896,56.086 L40.896,65.626 L39.168,65.626 L39.168,56.086 Z M40.032,54.25 C39.6959983,54.25 39.4170011,54.1420011 39.195,53.926 C38.9729989,53.7099989 38.862,53.4460016 38.862,53.134 C38.862,52.8219984 38.9729989,52.5550011 39.195,52.333 C39.4170011,52.1109989 39.6959983,52 40.032,52 C40.3680017,52 40.6469989,52.104999 40.869,52.315 C41.0910011,52.5250011 41.202,52.7859984 41.202,53.098 C41.202,53.4220016 41.0910011,53.6949989 40.869,53.917 C40.6469989,54.1390011 40.3680017,54.25 40.032,54.25 Z M49.248,55.996 C50.1720046,55.996 50.9999963,56.199998 51.732,56.608 C52.4640037,57.016002 53.0369979,57.5859963 53.451,58.318 C53.8650021,59.0500037 54.072,59.8959952 54.072,60.856 C54.072,61.8160048 53.8650021,62.6649963 53.451,63.403 C53.0369979,64.1410037 52.4640037,64.713998 51.732,65.122 C50.9999963,65.530002 50.1720046,65.734 49.248,65.734 C48.5639966,65.734 47.9370029,65.6020013 47.367,65.338 C46.7969972,65.0739987 46.314002,64.6900025 45.918,64.186 L45.918,69.118 L44.19,69.118 L44.19,56.086 L45.846,56.086 L45.846,57.598 C46.2300019,57.0699974 46.7159971,56.6710014 47.304,56.401 C47.8920029,56.1309987 48.5399965,55.996 49.248,55.996 Z M49.104,64.222 C49.7160031,64.222 50.2649976,64.0810014 50.751,63.799 C51.2370024,63.5169986 51.6209986,63.1210026 51.903,62.611 C52.1850014,62.1009975 52.326,61.5160033 52.326,60.856 C52.326,60.1959967 52.1850014,59.6110026 51.903,59.101 C51.6209986,58.5909975 51.2370024,58.1980014 50.751,57.922 C50.2649976,57.6459986 49.7160031,57.508 49.104,57.508 C48.503997,57.508 47.9610024,57.6489986 47.475,57.931 C46.9889976,58.2130014 46.6050014,58.6059975 46.323,59.11 C46.0409986,59.6140025 45.9,60.1959967 45.9,60.856 C45.9,61.5160033 46.0379986,62.1009975 46.314,62.611 C46.5900014,63.1210026 46.9739975,63.5169986 47.466,63.799 C47.9580025,64.0810014 48.503997,64.222 49.104,64.222 Z M61.56,55.996 C62.7720061,55.996 63.7349964,56.3469965 64.449,57.049 C65.1630036,57.7510035 65.52,58.7799932 65.52,60.136 L65.52,65.626 L63.792,65.626 L63.792,60.334 C63.792,59.4099954 63.5700022,58.7140023 63.126,58.246 C62.6819978,57.7779977 62.0460041,57.544 61.218,57.544 C60.2819953,57.544 59.5440027,57.8169973 59.004,58.363 C58.4639973,58.9090027 58.194,59.6919949 58.194,60.712 L58.194,65.626 L56.466,65.626 L56.466,52.27 L58.194,52.27 L58.194,57.436 C58.5540018,56.9799977 59.0249971,56.6260013 59.607,56.374 C60.1890029,56.1219987 60.8399964,55.996 61.56,55.996 Z M72.198,55.996 C73.5180066,55.996 74.5289965,56.3199968 75.231,56.968 C75.9330035,57.6160032 76.284,58.5819936 76.284,59.866 L76.284,65.626 L74.646,65.626 L74.646,64.366 C74.3579986,64.8100022 73.9470027,65.1489988 73.413,65.383 C72.8789973,65.6170012 72.2460037,65.734 71.514,65.734 C70.4459947,65.734 69.5910032,65.4760026 68.949,64.96 C68.3069968,64.4439974 67.986,63.7660042 67.986,62.926 C67.986,62.0859958 68.2919969,61.4110026 68.904,60.901 C69.5160031,60.3909975 70.4879933,60.136 71.82,60.136 L74.556,60.136 L74.556,59.794 C74.556,59.0499963 74.3400022,58.480002 73.908,58.084 C73.4759978,57.687998 72.8400042,57.49 72,57.49 C71.4359972,57.49 70.8840027,57.5829991 70.344,57.769 C69.8039973,57.9550009 69.3480019,58.2039984 68.976,58.516 L68.256,57.22 C68.7480025,56.823998 69.3359966,56.5210011 70.02,56.311 C70.7040034,56.100999 71.4299962,55.996 72.198,55.996 Z M71.802,64.402 C72.4620033,64.402 73.0319976,64.2550015 73.512,63.961 C73.9920024,63.6669985 74.3399989,63.2500027 74.556,62.71 L74.556,61.378 L71.892,61.378 C70.4279927,61.378 69.696,61.8699951 69.696,62.854 C69.696,63.3340024 69.8819981,63.7119986 70.254,63.988 C70.6260019,64.2640014 71.1419967,64.402 71.802,64.402 Z M84.582,55.996 C85.7940061,55.996 86.7569964,56.3469965 87.471,57.049 C88.1850036,57.7510035 88.542,58.7799932 88.542,60.136 L88.542,65.626 L86.814,65.626 L86.814,60.334 C86.814,59.4099954 86.5920022,58.7140023 86.148,58.246 C85.7039978,57.7779977 85.0680041,57.544 84.24,57.544 C83.3039953,57.544 82.5660027,57.8169973 82.026,58.363 C81.4859973,58.9090027 81.216,59.6919949 81.216,60.712 L81.216,65.626 L79.488,65.626 L79.488,56.086 L81.144,56.086 L81.144,57.526 C81.4920017,57.0339975 81.962997,56.6560013 82.557,56.392 C83.151003,56.1279987 83.8259962,55.996 84.582,55.996 Z M100.188,56.086 L95.562,66.58 C95.153998,67.5520049 94.6770027,68.235998 94.131,68.632 C93.5849973,69.028002 92.9280038,69.226 92.16,69.226 C91.6919977,69.226 91.2390022,69.1510008 90.801,69.001 C90.3629978,68.8509993 90.0000014,68.6320014 89.712,68.344 L90.45,67.048 C90.9420025,67.5160023 91.5119968,67.75 92.16,67.75 C92.5800021,67.75 92.9309986,67.6390011 93.213,67.417 C93.4950014,67.1949989 93.7499989,66.8140027 93.978,66.274 L94.284,65.608 L90.072,56.086 L91.872,56.086 L95.202,63.718 L98.496,56.086 L100.188,56.086 Z" id="AEpiphany" fill="#01929F" fill-rule="nonzero"></path>
                <g id="Group-3" transform="translate(25.000000, 0.000000)">
                    <mask id="mask-2" fill="white">
                        <use xlink:href="#path-1"></use>
                    </mask>
                    <g id="Clip-2"></g>
                    <path d="M13.7905948,21.5415625 C15.6656956,21.4279536 17.6221472,22.208498 19.6261794,22.8365222 C27.3716431,25.2634375 34.8364617,19.5290625 34.0872681,11.7630343 C33.5655948,6.35577621 28.3530948,2.6119254 23.309244,4.02160282 C19.487369,5.08974798 17.225877,9.12896169 18.4721472,12.6609173 C19.3434173,15.1299698 21.8283972,16.6172681 24.2059173,16.0927722 C26.2000706,15.652752 27.5359577,13.6200907 26.899869,11.9759375 C26.6437198,11.3137399 26.1833367,10.7972077 25.4716431,10.6898488 C24.5572278,10.5518448 24.3323286,11.1187802 24.3862601,11.924123 C24.4282964,12.5510383 23.9886794,12.8483165 23.4514819,12.8568851 C22.8343448,12.8666633 22.3563206,12.5172681 22.0096472,11.9906552 C20.9203327,10.3355141 22.2021875,7.94408266 24.4780948,7.44761089 C26.2705343,7.05648185 27.8171069,7.57341734 29.0393851,8.91686492 C30.5825302,10.6128327 30.9417036,12.6244254 30.2925101,14.7816835 C29.0830343,18.8004335 24.3963407,20.849627 20.2394859,19.2244254 C14.2155948,16.8692843 12.5340423,8.98047379 17.0721472,3.88753024 C20.2839415,0.283094758 24.4065222,-0.833941532 28.9695262,0.616159274 C33.8714415,2.17392137 36.807631,5.71545363 37.5917036,10.7942843 C38.4157964,16.1321875 36.4617641,20.4680746 32.3757762,23.9549698 C28.1740625,27.540756 26.800877,32.4790625 28.5985585,37.0519456 C30.8094456,42.6758367 37.3604536,45.1629335 42.2765827,42.2447883 C46.8493649,39.530373 47.6880746,33.2602117 43.907631,30.0506351 C41.0300101,27.6075907 36.7169052,28.3494254 35.3772883,31.5179738 C34.527994,33.526744 35.4372681,35.8599093 37.2490625,36.2562802 C38.0140827,36.4237198 38.763881,36.3883367 39.2851512,35.6581956 C39.8626714,34.8492238 39.2474496,34.590252 38.7193246,34.0997278 C37.6057157,33.0653528 38.4966431,32.4836996 39.4343448,32.1842036 C40.9158972,31.7112198 42.4660988,33.0276512 42.6891835,34.8461996 C43.1151915,38.3184778 39.3032964,40.8591028 35.7042036,39.501744 C32.384748,38.2498286 30.6558165,34.3348085 31.8325302,30.734506 C33.7614617,24.8326915 41.4338407,23.0164617 46.3318246,27.3596069 C49.6781956,30.326744 50.6418044,34.1618246 49.4968448,38.354869 C48.2435181,42.9444859 45.0581351,45.8184778 40.4088407,46.8180746 C32.9101512,48.4302722 25.9176109,43.4185786 24.4407964,35.5125302 C23.194123,28.8387399 18.5178125,24.7643448 12.5870665,25.1847077 C6.02577621,25.6498286 1.73585685,32.3824899 4.39341734,38.0439819 C6.18061492,41.8514415 10.6317238,43.5480141 14.0937198,41.7413609 C17.065494,40.1905544 18.1714415,36.5700907 16.4360585,34.0734173 C15.1035988,32.1564819 12.5544052,31.7343044 11.2368649,33.2201915 C10.6975504,33.828256 10.4640827,34.5266431 10.8390827,35.299627 C11.190998,36.0254335 11.7766835,35.9242238 12.3077319,35.5571875 C12.8673085,35.1703931 13.2568246,35.3903528 13.5829335,35.8208972 C13.9789012,36.3435786 13.904002,36.9078931 13.6265827,37.4779536 C12.8070262,39.1618246 10.245131,39.379869 8.63041331,37.8945867 C5.97295363,35.4500302 7.17073589,30.7369254 10.8625706,29.256381 C13.4413004,28.2223085 15.8511794,28.7232157 17.9339415,30.4604133 C20.3089415,32.4412601 21.2692238,35.0815827 20.7569254,38.1189819 C19.6695262,44.5650504 12.6264819,47.9701915 6.52063508,45.0697883 C-1.20164315,41.4016431 -2.29740927,30.6012399 4.48283266,24.7836996 C7.06811492,22.5654536 10.090494,21.4762399 13.7905948,21.5415625" id="Fill-1" fill="#01929F" mask="url(#mask-2)"></path>
                </g>
            </g>
        </g>
    </g>
</svg>