<?xml version="1.0" encoding="UTF-8"?>
<svg width="209px" height="69px" viewBox="0 0 209 69" version="1.1" xmlns="http://www.w3.org/2000/svg" xmlns:xlink="http://www.w3.org/1999/xlink">
    <!-- Generator: Sketch 55.2 (78181) - https://sketchapp.com -->
    <title>ASAP!-color-full</title>
    <desc>Created with Sketch.</desc>
    <g id="Page-1" stroke="none" stroke-width="1" fill="none" fill-rule="evenodd">
        <g id="Desktop" transform="translate(-1266.000000, -69.000000)">
            <g id="ASAP!-color-full" transform="translate(1266.000000, 69.000000)">
                <path d="M128.295956,56.3178094 C124.981549,54.9647674 122.941074,51.9545217 122.179988,47.3143515 C121.540294,43.4243558 121.678053,42.9660674 123.490748,42.9660674 C124.987005,42.9660674 125.685349,43.8881 126.175009,46.5150747 C127.923597,55.8226942 136.991161,55.3166674 136.991161,45.9067514 C136.991161,42.2677231 136.228711,41.0319811 129.830404,34.270863 C122.999724,27.0514565 122.669648,26.4813239 122.669648,21.7661362 C122.669648,15.8629449 124.561451,12.7940493 129.467593,10.7481188 C134.411924,8.68036513 139.293514,10.6580979 140.943898,15.3882891 C142.595646,20.1307558 142.393781,21.4837978 140.032777,21.4837978 C138.547432,21.4837978 137.790438,20.6095035 137.343061,18.3780754 C136.762017,15.4742181 134.450115,13.3000761 131.945896,13.3000761 C129.520787,13.3000761 126.761509,17.4669544 126.761509,21.1155303 C126.761509,24.3399167 127.645351,25.7093261 133.373956,31.3506383 C141.242604,39.1033507 143.134408,43.6794151 141.178498,50.2072972 C140.208727,53.4521428 139.154391,54.7028883 136.448307,55.8336059 C132.558311,57.4580746 131.263919,57.5385479 128.295956,56.3178094 Z M92.3489586,54.475108 C92.6258412,53.4889696 94.6131217,43.1365616 96.7654405,31.4624825 L100.675896,10.2366362 L103.931653,10.2366362 C107.847564,10.2311804 107.261064,8.50987093 111.933969,33.7593804 C113.963532,44.7296594 115.813053,54.2827906 116.047653,54.9865907 C116.302712,55.7695 115.519803,56.2646152 114.005814,56.2646152 C111.864407,56.2646152 111.448401,55.6522 110.846898,51.6135333 L110.148553,46.9679073 L103.888006,47.2652492 C98.5344883,47.5271283 97.5851766,47.8626609 97.3192056,49.6153413 C96.4831021,55.2307384 95.955252,56.2646152 93.9366007,56.2646152 C92.4335238,56.2646152 91.986147,55.7585884 92.3489586,54.475108 Z M108.70549,39.6421124 C106.914619,29.9280347 104.175801,16.9704753 103.85118,16.6458543 C103.409259,16.2039333 99.1196244,38.5277623 99.1305153,41.1765602 C99.1414477,42.6414464 100.068936,42.9660674 104.228995,42.9660674 L109.317906,42.9660674 L108.70549,39.6421124 Z M148.243778,55.0547883 C148.243778,53.9840847 152.66026,29.9866847 155.510923,15.6024298 C156.5448,10.3743955 156.667556,10.2311804 160.082896,10.2311804 C162.011526,10.2311804 163.588256,10.6676456 163.588256,11.2064072 C163.588256,11.743805 165.432322,21.8356978 167.680117,33.6311688 C169.927913,45.4334595 171.771978,55.3534942 171.771978,55.6726593 C171.771978,55.9986442 170.88268,56.2646152 169.795609,56.2646152 C167.861523,56.2646152 167.498711,55.6194651 166.220687,49.8717646 C165.623275,47.1915957 165.315022,47.0579282 159.538678,47.0579282 L153.486816,47.0579282 L152.793927,51.6612717 C152.255166,55.2471058 151.675485,56.2646152 150.172409,56.2646152 C149.112617,56.2646152 148.243778,55.7217617 148.243778,55.0547883 Z M164.547116,41.1765602 C164.387533,36.7000644 159.720084,16.0225275 159.182686,17.3919369 C158.851245,18.2334963 157.850104,23.0714398 156.966262,28.1330717 C156.0756,33.1947036 155.094917,38.6082355 154.781208,40.153595 C154.227443,42.9292406 154.291548,42.9660674 159.415922,42.9660674 C163.705556,42.9660674 164.60031,42.652358 164.547116,41.1765602 Z M178.932735,33.2478978 L178.932735,10.2311804 L184.078932,10.2311804 C194.458619,10.2311804 198.369074,14.0134238 198.369074,24.0412108 C198.369074,33.3542862 194.378145,37.8512413 186.124862,37.8512413 L183.024596,37.8512413 L183.024596,47.0579282 C183.024596,55.5826384 182.875925,56.2646152 180.978665,56.2646152 C178.991385,56.2646152 178.932735,55.5826384 178.932735,33.2478978 Z M191.644782,32.1499151 C192.770044,31.0260173 193.254248,28.5913601 193.254248,24.0412108 C193.254248,16.4330775 191.794817,14.3230413 186.529956,14.3230413 L183.024596,14.3230413 L183.024596,33.7593804 L186.529956,33.7593804 C188.458587,33.7593804 190.76094,33.035121 191.644782,32.1499151 Z M204.506865,53.1957195 C204.506865,50.8088007 204.959698,50.1268239 206.552796,50.1268239 C208.145893,50.1268239 208.598726,50.8088007 208.598726,53.1957195 C208.598726,55.5826384 208.145893,56.2646152 206.552796,56.2646152 C204.959698,56.2646152 204.506865,55.5826384 204.506865,53.1957195 Z M205.161563,42.1995254 C204.816483,40.0894892 204.523233,32.0326151 204.517777,24.2976341 C204.506865,10.9077014 204.607798,10.2311804 206.552796,10.2311804 C208.518253,10.2311804 208.598726,10.9131572 208.598726,28.1330717 C208.598726,42.6032557 208.332755,46.034963 207.197946,46.034963 C206.376846,46.034963 205.535286,44.4527768 205.161563,42.1995254 Z" id="Fill-2" fill="#BC1823"></path>
                <g id="Group-3">
                    <polygon id="Path" fill="#000000" points="17.0236875 51.1811979 0 34.2542877 8.48713107 25.773571 33.7995804 50.9189556 59.347134 25.5405405 68.1081081 34.2489764 34.047375 68.1081081"></polygon>
                    <path d="M23.2784417,29.8542871 L12.7702703,19.9814129 L34.0540541,0 L55.3378378,19.9814129 L44.8296664,29.8542871 C39.0478808,35.287418 34.2011124,39.7297297 34.0540541,39.7297297 C33.9069957,39.7297297 29.0602274,35.287418 23.2784417,29.8542871 Z" id="Path" fill="#BC1823"></path>
                </g>
            </g>
        </g>
    </g>
</svg>