<?xml version="1.0" encoding="UTF-8"?>
<svg width="100px" height="56px" viewBox="0 0 100 56" version="1.1" xmlns="http://www.w3.org/2000/svg" xmlns:xlink="http://www.w3.org/1999/xlink">
    <!-- Generator: Sketch 55.2 (78181) - https://sketchapp.com -->
    <title>logo</title>
    <desc>Created with Sketch.</desc>
    <g id="Page-1" stroke="none" stroke-width="1" fill="none" fill-rule="evenodd">
        <g id="Desktop" transform="translate(-1072.000000, -442.000000)" fill="#04AFB8">
            <g id="logo" transform="translate(1072.000000, 442.000000)">
                <path d="M86.2246885,32.0547713 C86.1943344,32.033418 86.1750949,31.999079 86.1723984,31.9614432 L86.0542845,30.8421362 L85.6144329,30.8761883 C85.5178501,30.8837555 85.46556,30.8509645 85.4575627,30.7778154 C85.4495654,30.7040358 85.4944733,30.6643082 85.5910561,30.6567411 L86.7820389,30.5640436 C86.8786217,30.5564764 86.9309117,30.5892674 86.938909,30.6617859 C86.9469063,30.7355655 86.9019984,30.7759236 86.8054156,30.7834908 L86.365564,30.817543 L86.483678,31.9374806 C86.4893102,31.9740363 86.4773997,32.0111328 86.4516888,32.0371146 C86.4221033,32.0650266 86.3836159,32.0809419 86.3434177,32.0818869 C86.3021618,32.0873421 86.2603488,32.077743 86.2253037,32.0547713 M88.7659849,30.0929887 C88.7912071,30.1207349 88.8053562,30.1598318 88.8090473,30.2109101 L88.9160881,31.7735257 C88.9211614,31.8148795 88.9127245,31.856791 88.8920962,31.8927083 C88.8746523,31.922172 88.8449082,31.9417226 88.811508,31.9456783 C88.7793951,31.9505986 88.7470758,31.9382049 88.7259984,31.9128873 C88.7020421,31.8805384 88.6886907,31.8412462 88.6878574,31.8006413 L88.6128058,30.7134947 L88.3310547,31.6032649 C88.3213908,31.6366265 88.3057441,31.6678489 88.2849164,31.6953319 C88.2520719,31.7353152 88.1947721,31.7427258 88.1532685,31.712358 C88.1281178,31.6902966 88.108142,31.6627074 88.0948267,31.6316417 L87.6949616,30.8370914 L87.7687829,31.9103649 C87.7734125,31.9514218 87.7652284,31.9929263 87.7454061,32.0289169 C87.7287433,32.0588592 87.6989104,32.078619 87.6654331,32.0818869 C87.6336217,32.0868543 87.6015534,32.074706 87.5805387,32.0497265 C87.5561925,32.0175934 87.5427946,31.9781646 87.5423977,31.9374806 L87.4347417,30.3754955 C87.4297036,30.3318452 87.4383201,30.2876826 87.4593488,30.2493764 C87.4772889,30.2171727 87.5094446,30.195983 87.5454736,30.1926228 C87.5977637,30.1863169 87.640826,30.2184772 87.675276,30.2909957 L88.1969461,31.3535491 L88.5623613,30.1844251 C88.5869683,30.1056006 88.623879,30.0633507 88.6730931,30.0570448 C88.7078773,30.0520811 88.7427695,30.0653456 88.7659849,30.0923581 M26.5377511,32.4848374 C26.7581517,33.1772432 26.5991635,33.937631 26.1212912,34.4766257 C25.643419,35.0156205 24.9201551,35.2503299 24.2267465,35.0914324 C23.5333379,34.932535 22.9764243,34.4044675 22.7679461,33.7081927 C22.4495393,32.6447785 23.0267845,31.5170328 24.0613553,31.1812998 C25.0959261,30.8455669 26.2011351,31.4273323 26.5377511,32.4848374 M35.7518728,31.5490337 C34.7368307,31.8857717 33.6528887,31.2967955 33.3311512,30.2329809 C33.1993751,29.7971695 33.2130119,29.3287743 33.3699073,28.9017938 C33.5273926,28.3626347 33.9131086,27.8947328 34.5774998,27.6740244 C35.2031349,27.4659279 35.7494121,27.5895246 36.1671173,27.895994 C36.5540637,28.1406651 36.861037,28.5265895 37.0080643,29.0127786 C37.3298019,30.0765932 36.7675301,31.2122957 35.7518728,31.5490337 M33.9678594,25.7128724 C31.5951215,26.4046357 30.6046865,28.8090963 31.2943,31.2217547 C32.1210979,34.1149268 35.2332786,36.192739 37.5918674,37.6569817 C38.5330882,34.9088465 40.0574969,31.623444 39.2596123,28.7372084 C38.5613864,26.2085205 36.402115,24.9599414 33.9678594,25.7128724 M45.2083743,43.3272964 C44.8795503,43.1030729 44.4358244,43.1929158 44.2148634,43.5284564 C44.1092457,43.6895115 44.0706355,43.8870879 44.1075859,44.0774176 C44.1445364,44.2677473 44.2539972,44.4351184 44.4117201,44.5424539 C44.627032,44.6893827 44.8657207,45.4252876 44.9364661,45.9871482 C45.1025639,47.755338 44.675631,48.9030218 43.667971,49.4005616 C42.3502618,50.050075 40.158386,49.6313596 37.8311712,48.4527766 C38.4721857,47.0282614 39.380187,46.5105425 39.8477216,44.86658 C40.0802585,44.0493282 39.7074612,42.8253424 38.9341837,42.4507687 C37.2928913,41.6543265 33.0653947,43.020827 31.9297778,44.6956886 C31.4210264,45.4454667 31.5360645,46.3037071 32.2349057,46.9910562 C33.5107829,48.2453107 34.5565838,48.2383741 35.9370411,49.0720214 C35.7329878,49.4683027 35.5159112,49.8573925 35.2861838,50.238623 C34.0373744,52.3000397 32.7055161,53.5492494 31.4327148,53.853827 C30.2478838,54.1369644 29.025527,53.5883463 27.8000944,52.2243682 L27.7748721,52.1972526 C27.7514954,52.17329 27.2039878,51.5969257 27.069264,50.4315853 C27.0221394,50.0298975 26.6663389,49.7433737 26.2744553,49.7915308 C26.0861737,49.8136653 25.9142146,49.911663 25.7965018,50.0639114 C25.678789,50.2161599 25.6249918,50.4101529 25.6469747,50.6031072 C25.8309126,52.1991444 26.5961929,53.0611685 26.7555237,53.2244927 C28.3531385,54.9977272 30.0368781,55.6882293 31.7593738,55.277081 C31.8276585,55.2606856 31.8959431,55.2430289 31.9642278,55.2234804 C33.5649184,54.7587315 35.0917879,53.3405223 36.5048495,51.0060577 C36.7398471,50.6182415 36.9705385,50.2052015 37.1956933,49.7700906 C39.6176454,50.9884011 41.9522422,51.4569335 43.6525916,50.9631773 C43.8723077,50.900062 44.0863504,50.8177842 44.2923757,50.717245 C45.3960033,50.1717799 46.6509645,48.8828427 46.3618313,45.8358053 L46.3593706,45.8181486 C46.3224599,45.5078956 46.0923837,43.9301457 45.2089895,43.3272964" id="Shape"></path>
                <path d="M15.9739561,28.8892466 C15.9696803,28.8923189 15.2867649,29.5669945 16.5377584,33.8221208 C16.6538174,34.2153743 16.7820931,34.6055556 16.9213638,34.9908212 C17.3947622,34.1754345 17.6452053,33.3582045 17.6702496,32.5422034 C17.7386633,30.3412124 16.1113944,28.9199695 16.0949018,28.9070659 C16.056347,28.8923451 16.0151155,28.8860609 15.9739561,28.8886321 L15.9739561,28.8892466 Z M23.4139467,46.8523313 C23.1523865,46.9363299 22.8660928,46.8655786 22.6730018,46.6692227 C22.4897508,46.4824272 18.9224647,42.8282415 16.5340934,37.840066 C15.8126953,38.5700429 14.942253,39.2865017 13.92521,39.988828 C8.82472386,43.5102906 3.7853214,44.3797497 1.38473332,42.1517225 C-0.219934588,40.6622747 -1.23636679,37.3159328 3.03643566,29.8355129 C6.40214566,23.9434687 9.78984579,20.7292354 13.1036347,20.281295 C14.7070809,20.0650056 15.8963799,20.5670183 16.5744086,20.9842358 C17.687353,19.7147641 20.7250437,16.8722783 25.2611168,17.3804357 C25.6573376,17.4310832 25.9398398,17.7921952 25.8956228,18.1915008 C25.8514058,18.5908065 25.4968331,18.8805331 25.099245,18.8422328 C20.2858521,18.3027381 17.4167523,22.2494062 17.2976392,22.4183823 L16.797364,23.1207086 L16.1865273,22.5123945 C16.1468229,22.4749125 15.091908,21.4801039 13.2581764,21.7443211 C11.3132724,22.0257432 8.18029118,23.7837095 4.30453256,30.5685621 C1.38839834,35.6734847 0.685936181,39.5015623 2.37673206,41.0708897 C4.20496619,42.7680246 8.71355159,41.8033244 13.0981371,38.776501 C14.2422342,37.9863072 15.1737601,37.1899687 15.8902715,36.3893291 C15.6025921,35.6857738 15.3506031,34.9679817 15.1352774,34.2387238 C14.0473773,30.5378392 14.0473773,28.4554387 15.1352774,27.6849076 C15.798646,27.2154611 16.5921229,27.4507988 16.9635115,27.7236185 C17.4314124,28.0677153 19.1729077,29.886513 19.134425,32.4936611 C19.1136566,33.9013859 18.5956671,35.2833035 17.5877866,36.6265101 C19.8778133,41.7019388 23.6668331,45.5883899 23.7114241,45.6344743 C23.8906029,45.8163272 23.9627732,46.0788821 23.9019206,46.3274988 C23.8410681,46.5761156 23.6559659,46.7749503 23.4133359,46.8523313 L23.4139467,46.8523313 Z M41.3493327,21.140921 C41.3102768,21.1673082 41.2785358,21.2032548 41.2570964,21.2453807 C41.2583181,21.2453807 40.7439936,23.3572751 42.0530166,25.1226149 C42.5380209,25.7770134 43.2074979,26.3023756 44.0571717,26.696858 C43.9514923,26.2991923 43.8335439,25.9049288 43.7034972,25.5146395 C42.2985729,21.2969952 41.3578845,21.1403083 41.3493327,21.140921 L41.3493327,21.140921 Z M45.5311205,40.1983584 C45.4212114,40.2334777 45.3045168,40.2414862 45.1908845,40.2217078 C44.7932904,40.1517075 44.526773,39.7715362 44.5947079,39.371297 C44.6050922,39.3086222 45.4743127,33.9192052 44.4468855,28.4253303 C42.8617643,27.9085705 41.6535294,27.075979 40.8343974,25.9330859 C39.3183008,23.8175047 39.6994629,21.3129712 39.8839356,20.7593439 C40.0305364,20.3200059 40.5411958,19.6656075 41.3499436,19.6656075 C42.6736266,19.6656075 43.8592606,21.3738026 45.0821556,25.0421208 C45.3246577,25.768411 45.5262338,26.5069903 45.6923814,27.2443407 C46.7308037,27.484594 47.9433145,27.59704 49.3244162,27.5804496 C54.6154834,27.5165459 58.8320888,25.6891458 59.3537433,23.2349979 C59.8350826,20.9651875 57.0832635,18.2333043 51.8031914,15.739831 C44.7492496,12.4076216 41.1947911,12.8045619 39.4569608,13.7207198 C37.844352,14.5723595 37.5505395,16.0187952 37.5480962,16.0335423 L37.3984412,16.8913266 L36.5884718,16.6006876 C36.3966691,16.5324827 31.8135616,14.9613119 28.2065711,18.1995091 C28.0624022,18.3289326 27.8727751,18.3949981 27.6799128,18.3829954 C27.4870505,18.3709927 27.306965,18.2819181 27.1797547,18.1356054 C26.9135395,17.8298333 26.941314,17.3655496 27.24206,17.0940979 C30.6431986,14.0433106 34.7333609,14.6098415 36.3618514,15.0049384 C36.6752106,14.2682025 37.3575152,13.1658636 38.7856513,12.4119228 C41.7341598,10.8548846 46.3227648,11.5234156 52.4170822,14.4021545 C60.1539394,18.0563402 61.2332878,21.3910074 60.7757711,23.5452995 C60.0922449,26.7675208 55.4963098,28.9820298 49.3409088,29.0557649 C48.1131271,29.0705119 46.9977394,28.9881744 45.9959672,28.8087525 C46.8926755,34.2878804 46.0729327,39.3577789 46.0295632,39.6170805 C45.9846871,39.8894225 45.7923396,40.1137358 45.5311205,40.1983584 L45.5311205,40.1983584 Z M46.5817596,42.6623377 C46.5567705,42.6298534 46.5436179,42.5897277 46.5444986,42.5486628 L46.512735,41.5077698 L46.2598487,41.5212879 C46.1822724,41.5249747 46.142568,41.4831915 46.1401247,41.3959383 C46.1376813,41.3092997 46.1743315,41.2638297 46.251297,41.2595285 L47.0020152,41.2202032 C47.0789806,41.215902 47.1192959,41.2570707 47.1217392,41.3437094 C47.1241825,41.431577 47.0875323,41.4776614 47.0099561,41.4819626 L46.7564589,41.4948662 L46.7882224,42.5363736 C46.7914819,42.5774742 46.7811763,42.618509 46.7589022,42.6531208 C46.7390484,42.6821934 46.7066006,42.6999972 46.6715526,42.7010486 C46.6371503,42.7035662 46.6036729,42.6891336 46.5817596,42.6623377 L46.5817596,42.6623377 Z M48.5003975,40.7648893 C48.5307047,40.7933022 48.5477682,40.8332045 48.547432,40.8748774 L48.5938556,42.0140838 C48.5975769,42.0525668 48.5851802,42.0908682 48.5596487,42.1197707 C48.5331144,42.147002 48.4967669,42.162292 48.4588607,42.1621683 C48.4218099,42.1650933 48.3851797,42.1526629 48.3574618,42.1277586 C48.3291983,42.1012847 48.3134346,42.0639867 48.3140924,42.025144 L48.285383,41.3166732 L48.0166149,41.8635414 C48.0032539,41.8938945 47.9832007,41.9207906 47.9579746,41.9421921 C47.9351035,41.9596726 47.9072857,41.9693589 47.8785658,41.9698427 C47.8499871,41.9715208 47.8215965,41.9642201 47.7973245,41.9489512 C47.7700829,41.9296977 47.7475288,41.904489 47.7313542,41.8752161 L47.4198275,41.3609142 L47.447926,42.0589393 C47.4513215,42.0969063 47.43919,42.1346259 47.41433,42.1633972 C47.388084,42.1912002 47.3516571,42.2069678 47.3135419,42.2070238 C47.2762854,42.2101207 47.2394009,42.1976789 47.2115322,42.1726141 C47.1838088,42.1458132 47.1683338,42.1086753 47.1687736,42.0699995 L47.1217392,40.9307931 C47.118538,40.8895991 47.1319694,40.8488448 47.1590002,40.8177327 C47.1868688,40.7874357 47.2260847,40.7702745 47.2671183,40.7704194 C47.3324778,40.7673471 47.3831773,40.7999134 47.4204383,40.8668894 L47.8663491,41.6226736 L48.2475112,40.8343231 C48.2804963,40.7642748 48.3287524,40.7286362 48.3898361,40.7261784 C48.4306798,40.7225923 48.4711093,40.7366701 48.5010084,40.7648893 L48.5003975,40.7648893 Z M53.7810805,4.83073177 L56.0955406,4.97328618 C56.7253132,5.01199707 57.1950466,4.93334636 57.507795,4.73733405 C57.8211542,4.54070727 57.9903559,4.22241768 58.0184544,3.78185081 C58.0459421,3.32100681 57.9182772,2.97383766 57.6324056,2.74034337 C57.3453124,2.50684907 56.8890174,2.37105371 56.258634,2.33172835 L53.9447847,2.18917394 L53.7810805,4.83073177 Z M57.5255092,9.44900314 C57.8321492,9.24623177 58.001351,8.89967708 58.031282,8.40688123 C58.0618238,7.91408538 57.937824,7.5435668 57.6580608,7.29471104 C57.3782976,7.04646973 56.91284,6.90145749 56.2629098,6.86151767 L53.6650215,6.70114396 L53.4897114,9.5313406 L56.0875997,9.69109985 C56.7375299,9.73165412 57.2176475,9.65116004 57.5248984,9.44900314 L57.5255092,9.44900314 Z M59.8943338,7.03110827 C60.2168556,7.51898845 60.357348,8.10395311 60.3152003,8.78477331 C60.2577816,9.71752157 59.8680678,10.4358238 59.1466697,10.9378365 C58.4258825,11.4404637 57.4607605,11.6542953 56.254969,11.5799458 L52.1305998,11.3249455 C51.763487,11.3028249 51.4861671,11.1854633 51.2986403,10.9740896 C51.1117243,10.7627158 51.0298722,10.4733057 51.0518623,10.1064739 L51.5967286,1.31787154 C51.6193295,0.951039718 51.7359993,0.673918858 51.9479597,0.487123422 C52.1605308,0.300942445 52.4500674,0.218604983 52.8177911,0.241339954 L56.7839535,0.486508963 C57.9384348,0.557786169 58.8375864,0.871160091 59.4826299,1.42663073 C60.1282842,1.98148691 60.4233183,2.70470476 60.368343,3.59566984 C60.3323037,4.17264653 60.1459985,4.66912914 59.8100383,5.08388874 C59.4728565,5.50049172 59.0257241,5.79113067 58.4674194,5.95642005 C59.0959703,6.18376976 59.571812,6.54261362 59.8943338,7.03110827 L59.8943338,7.03110827 Z M68.2713478,8.2348328 C68.3183822,7.50547036 68.2011016,6.9518431 67.9201167,6.57333656 C67.6391318,6.19605893 67.215822,5.98960082 66.6495764,5.95642005 C65.4761592,5.88637176 64.8427216,6.57579439 64.7498744,8.0253024 C64.6570272,9.47419594 65.1970069,10.2342813 66.3704241,10.3037151 C67.5438413,10.3737634 68.1785006,9.68434081 68.2713478,8.2348328 L68.2713478,8.2348328 Z M64.0956684,11.4607408 C63.4860534,11.0994391 63.0309801,10.6127879 62.7273942,10.0014015 C62.4231976,9.3900151 62.2979761,8.68400209 62.3486755,7.88213352 C62.4005966,7.08026496 62.6156111,6.39452908 62.9955515,5.82369698 C63.3742703,5.25347933 63.8885947,4.82765947 64.5391358,4.54562294 C65.1896768,4.26481533 65.9312325,4.1492971 66.7625812,4.19906825 C67.5951516,4.24822495 68.3159388,4.45099631 68.924943,4.80738234 C69.5333363,5.16376837 69.9902421,5.64734734 70.2944388,6.25873372 C70.5974138,6.87012009 70.7226353,7.57613311 70.671325,8.37861613 C70.6206256,9.17925578 70.4050002,9.86560611 70.0256707,10.4370527 C69.6463411,11.0072703 69.130795,11.435548 68.4814756,11.7218858 C67.8303237,12.007609 67.0893788,12.126814 66.2574193,12.0770429 C65.4248489,12.0272717 64.7046725,11.8214281 64.0950575,11.4607408 L64.0956684,11.4607408 Z M78.5779948,9.22288234 C78.62564,8.49290544 78.5083594,7.93866372 78.2273745,7.56077164 C77.9457788,7.18349402 77.5236907,6.9770359 76.9568343,6.94385513 C75.7840279,6.87380685 75.1505903,7.56322947 75.0571322,9.01273748 C74.9648959,10.461631 75.5048755,11.2217164 76.6776819,11.2911502 C77.85171,11.3611985 78.4857584,10.6717759 78.5786056,9.22288234 L78.5779948,9.22288234 Z M74.403537,12.4481759 C73.793922,12.0868742 73.3382379,11.6002229 73.0352629,10.9888366 C72.7310662,10.3780646 72.6058447,9.67143717 72.6565442,8.86956861 C72.7084653,8.0683145 72.9234798,7.38257863 73.3028094,6.81113206 C73.6815281,6.24091442 74.1970742,5.81509456 74.8470044,5.53305803 C75.4975455,5.25225041 76.2391012,5.13673218 77.0704499,5.18650334 C77.9030203,5.23566003 78.6238075,5.43843139 79.2328117,5.79481742 C79.841205,6.15120345 80.2975,6.63478242 80.6010858,7.24555434 C80.9046716,7.85755518 81.030504,8.56356819 80.9791937,9.36543676 C80.9278834,10.1673053 80.7122581,10.8536557 80.3329285,11.4238733 C79.9535989,11.9953199 79.4386636,12.4235976 78.7893442,12.7093208 C78.1381924,12.9950441 77.3966367,13.1142491 76.5646771,13.064478 C75.7327176,13.0153213 75.0119303,12.8094776 74.403537,12.4481759 L74.403537,12.4481759 Z M90.2107681,12.9698513 C90.192443,13.2709361 90.0659999,13.532081 89.8351036,13.7539006 C89.6029857,13.9769491 89.3427693,14.0789492 89.055676,14.0611299 C88.7801887,14.0439251 88.5309673,13.9155032 88.3122878,13.6752499 L85.0223215,10.1912692 L84.8720557,12.6527906 C84.8488439,13.0282249 84.7175141,13.3053458 84.4768444,13.4847677 C84.2367856,13.6629607 83.9454165,13.7416114 83.6064022,13.7207198 C83.2563928,13.6985993 82.9723537,13.58431 82.7561175,13.376623 C82.5398814,13.1695504 82.4427583,12.8789114 82.466581,12.5028627 L83.030994,3.28291037 C83.053595,2.90809058 83.1855357,2.63035527 83.4255945,2.45154779 C83.6650425,2.27335478 83.9606874,2.19470407 84.3113077,2.21621012 C84.6509329,2.23771618 84.9294744,2.35139103 85.1463214,2.55907806 C85.3625576,2.76676509 85.4596806,3.0580185 85.4370796,3.43345275 L85.084016,9.19338833 L88.464997,6.22248066 C88.7129967,6.00127553 88.9805431,5.89988985 89.2670255,5.91770915 C89.564503,5.93614291 89.8180002,6.0627214 90.0269063,6.2962157 C90.237645,6.53032445 90.3323246,6.79761397 90.3139995,7.0974698 C90.2968961,7.37643404 90.158847,7.63204885 89.8998523,7.86247085 L87.6556384,9.77343731 L89.8937439,12.1434044 C90.1228077,12.3941035 90.2297041,12.6699955 90.211379,12.9698513 L90.2107681,12.9698513 Z M71.8789491,15.5505777 C72.1690965,15.5192403 72.4433622,15.605879 72.6999136,15.8086504 C72.956465,16.0114217 73.1000116,16.2633498 73.1311643,16.5595189 C73.1586519,16.8255795 73.0853515,17.0854955 72.9124847,17.3411103 L69.9297693,21.8518514 L70.3567441,26.0123511 C70.398281,26.4160504 70.3158181,26.7361834 70.1087445,26.9733644 C69.9028925,27.2105455 69.6286268,27.3475698 69.2859475,27.3844373 C68.9224997,27.4237626 68.6164705,27.3487987 68.3660275,27.1613888 C68.1161953,26.97275 67.9702053,26.6778098 67.9292792,26.2741105 L67.5016936,22.1142253 L63.6980137,18.3334611 C63.4847148,18.1529159 63.3508215,17.895023 63.3254033,17.6157733 C63.2954723,17.3189898 63.3803786,17.0437123 63.5795114,16.7905553 C63.779255,16.5386273 64.0242005,16.3966873 64.3149587,16.3653499 C64.6264854,16.3315547 64.9099136,16.4415428 65.1670759,16.6928564 L68.5205691,20.0858972 L71.1123491,16.051976 C71.3120927,15.7521202 71.5674224,15.5837585 71.8789491,15.5505777 L71.8789491,15.5505777 Z M80.0433919,22.5074788 C79.9639831,21.7357187 79.7526337,21.1765613 79.4105651,20.8287777 C79.0697183,20.4809941 78.6170883,20.3372108 78.0545077,20.3986566 C76.886588,20.5240062 76.3808153,21.352911 76.5396328,22.8847564 C76.696007,24.4166019 77.358154,25.1195426 78.5266845,24.9935786 C79.695215,24.8676146 80.2003769,24.0393243 80.0433919,22.5074788 L80.0433919,22.5074788 Z M76.4852684,26.5899422 C75.8373488,26.3260731 75.2812645,25.8757035 74.8867088,25.2952778 C74.4823349,24.7066264 74.2373894,23.9895531 74.1500398,23.1422146 C74.0626902,22.2942616 74.156759,21.5397064 74.4322463,20.8785489 C74.6991415,20.2281873 75.1519646,19.6721679 75.7333284,19.2809563 C76.32584,18.8766425 77.0356322,18.6296301 77.8639267,18.5399192 C78.6916104,18.4508227 79.4368311,18.5417625 80.0971455,18.8108954 C80.7453894,19.0696838 81.301735,19.5178274 81.6944834,20.0975719 C82.0988573,20.6849944 82.3444136,21.4026821 82.4317633,22.2500206 C82.5185021,23.0979736 82.4244332,23.8519144 82.1489459,24.5136864 C81.8805766,25.1654465 81.4285191,25.7239903 80.8484746,26.1204958 C80.2571847,26.5291108 79.5480034,26.7791955 78.7197089,26.8676775 C77.8914144,26.9573885 77.1468045,26.8646052 76.4852684,26.5899422 L76.4852684,26.5899422 Z M91.718313,17.2427969 C91.9602043,17.4191466 92.1013076,17.6802915 92.1385687,18.0262317 L92.7634546,23.7941553 C92.7982722,24.1192039 92.7109226,24.392638 92.5007948,24.615072 C92.2894453,24.838735 92.0011304,24.9683858 91.6346284,25.0058678 C91.2888949,25.0415064 91.0036341,24.9751448 90.7782354,24.8073976 C90.5522258,24.6402649 90.4233393,24.3981681 90.3891325,24.0847942 L90.3726399,23.9268783 C90.1776939,24.339649 89.8727908,24.6899632 89.4918134,24.9388918 C89.1100405,25.1889764 88.6653514,25.3413622 88.158357,25.3929767 C87.1547523,25.4955913 86.3783789,25.3026513 85.8298476,24.8123133 C85.2794838,24.3225897 84.9465778,23.5342392 84.8286863,22.4435751 L84.4353075,18.8133533 C84.3980465,18.4667986 84.4780661,18.1835331 84.6778097,17.9617136 C84.8775533,17.7405084 85.166479,17.6102432 85.5445869,17.5715323 C85.9214731,17.5328214 86.228724,17.6022552 86.4663394,17.7792193 C86.703344,17.9561834 86.8413931,18.2173284 86.8786542,18.5632686 L87.2775305,22.2414182 C87.3270083,22.7022622 87.4632248,23.032841 87.6867911,23.23254 C87.9103573,23.4316246 88.2267707,23.5102754 88.6366421,23.4684922 C89.111873,23.4199499 89.4808183,23.2239376 89.7434781,22.8786118 C90.0061379,22.534515 90.1093693,22.1050084 90.0537831,21.5919354 L89.695222,18.2757019 C89.6573501,17.9297617 89.7355372,17.6464963 89.9303941,17.4252911 C90.1240293,17.204086 90.4099009,17.0750497 90.787398,17.0357243 C91.164895,16.9976279 91.4758109,17.0664473 91.718313,17.2427969 L91.718313,17.2427969 Z M99.6457512,16.3930006 C99.841219,16.5398562 99.9560562,16.7770372 99.9896523,17.107616 C100.025081,17.4590864 99.9694947,17.7294482 99.8235047,17.918087 C99.6762931,18.1061113 99.3946974,18.244979 98.9793284,18.3328466 L98.5230334,18.4323889 C97.9665612,18.5577385 97.5780691,18.7943051 97.3600004,19.1414742 C97.1400992,19.4886434 97.0570255,19.9126198 97.1077249,20.4140181 L97.4161974,23.4684922 C97.4540693,23.8414686 97.3722172,24.1364087 97.1718627,24.3520837 C96.9702866,24.5677587 96.7064052,24.6937228 96.3783859,24.7299758 C96.0405932,24.7668433 95.7516675,24.7017107 95.5122195,24.533349 C95.2721607,24.3662163 95.1335008,24.0958545 95.0962398,23.7222636 L94.5031174,17.8529544 C94.4676888,17.501484 94.5519843,17.2176041 94.7584471,17.0007002 C94.9636882,16.7844107 95.226348,16.6590612 95.543983,16.624037 C95.8512339,16.5902418 96.1169478,16.6559889 96.340514,16.8194349 C96.5640803,16.9841098 96.692356,17.2311222 96.7265628,17.561701 L96.7693214,17.993051 C96.9079813,17.5150021 97.1517051,17.1328088 97.5011037,16.8458566 C97.8405082,16.5638222 98.2466095,16.3748072 98.6800185,16.297145 L98.8938113,16.2572052 C99.1992296,16.2019039 99.4496727,16.2473739 99.6451404,16.3923861 L99.6457512,16.3930006 Z M64.669244,35.5862316 C65.9122966,35.4547375 66.4785422,34.8488812 66.3649266,33.7711207 C66.2507001,32.6816855 65.5714497,32.2030222 64.3277863,32.3339019 L61.9681243,32.5833721 L62.3083603,35.8357018 L64.6686331,35.5862316 L64.669244,35.5862316 Z M60.7721061,41.9563247 C60.5253281,41.7566256 60.3823923,41.4635288 60.3420771,41.0794921 L59.403832,32.1096245 C59.3647384,31.7360336 59.4343738,31.4367922 59.6170139,31.2125148 C59.7972108,30.9882374 60.0733089,30.8561288 60.4453085,30.8168034 L64.4475103,30.3940558 C65.6704053,30.2650195 66.6544631,30.4745499 67.4002947,31.0214181 C68.1449046,31.5695153 68.5755444,32.39842 68.6922142,33.5087468 C68.8082732,34.6196881 68.5578302,35.521099 67.9433285,36.2111361 C67.328216,36.9024021 66.408296,37.312246 65.1860118,37.4412823 L62.507493,37.7245478 L62.8306256,40.8165038 C62.8709408,41.2005405 62.7909212,41.5169867 62.5923993,41.7646135 C62.3914341,42.0128549 62.1006758,42.1566382 61.7176812,42.1971925 C61.3346866,42.2377467 61.0201058,42.1578671 60.7733278,41.9563247 L60.7721061,41.9563247 Z M72.7255687,34.4894229 C72.4897858,34.800339 72.3743376,35.2255444 72.3792243,35.7644246 L75.3289546,35.4516652 C75.2409941,34.9109415 75.0626298,34.5133868 74.7950833,34.2614587 C74.5263152,34.0095307 74.1732516,33.9069161 73.7352817,33.9542294 C73.2973118,34.0003138 72.9607408,34.1791213 72.7255687,34.4888084 L72.7255687,34.4894229 Z M77.2927944,37.7687888 C77.4369519,37.9193312 77.522469,38.1233315 77.5493458,38.3801752 C77.5676709,38.5552959 77.5334641,38.7224287 77.4473361,38.8821879 C77.3605973,39.0419472 77.2317108,39.1826582 77.058844,39.304321 C76.6965341,39.5442689 76.3071396,39.7400175 75.8988652,39.8874423 C75.4529544,40.0545751 75.0363638,40.1578041 74.6490934,40.1995873 C73.8342372,40.2856115 73.1067308,40.2020452 72.4677956,39.9476593 C71.8451634,39.7066384 71.3087337,39.283255 70.9278764,38.73226 C70.5399951,38.1761749 70.3042122,37.4971981 70.2205276,36.6947151 C70.1398971,35.9247983 70.2266359,35.2243155 70.480744,34.5944953 C70.7204414,33.9836458 71.1251967,33.452407 71.6492745,33.0608065 C72.174594,32.6675529 72.7933716,32.4322153 73.5068288,32.3566368 C74.1891333,32.2841307 74.8042459,32.3726128 75.349723,32.6208541 C75.895811,32.8703243 76.3411109,33.2598911 76.6844011,33.78894 C77.0283022,34.3186034 77.23843,34.9582549 77.3166171,35.7085089 C77.3410505,35.9346297 77.305622,36.1122082 77.2103315,36.2412446 C77.1162626,36.3715098 76.9721052,36.4464738 76.77847,36.4667509 L72.50017,36.9208358 C72.634554,37.5199331 72.8636178,37.9396083 73.1873612,38.1804761 C73.5111047,38.4219584 73.9484637,38.5122838 74.4982167,38.4539102 C74.7674928,38.4296743 75.0316502,38.3650556 75.2819201,38.2621991 C75.5085405,38.1657291 75.7577619,38.0403795 76.0295842,37.8867649 C76.1670225,37.8093431 76.2983523,37.7411382 76.426628,37.6809212 C76.5530712,37.6213187 76.6679085,37.5844512 76.7699182,37.5740054 C76.9653431,37.5494091 77.1604329,37.6220845 77.2927944,37.7687888 L77.2927944,37.7687888 Z M85.1206662,37.6397525 C85.2813163,37.7595719 85.3753851,37.9494397 85.4016511,38.2093557 C85.4340255,38.5104404 85.3387349,38.7519227 85.1145579,38.933188 C84.8922133,39.1144533 84.5550315,39.2127667 84.104234,39.2281282 L83.6644316,39.2428752 C81.827035,39.289574 80.8161003,38.4330186 80.6310168,36.6768958 L80.3054408,33.5892409 L79.6811658,33.6556025 C79.3378756,33.6912411 79.0703291,33.6433133 78.8766939,33.5112047 C78.6836695,33.3790961 78.5724972,33.1732524 78.5437879,32.8924448 C78.5132461,32.6011914 78.5773839,32.3713838 78.7386448,32.2017933 C78.9005165,32.0322027 79.1527921,31.9295881 79.4954714,31.8939495 L80.1203573,31.8282024 L79.9920816,30.6115742 C79.9560423,30.2687063 80.0348402,29.9872842 80.2272538,29.767308 C80.4190565,29.5473318 80.697598,29.4182955 81.0622675,29.380199 C81.426937,29.3414881 81.7231927,29.4103075 81.9522565,29.5860427 C82.1819311,29.7617779 82.3138718,30.0210794 82.3493003,30.3639474 L82.477576,31.5805755 L83.5709736,31.4656718 C84.2789333,31.3919367 84.6643713,31.6500094 84.7266766,32.242962 C84.7559968,32.5231551 84.6900264,32.748047 84.5287655,32.9176376 C84.3681155,33.0872282 84.1103424,33.1898428 83.756668,33.2267103 L82.6632704,33.3422285 L83.0071714,36.6007029 C83.0389349,36.9122334 83.1372796,37.1414265 83.300373,37.2870532 C83.4628555,37.4326799 83.6864218,37.5021138 83.9692391,37.4922824 L84.4096524,37.4775354 C84.7242333,37.4658607 84.9612379,37.5199331 85.1206662,37.6397525 L85.1206662,37.6397525 Z" id="Shape"></path>
            </g>
        </g>
    </g>
</svg>