<?xml version="1.0" encoding="UTF-8"?>
<svg width="110px" height="70px" viewBox="0 0 110 70" version="1.1" xmlns="http://www.w3.org/2000/svg" xmlns:xlink="http://www.w3.org/1999/xlink">
    <!-- Generator: Sketch 55.2 (78181) - https://sketchapp.com -->
    <title>Group 5</title>
    <desc>Created with Sketch.</desc>
    <g id="Page-1" stroke="none" stroke-width="1" fill="none" fill-rule="evenodd">
        <g id="Desktop" transform="translate(-1772.000000, -305.000000)">
            <g id="Group-5" transform="translate(1771.990510, 305.000000)">
                <path d="M0,61.96 C0,57.76 2.92,54.8 7.06,54.8 C10.4,54.8 12.92,56.68 13.72,59.72 L9.96,59.72 C9.38,58.52 8.32,57.92 7.02,57.92 C4.92,57.92 3.48,59.48 3.48,61.96 C3.48,64.44 4.92,66 7.02,66 C8.32,66 9.38,65.4 9.96,64.2 L13.72,64.2 C12.92,67.24 10.4,69.1 7.06,69.1 C2.92,69.1 0,66.16 0,61.96 Z M15.3258979,63.4 C15.3258979,59.88 17.5058979,57.68 20.2458979,57.68 C21.9058979,57.68 23.0858979,58.44 23.6858979,59.42 L23.6858979,57.84 L27.1058979,57.84 L27.1058979,69 L23.6858979,69 L23.6858979,67.42 C23.0658979,68.4 21.8858979,69.16 20.2258979,69.16 C17.5058979,69.16 15.3258979,66.92 15.3258979,63.4 Z M23.6858979,63.42 C23.6858979,61.64 22.5458979,60.66 21.2458979,60.66 C19.9658979,60.66 18.8058979,61.62 18.8058979,63.4 C18.8058979,65.18 19.9658979,66.18 21.2458979,66.18 C22.5458979,66.18 23.6858979,65.2 23.6858979,63.42 Z M33.1917958,63.82 L33.1917958,69 L29.7717958,69 L29.7717958,57.84 L33.1917958,57.84 L33.1917958,59.7 C33.9717958,58.52 35.1917958,57.72 36.6917958,57.72 L36.6917958,61.34 L35.7517958,61.34 C34.1317958,61.34 33.1917958,61.9 33.1917958,63.82 Z M43.4376938,60.42 C42.3176937,60.42 41.4576938,61.1 41.2576938,62.34 L45.5376938,62.34 C45.5376938,61.12 44.5776937,60.42 43.4376938,60.42 Z M48.7776938,65.3 C48.2376938,67.48 46.2576938,69.16 43.4776938,69.16 C40.1976938,69.16 37.8376937,66.96 37.8376937,63.42 C37.8376937,59.88 40.1576938,57.68 43.4776938,57.68 C46.7376938,57.68 49.0376938,59.84 49.0376938,63.24 C49.0376938,63.56 49.0176938,63.9 48.9776938,64.24 L41.2376938,64.24 C41.3576937,65.7 42.2576938,66.38 43.3576937,66.38 C44.3176937,66.38 44.8576937,65.9 45.1376937,65.3 L48.7776938,65.3 Z M62.0094896,54.8 C65.3694896,54.8 67.8094896,56.52 68.5494896,59.4 L64.7694896,59.4 C64.2494896,58.46 63.2894896,57.96 62.0094896,57.96 C59.8094896,57.96 58.3494896,59.52 58.3494896,61.96 C58.3494896,64.56 59.8294896,66.08 62.2894896,66.08 C63.9894896,66.08 65.1694896,65.18 65.6894896,63.6 L61.3494896,63.6 L61.3494896,61.08 L68.7894896,61.08 L68.7894896,64.26 C68.0694896,66.68 65.7294896,69.1 62.0294896,69.1 C57.8294896,69.1 54.8694896,66.16 54.8694896,61.96 C54.8694896,57.76 57.8094896,54.8 62.0094896,54.8 Z M70.8753875,69 L70.8753875,57.84 L74.2953875,57.84 L74.2953875,69 L70.8753875,69 Z M72.5953875,56.68 C71.3753875,56.68 70.5553875,55.86 70.5553875,54.84 C70.5553875,53.8 71.3753875,52.98 72.5953875,52.98 C73.7953875,52.98 74.6153875,53.8 74.6153875,54.84 C74.6153875,55.86 73.7953875,56.68 72.5953875,56.68 Z M75.9012854,57.84 L79.5612854,57.84 L81.9812854,65.8 L84.4012854,57.84 L88.0412854,57.84 L84.0812854,69 L79.8612854,69 L75.9012854,57.84 Z M94.5871833,60.42 C93.4671833,60.42 92.6071833,61.1 92.4071833,62.34 L96.6871833,62.34 C96.6871833,61.12 95.7271833,60.42 94.5871833,60.42 Z M99.9271833,65.3 C99.3871833,67.48 97.4071833,69.16 94.6271833,69.16 C91.3471833,69.16 88.9871833,66.96 88.9871833,63.42 C88.9871833,59.88 91.3071833,57.68 94.6271833,57.68 C97.8871833,57.68 100.187183,59.84 100.187183,63.24 C100.187183,63.56 100.167183,63.9 100.127183,64.24 L92.3871833,64.24 C92.5071833,65.7 93.4071833,66.38 94.5071833,66.38 C95.4671833,66.38 96.0071833,65.9 96.2871833,65.3 L99.9271833,65.3 Z M105.593081,63.82 L105.593081,69 L102.173081,69 L102.173081,57.84 L105.593081,57.84 L105.593081,59.7 C106.373081,58.52 107.593081,57.72 109.093081,57.72 L109.093081,61.34 L108.153081,61.34 C106.533081,61.34 105.593081,61.9 105.593081,63.82 Z" id="CareGiver" fill="#000000" fill-rule="nonzero"></path>
                <g id="Group-3" transform="translate(31.009490, 0.000000)" fill="#266FA9">
                    <rect id="Rectangle" x="17.1573964" y="0" width="13.6852071" height="47.2"></rect>
                    <polygon id="Rectangle-Copy" transform="translate(24.000000, 23.600000) rotate(-89.000000) translate(-24.000000, -23.600000) " points="17.1573964 3.91054376e-13 30.8426036 3.90798505e-13 30.8426036 47.2 17.1573964 47.2"></polygon>
                </g>
            </g>
        </g>
    </g>
</svg>