<?xml version="1.0" encoding="UTF-8"?>
<svg width="64px" height="70px" viewBox="0 0 64 70" version="1.1" xmlns="http://www.w3.org/2000/svg" xmlns:xlink="http://www.w3.org/1999/xlink">
    <!-- Generator: Sketch 55.2 (78181) - https://sketchapp.com -->
    <title>collabr</title>
    <desc>Created with Sketch.</desc>
    <defs>
        <path d="M38.5,3.75277675 L57.5,14.7224319 C61.522214,17.0446582 64,21.3363094 64,25.9807621 L64,47.9200723 C64,52.564525 61.522214,56.8561763 57.5,59.1784026 L38.5,70.1480577 C34.477786,72.470284 29.522214,72.470284 25.5,70.1480577 L6.5,59.1784026 C2.477786,56.8561763 5.68781409e-16,52.564525 0,47.9200723 L0,25.9807621 C-5.68781409e-16,21.3363094 2.477786,17.0446582 6.5,14.7224319 L25.5,3.75277675 C29.522214,1.43055042 34.477786,1.43055042 38.5,3.75277675 Z" id="path-1"></path>
    </defs>
    <g id="Page-1" stroke="none" stroke-width="1" fill="none" fill-rule="evenodd">
        <g id="Desktop" transform="translate(-705.000000, -186.000000)">
            <g id="collabr" transform="translate(705.000000, 184.000000)">
                <mask id="mask-2" fill="white">
                    <use xlink:href="#path-1"></use>
                </mask>
                <use id="Mask" fill="#2B2C31" fill-rule="nonzero" xlink:href="#path-1"></use>
                <g id="Group" mask="url(#mask-2)" fill="#FFFFFF">
                    <g transform="translate(7.200000, 18.000000)">
                        <path d="M38.290952,3.84775648 C37.3482651,3.86212564 36.5131483,3.94196209 35.6883819,4.11761629 C34.4293399,4.38572377 33.2578446,4.85887798 32.2164193,5.62490601 C31.3912791,6.23179854 30.6682651,6.95072377 29.9871436,7.71226583 C28.8339427,9.00165835 27.8473773,10.4131069 26.9402978,11.8827098 C26.8974707,11.9521256 26.9071904,11.9973593 26.9455315,12.0596724 C27.2452511,12.5468219 27.5519801,13.0293453 27.8740362,13.5020789 C28.8322605,14.9085275 29.8952511,16.2254434 31.1393399,17.3936677 C32.2156483,18.4042985 33.4380315,19.1543686 34.8581249,19.5740415 C35.9670268,19.9017752 37.1016997,20.0415883 38.2550408,20.0558172 C39.1077978,20.0663312 39.9482885,19.982149 40.7730081,19.7573126 C42.1722371,19.375864 43.3552044,18.6375929 44.3498773,17.590163 C45.1445034,16.7534107 45.7304847,15.7890649 46.0783352,14.6875696 C46.55691,13.1720789 46.6164661,11.6308873 46.316209,10.0750228 C45.7887791,7.3418219 43.6684754,5.00735929 41.0025876,4.209649 C40.08441,3.93488265 39.1458119,3.82885461 38.290952,3.84775648 M24.9508352,8.85976583 C25.2882184,8.31677517 25.6324707,7.78908826 25.9929614,7.2722191 C26.9842464,5.85102751 28.0776343,4.5160976 29.3438259,3.3289948 C30.0690829,2.64908826 30.8285455,2.01273312 31.700438,1.52252284 C32.7855548,0.912429379 33.9477511,0.520536855 35.1659754,0.284111622 C36.2935689,0.0652564813 37.4320034,-0.00691641586 38.5795969,0.000513490686 C39.467681,0.00626115424 40.3422137,0.100910687 41.2042464,0.307335921 C43.2232885,0.790817229 44.9765128,1.76345742 46.4542932,3.21780321 C48.1811857,4.91726583 49.263639,6.971892 49.7425642,9.34301349 C49.9890362,10.5632939 50.0363726,11.7970322 49.9414894,13.0376864 C49.8257885,14.549906 49.4790595,16.0044387 48.8110922,17.3683172 C47.2513492,20.5530369 44.7746203,22.6449527 41.3353446,23.5639714 C40.4178913,23.809135 39.4781483,23.9055602 38.5285922,23.9109808 C37.2750175,23.9181069 36.0343399,23.8075462 34.8115595,23.5217985 C33.0698072,23.1148359 31.523896,22.3051864 30.1042932,21.23542 C29.1711156,20.5321724 28.3885455,19.6790883 27.6538025,18.7775228 C26.7258352,17.6388079 25.8800408,16.441121 25.0798773,15.2103266 C25.0069567,15.098177 25.0073072,15.0979901 24.9325642,15.2174294 C24.066653,16.6011443 23.1381249,17.9399294 22.0828212,19.1876163 C22.0104147,19.2732238 21.9523072,19.4111443 21.8554614,19.4249761 C21.7607184,19.4385275 21.6494567,19.3516116 21.5483352,19.3028266 C20.5679147,18.8297425 19.722167,18.1798359 19.0022605,17.3640649 C18.9527978,17.3080369 18.941396,17.2767985 19.0024707,17.2170789 C20.4670268,15.7857705 21.6753446,14.1525696 22.767424,12.428177 C22.8631249,12.2770322 22.9544333,12.1230369 23.0527745,11.9736443 C23.0855548,11.9237845 23.0833352,11.8887144 23.0528913,11.838878 C22.0253446,10.1575696 20.8875876,8.55974246 19.5050408,7.14698545 C19.3989193,7.03852751 19.2921904,6.93058358 19.1826109,6.82570041 C19.1391763,6.78413499 19.1240128,6.75663499 19.1735221,6.70397143 C19.957681,5.86992938 20.8756483,5.22967237 21.9308352,4.78478919 C22.0068633,4.75275648 22.0345034,4.78873779 22.0737558,4.8354434 C22.7881483,5.68553686 23.4457184,6.57817704 24.0629147,7.50058358 C24.3612324,7.94642471 24.6500408,8.39864433 24.9508352,8.85976583" id="Fill-1"></path>
                        <path d="M19.8436413,2.6650205 C19.7176366,2.73913265 19.6011647,2.80691302 19.4853936,2.87588499 C18.5316553,3.44424947 17.6888983,4.14707657 16.9512114,4.97581489 C16.8978936,5.03569807 16.8641319,5.0471233 16.7892955,5.00756723 C15.7426833,4.45424947 14.6238516,4.13135228 13.4542721,3.97301115 C12.5335478,3.84833826 11.6093422,3.80441302 10.683174,3.88544106 C8.85530017,4.0453476 7.26401512,4.73861863 5.93969269,6.02044106 C4.81787026,7.10621209 4.06018335,8.40055788 3.7117955,9.92707657 C3.48910858,10.9028009 3.44163195,11.8896934 3.53081419,12.8851841 C3.62368802,13.9221934 3.86408522,14.9217728 4.35312727,15.8438523 C5.50983288,18.0247401 7.27812727,19.4187588 9.70920204,19.9374971 C10.6458376,20.1373336 11.5931273,20.1484084 12.543945,20.0835719 C13.5105805,20.0176607 14.4575432,19.8500672 15.3769824,19.5388523 C15.7973562,19.3965626 16.2058843,19.2260252 16.5999263,19.0217962 C16.6538516,18.9938523 16.6885011,18.9814925 16.7362114,19.0387121 C17.5469824,20.0109551 18.5043656,20.8097869 19.5965619,21.4483383 C19.61266,21.4577541 19.626445,21.4710953 19.64766,21.4875439 C19.2684544,21.7654177 18.8772394,22.0111887 18.4792955,22.2473569 C16.9496927,23.1551841 15.2938749,23.6740158 13.5298095,23.8645766 C12.4240619,23.9840392 11.3173095,24.0220766 10.2097628,23.901913 C8.42658522,23.7084551 6.77966933,23.1245999 5.28562727,22.1312822 C2.62198241,20.3603476 0.986258114,17.8843897 0.287029142,14.7770298 C0.0907908246,13.9049504 0.0110945629,13.0190859 0.000977740474,12.1250672 C-0.0145129137,10.7536186 0.153220731,9.40931957 0.564365591,8.09871209 C1.11156185,6.35434293 2.00894503,4.81275414 3.27588428,3.49481022 C4.8360712,1.87181957 6.70693568,0.781539192 8.90861793,0.27840835 C9.67688896,0.102824238 10.4552301,0.0082447991 11.2449964,0.00280087386 C12.08266,-0.00294678969 12.9177301,0.0190391916 13.7502534,0.12319807 C15.5497628,0.348314893 17.2189918,0.933805547 18.7509777,1.90721676 C19.1215385,2.14268405 19.4855338,2.38707657 19.8436413,2.6650205" id="Fill-3"></path>
                    </g>
                </g>
                <path d="M16.7352,51.2672 C16.5085322,51.0314655 16.2705346,50.8524006 16.0212,50.73 C15.7718654,50.6075994 15.4749351,50.5464 15.1304,50.5464 C14.7949317,50.5464 14.5025346,50.6075994 14.2532,50.73 C14.0038654,50.8524006 13.7953342,51.0201323 13.6276,51.2332 C13.4598658,51.4462677 13.3329338,51.6910653 13.2468,51.9676 C13.1606662,52.2441347 13.1176,52.5319985 13.1176,52.8312 C13.1176,53.1304015 13.1674662,53.413732 13.2672,53.6812 C13.3669338,53.948668 13.5074658,54.1821323 13.6888,54.3816 C13.8701342,54.5810677 14.0877321,54.7374661 14.3416,54.8508 C14.5954679,54.9641339 14.8810651,55.0208 15.1984,55.0208 C15.5429351,55.0208 15.8375988,54.9596006 16.0824,54.8372 C16.3272012,54.7147994 16.5538656,54.5357345 16.7624,54.3 L17.6328,55.1704 C17.3154651,55.5240018 16.9460021,55.7778659 16.5244,55.932 C16.1027979,56.0861341 15.656269,56.1632 15.1848,56.1632 C14.6861308,56.1632 14.2305354,56.0816008 13.818,55.9184 C13.4054646,55.7551992 13.0496015,55.5262681 12.7504,55.2316 C12.4511985,54.9369319 12.2200008,54.5833354 12.0568,54.1708 C11.8935992,53.7582646 11.812,53.3026692 11.812,52.804 C11.812,52.3053308 11.8935992,51.8474688 12.0568,51.4304 C12.2200008,51.0133312 12.4489319,50.6552015 12.7436,50.356 C13.0382681,50.0567985 13.3918646,49.8233342 13.8044,49.6556 C14.2169354,49.4878658 14.6770641,49.404 15.1848,49.404 C15.656269,49.404 16.1073312,49.4878658 16.538,49.6556 C16.9686688,49.8233342 17.3426651,50.0794649 17.66,50.424 L16.7352,51.2672 Z M19.6728,52.7768 C19.6728,53.1032016 19.7226662,53.4046653 19.8224,53.6812 C19.9221338,53.9577347 20.0626658,54.1934657 20.244,54.3884 C20.4253342,54.5833343 20.6474654,54.7374661 20.9104,54.8508 C21.1733346,54.9641339 21.4679984,55.0208 21.7944,55.0208 C22.1208016,55.0208 22.4154654,54.9641339 22.6784,54.8508 C22.9413346,54.7374661 23.1634658,54.5833343 23.3448,54.3884 C23.5261342,54.1934657 23.6666662,53.9577347 23.7664,53.6812 C23.8661338,53.4046653 23.916,53.1032016 23.916,52.7768 C23.916,52.4503984 23.8661338,52.1489347 23.7664,51.8724 C23.6666662,51.5958653 23.5261342,51.3601343 23.3448,51.1652 C23.1634658,50.9702657 22.9413346,50.8161339 22.6784,50.7028 C22.4154654,50.5894661 22.1208016,50.5328 21.7944,50.5328 C21.4679984,50.5328 21.1733346,50.5894661 20.9104,50.7028 C20.6474654,50.8161339 20.4253342,50.9702657 20.244,51.1652 C20.0626658,51.3601343 19.9221338,51.5958653 19.8224,51.8724 C19.7226662,52.1489347 19.6728,52.4503984 19.6728,52.7768 Z M18.3672,52.7768 C18.3672,52.305331 18.4555991,51.865602 18.6324,51.4576 C18.8092009,51.049598 19.0517318,50.6914682 19.36,50.3832 C19.6682682,50.0749318 20.0309312,49.8324009 20.448,49.6556 C20.8650688,49.4787991 21.3138643,49.3904 21.7944,49.3904 C22.2749357,49.3904 22.7237312,49.4787991 23.1408,49.6556 C23.5578688,49.8324009 23.9205318,50.0749318 24.2288,50.3832 C24.5370682,50.6914682 24.7795991,51.049598 24.9564,51.4576 C25.1332009,51.865602 25.2216,52.305331 25.2216,52.7768 C25.2216,53.248269 25.1332009,53.6902646 24.9564,54.1028 C24.7795991,54.5153354 24.5370682,54.8734651 24.2288,55.1772 C23.9205318,55.4809349 23.5578688,55.7211991 23.1408,55.898 C22.7237312,56.0748009 22.2749357,56.1632 21.7944,56.1632 C21.3138643,56.1632 20.8650688,56.0748009 20.448,55.898 C20.0309312,55.7211991 19.6682682,55.4809349 19.36,55.1772 C19.0517318,54.8734651 18.8092009,54.5153354 18.6324,54.1028 C18.4555991,53.6902646 18.3672,53.248269 18.3672,52.7768 Z M26.8536,45.7184 L28.0776,45.7184 L28.0776,56 L26.8536,56 L26.8536,45.7184 Z M30.1176,45.7184 L31.3416,45.7184 L31.3416,56 L30.1176,56 L30.1176,45.7184 Z M33.3136,50.3424 C33.6581351,50.0250651 34.0570644,49.7870675 34.5104,49.6284 C34.9637356,49.4697325 35.4170644,49.3904 35.8704,49.3904 C36.341869,49.3904 36.7475983,49.4493327 37.0876,49.5672 C37.4276017,49.6850673 37.7063989,49.8437323 37.924,50.0432 C38.1416011,50.2426677 38.3025328,50.4715987 38.4068,50.73 C38.5110672,50.9884013 38.5632,51.2581319 38.5632,51.5392 L38.5632,54.8304 C38.5632,55.0570678 38.5677333,55.265599 38.5768,55.456 C38.5858667,55.646401 38.5994666,55.8277325 38.6176,56 L37.5296,56 C37.5023999,55.6735984 37.4888,55.3472016 37.4888,55.0208 L37.4616,55.0208 C37.1895986,55.4378688 36.8677352,55.7325325 36.496,55.9048 C36.1242648,56.0770675 35.6936024,56.1632 35.204,56.1632 C34.9047985,56.1632 34.6192014,56.1224004 34.3472,56.0408 C34.0751986,55.9591996 33.837201,55.8368008 33.6332,55.6736 C33.429199,55.5103992 33.2682673,55.3086679 33.1504,55.0684 C33.0325327,54.8281321 32.9736,54.5493349 32.9736,54.232 C32.9736,53.8149312 33.0665324,53.4658681 33.2524,53.1848 C33.4382676,52.9037319 33.6921317,52.6748009 34.014,52.498 C34.3358683,52.3211991 34.7121312,52.1942671 35.1428,52.1172 C35.5734688,52.0401329 36.0335976,52.0016 36.5232,52.0016 L37.4208,52.0016 L37.4208,51.7296 C37.4208,51.5663992 37.389067,51.4032008 37.3256,51.24 C37.262133,51.0767992 37.166934,50.9294673 37.04,50.798 C36.913066,50.6665327 36.754401,50.5622671 36.564,50.4852 C36.3736,50.4081329 36.1469346,50.3696 35.884,50.3696 C35.6482655,50.3696 35.4420009,50.3922664 35.2652,50.4376 C35.0883991,50.4829336 34.9274674,50.5395997 34.7824,50.6076 C34.6373326,50.6756003 34.5058673,50.7549329 34.388,50.8456 C34.2701327,50.9362671 34.1568005,51.0223996 34.048,51.104 L33.3136,50.3424 Z M36.768,52.8992 C36.4778652,52.8992 36.1809349,52.9150665 35.8772,52.9468 C35.5734651,52.9785335 35.2969346,53.0397329 35.0476,53.1304 C34.7982654,53.2210671 34.5942675,53.3479992 34.4356,53.5112 C34.2769325,53.6744008 34.1976,53.8829321 34.1976,54.1368 C34.1976,54.5085352 34.3222654,54.7759992 34.5716,54.9392 C34.8209346,55.1024008 35.1586645,55.184 35.5848,55.184 C35.9202683,55.184 36.2058655,55.1273339 36.4416,55.014 C36.6773345,54.9006661 36.8677326,54.7533342 37.0128,54.572 C37.1578674,54.3906658 37.262133,54.1889344 37.3256,53.9668 C37.389067,53.7446656 37.4208,53.5248011 37.4208,53.3072 L37.4208,52.8992 L36.768,52.8992 Z M40.3448,45.7184 L41.5688,45.7184 L41.5688,50.4784 L41.596,50.4784 C41.8136011,50.1429317 42.126398,49.8777343 42.5344,49.6828 C42.942402,49.4878657 43.3775977,49.3904 43.84,49.3904 C44.3386692,49.3904 44.7897313,49.4765325 45.1932,49.6488 C45.5966687,49.8210675 45.9411986,50.0590651 46.2268,50.3628 C46.5124014,50.6665349 46.7322659,51.0246646 46.8864,51.4372 C47.0405341,51.8497354 47.1176,52.2962643 47.1176,52.7768 C47.1176,53.2573357 47.0405341,53.701598 46.8864,54.1096 C46.7322659,54.517602 46.5124014,54.8757318 46.2268,55.184 C45.9411986,55.4922682 45.5966687,55.7325325 45.1932,55.9048 C44.7897313,56.0770675 44.3386692,56.1632 43.84,56.1632 C43.4047978,56.1632 42.9809354,56.068001 42.5684,55.8776 C42.1558646,55.687199 41.8317345,55.4197351 41.596,55.0752 L41.5688,55.0752 L41.5688,56 L40.3448,56 L40.3448,45.7184 Z M43.6904,55.0208 C44.0168016,55.0208 44.3114654,54.9641339 44.5744,54.8508 C44.8373346,54.7374661 45.0594658,54.5833343 45.2408,54.3884 C45.4221342,54.1934657 45.5626662,53.9577347 45.6624,53.6812 C45.7621338,53.4046653 45.812,53.1032016 45.812,52.7768 C45.812,52.4503984 45.7621338,52.1489347 45.6624,51.8724 C45.5626662,51.5958653 45.4221342,51.3601343 45.2408,51.1652 C45.0594658,50.9702657 44.8373346,50.8161339 44.5744,50.7028 C44.3114654,50.5894661 44.0168016,50.5328 43.6904,50.5328 C43.3639984,50.5328 43.0693346,50.5894661 42.8064,50.7028 C42.5434654,50.8161339 42.3213342,50.9702657 42.14,51.1652 C41.9586658,51.3601343 41.8181338,51.5958653 41.7184,51.8724 C41.6186662,52.1489347 41.5688,52.4503984 41.5688,52.7768 C41.5688,53.1032016 41.6186662,53.4046653 41.7184,53.6812 C41.8181338,53.9577347 41.9586658,54.1934657 42.14,54.3884 C42.3213342,54.5833343 42.5434654,54.7374661 42.8064,54.8508 C43.0693346,54.9641339 43.3639984,55.0208 43.6904,55.0208 Z M48.6544,49.5536 L49.8784,49.5536 L49.8784,50.5464 L49.9056,50.5464 C49.9872004,50.3741325 50.0959993,50.217734 50.232,50.0772 C50.3680007,49.936666 50.5198658,49.8165338 50.6876,49.7168 C50.8553342,49.6170662 51.0389323,49.5377336 51.2384,49.4788 C51.4378677,49.4198664 51.6373323,49.3904 51.8368,49.3904 C52.0362677,49.3904 52.2175992,49.4175997 52.3808,49.472 L52.3264,50.7912 C52.2266662,50.7639999 52.1269338,50.7413334 52.0272,50.7232 C51.9274662,50.7050666 51.8277338,50.696 51.728,50.696 C51.129597,50.696 50.6717349,50.8637317 50.3544,51.1992 C50.0370651,51.5346683 49.8784,52.0559965 49.8784,52.7632 L49.8784,56 L48.6544,56 L48.6544,49.5536 Z" fill="#FFFFFF" fill-rule="nonzero" mask="url(#mask-2)"></path>
            </g>
        </g>
    </g>
</svg>