<?xml version="1.0" encoding="UTF-8"?>
<svg width="126px" height="57px" viewBox="0 0 126 57" version="1.1" xmlns="http://www.w3.org/2000/svg" xmlns:xlink="http://www.w3.org/1999/xlink">
    <!-- Generator: Sketch 55.2 (78181) - https://sketchapp.com -->
    <title>ETL</title>
    <desc>Created with Sketch.</desc>
    <g id="Page-1" stroke="none" stroke-width="1" fill="none" fill-rule="evenodd">
        <g id="Desktop" transform="translate(-2008.000000, -305.000000)" fill="#231750" fill-rule="nonzero">
            <path d="M2042,305.68 L2042,316.08 L2021.68,316.08 L2021.68,328.16 L2039.6,328.16 L2039.6,338.56 L2021.68,338.56 L2021.68,351.6 L2042,351.6 L2042,362 L2008,362 L2008,305.68 L2042,305.68 Z M2049.92,316.24 L2049.92,305.84 L2094.24,305.84 L2094.24,316.24 L2078.88,316.24 L2078.88,362 L2065.2,362 L2065.2,316.24 L2049.92,316.24 Z M2102.4,305.84 L2116.08,305.84 L2116.08,351.6 L2133.12,351.6 L2133.12,362 L2102.4,362 L2102.4,305.84 Z" id="ETL"></path>
        </g>
    </g>
</svg>