<?xml version="1.0" encoding="UTF-8"?>
<svg width="324px" height="38px" viewBox="0 0 324 38" version="1.1" xmlns="http://www.w3.org/2000/svg" xmlns:xlink="http://www.w3.org/1999/xlink">
    <!-- Generator: Sketch 55.2 (78181) - https://sketchapp.com -->
    <title>FoodTruckz</title>
    <desc>Created with Sketch.</desc>
    <g id="Page-1" stroke="none" stroke-width="1" fill="none" fill-rule="evenodd">
        <g id="Desktop" transform="translate(-371.000000, -451.000000)" fill="#FF9F00" fill-rule="nonzero">
            <path d="M371.8,488 L371.8,452.75 L395.7,452.75 L395.7,460.55 L381.6,460.55 L381.6,466.75 L392,466.75 L392,474.2 L381.6,474.2 L381.6,488 L371.8,488 Z M429.357318,473.95 C429.357318,482.9 422.957317,488.35 414.607318,488.35 C406.257317,488.35 399.957317,482.9 399.957317,473.95 C399.957317,465.05 406.307318,459.6 414.657317,459.6 C423.007317,459.6 429.357318,465.05 429.357318,473.95 Z M409.957317,473.95 C409.957317,478 412.057318,479.85 414.607318,479.85 C417.107318,479.85 419.407317,478 419.407317,473.95 C419.407317,469.95 417.157317,468.1 414.657317,468.1 C412.157317,468.1 409.957317,469.95 409.957317,473.95 Z M462.864635,473.95 C462.864635,482.9 456.464635,488.35 448.114635,488.35 C439.764635,488.35 433.464635,482.9 433.464635,473.95 C433.464635,465.05 439.814635,459.6 448.164635,459.6 C456.514635,459.6 462.864635,465.05 462.864635,473.95 Z M443.464635,473.95 C443.464635,478 445.564635,479.85 448.114635,479.85 C450.614635,479.85 452.914635,478 452.914635,473.95 C452.914635,469.95 450.664635,468.1 448.164635,468.1 C445.664635,468.1 443.464635,469.95 443.464635,473.95 Z M466.971952,473.95 C466.971952,465 472.271952,459.6 478.971952,459.6 C482.671952,459.6 485.571953,461.25 487.121953,463.8 L487.121953,451 L496.971952,451 L496.971952,488 L487.121953,488 L487.121953,484.1 C485.671952,486.6 482.871953,488.35 478.921952,488.35 C472.271952,488.35 466.971952,482.9 466.971952,473.95 Z M487.171952,473.95 C487.171952,470.2 484.821953,468.15 482.071953,468.15 C479.271952,468.15 476.971952,470.15 476.971952,473.95 C476.971952,477.7 479.271952,479.8 482.071953,479.8 C484.821953,479.8 487.171952,477.75 487.171952,473.95 Z M513.586587,460.55 L513.586587,452.75 L542.086587,452.75 L542.086587,460.55 L532.686587,460.55 L532.686587,488 L522.886588,488 L522.886588,460.55 L513.586587,460.55 Z M557.243905,475.75 L557.243905,488 L547.443905,488 L547.443905,459.95 L557.243905,459.95 L557.243905,464.9 C559.343905,461.85 562.543905,459.7 566.293905,459.7 L566.293905,470.15 L563.543905,470.15 C559.493905,470.15 557.243905,471.45 557.243905,475.75 Z M600.201222,459.95 L600.201222,488 L590.351222,488 L590.351222,484 C588.751223,486.4 585.801222,488.25 581.851222,488.25 C575.351222,488.25 571.301222,483.65 571.301222,476.25 L571.301222,459.95 L581.051222,459.95 L581.051222,475 C581.051222,478.25 582.901223,480.15 585.701222,480.15 C588.551222,480.15 590.351222,478.25 590.351222,475 L590.351222,459.95 L600.201222,459.95 Z M605.90854,473.95 C605.90854,465.05 611.75854,459.6 620.10854,459.6 C627.20854,459.6 632.40854,463.65 633.80854,470.7 L623.40854,470.7 C622.85854,469 621.75854,467.95 619.90854,467.95 C617.50854,467.95 615.90854,469.95 615.90854,473.95 C615.90854,478 617.50854,480 619.90854,480 C621.75854,480 622.85854,479 623.40854,477.25 L633.80854,477.25 C632.40854,484.2 627.20854,488.35 620.10854,488.35 C611.75854,488.35 605.90854,482.9 605.90854,473.95 Z M639.565857,488 L639.565857,451 L649.365857,451 L649.365857,470.95 L657.115857,459.95 L668.865857,459.95 L657.815857,474.05 L669.065857,488 L657.115857,488 L649.365857,476.5 L649.365857,488 L639.565857,488 Z M694.473175,459.95 L694.473175,467.7 L682.923175,479.85 L694.873175,479.85 L694.873175,488 L672.123175,488 L672.123175,480.25 L683.273175,468.1 L672.223175,468.1 L672.223175,459.95 L694.473175,459.95 Z" id="FoodTruckz"></path>
        </g>
    </g>
</svg>