<svg xmlns="http://www.w3.org/2000/svg" width="188.491" height="51" viewBox="0 0 188.491 51">
  <g id="Group" transform="translate(-1)">
    <rect id="Rectangle" width="63" height="51" rx="6" transform="translate(1)" fill="#c16"/>
    <path id="fantastic" d="M12.629,11.185v1.675h5.879V16.7H12.629V32H7.622V16.7H2.974V12.859H7.622V11.526q0-3.452,1.436-4.785T14.39,5.408h4.119V9.253H14.595a2.148,2.148,0,0,0-1.53.41A2.289,2.289,0,0,0,12.629,11.185ZM33.035,23.011a7.673,7.673,0,0,0-3.914.718,2.7,2.7,0,0,0-1.111,2.461,2.652,2.652,0,0,0,2.854,2.837,3.59,3.59,0,0,0,3.076-1.5,6.968,6.968,0,0,0,1.094-4.178v-.342Zm6.973-1.931V32H35.034V29.864a6.033,6.033,0,0,1-2.324,1.948,7.109,7.109,0,0,1-3.127.684A7.094,7.094,0,0,1,24.5,30.77a6.323,6.323,0,0,1-1.82-4.819A5.737,5.737,0,0,1,24.849,21q2.17-1.6,6.716-1.6h3.469v-.837a2.108,2.108,0,0,0-.88-1.837,4.465,4.465,0,0,0-2.589-.624,13.328,13.328,0,0,0-3.478.453A16.311,16.311,0,0,0,24.575,18V13.731a17.27,17.27,0,0,1,3.367-1.008,19.392,19.392,0,0,1,3.623-.325q4.666,0,6.554,1.9T40.007,21.08Zm20.439-1.5V32H55.474V20.345a5.65,5.65,0,0,0-.59-2.982,2.129,2.129,0,0,0-1.923-.9,2.409,2.409,0,0,0-2.128,1.213,6.213,6.213,0,0,0-.778,3.367V32H45.083V12.859h4.973V15.73a4.655,4.655,0,0,1,1.812-2.461,5.369,5.369,0,0,1,3.093-.872,4.85,4.85,0,0,1,4.1,1.8A8.743,8.743,0,0,1,60.447,19.576Z" transform="translate(0 6)" fill="#fff"/>
    <path id="Path_1" data-name="Path 1" d="M11.792-24.575v5.435h6.545V-15.3H11.792v9.058A2.354,2.354,0,0,0,12.416-4.4a3.1,3.1,0,0,0,2.076.555h3.845V0h-4.2Q9.827,0,8.306-1.376t-1.521-5.1V-15.3H1.9v-3.845H6.785v-5.435ZM33.035-8.989a7.673,7.673,0,0,0-3.914.718A2.7,2.7,0,0,0,28.01-5.811a2.794,2.794,0,0,0,.769,2.068,2.817,2.817,0,0,0,2.085.769,3.59,3.59,0,0,0,3.076-1.5,6.968,6.968,0,0,0,1.094-4.178v-.342Zm6.973-1.931V0H35.034V-2.136A6.033,6.033,0,0,1,32.71-.188,7.109,7.109,0,0,1,29.583.5,7.094,7.094,0,0,1,24.5-1.23a6.323,6.323,0,0,1-1.82-4.819A5.737,5.737,0,0,1,24.849-11q2.17-1.6,6.716-1.6h3.469v-.837a2.108,2.108,0,0,0-.88-1.837,4.465,4.465,0,0,0-2.589-.624,13.328,13.328,0,0,0-3.478.453A16.311,16.311,0,0,0,24.575-14v-4.272a17.27,17.27,0,0,1,3.367-1.008,19.392,19.392,0,0,1,3.623-.325q4.666,0,6.554,1.9T40.007-10.92ZM59.08-18.542v4.375a11.471,11.471,0,0,0-2.88-1.342,10.3,10.3,0,0,0-3-.453,5.219,5.219,0,0,0-2.529.487,1.566,1.566,0,0,0-.854,1.444q0,1.367,3.657,2.222l.188.051,1.436.342a7.5,7.5,0,0,1,4.008,2.094,5.694,5.694,0,0,1,1.273,3.905,5.225,5.225,0,0,1-1.94,4.435Q56.5.5,52.6.5A21.7,21.7,0,0,1,49.065.2a25.723,25.723,0,0,1-3.674-.9V-5.076A15.61,15.61,0,0,0,48.766-3.64a11.969,11.969,0,0,0,3.324.5,5.526,5.526,0,0,0,2.666-.513,1.621,1.621,0,0,0,.906-1.487,1.772,1.772,0,0,0-.641-1.47A9.266,9.266,0,0,0,51.97-7.708l-1.384-.308A8.145,8.145,0,0,1,46.4-10.049a5.16,5.16,0,0,1-1.316-3.708,5.122,5.122,0,0,1,2-4.307A9.042,9.042,0,0,1,52.705-19.6a19.976,19.976,0,0,1,3.239.265A18.733,18.733,0,0,1,59.08-18.542Zm15.928-6.033v5.435h6.545V-15.3H75.007v9.058A2.354,2.354,0,0,0,75.631-4.4a3.1,3.1,0,0,0,2.076.555h3.845V0h-4.2q-4.307,0-5.828-1.376T70-6.477V-15.3H65.112v-3.845H70v-5.435Zm13.057,5.435h9.912v15.3H104.2V0H86.731V-3.845h6.238V-15.3h-4.9Zm4.9-9.314h5.007v5.845H92.969ZM123.491-.974a10.508,10.508,0,0,1-2.717,1.1A12.724,12.724,0,0,1,117.646.5a9.017,9.017,0,0,1-6.921-2.666,10.381,10.381,0,0,1-2.5-7.383,10.394,10.394,0,0,1,2.512-7.408,9.057,9.057,0,0,1,6.938-2.675,12.111,12.111,0,0,1,2.965.359,12.674,12.674,0,0,1,2.845,1.111v4.58a8.178,8.178,0,0,0-2.4-1.444,7.466,7.466,0,0,0-2.709-.5,4.652,4.652,0,0,0-3.76,1.555,6.664,6.664,0,0,0-1.316,4.426,6.594,6.594,0,0,0,1.316,4.409,4.677,4.677,0,0,0,3.76,1.538,7.5,7.5,0,0,0,2.717-.487,7.955,7.955,0,0,0,2.393-1.478Z" transform="translate(66 38.5)" fill="#fff"/>
  </g>
</svg>
