<?xml version="1.0" encoding="UTF-8"?>
<svg width="186px" height="53px" viewBox="0 0 186 53" version="1.1" xmlns="http://www.w3.org/2000/svg" xmlns:xlink="http://www.w3.org/1999/xlink">
    <!-- Generator: Sketch 55.2 (78181) - https://sketchapp.com -->
    <title>GyftHint</title>
    <desc>Created with Sketch.</desc>
    <defs>
        <path d="M14.292593,7.85415945 C14.0473714,7.40414671 11.0649414,6.75047376 11.0649414,6.75047376 L13.1484768,6.66942435 C14.4275497,6.66942435 15.8571294,6.16248854 16.1818925,4.7948268 C16.4928018,3.48173204 15.6407463,1.62466378 14.0540627,2.08259297 C12.9264391,2.40726184 12.1308355,3.73779165 11.6173968,4.70350484 C11.5577407,4.81603158 10.8327254,6.66574885 10.8603388,6.66574885 L8.40878248,6.50365003 C7.98638309,5.40806928 7.50234845,4.29382832 6.79891493,3.34507896 C6.17134743,2.49952624 5.18009424,1.66405756 4.11297504,2.28955171 C2.33752165,3.33160214 2.94313041,5.73170148 4.74214468,6.39866276 C5.560838,6.70184412 6.44418237,6.74698675 7.30632196,6.71032603 C11.1877407,6.54719052 14.292593,7.85415945 14.292593,7.85415945 Z M18.9652802,10.2360698 C19.7054687,10.7666607 19.159516,10.976164 18.4190448,11.0407208 C18.4190448,11.0407208 18.5006597,12.2664519 17.7655604,11.7352012 C17.7655604,11.7352012 14.5377203,8.956243 10.9828553,8.79395568 C10.9828553,8.79395568 12.1672134,12.5530464 12.0461105,23.0116251 L10.2077025,23.0116251 C10.2077025,23.0116251 10.0980973,14.7175369 9.70359399,12.8791289 C9.70359399,12.8791289 9.02400408,19.1303006 9.22700458,23.0116251 L7.1844651,23.0116251 C7.1844651,23.0116251 7.38831381,11.9395211 8.40963067,8.75258278 C8.40963067,8.75258278 4.77305655,8.99780438 1.83143403,11.4900739 C1.83143403,11.4900739 1.01311768,12.5931941 0.810117168,11.0001019 C0.810117168,11.0001019 -0.660929699,11.0001019 0.400534896,10.1830107 C0.698438614,9.95362201 0.980603668,9.70764646 1.28906266,9.48966123 C1.83746561,9.1005298 2.40292664,8.52564442 3.07714468,8.36985991 C3.41566735,8.29220326 3.71479623,8.40067753 4.05133979,8.45090932 C4.53151044,8.52281712 4.99217269,8.48050178 5.46753693,8.50811513 C5.46753693,8.50811513 0.523899643,8.22189761 1.21847427,3.60509679 C1.45625064,2.02453897 2.30830616,0.462829852 3.99611309,0.143250127 C5.4310647,-0.128830871 6.99635507,0.581388181 8.05188232,1.51496434 C9.46977585,2.76755476 9.62197911,4.12984463 9.18563169,5.8931406 C9.18563169,5.8931406 10.6156826,0.118652573 14.6196179,0.0843037185 C18.6235532,0.0505145186 19.7673867,6.26125573 15.7634513,8.09900408 C15.9513729,8.01286551 17.0728706,8.91798013 17.2758711,9.05887417 C17.8392588,9.44989047 18.4092435,9.8361946 18.9652802,10.2360698 Z" id="path-1"></path>
        <path d="M15.9366709,35.6705069 L21.2508737,35.6705069 L23.3008584,35.6705069 C24.2051248,32.4689608 25.8386475,29.5204585 28.0733495,27.0559908 C30.6068034,24.2630846 31.9685278,20.6023841 31.8758864,16.8327382 C31.6769384,8.72779674 24.9453133,2.31876719 16.8403719,2.51780948 C8.8089404,2.70799287 2.38313551,9.40305145 2.51601885,17.4423051 C2.5739786,20.9646561 3.89847682,24.3483749 6.24711921,26.9742817 C8.48983189,29.4729598 10.1405069,32.4453057 11.0762506,35.6705069 L15.9366709,35.6705069 Z M23.3009526,35.6744913 L15.6432909,35.6744913 L23.3009526,35.6744913 Z M22.5163754,40.5349796 L22.5169409,40.5349796 C22.5524707,39.7426745 22.6318237,38.9531024 22.7545288,38.1696561 L11.6337952,38.1696561 C11.759516,38.9528197 11.8408482,39.7425802 11.8773204,40.5349796 L22.5163754,40.5349796 Z M22.4927203,44.3706903 L22.4931915,44.370596 L22.4931915,43.0349771 L11.9010698,43.0349771 L11.9010698,44.3706903 C11.9010698,47.2955374 14.2720479,49.6665155 17.1968951,49.6665155 C20.121648,49.6665155 22.4927203,47.2955374 22.4927203,44.3706903 Z M18.4478833,52.0632221 C17.6170326,52.1513398 16.7792078,52.1512455 15.9483571,52.0631279 C12.1776745,51.4463984 9.40757514,48.1912277 9.40201477,44.3705018 L9.40201477,41.493813 C9.40126083,40.3788181 9.29994906,39.2662736 9.09911615,38.1697504 L8.96218034,38.1697504 C8.45383087,38.1696561 7.99627866,37.8615741 7.8048701,37.3907336 C7.54494651,36.7514799 7.85255731,36.0225064 8.491811,35.762677 C7.63325267,33.1284768 6.2341136,30.7027433 4.38373663,28.6405069 C1.63484208,25.5668492 0.0846306673,21.6062659 0.0164926133,17.4832068 C-0.138820683,8.07638563 7.38162252,0.241828833 16.78081,0.0191314315 C21.1899924,-0.0876464595 25.471569,1.50516302 28.7386144,4.46808456 C35.767295,10.8423383 36.2978859,21.7074834 29.9237264,28.736164 C28.083245,30.7659806 26.7026719,33.1690958 25.8762506,35.7814315 C26.3232476,35.9833953 26.6107845,36.4284131 26.6112557,36.9190448 C26.6118212,37.6090015 26.0529572,38.1689964 25.3629063,38.1696561 L25.2875115,38.1696561 C25.0920504,39.2659908 24.9933775,40.3774987 24.9927178,41.4911742 L24.9927178,44.370596 C24.9874401,48.190945 22.2179063,51.4461156 18.4478833,52.0632221 Z" id="path-3"></path>
    </defs>
    <g id="Page-1" stroke="none" stroke-width="1" fill="none" fill-rule="evenodd">
        <g id="Desktop" transform="translate(-1596.000000, -67.000000)">
            <g id="GyftHint" transform="translate(1596.000000, 67.000000)">
                <g id="Group-18">
                    <g id="Group-10" transform="translate(7.539480, 13.099847)">
                        <mask id="mask-2" fill="white">
                            <use xlink:href="#path-1"></use>
                        </mask>
                        <g id="Clip-9"></g>
                        <polygon id="Fill-8" fill="#F2B13E" mask="url(#mask-2)" points="0.0150789608 23.0161488 19.3199185 23.0161488 19.3199185 0.0810494142 0.0150789608 0.0810494142"></polygon>
                    </g>
                    <g id="Group-13" transform="translate(0.000000, -0.000000)">
                        <mask id="mask-4" fill="white">
                            <use xlink:href="#path-3"></use>
                        </mask>
                        <g id="Clip-12"></g>
                        <polygon id="Fill-11" fill="#25202C" mask="url(#mask-4)" points="0.0113092206 52.1298523 34.3800306 52.1298523 34.3800306 0.0169638309 0.0113092206 0.0169638309"></polygon>
                    </g>
                </g>
                <g id="Group-4" transform="translate(48.000000, 8.000000)">
                    <path d="M21.9397351,24.3469435 C20.982975,25.4926617 19.6304865,26.3815665 17.8825522,27.0132807 C16.1344294,27.6449949 14.1975369,27.9610876 12.0714977,27.9610876 C9.83924605,27.9610876 7.88152573,27.4738487 6.19843097,26.4994651 C4.51533622,25.5250815 3.21590678,24.1107692 2.30080234,22.2563398 C1.38532094,20.4021931 0.915799796,18.2230005 0.892333164,15.7188563 L0.892333164,13.9648905 C0.892333164,11.3902522 1.3263245,9.16092206 2.19449567,7.27690015 C3.06257259,5.39306673 4.31440907,3.95227203 5.95038207,2.95404483 C7.58616658,1.95610036 9.50260825,1.45698675 11.6994244,1.45698675 C14.75838,1.45698675 17.1500917,2.18643148 18.8747478,3.64503821 C20.599027,5.10383342 21.6208151,7.22676261 21.9397351,10.0141085 L16.7664264,10.0141085 C16.5300637,8.53787825 16.0073892,7.45709373 15.1984972,6.77194345 C14.3893225,6.0870759 13.2762124,5.74440652 11.8588844,5.74440652 C10.0517652,5.74440652 8.67571574,6.4237137 7.73092461,7.78185685 C6.78585074,9.14018849 6.30756495,11.159921 6.29587876,13.8409603 L6.29587876,15.4885252 C6.29587876,18.193408 6.80969435,20.2366072 7.83723128,21.6184997 C8.86476821,23.0004865 10.3706852,23.6913856 12.3549822,23.6913856 C14.3508711,23.6913856 15.774325,23.2661589 16.6246842,22.4157998 L16.6246842,17.96892 L11.7880132,17.96892 L11.7880132,14.0534794 L21.9397351,14.0534794 L21.9397351,24.3469435" id="Fill-1" fill="#F2B13E"></path>
                    <path d="M33.0661233,20.3606317 L36.6087366,8.43732043 L42.1012481,8.43732043 L34.3940143,30.5832247 L33.9689761,31.5929496 C32.8239175,34.0969052 30.9335813,35.3489302 28.2999465,35.3489302 C27.555894,35.3489302 26.7998726,35.236592 26.0322593,35.0123867 L26.0322593,31.1324758 L26.8117473,31.1500993 C27.7800993,31.1500993 28.503701,31.0023255 28.982081,30.7072491 C29.460461,30.4117957 29.8352674,29.921541 30.10716,29.2366735 L30.709376,27.6598854 L23.994809,8.43732043 L29.5046612,8.43732043 L33.0661233,20.3606317" id="Fill-2" fill="#F2B13E"></path>
                    <path d="M45.5204024,27.606732 L45.5204024,12.1933011 L42.668594,12.1933011 L42.668594,8.43732043 L45.5204024,8.43732043 L45.5204024,6.80737901 C45.5204024,4.65787315 46.1376974,2.98948039 47.3722873,1.80248344 C48.6059348,0.615392257 50.3334182,0.0219409068 52.5537952,0.0219409068 C53.2625064,0.0219409068 54.130489,0.140122262 55.1586857,0.376296485 L55.1049669,4.34479623 C54.6799287,4.23848956 54.160647,4.18533622 53.5461793,4.18533622 C51.6207845,4.18533622 50.6585583,5.0888487 50.6585583,6.89596791 L50.6585583,8.43732043 L54.4678808,8.43732043 L54.4678808,12.1933011 L50.6585583,12.1933011 L50.6585583,27.606732 L45.5204024,27.606732" id="Fill-3" fill="#F2B13E"></path>
                    <path d="M63.2551452,3.72467397 L63.2551452,8.43732043 L66.5329343,8.43732043 L66.5329343,12.1933011 L63.2551452,12.1933011 L63.2551452,21.760242 C63.2551452,22.4689531 63.3908558,22.9769256 63.6622771,23.2838767 C63.9336984,23.5912048 64.4539226,23.744539 65.2210647,23.744539 C65.7884106,23.744539 66.2907285,23.7033546 66.7270759,23.6205145 L66.7270759,27.5005196 C65.7233826,27.8074707 64.6895313,27.9610876 63.627407,27.9610876 C60.0367295,27.9610876 58.2055782,26.1482196 58.1348956,22.5221065 L58.1348956,12.1933011 L55.3358635,12.1933011 L55.3358635,8.43732043 L58.1348956,8.43732043 L58.1348956,3.72467397 L63.2551452,3.72467397" id="Fill-4" fill="#F2B13E"></path>
                    <polyline id="Fill-15" fill="#25202C" points="93.1576668 27.9785227 87.8018085 27.9785227 87.8018085 16.8371498 77.3568008 16.8371498 77.3568008 27.9785227 72 27.9785227 72 1.98201732 77.3568008 1.98201732 77.3568008 12.5162736 87.8018085 12.5162736 87.8018085 1.98201732 93.1576668 1.98201732 93.1576668 27.9785227"></polyline>
                    <path d="M97.7642894,27.9785227 L102.942028,27.9785227 L102.942028,8.6597351 L97.7642894,8.6597351 L97.7642894,27.9785227 Z M97.4608253,3.6603999 C97.4608253,2.88675497 97.7199949,2.24985736 98.2373917,1.74989557 C98.755731,1.24993377 99.4606724,1 100.353158,1 C101.234335,1 101.936449,1.24993377 102.460443,1.74989557 C102.983495,2.24985736 103.245492,2.88675497 103.245492,3.6603999 C103.245492,4.44601375 102.980667,5.08875446 102.451019,5.58871625 C101.92137,6.0885838 101.222084,6.33861182 100.353158,6.33861182 C99.4842333,6.33861182 98.7849465,6.0885838 98.255298,5.58871625 C97.7256495,5.08875446 97.4608253,4.44601375 97.4608253,3.6603999 L97.4608253,3.6603999 Z" id="Fill-16" fill="#25202C"></path>
                    <path d="M111.94134,8.6597351 L112.101554,10.8915155 C113.482221,9.16572848 115.333164,8.30255222 117.654381,8.30255222 C119.70135,8.30255222 121.225267,8.90382578 122.225191,10.1059017 C123.225115,11.3083546 123.736857,13.105484 123.76136,15.4980438 L123.76136,27.9785227 L118.600586,27.9785227 L118.600586,15.6230107 C118.600586,14.5280897 118.363092,13.7335227 117.887163,13.239404 C117.41029,12.7456623 116.618645,12.4984615 115.512226,12.4984615 C114.059934,12.4984615 112.970479,13.1175471 112.244804,14.3553413 L112.244804,27.9785227 L107.084972,27.9785227 L107.084972,8.6597351 L111.94134,8.6597351" id="Fill-17" fill="#25202C"></path>
                    <path d="M133.849185,3.91033367 L133.849185,8.6597351 L137.15242,8.6597351 L137.15242,12.4449312 L133.849185,12.4449312 L133.849185,22.0864187 C133.849185,22.800596 133.985838,23.312621 134.259144,23.6219282 C134.533393,23.9316123 135.056444,24.0861717 135.831126,24.0861717 C136.402241,24.0861717 136.908329,24.0446103 137.348446,23.9612048 L137.348446,27.8713678 C136.336271,28.1807692 135.29488,28.3356113 134.223332,28.3356113 C130.605323,28.3356113 128.760036,26.5086067 128.688411,22.8542206 L128.688411,12.4449312 L125.867702,12.4449312 L125.867702,8.6597351 L128.688411,8.6597351 L128.688411,3.91033367 L133.849185,3.91033367" id="Fill-18" fill="#25202C"></path>
                </g>
            </g>
        </g>
    </g>
</svg>