<?xml version="1.0" encoding="UTF-8"?>
<!DOCTYPE svg PUBLIC "-//W3C//DTD SVG 1.1//EN" "http://www.w3.org/Graphics/SVG/1.1/DTD/svg11.dtd">
<!-- Creator: CorelDRAW X7 -->
<svg xmlns="http://www.w3.org/2000/svg" xml:space="preserve" width="34mm" height="12mm" version="1.1" style="shape-rendering:geometricPrecision; text-rendering:geometricPrecision; image-rendering:optimizeQuality; fill-rule:evenodd; clip-rule:evenodd"
viewBox="0 0 3400 1200"
 xmlns:xlink="http://www.w3.org/1999/xlink">
 <defs>
  <style type="text/css">
   <![CDATA[
    .fil4 {fill:#6D6E71}
    .fil3 {fill:#B2B2B4}
    .fil2 {fill:#ED217C}
    .fil1 {fill:#F58220}
    .fil0 {fill:#FEFDFE}
    .fil5 {fill:#2B2A29;fill-rule:nonzero}
   ]]>
  </style>
 </defs>
 <g id="Layer_x0020_1">
  <metadata id="CorelCorpID_0Corel-Layer"/>
  <polygon class="fil0" points="84,1164 1397,1164 1397,79 84,79 "/>
  <path class="fil1" d="M1291 527c-52,-27 -76,62 -132,88l26 -77c-36,-2 -33,0 -48,23 -9,14 -24,36 -30,47 12,-40 6,-38 -3,-51 -53,31 -59,85 -104,115 16,-27 36,-55 37,-94 -56,3 -47,45 -108,108 -9,10 -33,35 -47,22 -36,-69 83,-110 43,-186 -39,0 -15,-5 -45,34 -62,78 -159,86 -182,216 -30,166 177,279 202,272 39,-11 -24,-95 27,-174 49,-73 402,-252 364,-343z"/>
  <path class="fil1" d="M456 1037c23,15 43,7 75,-20 70,-61 150,-108 139,-230 -14,-150 -139,-156 -189,-236 -20,-32 1,-25 -34,-30 -59,58 68,107 36,195 -89,-26 -87,-138 -155,-137 2,43 21,62 37,92 -40,-28 -54,-81 -96,-111 -25,6 -2,-18 -24,34 -6,-12 -11,-24 -22,-37 -12,-16 -16,-22 -40,-19l30 84c-40,-13 -44,-37 -69,-67 -12,-14 -91,-68 -74,0 18,73 263,223 329,272 108,83 37,175 57,210z"/>
  <path class="fil2" d="M469 193c-11,60 57,144 -46,206 -33,19 -94,10 -80,53 13,40 58,-3 112,0l13 37c1,1 2,4 3,5 75,-29 73,-95 154,-145 -2,-1 -4,-4 -5,-3 0,0 -66,-28 -86,-67 -18,-35 -9,-123 -65,-86z"/>
  <path class="fil2" d="M828 294l-43 -15c-15,89 41,128 41,222l40 -33c13,-8 35,-15 51,-16 58,-5 58,25 108,14 12,-83 -71,-23 -121,-111 -50,-87 44,-171 -42,-165 -7,12 -26,82 -34,104z"/>
  <path class="fil2" d="M596 260c-16,25 -22,15 -28,41 69,36 138,28 202,64 -27,-96 4,-123 48,-164 32,-29 11,-59 -18,-50 -22,8 -65,101 -160,62 -45,-18 -46,-42 -66,-57 -29,-21 -57,7 -36,36 15,21 22,3 58,68z"/>
  <path class="fil3" d="M652 491c6,16 14,43 52,19 2,-2 8,-8 10,-9l11 -10c11,36 15,33 57,21 19,-55 -30,-92 -60,-32 -24,-27 -46,-55 -73,0 -12,-13 -17,-27 -41,-28 -57,-1 -37,111 39,44 1,-1 3,-3 5,-5z"/>
  <path class="fil4" d="M373 249c-67,26 -43,137 37,113 68,-21 33,-141 -37,-113z"/>
  <path class="fil4" d="M667 72c-77,31 -39,134 35,112 67,-20 36,-141 -35,-112z"/>
  <path class="fil4" d="M959 251c-76,34 -26,137 41,109 64,-25 27,-140 -41,-109z"/>
  <path class="fil5" d="M1672 275l0 200 -32 0 0 -88 -101 0 0 88 -32 0 0 -200 32 0 0 84 101 0 0 -84 32 0zm80 203c-7,0 -14,-1 -20,-3 -6,-3 -11,-6 -16,-10 -4,-4 -8,-9 -10,-15 -3,-5 -4,-11 -4,-18 0,-7 2,-13 5,-19 3,-6 7,-10 12,-15 6,-4 13,-7 20,-9 8,-2 16,-4 25,-4 7,0 14,1 21,2 7,1 13,3 18,5l0 -10c0,-11 -3,-19 -9,-26 -6,-6 -15,-9 -27,-9 -8,0 -15,2 -23,5 -8,3 -16,7 -24,12l-9 -19c19,-13 39,-20 59,-20 20,0 36,5 47,16 12,10 17,25 17,44l0 54c0,3 1,6 2,7 2,2 4,3 7,3l0 26c-3,1 -6,1 -8,2 -3,0 -5,0 -7,0 -6,-1 -11,-2 -14,-5 -3,-3 -5,-7 -6,-11l0 -10c-7,9 -15,16 -25,20 -9,5 -20,7 -31,7zm8 -23c8,0 15,-1 22,-4 6,-2 12,-6 15,-11 4,-3 6,-7 6,-11l0 -19c-5,-2 -10,-4 -16,-5 -6,-1 -12,-2 -18,-2 -11,0 -20,3 -27,7 -7,5 -11,12 -11,19 0,8 3,14 9,19 5,5 12,7 20,7zm195 -100c-12,0 -22,3 -32,8 -9,5 -16,13 -20,22l0 90 -31 0 0 -147 29 0 0 33c5,-10 12,-19 20,-25 8,-6 17,-10 26,-10 2,0 4,0 5,0 1,0 2,1 3,1l0 28zm27 155c3,1 5,1 8,2 2,0 4,0 6,0 2,0 4,0 6,-1 2,-1 4,-2 6,-4 2,-3 4,-6 6,-11 2,-5 5,-12 8,-21l-61 -147 32 0 46 120 40 -120 30 0 -68 182c-3,10 -9,17 -17,22 -7,5 -16,8 -26,8 -5,0 -11,-1 -16,-3l0 -27zm185 -32c-7,0 -13,-1 -19,-3 -7,-3 -12,-6 -16,-10 -5,-4 -8,-9 -11,-15 -2,-5 -4,-11 -4,-18 0,-7 2,-13 5,-19 3,-6 7,-10 13,-15 5,-4 12,-7 20,-9 7,-2 16,-4 25,-4 7,0 14,1 20,2 7,1 13,3 19,5l0 -10c0,-11 -3,-19 -10,-26 -6,-6 -15,-9 -26,-9 -8,0 -16,2 -24,5 -7,3 -15,7 -23,12l-10 -19c19,-13 39,-20 60,-20 20,0 36,5 47,16 11,10 17,25 17,44l0 54c0,3 1,6 2,7 1,2 3,3 7,3l0 26c-3,1 -6,1 -9,2 -2,0 -5,0 -7,0 -6,-1 -10,-2 -13,-5 -3,-3 -5,-7 -6,-11l-1 -10c-7,9 -15,16 -24,20 -10,5 -20,7 -32,7zm9 -23c7,0 15,-1 21,-4 7,-2 12,-6 16,-11 4,-3 6,-7 6,-11l0 -19c-5,-2 -11,-4 -17,-5 -6,-1 -12,-2 -17,-2 -11,0 -21,3 -28,7 -7,5 -10,12 -10,19 0,8 3,14 8,19 5,5 12,7 21,7zm244 20l-31 0 0 -82c0,-14 -2,-24 -7,-31 -4,-6 -11,-9 -19,-9 -4,0 -9,1 -14,3 -4,1 -9,4 -13,7 -3,3 -7,6 -10,11 -3,4 -6,9 -7,14l0 87 -31 0 0 -147 28 0 0 29c6,-9 14,-17 24,-23 11,-6 23,-9 36,-9 9,0 16,2 22,5 6,3 10,8 13,13 4,6 6,12 7,19 2,8 2,15 2,23l0 90zm75 3c-7,0 -14,-1 -20,-3 -6,-3 -11,-6 -16,-10 -4,-4 -8,-9 -10,-15 -3,-5 -4,-11 -4,-18 0,-7 2,-13 5,-19 3,-6 7,-10 13,-15 5,-4 12,-7 19,-9 8,-2 16,-4 26,-4 6,0 13,1 20,2 7,1 13,3 18,5l0 -10c0,-11 -3,-19 -9,-26 -6,-6 -15,-9 -27,-9 -8,0 -15,2 -23,5 -8,3 -15,7 -24,12l-9 -19c19,-13 39,-20 59,-20 20,0 36,5 48,16 11,10 17,25 17,44l0 54c0,3 0,6 1,7 2,2 4,3 7,3l0 26c-3,1 -6,1 -8,2 -3,0 -5,0 -7,0 -6,-1 -11,-2 -14,-5 -3,-3 -5,-7 -5,-11l-1 -10c-7,9 -15,16 -25,20 -9,5 -20,7 -31,7zm9 -23c7,0 14,-1 21,-4 7,-2 12,-6 16,-11 3,-3 5,-7 5,-11l0 -19c-5,-2 -10,-4 -16,-5 -6,-1 -12,-2 -18,-2 -11,0 -20,3 -27,7 -7,5 -11,12 -11,19 0,8 3,14 9,19 5,5 12,7 21,7zm304 -133c-2,-2 -5,-4 -8,-6 -4,-3 -8,-5 -13,-7 -5,-2 -10,-4 -16,-5 -6,-1 -12,-2 -19,-2 -12,0 -21,2 -28,7 -6,5 -9,12 -9,21 0,5 1,9 3,12 2,3 5,6 9,8 4,2 9,4 16,6 6,2 13,4 21,6 10,2 19,5 27,8 8,3 15,6 21,10 6,5 10,10 14,16 3,6 4,14 4,23 0,11 -2,20 -6,27 -4,7 -9,13 -15,18 -7,5 -15,8 -24,10 -9,2 -18,3 -28,3 -15,0 -30,-2 -44,-6 -15,-5 -27,-12 -39,-21l15 -27c2,3 6,5 10,8 5,3 10,6 16,9 6,2 13,4 20,6 8,2 15,3 23,3 12,0 22,-2 28,-7 7,-4 10,-11 10,-19 0,-5 -1,-9 -3,-13 -3,-3 -6,-6 -11,-9 -5,-2 -11,-4 -17,-6 -7,-2 -15,-4 -24,-7 -9,-2 -18,-5 -26,-8 -7,-3 -13,-7 -18,-11 -5,-4 -9,-9 -11,-14 -3,-6 -4,-12 -4,-20 0,-10 2,-19 5,-26 4,-8 9,-14 16,-20 6,-5 14,-9 23,-11 9,-3 18,-4 28,-4 14,0 27,2 38,6 12,4 22,10 30,16l-14 26zm129 146c-4,2 -10,4 -17,6 -7,3 -14,4 -22,4 -5,0 -10,-1 -14,-2 -4,-2 -8,-4 -11,-6 -3,-3 -6,-6 -8,-10 -2,-5 -3,-10 -3,-16l0 -92 -19 0 0 -24 19 0 0 -49 31 0 0 49 32 0 0 24 -32 0 0 82c0,6 2,9 5,12 3,2 7,3 11,3 4,0 8,-1 12,-2 4,-2 7,-3 9,-4l7 25zm60 10c-8,0 -14,-1 -20,-3 -6,-3 -12,-6 -16,-10 -5,-4 -8,-9 -11,-15 -2,-5 -3,-11 -3,-18 0,-7 1,-13 4,-19 3,-6 7,-10 13,-15 6,-4 12,-7 20,-9 7,-2 16,-4 25,-4 7,0 14,1 21,2 6,1 13,3 18,5l0 -10c0,-11 -3,-19 -9,-26 -7,-6 -15,-9 -27,-9 -8,0 -16,2 -23,5 -8,3 -16,7 -24,12l-10 -19c19,-13 39,-20 60,-20 20,0 36,5 47,16 11,10 17,25 17,44l0 54c0,3 1,6 2,7 1,2 4,3 7,3l0 26c-3,1 -6,1 -9,2 -2,0 -4,0 -6,0 -7,-1 -11,-2 -14,-5 -3,-3 -5,-7 -6,-11l-1 -10c-6,9 -15,16 -24,20 -10,5 -20,7 -31,7zm8 -23c8,0 15,-1 21,-4 7,-2 12,-6 16,-11 4,-3 6,-7 6,-11l0 -19c-5,-2 -11,-4 -17,-5 -6,-1 -12,-2 -17,-2 -11,0 -20,3 -27,7 -7,5 -11,12 -11,19 0,8 3,14 8,19 6,5 13,7 21,7zm192 13c-4,2 -9,4 -16,6 -7,3 -15,4 -23,4 -5,0 -9,-1 -13,-2 -5,-2 -8,-4 -12,-6 -3,-3 -6,-6 -7,-10 -2,-5 -3,-10 -3,-16l0 -92 -20 0 0 -24 20 0 0 -49 31 0 0 49 32 0 0 24 -32 0 0 82c0,6 1,9 4,12 3,2 7,3 11,3 5,0 9,-1 13,-2 4,-2 7,-3 8,-4l7 25zm88 10c-12,0 -22,-2 -32,-6 -9,-4 -17,-9 -24,-16 -6,-7 -12,-15 -15,-25 -4,-9 -6,-19 -6,-29 0,-10 2,-20 6,-29 3,-10 9,-18 15,-25 7,-7 15,-13 24,-17 10,-4 20,-6 32,-6 12,0 22,2 31,7 10,4 17,9 24,16 7,7 12,15 15,24 4,9 5,19 5,29 0,2 0,4 0,6 0,2 0,4 0,5l-119 0c1,7 2,12 5,18 2,5 6,10 10,13 4,4 8,7 14,9 5,2 10,3 16,3 4,0 8,0 12,-1 4,-1 8,-3 11,-5 4,-2 7,-4 9,-7 3,-3 5,-6 7,-9l26 7c-5,12 -13,21 -25,28 -12,7 -26,10 -41,10zm45 -87c-1,-7 -2,-12 -5,-18 -3,-5 -6,-9 -10,-13 -4,-4 -8,-7 -14,-9 -5,-2 -10,-3 -16,-3 -6,0 -12,1 -17,3 -5,2 -9,5 -13,9 -4,4 -8,8 -10,13 -2,6 -4,11 -5,18l90 0zm-1549 314c0,-12 2,-24 7,-36 4,-12 10,-22 18,-32 9,-9 19,-17 30,-23 12,-6 26,-9 41,-9 18,0 33,4 46,12 13,9 22,19 29,32l-25 17c-3,-6 -6,-11 -10,-16 -4,-4 -8,-7 -13,-9 -4,-3 -9,-5 -14,-6 -5,-1 -10,-1 -14,-1 -11,0 -20,2 -27,6 -8,4 -15,10 -20,17 -5,7 -9,15 -12,23 -2,9 -4,18 -4,26 0,10 2,19 5,28 3,9 7,17 13,24 6,6 12,12 20,16 8,4 16,6 25,6 5,0 10,-1 15,-2 5,-1 10,-3 15,-6 5,-3 9,-6 13,-10 4,-4 7,-9 10,-15l26 15c-3,7 -8,14 -13,20 -6,6 -13,10 -20,14 -7,4 -15,7 -23,9 -8,2 -16,3 -24,3 -14,0 -26,-3 -38,-9 -11,-6 -21,-13 -30,-23 -8,-10 -14,-21 -19,-33 -5,-12 -7,-25 -7,-38zm322 -51c-2,-3 -5,-5 -9,-7 -3,-2 -7,-5 -12,-7 -5,-2 -10,-3 -16,-5 -6,-1 -12,-2 -19,-2 -12,0 -22,3 -28,8 -6,4 -10,11 -10,20 0,5 1,9 3,12 3,3 6,6 10,8 4,2 9,4 15,6 7,2 14,4 22,6 10,3 19,5 27,8 8,3 15,7 21,11 6,4 10,9 13,15 4,7 5,14 5,24 0,10 -2,19 -6,26 -4,8 -9,14 -16,18 -6,5 -14,8 -23,11 -9,2 -18,3 -28,3 -16,0 -30,-3 -45,-7 -14,-5 -27,-11 -38,-20l14 -27c3,2 6,5 11,8 4,3 10,6 16,8 6,3 13,5 20,7 7,1 15,2 23,2 12,0 21,-2 28,-6 7,-5 10,-11 10,-20 0,-5 -1,-9 -4,-12 -2,-4 -6,-7 -10,-9 -5,-3 -11,-5 -18,-7 -6,-2 -14,-4 -23,-6 -10,-3 -18,-6 -26,-9 -7,-3 -13,-6 -18,-10 -5,-4 -9,-9 -12,-15 -2,-5 -3,-12 -3,-20 0,-10 1,-19 5,-26 4,-8 9,-14 15,-19 7,-6 15,-9 23,-12 9,-3 19,-4 29,-4 14,0 26,2 38,6 11,5 21,10 30,17l-14 26zm54 153l0 -201 87 0c9,0 18,2 25,6 8,4 14,9 20,15 5,6 10,13 13,21 3,8 4,16 4,24 0,6 -1,13 -3,19 -1,6 -4,12 -7,17 -4,6 -8,10 -13,14 -5,4 -10,7 -16,9l48 76 -36 0 -44 -70 -46 0 0 70 -32 0zm32 -98l55 0c4,0 9,-1 12,-3 4,-2 7,-5 10,-8 2,-3 4,-7 6,-12 1,-5 2,-9 2,-14 0,-5 -1,-10 -3,-15 -1,-4 -4,-8 -7,-12 -3,-3 -6,-6 -10,-8 -4,-2 -8,-3 -12,-3l-53 0 0 75zm365 -75l-66 0 0 173 -32 0 0 -173 -67 0 0 -28 165 0 0 28zm106 52c-12,0 -22,3 -32,8 -9,5 -16,13 -20,22l0 91 -31 0 0 -148 29 0 0 33c5,-10 12,-18 20,-25 8,-6 17,-9 26,-9 2,0 4,0 5,0 1,0 2,0 3,0l0 28zm68 124c-15,0 -27,-5 -35,-15 -7,-11 -11,-26 -11,-46l0 -90 31 0 0 84c0,27 9,40 28,40 9,0 17,-3 25,-8 8,-6 14,-13 18,-24l0 -92 31 0 0 111c0,4 1,6 2,8 2,1 4,2 7,2l0 27c-3,0 -6,1 -8,1 -3,0 -5,0 -7,0 -11,-1 -18,-6 -20,-16l0 -15c-7,11 -15,19 -26,24 -10,6 -22,9 -35,9zm183 0c-6,0 -12,-1 -18,-2 -7,-1 -13,-2 -18,-4 -6,-2 -12,-4 -17,-6 -6,-3 -11,-6 -15,-9l13 -21c18,13 36,19 54,19 10,0 17,-2 23,-5 5,-4 8,-9 8,-16 0,-6 -3,-10 -9,-13 -7,-3 -16,-6 -30,-9 -9,-3 -17,-5 -23,-7 -7,-3 -12,-5 -16,-8 -5,-3 -8,-7 -9,-11 -2,-4 -3,-9 -3,-14 0,-8 1,-14 4,-20 3,-6 7,-11 12,-15 6,-4 12,-7 19,-9 7,-2 14,-3 23,-3 10,0 21,1 31,5 10,3 18,8 26,14l-13 18c-14,-10 -29,-15 -45,-15 -8,0 -15,1 -20,5 -6,3 -8,8 -8,15 0,3 0,6 1,8 2,2 3,4 6,5 2,2 6,3 10,4 4,2 9,3 15,4 10,3 19,5 26,8 8,2 14,5 19,8 4,4 8,8 10,12 3,4 4,10 4,16 0,7 -2,13 -5,19 -2,5 -6,10 -12,14 -5,4 -11,7 -19,9 -7,3 -15,4 -24,4zm168 -11c-4,2 -10,4 -17,7 -7,2 -14,3 -22,3 -5,0 -10,-1 -14,-2 -4,-1 -8,-3 -11,-6 -3,-2 -6,-6 -8,-10 -2,-4 -3,-10 -3,-16l0 -92 -20 0 0 -24 20 0 0 -48 31 0 0 48 32 0 0 24 -32 0 0 83c0,5 2,9 5,11 3,2 6,4 11,4 4,0 8,-1 12,-3 4,-1 7,-2 9,-3l7 24z"/>
 </g>
</svg>
