<?xml version="1.0" encoding="UTF-8"?>
<svg width="262px" height="73px" viewBox="0 0 262 73" version="1.1" xmlns="http://www.w3.org/2000/svg" xmlns:xlink="http://www.w3.org/1999/xlink">
    <!-- Generator: Sketch 55.2 (78181) - https://sketchapp.com -->
    <title>Group 2</title>
    <desc>Created with Sketch.</desc>
    <defs>
        <polygon id="path-1" points="0 0.0773132325 36.0574845 0.0773132325 36.0574845 56.2640825 0 56.2640825"></polygon>
        <polygon id="path-3" points="0.0300401684 0.0683392203 6.8419162 0.0683392203 6.8419162 6.95505559 0.0300401684 6.95505559"></polygon>
    </defs>
    <g id="Page-1" stroke="none" stroke-width="1" fill="none" fill-rule="evenodd">
        <g id="Desktop" transform="translate(-1157.000000, -185.000000)">
            <g id="Group-2" transform="translate(1157.000000, 184.000000)">
                <g id="Group-31">
                    <g id="Group-30" transform="translate(0.000000, 0.944799)">
                        <g id="Group-3" transform="translate(0.000000, 2.997334)">
                            <mask id="mask-2" fill="white">
                                <use xlink:href="#path-1"></use>
                            </mask>
                            <g id="Clip-2"></g>
                            <path d="M-8.56381206e-06,0.0854754082 C1.72705541,0.0840195601 3.45403376,0.0869312562 5.1810121,0.0773132325 C5.50138431,0.0755413862 5.6283,0.164519394 5.6276149,0.518804299 C5.61605375,6.39923149 5.61828034,12.2797443 5.62084948,18.1601715 C5.62093512,18.3031872 5.53495445,18.5041798 5.74887847,18.5619856 C5.93154459,18.6113131 6.02386248,18.448772 6.11626601,18.321685 C6.23538864,18.1580306 6.38080217,18.0303441 6.56124169,17.9317746 C6.84932832,17.7743718 7.09879217,17.5765477 7.30697844,17.3072158 C7.5578125,16.9824761 7.95671486,16.7973265 8.29096045,16.5952205 C9.20223569,16.0444817 10.1713167,15.58058 11.1455359,15.1445964 C12.9857279,14.3211002 14.930227,13.9061835 16.9423803,13.84264 C17.8972454,13.8124098 18.8628152,13.7772981 19.8079175,13.8831469 C20.7036922,13.9836004 21.5978398,14.1489676 22.4866779,14.3520156 C24.1010421,14.7206877 25.5592024,15.4531505 27.0150504,16.1705411 C27.6708671,16.493825 28.2671654,17.0065404 28.8771657,17.4510022 C29.8894083,18.1885177 30.6449078,19.1733561 31.5817888,19.9751858 C32.0473177,20.3734031 32.2925852,20.9561705 32.6949131,21.4076547 C33.2965209,22.0829113 33.6278548,22.92285 34.0789964,23.6850292 C34.3656272,24.1693984 34.5994193,24.7155127 34.7959588,25.2601712 C35.8241301,28.1083238 36.0691407,31.0612118 36.0570657,34.065654 C36.0279488,41.3019896 36.0448195,48.5384964 36.0549248,55.774832 C36.055353,56.1107903 35.9709138,56.2263161 35.6304166,56.2235757 C34.003378,56.2110725 32.376168,56.2143268 30.7491294,56.2221199 C30.481339,56.2233188 30.3756615,56.1530099 30.3778881,55.8589286 C30.4317545,48.6231069 30.2919075,41.3866 30.468322,34.1512065 C30.4954693,33.0392811 30.298416,31.929668 30.2713543,30.8246793 C30.221256,28.7848649 29.4276476,27.0452978 28.4050428,25.3667906 C27.686282,24.1872112 26.7000734,23.2543551 25.679267,22.3294634 C24.9393536,21.6591738 24.0824586,21.2019519 23.2409784,20.7545784 C22.6410834,20.4354907 21.9436466,20.2022981 21.2431267,20.0275964 C19.9970064,19.71673 18.7541404,19.5332075 17.4711101,19.5425421 C16.5459614,19.5492218 15.6668005,19.7909782 14.7735949,19.9660226 C13.5156565,20.2126603 12.430279,20.8765271 11.3246052,21.4682008 C10.9712623,21.6572898 10.6245992,21.917801 10.3062823,22.2072578 C9.8380131,22.6332218 9.31553492,22.9995817 8.91055225,23.4967966 C8.34165821,24.1951755 7.72754725,24.85673 7.30749227,25.6691788 C7.00390513,26.2563138 6.60483149,26.7972898 6.3754926,27.4200502 C5.8781064,28.7709059 5.65912972,30.1856477 5.64645528,31.6131495 C5.60980217,35.7376527 5.62239097,39.862584 5.61965055,43.9873441 C5.61699577,47.9123961 5.61374152,51.8375337 5.62872819,55.7625001 C5.6300984,56.1320286 5.51714172,56.22683 5.16970786,56.2239183 C3.59978984,56.2106444 2.02970053,56.216639 0.459696868,56.2207497 C0.306747184,56.2211778 0.145833156,56.1749333 -8.56381206e-06,56.2640825 L-8.56381206e-06,0.0854754082 Z" id="Fill-1" fill="#F15522" mask="url(#mask-2)"></path>
                        </g>
                        <g id="Group-6" transform="translate(30.144618, 19.011663)" fill="#F15522">
                            <path d="M92.9985544,48.048929 C123.712153,48.0495284 154.425665,48.0473875 185.139263,48.0655428 C185.714666,48.0658853 185.959762,47.8810782 186.236202,47.3960239 C186.956847,46.1315771 187.541841,44.7983628 188.27653,43.5397394 C188.673291,42.859944 188.989553,42.1073561 189.381262,41.4242209 C190.041104,40.2733302 190.609141,39.0773082 191.249372,37.9181962 C192.696142,35.2990399 194.097011,32.654706 195.520744,30.0227897 C195.723621,29.647866 195.963836,29.2928103 196.161746,28.9154888 C196.570668,28.1357537 196.909366,27.3135421 197.376865,26.5718303 C197.829976,25.8528127 198.124914,25.0598037 198.56792,24.3374461 C199.042098,23.5645621 199.420191,22.7331016 199.853006,21.9341835 C200.100328,21.477818 200.371544,21.0342125 200.626832,20.5823002 C200.907382,20.0859416 200.722318,19.6865254 200.470628,19.3218783 C200.038241,18.6949216 199.677362,18.0253172 199.35442,17.3481765 C199.024885,16.6573338 198.581194,16.0362005 198.263134,15.3433025 C198.014098,14.8009563 197.733633,14.2729116 197.48554,13.7301372 C197.169193,13.0382668 196.634554,12.4550712 196.386888,11.7455594 C196.023183,10.7037717 195.352637,9.83206125 194.896699,8.8408 C194.605273,8.20716355 194.392291,7.49576768 193.9808,6.94751243 C193.31856,6.0650116 192.969157,5.02990363 192.401718,4.10312789 C191.799682,3.11974535 191.369865,2.02486198 190.800457,1.01133482 C190.675083,0.788076241 190.540031,0.570212862 190.416798,0.345840986 C190.320284,0.170025925 190.38828,0.0769372876 190.580966,0.065204865 C190.652132,0.060922959 190.723554,0.0615224259 190.79489,0.0614367877 C192.693059,0.0612655115 194.591314,0.0679452849 196.489397,0.0543908825 C196.783907,0.052359147 196.8722,0.184755681 197.016585,0.417520093 C197.47218,1.15203825 197.866287,1.91464572 198.252172,2.68615955 C198.784841,3.75098394 199.35973,4.79696794 199.94421,5.83190463 C200.488612,6.79584732 200.979061,7.78805058 201.492633,8.76483899 C201.949084,9.63295262 202.464369,10.4685238 202.899667,11.3487124 C203.249499,12.0560832 203.707834,12.7089026 203.985131,13.455667 C204.018272,13.5449876 204.062633,13.6694198 204.182098,13.6503225 C204.371444,13.6200066 204.454171,13.4465038 204.517286,13.2959519 C204.715881,12.8225444 204.933658,12.3603555 205.201963,11.9224878 C205.581168,11.3034954 205.95378,10.6764531 206.295048,10.0403332 C206.611652,9.45020087 206.841761,8.80740113 207.19185,8.2290869 C207.886546,7.08162173 208.409453,5.84457907 209.062358,4.67519054 C209.466227,3.95197661 209.823081,3.20161539 210.244078,2.48893496 C210.673725,1.76169603 211.084873,1.02692096 211.442327,0.262001266 C211.521285,0.0932085305 211.66687,0.0613511496 211.833522,0.0613511496 C213.817329,0.0618649783 215.801136,0.0617793402 217.784943,0.0603234922 C218.061211,0.0600665778 218.156784,0.139281839 217.994842,0.414437121 C217.606644,1.07376501 217.362319,1.82558207 216.940979,2.44560207 C216.344167,3.32364972 215.936958,4.29418654 215.409598,5.20272136 C214.643308,6.52249044 213.918467,7.87223286 213.251432,9.25049277 C212.823755,10.1341069 212.296824,10.9690786 211.834464,11.8365071 C211.306762,12.8268263 210.806721,13.8318753 210.285185,14.8255344 C209.555805,16.214756 208.815292,17.5981542 208.084799,18.986862 C207.913522,19.3122868 207.73745,19.6395101 207.612504,19.9836041 C207.51796,20.243944 207.590581,20.5100216 207.738564,20.7587147 C208.592376,22.1928963 209.338198,23.6872815 210.153644,25.1432152 C210.540386,25.8339723 210.806892,26.6113095 211.229859,27.2801432 C211.79567,28.1753185 212.21247,29.1453415 212.754303,30.0519066 C213.147125,30.7091792 213.412004,31.4725574 213.808851,32.1157853 C214.258793,32.8452508 214.633289,33.6044328 214.99648,34.3667833 C215.494123,35.4110546 216.132298,36.3740552 216.655376,37.4043675 C217.050682,38.1829893 217.338683,39.0354311 217.915969,39.7237047 C217.9933,39.8160226 218.139485,39.957925 218.070203,40.0987997 C217.98722,40.2674211 217.791623,40.2013085 217.642441,40.2015654 C215.758574,40.2049053 213.874621,40.196941 211.990753,40.2103005 C211.676804,40.2125271 211.507926,40.1106177 211.363797,39.8291252 C210.77238,38.6741239 210.144567,37.5378773 209.549467,36.3848457 C209.072121,35.4599539 208.650952,34.497724 208.128988,33.6060599 C207.523698,32.5716371 207.085145,31.4585128 206.486277,30.4344521 C205.780876,29.2281535 205.067425,28.0311895 204.474638,26.7644305 C204.413835,26.6344318 204.364679,26.4404614 204.160432,26.4611002 C203.979136,26.4795124 203.919874,26.6441945 203.857701,26.7878953 C203.458114,27.7122732 202.94968,28.5896357 202.468137,29.4634871 C201.949341,30.4051639 201.503766,31.3913725 200.931275,32.3111259 C200.598314,32.8462785 200.377625,33.4990979 200.016061,34.0058187 C199.231872,35.1044701 198.894201,36.4215844 198.122773,37.5254598 C197.720702,38.100948 197.458478,38.7940173 197.113356,39.4231149 C196.774915,40.0401376 196.401532,40.6379773 196.059751,41.2532872 C195.75899,41.7952052 195.447781,42.3356674 195.206281,42.9044758 C195.084846,43.190764 194.912457,43.4641209 194.754711,43.6974848 C194.288069,44.3880706 194.040061,45.1850189 193.559888,45.8735494 C193.140861,46.4741296 192.93473,47.2297147 192.531374,47.8570139 C192.163816,48.4288197 192.048375,49.1495501 191.489929,49.6053162 C191.459613,49.6300656 191.444199,49.6763102 191.428355,49.7151899 C190.913756,50.9871729 190.202018,52.1581885 189.567182,53.368769 C189.500128,53.4967124 189.422197,53.5249729 189.301618,53.5238596 C189.173161,53.5217187 189.044704,53.5238596 188.916247,53.5238596 L0.610180173,53.5238596 C0.0519052649,53.5238596 0.0547313229,53.5238596 0.0552451516,52.9535098 C0.0565297234,51.4835314 0.0648366211,50.0133818 0.0481914574,48.5435747 C0.0440265578,48.1582888 0.156212496,48.0390806 0.559139853,48.0391662 C31.3722495,48.0492715 62.1854448,48.0484151 92.9985544,48.048929" id="Fill-4"></path>
                        </g>
                        <path d="M128.512281,38.8511978 C128.44908,43.7210952 130.207316,47.5574261 133.394338,50.7119919 C136.585472,53.8705827 140.558481,55.4334784 145.017572,55.335594 C150.56932,55.2138166 154.993215,52.7229463 158.196851,48.1852392 C160.217568,45.3231275 161.088165,42.0526077 160.989082,38.5832362 C160.743129,29.9635024 153.702734,22.6950525 144.306433,22.8194847 C135.782614,22.9323558 128.198074,30.3583798 128.512281,38.8511978 L128.512281,38.8511978 Z M122.850744,22.1382335 C122.850744,15.9444564 122.853913,9.7505937 122.84278,3.55681663 C122.842181,3.18112219 122.94349,3.06551073 123.322953,3.07016429 C124.878312,3.08966068 126.4341,3.08811919 127.989545,3.07176231 C128.386478,3.06756604 128.527867,3.16690626 128.526839,3.60057771 C128.511595,10.2795804 128.515792,16.9586687 128.517933,23.637757 C128.518018,23.7561089 128.446939,23.9209622 128.608538,23.9761988 C128.784524,24.0364024 128.817409,23.8506533 128.916407,23.7623604 C129.198413,23.5107556 129.376797,23.1427686 129.757973,23.0003524 C129.821516,22.9767163 129.879921,22.9250765 129.927108,22.8739506 C130.723885,22.0092625 131.690996,21.3688606 132.641408,20.6881232 C133.592933,20.006615 134.643627,19.5433128 135.65861,19.0031075 C136.236582,18.695581 136.849237,18.4104061 137.470542,18.2198613 C138.012802,18.053552 138.561657,17.8721705 139.126355,17.7582718 C139.504105,17.6821395 139.888277,17.6155987 140.256179,17.4604224 C140.612005,17.3102132 141.031032,17.2695351 141.402274,17.2379346 C143.501435,17.0593791 145.611387,16.8144541 147.709093,17.2220915 C148.518801,17.3793231 149.349405,17.4138353 150.133251,17.7650372 C150.77391,18.0522675 151.525641,18.0399356 152.186083,18.3182595 C152.702652,18.5359516 153.196784,18.828577 153.731765,18.9755321 C154.540446,19.197763 155.154814,19.7578363 155.891987,20.1034717 C156.584285,20.4281259 157.17202,20.9695301 157.812764,21.3909552 C158.358621,21.7501215 158.79923,22.2178769 159.306635,22.605732 C160.053229,23.1763388 160.684125,23.9110282 161.287445,24.6534251 C161.614155,25.0554104 161.942149,25.4577383 162.273654,25.8561269 C162.62674,26.2804637 162.93615,26.7280942 163.208051,27.2058693 C163.518575,27.7514697 163.852821,28.2843958 164.14459,28.8398446 C164.72907,29.9526264 165.213867,31.1023181 165.578258,32.3140975 C166.46367,35.2582505 166.926801,38.2401698 166.501608,41.3071279 C166.35157,42.3891655 166.355338,43.4993781 165.980842,44.5475031 C165.662269,45.4393385 165.436441,46.3570366 165.081385,47.2439906 C164.538011,48.600841 163.864724,49.8843851 163.10991,51.1186873 C162.696363,51.7948859 162.17517,52.4224421 161.67119,53.0506833 C161.036269,53.8422365 160.309543,54.5329936 159.591125,55.2369389 C159.077553,55.7403198 158.475432,56.1446174 157.935398,56.6086047 C157.440838,57.0335411 156.83452,57.279665 156.381408,57.7403981 C156.297397,57.8257793 156.199684,57.8724521 156.097432,57.9228929 C155.073971,58.4284148 154.058903,58.9417297 153.005468,59.3946697 C149.820073,60.7641945 146.514869,61.2817057 143.076327,61.0630715 C142.124117,61.002611 141.171479,60.840755 140.249841,60.6490969 C139.515751,60.4965754 138.764791,60.2322105 138.029502,60.0355854 C136.919118,59.7385924 135.928285,59.1911079 134.882386,58.7714811 C134.306813,58.5406007 133.763182,58.1439249 133.21878,57.7989746 C132.768752,57.5137996 132.315726,57.2202322 131.871093,56.9272641 C131.535221,56.7060609 131.168176,56.4823741 130.894219,56.1982268 C130.185735,55.4630236 129.302292,54.9084311 128.671996,54.1089992 C128.111837,53.3984597 127.422364,52.7957387 126.933199,52.0345014 C126.170677,50.8479852 125.402503,49.6672925 124.833438,48.3625957 C124.357119,47.2705384 123.918652,46.1759119 123.625427,45.0181702 C123.185418,43.2812578 122.840639,41.5311572 122.837385,39.7346407 C122.826594,33.8692002 122.83336,28.003674 122.83336,22.1382335 L122.850744,22.1382335 Z" id="Fill-7" fill="#F15522"></path>
                        <path d="M90.5613791,47.2967522 C91.3320366,47.2965809 92.1031222,47.3118245 92.8731802,47.2900724 C93.2491315,47.279539 93.3803291,47.3783653 93.39857,47.7885719 C93.4978246,50.0142211 94.2173561,51.966342 96.0203811,53.403264 C96.9461292,54.1409508 97.9872318,54.5819871 99.1482278,54.8682754 C100.217934,55.1321264 101.297488,55.2415719 102.375329,55.3401414 C103.154379,55.4113923 103.960405,55.3492191 104.738342,55.1078908 C105.126454,54.9875693 105.552589,54.9916799 105.947895,54.8607392 C107.212855,54.4422257 108.414529,53.9344773 109.316213,52.8807859 C109.805036,52.3096652 110.318094,51.7324643 110.47738,51.0057392 C111.103053,48.150393 110.752621,46.5183873 108.202061,44.529442 C106.931192,43.538352 105.477998,42.8738858 103.986953,42.3020801 C102.354005,41.6756373 100.685004,41.1473357 99.0324451,40.575273 C98.0382721,40.2311791 96.9879206,40.0527092 96.0363954,39.611416 C95.2648816,39.2535343 94.4675051,38.9432674 93.7683554,38.4141951 C93.265831,38.0338762 92.7119236,37.7161587 92.2523038,37.2757219 C91.3073728,36.3703557 90.4783101,35.365478 89.9328809,34.1727959 C89.6124231,33.4721048 89.3553375,32.7398132 89.198791,31.9672717 C89.0358216,31.1621021 88.919782,30.3453713 88.924749,29.5426852 C88.9315144,28.4686976 89.0902875,27.3990774 89.3498566,26.335452 C89.6718559,25.0155973 90.3090036,23.8691597 90.9929096,22.7366812 C91.4404544,21.9956546 92.0923318,21.41931 92.7048156,20.8087102 C93.2071688,20.3080698 93.7389816,19.8469085 94.2981985,19.4264253 C94.7792278,19.0646043 95.3340772,18.7933027 95.8764234,18.5224293 C96.7873561,18.0676909 97.7520695,17.7811458 98.743759,17.5294553 C99.9702681,17.2181607 101.194037,17.0256463 102.453945,17.0133144 C103.890696,16.9991841 105.279318,17.2484766 106.664086,17.6329062 C107.8047,17.9495959 108.895559,18.3497829 109.894527,18.9753693 C111.479432,19.9678295 112.757752,21.2647332 113.67605,22.9046176 C114.496377,24.3694576 114.926281,25.9445996 115.039837,27.6153137 C115.067498,28.0228655 114.93887,28.1584307 114.513163,28.1511514 C113.000879,28.1252887 111.487653,28.1295706 109.975199,28.150295 C109.633759,28.1550051 109.484578,28.0317719 109.409387,27.7227895 C109.285555,27.2136709 109.277248,26.6777476 109.018021,26.199373 C108.331289,24.9315863 107.298236,24.0500275 105.985318,23.4975759 C104.15429,22.7269185 102.248756,22.7133877 100.323097,23.0140631 C98.8524338,23.2436589 97.5338636,23.8009062 96.476661,24.8818305 C95.4779493,25.9030651 94.8966377,27.1297456 94.7179966,28.5463713 C94.6841695,28.8150181 94.6803158,29.0887176 94.6309882,29.3541101 C94.4393301,30.3855356 94.7375221,31.3634373 95.1708509,32.236518 C95.6080336,33.117306 96.4433478,33.6988745 97.3379236,34.1534417 C98.3284997,34.6568225 99.3774811,35.0165883 100.391094,35.4583953 C101.342105,35.8727982 102.35392,36.0495553 103.316835,36.3981024 C103.952526,36.6282121 104.581196,36.8807589 105.225965,37.0816659 C106.249426,37.4005823 107.259442,37.7727655 108.258497,38.1435786 C109.377444,38.5589235 110.452032,39.1371521 111.434729,39.8718415 C111.849132,40.1815946 112.17233,40.5865773 112.586904,40.8565943 C113.159309,41.2294626 113.551875,41.7485153 113.989143,42.23631 C114.36381,42.6542241 114.67519,43.1181258 114.948375,43.611487 C115.213083,44.0897759 115.498429,44.5570175 115.681352,45.0741004 C115.839183,45.5206176 116.03872,45.9661071 116.103034,46.428296 C116.171288,46.9179748 116.309936,47.394294 116.331174,47.8956196 C116.372366,48.8689825 116.425119,49.8441438 116.30651,50.8106556 C116.192869,51.7374313 116.095156,52.6752544 115.566854,53.501491 C115.381362,53.7916329 115.302061,54.1472024 115.149796,54.4667182 C114.897249,54.9963044 114.43232,55.3697722 114.219167,55.9102344 C114.198956,55.9616173 114.164701,56.0180528 114.120597,56.0477692 C113.629548,56.3773903 113.453134,57.0249002 112.952579,57.3026246 C112.440206,57.5868575 112.064426,58.0309768 111.620735,58.3754133 C110.959437,58.8886426 110.187838,59.1640548 109.5238,59.6392607 C109.132091,59.9195543 108.630337,59.9576632 108.188188,60.1388735 C107.6771,60.3483444 107.127645,60.465326 106.601999,60.6551001 C106.16867,60.8116466 105.679333,60.7817589 105.215346,60.86243 C103.693043,61.1270518 102.158836,61.2440335 100.622916,60.9316256 C100.512272,60.9091028 100.39529,60.9055916 100.281905,60.910473 C99.4211565,60.9470405 98.6057103,60.715475 97.8074774,60.4462287 C97.1621942,60.2285366 96.5106593,60.0260881 95.8652048,59.8097662 C94.782739,59.4471744 93.8139149,58.8989192 92.9159992,58.2205796 C91.0967886,56.8463447 89.7270069,55.1246759 88.826779,53.0095 C88.1049353,51.3133513 87.8356034,49.5465513 87.7293265,47.7327359 C87.7089446,47.3862441 87.8302082,47.2838209 88.1639399,47.2912714 C88.9627723,47.3090841 89.7622042,47.2970091 90.5613791,47.2967522" id="Fill-9" fill="#F15522"></path>
                        <path d="M56.3848751,47.2968379 C57.1697485,47.2970948 57.9549644,47.3103687 58.7394096,47.2909288 C59.0797355,47.2824506 59.2065655,47.3736552 59.2213809,47.7410428 C59.2794436,49.184302 59.6077801,50.5648742 60.4055849,51.788386 C61.3103516,53.1761517 62.6117941,54.077493 64.1560207,54.6156429 C66.4979664,55.4317742 68.9008008,55.5358245 71.3075745,54.9942491 C72.2544752,54.7811814 73.2136222,54.4900974 74.022303,53.9027056 C74.6996149,53.4107146 75.2325409,52.7787909 75.7570744,52.1198055 C76.459307,51.2378185 76.5727775,50.2207802 76.6221907,49.1912387 C76.6705762,48.1850764 76.3709284,47.2661794 75.8124822,46.3829935 C75.4057868,45.7398512 74.8339811,45.2873394 74.3366805,44.7636622 C73.9693786,44.3769205 73.4457871,44.0919168 72.9719514,43.7869595 C72.0087795,43.1668538 70.9194626,42.8180498 69.9199801,42.2786153 C69.4370667,42.0179328 68.8465919,42.0125376 68.3425259,41.7704387 C67.3498944,41.2936056 66.2624616,41.108456 65.2286382,40.7589668 C64.4043713,40.480386 63.5906379,40.1698622 62.7618321,39.9061824 C61.8880664,39.6282011 61.0256049,39.2889028 60.248182,38.8353633 C59.6346705,38.4775673 58.9899867,38.1086383 58.4842936,37.5496782 C58.2206139,37.2581661 57.817087,37.0761851 57.5670237,36.7460501 C57.0275892,36.0338835 56.4107378,35.3956226 56.0005312,34.5678445 C55.0863443,32.723285 54.6796489,30.7847805 54.8355959,28.760381 C54.9273999,27.5673563 55.0675039,26.3623424 55.5384279,25.2182171 C55.9974483,24.1030375 56.6464139,23.1236799 57.3160184,22.1334463 C57.8296758,21.3739218 58.5100707,20.7944087 59.1596359,20.2040195 C59.6934183,19.7188795 60.2838931,19.2327975 60.9852693,18.9372604 C61.3422946,18.7867942 61.6575286,18.5387862 61.9966555,18.3436169 C62.5029481,18.0521904 63.0875995,17.9976389 63.6306309,17.8164287 C65.2507328,17.2756239 66.9046618,16.9587629 68.6235902,17.0068915 C69.4974416,17.0312984 70.3470574,17.1991491 71.2073779,17.3105643 C72.0480874,17.419496 72.8287645,17.6800928 73.6107262,17.9549911 C74.8521364,18.391403 76.0012287,19.0309485 76.9685112,19.9125929 C77.7105655,20.5889628 78.4666645,21.2710704 79.0748664,22.0842044 C79.2014396,22.2533397 79.2775719,22.459385 79.3862467,22.6427362 C80.3125086,24.2055463 80.7763246,25.9053773 80.9074366,27.7078029 C80.9195972,27.8759105 80.8518574,27.9403104 80.7244279,27.9950331 C80.4704253,28.1042217 80.2029774,28.1395046 79.9298774,28.1397615 C78.5313213,28.1410461 77.1326795,28.13351 75.7343803,28.1477259 C75.4474926,28.1506376 75.3309391,28.036482 75.2590031,27.7781974 C75.0998874,27.2079332 75.0800194,26.5999881 74.7581057,26.0724573 C74.3067928,25.332544 73.7526285,24.7158638 73.0549348,24.1777995 C72.3460224,23.6310001 71.496321,23.4807909 70.7342273,23.1022704 C70.6490174,23.0600508 70.5395719,23.0674157 70.4416875,23.0501168 C68.8956625,22.7770168 67.3477535,22.7333414 65.8072093,23.0688715 C64.313338,23.3942964 63.0065859,24.0352977 62.0005092,25.250417 C60.8884126,26.5932227 60.5049251,28.1648535 60.3891424,29.842333 C60.3541164,30.3500814 60.5741207,30.8072177 60.6756019,31.2870481 C60.773315,31.7493227 60.9226678,32.1485676 61.1958534,32.522378 C61.7674023,33.304254 62.5565575,33.8121737 63.3893026,34.2542377 C64.7106132,34.9556996 66.1155066,35.4710698 67.5228834,35.9596353 C68.1977975,36.1939412 68.9197268,36.31726 69.5902733,36.578285 C70.5714293,36.9602311 71.6068798,37.1853737 72.5629438,37.6396839 C72.903184,37.8014543 73.2646625,37.9502077 73.6323926,38.0164916 C74.7847392,38.2239072 75.7288138,38.883492 76.6939554,39.4572674 C77.1682193,39.7391881 77.622187,40.1281564 78.057143,40.5114726 C78.5439957,40.9405196 79.0485755,41.3448172 79.4849018,41.8318412 C80.0318724,42.4423553 80.5625719,43.0705966 80.9230227,43.806485 C81.8925319,45.7859245 82.4519201,47.8694143 82.2880087,50.0919805 C82.2138461,51.0972864 81.9578738,52.0673094 81.6394712,53.035534 C81.3465889,53.9259991 80.870184,54.7037645 80.3724552,55.4512141 C79.9679864,56.0586453 79.5364559,56.6863727 78.9374173,57.1658605 C78.5107681,57.5073853 78.1423529,57.9307802 77.6847885,58.2329115 C77.2526585,58.5181721 76.8572673,58.850448 76.3717848,59.0737922 C75.7116862,59.377465 75.0937215,59.7790221 74.4081027,60.032254 C73.9320404,60.2080691 73.4388504,60.3384103 72.9511414,60.4816829 C72.5379374,60.6029465 72.1214792,60.713334 71.7067338,60.8292024 C71.652268,60.8443603 71.5998574,60.8732204 71.5447065,60.8788725 C69.8775892,61.0468089 68.2114996,61.2831701 66.537103,60.9450708 C66.3984549,60.9170671 66.2529557,60.9068762 66.1113959,60.911415 C65.2097122,60.9403607 64.3654916,60.6837032 63.5228981,60.4092331 C62.8544069,60.1913697 62.1713573,60.0134993 61.5149411,59.7648062 C61.0287735,59.5805986 60.5700101,59.32043 60.1077355,59.0776459 C59.2718218,58.6387505 58.611295,57.9706876 57.894247,57.3743893 C56.7514919,56.4241488 55.842272,55.2937256 55.1349011,53.9892001 C54.0800107,52.0440158 53.6449691,49.9455393 53.5294433,47.7585986 C53.5098321,47.3866722 53.643085,47.2852767 53.9875216,47.2917852 C54.7863539,47.3069432 55.5857002,47.2965809 56.3848751,47.2968379" id="Fill-11" fill="#F15522"></path>
                        <path d="M210.44013,40.3869891 C210.425485,38.1909707 210.223979,36.2999098 209.537589,34.485238 C209.482781,34.3404239 209.479441,34.1768551 209.439448,34.0254469 C209.250274,33.3094266 208.872781,32.6760471 208.577843,32.0068708 C208.307483,31.3932736 207.905584,30.8722513 207.562946,30.3231397 C207.286934,29.8808188 206.981548,29.4106655 206.512508,29.0552673 C206.202841,28.8207901 205.96648,28.3812953 205.696377,28.0340327 C205.538803,27.8312417 205.404094,27.6421527 205.10496,27.5946235 C204.769259,27.5413566 204.676085,27.164292 204.453854,26.9507961 C204.31846,26.8209687 204.224686,26.6609111 204.009477,26.6667345 C203.982073,26.6675052 203.937541,26.663052 203.929149,26.6466095 C203.65348,26.1105149 202.993895,26.1034926 202.624623,25.6976535 C202.376872,25.4252387 201.991758,25.4331174 201.694422,25.2189364 C200.961531,24.6912343 200.07826,24.406145 199.247998,24.1059834 C198.643907,23.8875206 197.989118,23.6038871 197.27147,23.6501317 C196.815361,23.6795056 196.347692,23.5087432 195.883704,23.4385199 C193.603589,23.0933983 191.398493,23.4194226 189.243239,24.1867402 C189.176441,24.2105476 189.105961,24.2348688 189.036166,24.2382943 C188.29394,24.2744336 187.64232,24.6329148 187.023071,24.9573976 C186.640953,25.1576195 186.226979,25.4151334 185.848715,25.6207505 C185.319043,25.9087515 184.91663,26.3033719 184.458551,26.6535462 C184.236663,26.8231953 183.946692,26.9028388 183.74844,27.1183043 C183.621439,27.2564386 183.47534,27.2628614 183.323932,27.1719138 C183.20284,27.0991214 183.064363,27.0342077 182.977098,26.9295579 C181.98832,25.7442407 180.739973,24.8195202 179.712487,23.6717981 C179.451804,23.3807142 179.476639,23.2151757 179.767124,22.9936299 C180.624019,22.3402966 181.457706,21.6646119 182.380457,21.0916928 C183.316738,20.5103813 184.268092,19.9838781 185.263892,19.5111557 C186.126868,19.1015486 187.026154,18.8277635 187.917304,18.5106455 C189.19177,18.0571917 190.518647,17.9447488 191.841499,17.7496652 C193.239028,17.5436199 194.612235,17.521097 196.000001,17.7379328 C196.223773,17.7729587 196.455253,17.7659364 196.683136,17.7655082 C197.378603,17.764138 198.043498,17.9308754 198.713873,18.0925602 C199.052829,18.174259 199.404716,18.1743446 199.746669,18.2991194 C200.402742,18.5385635 201.095127,18.6807228 201.745206,18.9335266 C202.580777,19.2585232 203.401447,19.6283943 204.20713,20.0224153 C205.539146,20.6739501 206.748613,21.5184276 207.90841,22.4404932 C208.735931,23.0983653 209.511042,23.8053936 210.207023,24.6017425 C211.155294,25.6866062 212.125916,26.7564832 212.861633,28.0028604 C213.511284,29.1033959 214.103043,30.2397282 214.588611,31.4218768 C214.880552,32.1325875 215.194758,32.8646222 215.340514,33.6007675 C215.560347,34.7107232 215.828394,35.8145985 215.987424,36.9424526 C216.156388,38.1398448 216.201434,39.3304716 216.148767,40.5251234 C216.104749,41.5267468 215.920284,42.519207 215.793368,43.5148358 C215.703791,44.2166402 215.481988,44.8806782 215.373656,45.5737475 C215.305659,46.0086179 215.100385,46.4218218 214.957797,46.8450454 C214.58099,47.963308 214.088656,49.0325855 213.522931,50.0640967 C212.85992,51.27305 212.101766,52.4193163 211.229285,53.4952736 C210.317239,54.6198734 209.248475,55.5633486 208.17149,56.5215535 C207.168496,57.4139028 206.059568,58.0969524 204.92906,58.7874526 C204.070024,59.312243 203.160119,59.7170544 202.246702,60.1055945 C201.454036,60.4428375 200.618465,60.6878481 199.76825,60.8874706 C197.637316,61.3878541 195.494565,61.7715985 193.298975,61.6548738 C191.848436,61.5776282 190.425387,61.3008458 189.001397,60.9901507 C187.847766,60.7383746 186.734727,60.3797222 185.66819,59.9254976 C184.744583,59.5322473 183.787063,59.1523566 182.983264,58.5033053 C182.720697,58.2912653 182.381399,58.1988618 182.094169,58.0072037 C180.952869,57.2459664 179.940798,56.3279258 178.895585,55.4490217 C178.742121,55.3200507 178.723024,55.1941627 178.8299,55.044296 C178.936948,54.8941723 179.036374,54.7272636 179.176563,54.6139644 C180.179129,53.8035709 180.920584,52.7378901 181.869197,51.8757711 C181.943017,51.8087165 182.009044,51.7327555 182.084491,51.6677561 C182.636772,51.1922933 182.714274,51.1880114 183.209177,51.6853976 C183.554299,52.0319751 183.932476,52.3265702 184.364521,52.5573649 C184.628201,52.6982397 184.889311,52.8510181 185.026846,53.1414169 C185.050225,53.1909158 185.09587,53.2661917 185.133037,53.2672193 C185.70176,53.2835762 186.036862,53.7530444 186.472075,54.0040497 C186.972116,54.2924789 187.569442,54.3658708 188.014161,54.7680274 C188.143388,54.8848378 188.392681,54.8659974 188.585281,54.9160957 C189.920636,55.2636152 191.238179,55.6715952 192.619094,55.8394459 C194.318496,56.0461763 195.975851,55.8695049 197.624984,55.472144 C198.105585,55.3563613 198.566832,55.1344729 199.08323,55.1922786 C199.160904,55.2009281 199.250053,55.1683856 199.324644,55.1343016 C200.093589,54.7840417 200.885913,54.4738604 201.617862,54.0580017 C201.997581,53.8421937 202.479467,53.7810481 202.758219,53.3750377 C202.825873,53.2764682 203.005114,53.2304806 203.141021,53.2077008 C203.403588,53.1635972 203.52665,52.9408524 203.715996,52.8186469 C204.215266,52.4963906 204.572206,52.0243533 205.022234,51.6773476 C205.531096,51.285125 206.08192,50.9829937 206.322906,50.3427631 C206.350139,50.2703133 206.429868,50.2101097 206.497607,50.1616385 C207.032332,49.7795212 207.292843,49.1845076 207.681983,48.6909751 C208.092446,48.1704666 208.328893,47.5609801 208.723942,47.0443253 C208.757683,47.0003073 208.786457,46.9472973 208.800502,46.8939448 C208.957477,46.3015859 209.234174,45.7531593 209.523117,45.2256285 C209.812488,44.6974126 209.86918,44.1230377 210.013737,43.5687878 C210.308332,42.4393923 210.604897,41.3022893 210.44013,40.3869891" id="Fill-13" fill="#F15522"></path>
                        <path d="M42.4187963,39.0936394 C42.4187963,32.5871119 42.421708,26.0805844 42.4113458,19.5741425 C42.4106607,19.1950226 42.4861935,19.0549186 42.9029942,19.0620884 C44.4293225,19.089602 45.9564214,19.0831792 47.4829209,19.0653664 C47.8321532,19.0612558 47.9785087,19.1786657 47.9886997,19.5182208 C47.9985481,19.8454441 48.0497596,20.1720679 48.0498453,20.4988629 C48.0528426,33.140848 48.0519006,45.782833 48.0516437,58.424818 C48.0516437,59.2161142 48.0517293,59.2161142 47.2530682,59.2161142 C45.7976484,59.2161142 44.3420572,59.2031828 42.8869799,59.2249676 C42.5052908,59.2305014 42.4100612,59.1162601 42.4107427,58.7415077 C42.4219649,52.1921612 42.4188819,45.6429003 42.4187963,39.0936394" id="Fill-15" fill="#F15522"></path>
                        <path d="M187.684805,39.5862298 C187.684719,36.3051765 187.684377,33.0242088 187.686004,29.7431555 C187.686089,29.6034797 187.628369,29.4214131 187.747064,29.3363744 C187.909091,29.2201635 188.041916,29.4095094 188.153931,29.4861555 C189.118815,30.1463398 190.210616,30.5819809 191.193827,31.2007163 C192.195022,31.830756 193.241434,32.3832075 194.256417,32.9864424 C194.853658,33.3412412 195.445417,33.7425414 196.103889,34.0142711 C196.581321,34.2113245 197.018675,34.5074611 197.468875,34.7679722 C198.446434,35.333612 199.437866,35.8774997 200.407889,36.4520459 C201.058825,36.8375031 201.760543,37.1368083 202.372685,37.5989972 C202.737246,37.8741525 203.190443,38.0299283 203.597652,38.2505321 C204.303996,38.6332488 205.014449,39.0097996 205.703151,39.4223185 C205.886502,39.5321065 205.863294,39.7234221 205.633099,39.8512798 C204.672239,40.3851479 203.733903,40.9621775 202.754288,41.4581935 C202.2915,41.692585 201.807473,41.9311728 201.39367,42.2061568 C200.791805,42.6062581 200.114493,42.8555507 199.529071,43.2845121 C198.963431,43.6989149 198.30633,43.9881149 197.691448,44.3358056 C197.090697,44.6755321 196.507073,45.0489999 195.889793,45.3548993 C194.957708,45.8167457 194.090965,46.3916344 193.173609,46.8801142 C192.533635,47.2208683 191.875421,47.5510889 191.276382,47.9788513 C190.901373,48.2466417 190.471469,48.4375291 190.066572,48.6638706 C189.504958,48.9779056 188.943257,49.2921119 188.382927,49.6085447 C188.334199,49.6362058 188.301314,49.6948679 188.251215,49.7162775 C188.097752,49.781705 187.943603,49.9495557 187.791596,49.8896947 C187.602592,49.8152751 187.688402,49.5889336 187.688145,49.4293041 C187.683777,46.1483365 187.684891,42.8672831 187.684805,39.5862298" id="Fill-17" fill="#020202"></path>
                        <g id="Group-21" transform="translate(41.791403, 0.000000)">
                            <mask id="mask-4" fill="white">
                                <use xlink:href="#path-3"></use>
                            </mask>
                            <g id="Clip-20"></g>
                            <path d="M0.0553136621,3.65375898 C-0.212819294,1.71251406 1.70975651,0.0999482506 3.11122436,0.0695467178 C5.56201609,0.016451083 6.97007807,1.69213219 6.83271453,3.84079264 C6.72309773,5.55458271 5.37369787,6.99981163 3.09932066,6.95399523 C1.66907841,6.92513519 -0.173083206,5.45755472 0.0553136621,3.65375898" id="Fill-19" fill="#F15522" mask="url(#mask-4)"></path>
                        </g>
                        <path d="M177.728286,32.8818697 C176.193822,33.0645358 174.826866,31.2412146 174.772657,30.0759367 C174.715622,28.8493419 176.001993,27.4118204 177.228502,27.3639487 C178.204691,27.3259254 179.117593,27.516984 179.760478,28.3203552 C180.296487,28.990131 180.560082,29.8177378 180.405077,30.6404632 C180.301454,31.1906881 179.941175,31.7311503 179.453894,32.1094139 C179.263263,32.2574822 179.033753,32.3600766 178.859137,32.5233029 C178.519753,32.8405065 178.135409,32.9592866 177.728286,32.8818697" id="Fill-22" fill="#040404"></path>
                        <path d="M172.868314,38.8025211 C172.853755,37.2033149 174.190823,35.8820043 175.526692,36.066897 C176.048742,36.1390899 176.539106,36.343765 177.035122,36.5168397 C177.329803,36.6196054 177.444729,36.902982 177.610439,37.1243565 C177.857077,37.4535495 178.069888,37.808862 178.285781,38.1601496 C178.511695,38.5276228 178.419462,38.9272959 178.283555,39.275843 C178.110138,39.7207331 177.887307,40.1453269 177.766557,40.6129966 C177.730504,40.752758 177.581922,40.8230669 177.4622,40.9004838 C177.178994,41.0837494 176.87241,41.2155465 176.616694,41.4615848 C176.40748,41.6628344 175.995219,41.6779923 175.76057,41.6769646 C175.185853,41.6746524 174.532519,41.7359693 174.056971,41.2232539 C173.80725,40.953922 173.488248,40.7526724 173.283059,40.4347837 C172.935283,39.895863 172.845791,39.2999073 172.868314,38.8025211" id="Fill-24" fill="#040404"></path>
                        <path d="M179.836876,47.6536919 C180.170265,49.0649225 179.186797,49.7293887 178.299672,50.4500335 C178.19211,50.5373843 178.071789,50.5476609 177.942647,50.5639322 C176.378124,50.7623557 175.329142,50.0360588 174.584348,48.7269088 C174.104689,47.8838015 174.369139,47.0835133 174.849569,46.41742 C175.24693,45.86651 175.748769,45.3175696 176.479177,45.1250551 C176.561132,45.1034743 176.642146,45.0726446 176.725558,45.0632244 C177.823096,44.9387922 179.278173,45.6829875 179.806132,46.6612317 C179.975439,46.9750954 179.83465,47.3354606 179.836876,47.6536919" id="Fill-26" fill="#040404"></path>
                        <path d="M260.923396,24.6395247 C260.923396,27.5758567 258.543058,29.9560579 255.606863,29.9560579 C252.670669,29.9560579 250.290467,27.5758567 250.290467,24.6395247 C250.290467,21.7033301 252.670669,19.3229916 255.606863,19.3229916 C258.543058,19.3229916 260.923396,21.7033301 260.923396,24.6395247 Z" id="Stroke-28" stroke="#F15522"></path>
                    </g>
                </g>
                <text id="R" font-family="Poppins-SemiBold, Poppins" font-size="7" font-weight="500" fill="#F15522">
                    <tspan x="254" y="28">R</tspan>
                </text>
            </g>
        </g>
    </g>
</svg>