<?xml version="1.0" encoding="UTF-8"?>
<svg width="242px" height="71px" viewBox="0 0 242 71" version="1.1" xmlns="http://www.w3.org/2000/svg" xmlns:xlink="http://www.w3.org/1999/xlink">
    <!-- Generator: Sketch 55.2 (78181) - https://sketchapp.com -->
    <title>Group</title>
    <desc>Created with Sketch.</desc>
    <defs>
        <polygon id="path-1" points="0 0.317606383 69.9868191 0.317606383 69.9868191 70.3722269 0 70.3722269"></polygon>
    </defs>
    <g id="Page-1" stroke="none" stroke-width="1" fill="none" fill-rule="evenodd">
        <g id="Desktop" transform="translate(-495.000000, -40.000000)">
            <g id="Group" transform="translate(495.000000, 40.000000)">
                <g id="Group-22">
                    <g id="Group-3" transform="translate(0.000000, 0.054734)">
                        <mask id="mask-2" fill="white">
                            <use xlink:href="#path-1"></use>
                        </mask>
                        <g id="Clip-2"></g>
                        <path d="M35.7446809,15.9559043 C33.7055015,15.0099897 32.0920263,14.3894223 30.9042553,14.0942021 C23.307691,12.206078 17.7904636,12.1431057 16.3829787,13.3495213 C15.6382979,15.9559043 18.9893617,17.0729255 13.7765957,21.9133511 C9.55673759,28.1190248 7.81914894,32.5871099 8.56382979,35.3176064 C13.1639451,29.6129483 17.3838033,25.3930901 21.2234043,22.6580319 C25.1950355,20.4239894 30.035461,18.1899468 35.7446809,15.9559043 Z" id="Path-2" fill="#249F41" mask="url(#mask-2)"></path>
                        <path d="M32.9335106,33.1469138 C30.8943313,32.2009993 29.2808561,31.5804319 28.0930851,31.2852117 C20.4965208,29.3970876 14.9792934,29.3341153 13.5718085,30.5405309 C12.8271277,33.1469138 16.1781915,34.2639351 10.9654255,39.1043607 C6.74556738,45.3100344 5.00797872,49.7781195 5.75265957,52.508616 C10.3527749,46.8039579 14.5726331,42.5840997 18.412234,39.8490415 C22.3838652,37.614999 27.2242908,35.3809564 32.9335106,33.1469138 Z" id="Path-2-Copy" fill="#90D1AF" mask="url(#mask-2)" transform="translate(19.259309, 41.120558) rotate(-62.000000) translate(-19.259309, -41.120558) "></path>
                        <path d="M45.9654255,44.689467 C43.9262462,43.7435525 42.312771,43.1229851 41.125,42.8277649 C33.5284357,40.9396408 28.0112083,40.8766685 26.6037234,42.0830841 C25.8590426,44.689467 29.2101064,45.8064883 23.9973404,50.6469138 C19.7774823,56.8525876 18.0398936,61.3206727 18.7845745,64.0511692 C23.3846898,58.3465111 27.604548,54.1266529 31.4441489,51.3915947 C35.4157801,49.1575521 40.2562057,46.9235096 45.9654255,44.689467 Z" id="Path-2-Copy" fill="#A157A7" mask="url(#mask-2)" transform="translate(32.291223, 52.663111) rotate(-120.000000) translate(-32.291223, -52.663111) "></path>
                        <path d="M61.9760638,38.7320202 C59.9368845,37.7861057 58.3234093,37.1655383 57.1356383,36.8703181 C49.539074,34.982194 44.0218466,34.9192216 42.6143617,36.1256373 C41.8696809,38.7320202 45.2207447,39.8490415 40.0079787,44.689467 C35.7881206,50.8951408 34.0505319,55.3632259 34.7952128,58.0937224 C39.3953281,52.3890643 43.6151863,48.1692061 47.4547872,45.4341479 C51.4264184,43.2001053 56.266844,40.9660628 61.9760638,38.7320202 Z" id="Path-2-Copy" fill="#E8211D" mask="url(#mask-2)" transform="translate(48.301862, 46.705664) rotate(-180.000000) translate(-48.301862, -46.705664) "></path>
                        <path d="M64.5824468,21.2320202 C62.5432675,20.2861057 60.9297923,19.6655383 59.7420213,19.3703181 C52.1454569,17.482194 46.6282296,17.4192216 45.2207447,18.6256373 C44.4760638,21.2320202 47.8271277,22.3490415 42.6143617,27.189467 C38.3945035,33.3951408 36.6569149,37.8632259 37.4015957,40.5937224 C42.0017111,34.8890643 46.2215692,30.6692061 50.0611702,27.9341479 C54.0328014,25.7001053 58.873227,23.4660628 64.5824468,21.2320202 Z" id="Path-2-Copy" fill="#F8BC00" mask="url(#mask-2)" transform="translate(50.908245, 29.205664) rotate(117.000000) translate(-50.908245, -29.205664) "></path>
                        <path d="M51.5505319,10.4341479 C49.5113526,9.48823332 47.8978774,8.86766594 46.7101064,8.57244576 C39.113542,6.68432164 33.5963147,6.6213493 32.1888298,7.82776491 C31.4441489,10.4341479 34.7952128,11.5511692 29.5824468,16.3915947 C25.3625887,22.5972685 23.625,27.0653536 24.3696809,29.79585 C28.9697962,24.0911919 33.1896543,19.8713338 37.0292553,17.1362756 C41.0008865,14.902233 45.8413121,12.6681904 51.5505319,10.4341479 Z" id="Path-2-Copy" fill="#1E8CDA" mask="url(#mask-2)" transform="translate(37.876330, 18.407792) rotate(57.000000) translate(-37.876330, -18.407792) "></path>
                        <path d="M34.3866335,64.8049947 C34.3944255,62.6197287 32.7121915,60.9281862 30.5399574,60.9370871 C28.3714468,60.9464309 26.7089468,62.6599415 26.7424574,64.8522819 C26.7741064,66.9440904 28.4157553,68.6024947 30.497883,68.6460585 C32.6395851,68.691484 34.3787872,66.9735053 34.3866335,64.8049947 M7.26719149,49.9653718 C9.41261702,49.9616436 11.1901702,48.1878138 11.1611277,46.07925 C11.1335745,44.0451543 9.4077766,42.3271755 7.35543617,42.2906862 C5.17910638,42.2519628 3.42314894,43.9323351 3.3933617,46.0840904 C3.36320213,48.2228138 5.10538298,49.9687181 7.26719149,49.9653718 M58.356766,57.7767257 C60.5174574,57.7848883 62.2596383,56.0486649 62.2425106,53.9051011 C62.225383,51.821484 60.5688404,50.1496755 58.483734,50.1109521 C56.3163404,50.0707394 54.5324574,51.7488777 54.4803298,53.8756862 C54.4285745,55.9808989 56.205383,57.7685053 58.356766,57.7767257 M35.7437131,5.74435638 C35.7307553,7.91882447 37.4368191,9.64089894 39.5949043,9.63199739 C41.7455426,9.6230266 43.4650106,7.87079255 43.4393191,5.71382447 C43.415117,3.66706915 41.7194787,1.95355851 39.6574574,1.89212234 C37.5697447,1.82956915 35.7560745,3.61494149 35.7437131,5.74435638 M11.8056489,20.4626011 C13.9391596,20.4458457 15.7252766,18.6358989 15.6697979,16.5463245 C15.6154362,14.4932394 13.9000638,12.812867 11.8332021,12.7868032 C9.67623404,12.7599947 7.89495745,14.4846755 7.88486208,16.6099947 C7.87485106,18.7219096 9.66357447,20.4793564 11.8056489,20.4626011 M62.7488936,28.2694628 C64.9170319,28.3349947 66.6841596,26.6683989 66.7303298,24.5147819 C66.7761277,22.3704734 65.062617,20.5985053 62.9153298,20.5709521 C60.7948511,20.5433989 59.0031489,22.3138777 58.9975501,24.4429202 C58.9919787,26.47925 60.6861277,28.2072819 62.7488936,28.2694628 M12.5577766,48.4566436 C11.391234,50.2003138 10.1524574,51.5377606 8.30080851,51.6233989 C6.13267021,51.7231862 6.88591489,52.5620691 7.59261702,53.5603138 C11.7047447,59.3684521 17.0303298,63.686484 23.549266,66.5248351 C24.021766,66.7307394 24.4905426,67.1697287 25.1454894,66.8770691 C25.0829362,66.2809521 25.0054894,65.681484 24.9611809,65.0794096 C24.9127766,64.420367 25.0877766,63.7516436 24.4391596,63.2110053 C19.5734149,59.1573351 15.7115,54.2737181 12.5577766,48.4566436 M57.6206489,59.8949415 C55.504266,58.2071223 53.4936277,58.488984 51.2733617,59.3003138 C48.6074043,60.2736117 45.7694255,60.6664309 42.9418723,61.0558989 C40.4624574,61.3969628 37.9532553,61.1783989 35.4410745,61.477016 C36.3298511,64.259516 36.360383,64.2677074 35.4924574,67.5227074 C35.274266,68.3418564 35.6231489,68.3790904 36.2025106,68.3083457 C37.7369255,68.1214309 39.2836277,67.9933457 40.8001702,67.707016 C47.0469255,66.5270691 52.6495319,63.9564309 57.6206489,59.8949415 M63.7315,51.7816436 C67.6272979,44.0518564 69.0064468,36.3406862 67.6194787,27.7660585 C66.5449043,29.1619628 64.7718191,29.192867 64.4597979,31.0083989 C63.4835213,36.6735585 61.4095851,41.9444096 58.5172447,46.9032394 C58.2886277,47.2945691 57.8205957,47.6397287 58.111766,48.2693564 C60.5323511,48.2436649 62.316234,49.4057394 63.7315,51.7816436 M12.598734,10.8271755 C13.9272447,10.9664309 14.8085745,12.5615372 16.1579362,12.0890372 C21.8860213,10.082867 27.7563404,9.06600532 33.8258617,9.2086117 C34.3691064,9.22127128 34.9328298,9.15164362 34.5496915,8.40137766 C33.4989468,6.34233511 33.9401702,4.34584574 34.9313404,2.21382447 C26.4185213,2.65132447 19.054,5.40627128 12.598734,10.8271755 M6.40224468,18.7930266 C2.52431915,26.4546755 1.1202234,34.198984 2.48857447,42.4727606 C4.83655319,41.5333457 5.67543617,39.8913245 6.10325532,37.6498351 C7.01474468,32.8775479 8.89990426,28.423984 11.3163936,24.2023883 C11.6455426,23.6274947 12.1642128,23.1263245 12.1545319,22.3183457 C9.64942553,22.3362181 7.81788298,21.1495691 6.40224468,18.7930266 M45.0943723,3.57100532 C45.2198511,6.80589894 45.2157553,6.81073936 47.3783085,8.80648404 C50.2572447,11.4638777 52.7895319,14.4183989 54.9450106,17.6886649 C55.8483085,19.05925 56.6782553,20.477867 57.6158085,21.9947819 C58.8154894,20.3226011 60.1153298,18.98925 62.1483085,18.8753138 C63.593734,18.794516 63.452617,18.2773351 62.7868723,17.3219096 C59.2172447,12.197016 54.6977766,8.14967553 49.1629362,5.26031383 C47.8735213,4.58712234 46.6034681,3.81116489 45.0943723,3.57100532 M52.6580957,43.4508989 C56.8499043,39.9464309 59.8550638,35.6458989 62.0716064,30.7596755 C62.4465532,29.9327074 61.6918191,29.9874415 61.3083085,29.8690372 C59.3066064,29.2509521 58.1609149,27.8505798 57.3849574,25.9676543 C55.8442128,22.228984 53.7393723,18.8094096 51.2472979,15.6277606 C51.0566596,15.38425 50.8734681,15.1299415 50.6519255,14.9173351 C50.4705957,14.7434521 50.3358085,14.3632926 49.8126702,14.71925 C54.1221383,23.9194096 54.9688404,33.5053138 52.6580957,43.4508989 M60.8008085,37.2175479 C54.8254894,45.8603138 46.7915,51.5385053 36.2624574,54.5931862 C41.8356489,56.5044096 46.9672447,56.8272287 52.179266,56.475367 C52.9574574,56.4224947 53.0691596,55.950367 52.9049574,55.3136649 C52.3404894,53.1183457 53.2084149,51.3802606 54.4985745,49.6619096 C57.3279894,45.8919628 59.4961277,41.7593564 60.8008085,37.2175479 M46.4552766,58.5332926 C41.3560745,58.0135053 36.4229362,56.9288777 31.7407553,54.8251543 C27.0749574,52.72925 22.9490532,49.8339309 18.895383,45.8945691 C20.1080957,51.6796223 22.2933617,56.3990372 25.3402234,60.7479734 C25.684266,61.2383457 25.9743191,61.4096223 26.4795851,60.8782926 C28.1495319,59.1219628 30.2197447,59.0422819 32.4913936,59.3029202 C37.1709681,59.8398351 41.8416064,59.6886649 46.4552766,58.5332926 M51.0827234,24.4935585 C50.4385745,19.9696223 47.5224043,13.3233457 44.9629362,10.0151011 C44.3992128,9.28568617 44.0909149,9.23690957 43.4259149,9.89073936 C42.1089468,11.185367 40.4520319,11.6522819 38.6346383,11.360367 C35.3673511,10.8361117 32.0874043,10.9883989 28.8082021,11.1168564 C27.945117,11.150367 27.085383,11.3033989 26.229,11.4337181 C25.3983085,11.5599415 24.5739468,11.7271223 23.7473511,11.8768032 C34.2734149,12.8873351 43.2773511,16.943984 51.0827234,24.4935585 M33.5968723,15.8682926 C28.3118723,14.0561117 23.221234,13.758984 18.0565,14.0754734 C17.1669787,14.1302074 17.0545319,14.5930266 17.2507553,15.3231862 C17.7794787,17.2973351 17.1178298,18.9583457 15.9229894,20.5091436 C13.5642128,23.5697819 11.7058617,26.9253138 10.2157553,30.4841436 C9.83447872,31.3948883 9.54181915,32.3424947 9.20857447,33.2733457 C18.2877234,22.6947819 18.2877234,22.6947819 33.5968723,15.8682926 M17.6432021,27.090633 C17.2812872,27.2228138 17.0761277,27.2399415 16.956234,27.3497819 C13.2116064,30.7943032 10.3620851,34.8829734 8.19096809,39.4716968 C7.7977766,40.3027606 8.12059574,40.5101543 8.84219149,40.7175479 C10.7720319,41.2723351 11.9601702,42.597867 12.6936809,44.4424415 C13.7734681,47.1571755 15.1980426,49.7002606 16.8426702,52.1096755 C17.8863404,53.6385053 18.894266,55.21425 20.4484149,56.3822819 C16.0250106,46.9754734 15.1902234,37.243984 17.6432021,27.090633 M18.0118191,38.1241968 C17.4134681,41.0690372 18.9247979,43.8265904 21.7813936,46.1987713 C24.8047979,48.7090904 27.9436277,50.9796223 31.4611277,52.7359521 C32.4582553,53.2341436 33.4211277,53.3730266 34.5035213,53.1250479 C39.6380957,51.9477074 44.3783617,49.892016 48.7138936,46.8920691 C49.4138936,46.4076543 49.8469255,45.8372287 50.1101702,45.0177074 C51.7607553,39.8779202 52.4473511,34.6420691 51.9350106,29.2490904 C51.8463936,28.3160053 51.5030957,27.6305266 50.8939468,26.9655266 C47.4177766,23.170633 43.3678298,20.1576543 38.7671915,17.8558457 C37.707883,17.3260053 36.6910213,17.1785585 35.5497979,17.4477606 C30.4882021,18.6411117 25.7948511,20.6521223 21.5058617,23.6096223 C20.7529894,24.1290372 20.2897979,24.747867 19.9986277,25.6277074 C18.7430957,29.4289309 18.1685745,33.3347819 18.0118191,38.1241968 M69.9868191,33.9558457 C69.8602234,40.8821223 68.0774574,47.2126543 64.9866596,53.3041436 C59.9462872,63.2374415 50.9572447,67.0833457 40.9513404,69.4886649 C37.5593191,70.3044628 34.0488936,70.1469628 30.5928298,70.3588245 C28.2794787,70.5010585 26.1061277,69.4830798 23.9841596,68.638984 C16.1486277,65.52175 9.97559574,60.3674415 5.28112766,53.3585053 C-2.72791489,41.4011649 -0.680787234,29.3924415 5.13926596,17.4563245 C10.5136277,6.43542021 20.5653298,2.46143085 31.7724043,0.72781383 C46.8633617,-1.6063883 56.8696383,6.28276064 65.2059681,17.64175 C68.8727766,22.6378138 69.7943191,28.1864309 69.9868191,33.9558457" id="Fill-1" fill="#111B40" mask="url(#mask-2)"></path>
                    </g>
                    <path d="M34.9531223,29.8600638 C38.8403564,29.8023511 41.8726968,32.5483617 42.0231223,36.0371915 C42.0480691,36.6105957 42.0138138,37.1836277 41.3033883,37.2417128 C40.5940798,37.2997979 40.4801436,36.7647447 40.4175904,36.1757021 C40.0549309,32.7646915 37.4485479,30.9607021 33.7318457,31.6048511 C30.4600904,32.1715532 27.8123777,33.9409149 25.3970053,36.1191064 C25.0637606,36.4192128 25.171367,36.6057553 25.4487606,36.8559681 C26.3062606,37.6285745 27.1983883,38.3561277 28.1657287,38.9857553 C28.6423245,39.2955426 28.9774309,39.6861277 28.6315266,40.2342128 C28.2532287,40.8340532 27.7397713,40.6504894 27.2464202,40.3179894 C25.8896117,39.4038936 24.6374309,38.3669255 23.4976968,37.1925638 C23.05275,36.7342128 22.9767926,36.2710213 23.4496649,35.7944255 C26.3814734,32.8399043 29.7072181,30.5861277 33.9276968,29.9408617 C34.3428564,29.8775638 34.7673245,29.8738404 34.9531223,29.8600638" id="Fill-4" fill="#111B40"></path>
                    <path d="M35.751234,43.071633 C31.9388404,43.1144521 28.8644255,40.2556223 28.8145319,36.7641862 C28.8070851,36.2343457 28.9057553,35.7596117 29.5018723,35.6896117 C30.1437872,35.6147713 30.3817128,36.0370053 30.4141064,36.6297713 C30.4874574,37.9761543 30.9841596,39.1408351 31.966766,40.0783883 C33.5358085,41.5759415 35.4205957,41.6801968 37.4047979,41.2717394 C40.5350638,40.6279628 43.083734,38.9293457 45.4201702,36.8401436 C45.7966064,36.5031755 45.6610745,36.3091862 45.3650638,36.0437074 C44.5265532,35.2919521 43.656766,34.5815266 42.7136277,33.9660479 C42.2146915,33.64025 41.839,33.2455691 42.239266,32.661367 C42.644,32.0708351 43.1555957,32.312484 43.6355426,32.6367926 C44.9677766,33.5359947 46.1950106,34.5588138 47.3205957,35.7067394 C47.7964468,36.1911543 47.8712872,36.6651436 47.3671383,37.1689202 C44.4889468,40.0471117 41.2410213,42.2714734 37.1240532,42.9558351 C36.9300638,42.9882287 36.7349574,43.0161543 36.5391064,43.0306755 C36.2308085,43.0533883 35.921766,43.0630691 35.751234,43.071633" id="Fill-6" fill="#111B40"></path>
                    <path d="M32.4689043,35.5940691 C32.9216702,36.60125 33.5833191,37.2152394 34.711883,36.9959309 C35.4461383,36.8529521 35.9167766,36.3819415 36.080234,35.6670479 C36.306617,34.6788564 35.8460319,33.9877926 34.9922553,33.5041223 C36.0727872,33.1418351 37.3867766,33.7033245 38.0744894,34.8017287 C38.8255,36.0021543 38.6653936,37.5946543 37.6894894,38.6204521 C36.7113511,39.6488564 35.1400745,39.8864096 33.8964574,39.1938564 C32.6357128,38.492367 32.0757128,37.1344415 32.4689043,35.5940691" id="Fill-8" fill="#6D3796"></path>
                </g>
                <text id="iDigitalEye" font-family="Poppins-SemiBold, Poppins" font-size="30" font-weight="500" fill="#1E8CDA">
                    <tspan x="83" y="46">iDigitalEye</tspan>
                </text>
            </g>
        </g>
    </g>
</svg>