<?xml version="1.0" encoding="UTF-8"?>
<svg width="103px" height="72px" viewBox="0 0 103 72" version="1.1" xmlns="http://www.w3.org/2000/svg" xmlns:xlink="http://www.w3.org/1999/xlink">
    <!-- Generator: Sketch 55.2 (78181) - https://sketchapp.com -->
    <title>iside</title>
    <desc>Created with Sketch.</desc>
    <defs>
        <polygon id="path-1" points="0.134936025 0.0194270851 13.2783576 0.0194270851 13.2783576 38.1622894 0.134936025 38.1622894"></polygon>
        <polygon id="path-3" points="4.9581361e-05 0.00264883017 102.5571 0.00264883017 102.5571 34.7291066 4.9581361e-05 34.7291066"></polygon>
    </defs>
    <g id="Page-1" stroke="none" stroke-width="1" fill="none" fill-rule="evenodd">
        <g id="Desktop" transform="translate(-1316.000000, -186.000000)">
            <g id="iside" transform="translate(1316.000000, 186.000000)">
                <g id="Group" transform="translate(4.155620, 0.000000)">
                    <path d="M93.7622072,34.0616474 C94.1665191,31.3811309 94.1637133,6.91277592 93.7589806,4.65197093 C93.4234102,7.85442742 93.4260756,30.9523043 93.7622072,34.0616474 M82.0638175,26.65871 C84.0778013,27.3002671 86.0915046,27.9419644 88.1053481,28.5835214 C89.1714015,28.9228806 90.2413831,29.250881 91.3018249,29.6070679 C91.665874,29.7292091 91.7362989,29.6157622 91.7351766,29.2712145 C91.7260578,26.3746019 91.7205866,23.4777089 91.7393852,20.5810963 C91.7424716,20.0998234 91.4976679,20.0836968 91.1333383,20.0539678 C88.3664253,19.8283361 85.6009152,19.5841938 82.8318979,19.238945 C84.3052092,19.0978725 85.7775386,18.9455816 87.2522528,18.8193737 C88.5781209,18.7059267 89.9056723,18.6027167 91.2343461,18.5341437 C91.6494602,18.5128286 91.7389644,18.3427283 91.7377018,17.9765851 C91.7287233,15.1032508 91.7175002,12.2297764 91.7427522,9.35672265 C91.7482234,8.76424647 91.4628763,8.90952584 91.1452628,9.01091288 C88.5925706,9.82607598 86.0410007,10.6446046 83.4884487,11.4594872 C82.9839708,11.6204725 82.4761259,11.7699588 81.925072,11.8243684 C82.9902837,11.302148 84.0542328,10.7772632 85.1208474,10.2581278 C87.0718416,9.30890387 89.0182063,8.34958325 90.9802834,7.42419856 C91.5230601,7.16827689 91.7831553,6.87603538 91.7501875,6.21680922 C91.6820072,4.84184377 91.7250758,3.46126909 91.7313888,2.08307833 C91.7364392,1.00932918 92.4040728,0.285877196 93.363086,0.296829971 C94.3629232,0.308594626 94.981035,0.97034495 94.9814559,2.07774955 C94.9862257,13.5712266 94.986366,25.0645635 94.9844019,36.5580405 C94.9842616,37.5740145 94.291376,38.3046183 93.3685573,38.2910663 C92.4413896,38.2772732 91.7416298,37.5503155 91.7334931,36.5556566 C91.7214283,35.0606534 91.7166585,33.5653697 91.7391047,32.0706469 C91.7452774,31.6653792 91.6135463,31.4593798 91.243044,31.2808657 C88.3664253,29.8934197 85.5015908,28.4815735 82.6340909,27.0754767 C82.428568,26.9746506 82.2300596,26.8596611 82.0283245,26.7514028 C82.0401087,26.7204117 82.0520333,26.6895609 82.0638175,26.65871" id="Fill-4" fill="#22A1E6"></path>
                    <g id="Group-8">
                        <mask id="mask-2" fill="white">
                            <use xlink:href="#path-1"></use>
                        </mask>
                        <g id="Clip-7"></g>
                        <path d="M1.34926094,34.6190938 C1.65943264,24.296132 1.65943264,13.9688062 1.34616766,3.64162118 C0.924075444,13.9657091 0.914092583,24.2900787 1.34926094,34.6190938 L1.34926094,34.6190938 Z M13.2396916,11.713575 C11.0223717,11.0053311 8.80547359,10.2961017 6.5877319,9.58926552 C5.69700764,9.30532037 4.80234649,9.0332004 3.9141531,8.74123102 C3.5845781,8.63297429 3.45297306,8.70195452 3.4542385,9.07050603 C3.46394015,12.0030105 3.46506498,14.9356556 3.45930023,17.8683008 C3.45873781,18.2117942 3.6193072,18.3009054 3.92849468,18.3238519 C5.70220998,18.4553367 7.47536287,18.5962534 9.24781274,18.7458983 C10.3082456,18.8355726 11.3668507,18.9470672 12.4240497,19.145139 C10.1164622,19.337439 7.80887478,19.5283312 5.50156854,19.7234467 C5.15259023,19.7528689 4.80572098,19.8070676 4.45702387,19.84015 C3.45002039,19.9354553 3.45255125,19.9336252 3.45339487,20.97945 C3.45550393,23.5836648 3.46379954,26.1878796 3.44861435,28.7919537 C3.44552107,29.3371791 3.45156703,29.5915613 4.15711624,29.3526644 C6.83477255,28.4463487 9.53872174,27.6183044 12.2349377,26.7678767 C12.4271429,26.7072022 12.6155519,26.5702272 12.9563752,26.701712 C11.9894437,27.1824619 11.1050466,27.6288626 10.2150254,28.0635788 C8.1546192,29.0698455 6.09913414,30.0866704 4.02382396,31.0611217 C3.55828521,31.279606 3.43567881,31.5634104 3.44397443,32.0388109 C3.46858007,33.4461483 3.46042506,34.8541897 3.45227004,36.2618087 C3.44552107,37.4046281 2.79621332,38.1504592 1.82056445,38.1622894 C0.80287508,38.1742504 0.137257303,37.4313755 0.136976096,36.2494204 C0.134164022,24.8236196 0.134304626,13.3979596 0.1371167,1.97215884 C0.137257303,0.873965433 0.558927711,0.265390876 1.42378089,0.0636588977 C2.18838365,-0.114845044 2.94300355,0.258915181 3.2895916,0.968566891 C3.45156703,1.30009432 3.45128582,1.64907797 3.45227004,1.99932861 C3.45606634,3.31319082 3.49234209,4.62860157 3.43624123,5.94007059 C3.40910472,6.57539258 3.62029143,6.91564812 4.1821437,7.18368559 C7.13580501,8.59243081 10.0752653,10.0308798 13.0186626,11.4608822 C13.1101956,11.5053674 13.1920269,11.5701243 13.2783576,11.6254493 L13.2396916,11.713575 Z" id="Fill-6" fill="#FCAC41" mask="url(#mask-2)"></path>
                    </g>
                    <g id="Group-4" transform="translate(15.132770, 1.368745)" fill="#000000">
                        <path d="M40.5141358,16.9148064 C40.5141358,20.1901994 40.5183837,23.4657397 40.5075442,26.7409854 C40.5065189,27.0770101 40.5800511,27.1788045 40.9400953,27.1780719 C42.0309207,27.1754162 42.8112117,26.6661496 43.3918525,25.7856502 C43.9685384,24.9106014 44.3047066,23.9325797 44.5175399,22.9171401 C45.2667774,19.3418146 45.3129182,15.7429187 44.7700688,12.1385721 C44.5696862,10.8081739 44.2201885,9.5095956 43.5172381,8.33932834 C42.9431889,7.38340384 42.1667063,6.77131164 40.9939994,6.73374642 C40.6067102,6.72137199 40.5038823,6.78692699 40.505618,7.1812882 C40.5204344,10.4257452 40.5139893,13.6703494 40.5141358,16.9148064 M33.9569818,30.8807667 C33.9569818,29.9662673 33.9687144,29.0514722 33.9504471,28.1372684 C33.9443581,27.828198 34.0126746,27.7096545 34.3541087,27.7072896 C35.5251432,27.6988644 35.5249947,27.6846746 35.5249947,26.5064824 C35.5249947,20.0581305 35.5192026,13.6097786 35.5368758,7.16142674 C35.5382124,6.68754841 35.4119754,6.56294471 34.9468289,6.5672312 C33.9572788,6.57595198 33.9569818,6.5491984 33.9569818,5.548378 C33.9569818,3.88965602 33.9630709,2.23122966 33.9513382,0.572655494 C33.949259,0.282652596 34.0105954,0.166326255 34.3324257,0.174751416 C36.9508795,0.24289175 39.5614621,0.438444163 42.1298666,0.943066943 C44.2805007,1.36565526 45.8710878,2.70392552 47.1711811,4.39959996 C48.9572128,6.72878735 49.9712678,9.39631146 50.4616617,12.2536234 C51.2576978,16.8907136 51.0542333,21.4819827 49.5812695,25.9801316 C49.1306774,27.3560934 48.4779575,28.6395262 47.619991,29.8143188 C45.9763844,32.0647235 43.8150572,33.409793 40.9892776,33.6634347 C38.802109,33.859874 36.6141978,34.0248297 34.4204946,34.1201671 C34.0529219,34.1361306 33.9376749,34.0455231 33.9482194,33.6706774 C33.974655,32.7413969 33.9569818,31.810934 33.9569818,30.8807667" id="Fill-10"></path>
                        <path d="M12.2872432,28.3772198 C12.2211644,29.1556283 12.1412586,29.933156 12.0958476,30.7125923 C12.0756164,31.0562842 11.9917808,31.1574391 11.6391181,31.0369047 C10.5860786,30.6773569 9.52416073,30.3432079 8.461224,30.0139038 C8.20578734,29.9349178 8.09968287,29.8239263 8.1011236,29.5327939 C8.11365548,26.7922143 8.11409212,24.051488 8.10142945,21.3109084 C8.09982842,20.978668 8.21626679,20.9451944 8.50154078,20.9669229 C9.64263677,21.0544241 10.7851882,21.1257758 11.9281763,21.1808311 C12.2191267,21.1947784 12.3229024,21.2811051 12.3227569,21.5841295 C12.3223202,22.299408 12.4713613,22.9901685 12.777012,23.639087 C13.2053597,24.5481602 13.8970036,25.1606688 14.8462673,25.4733829 C15.6804027,25.7480722 16.4836819,25.5583883 16.8862675,24.9953561 C17.3620638,24.3298476 17.3646836,23.2705835 16.8910706,22.6049282 C16.6194781,22.2229178 16.2659421,21.925766 15.872526,21.6879271 C15.1666184,21.261432 14.4484848,20.8549037 13.7294779,20.4507244 C12.6196747,19.8269111 11.5525171,19.1453998 10.6594348,18.2188558 C9.34906654,16.8593569 8.66382676,15.2068169 8.50940037,13.3421305 C8.22296199,9.88245531 9.03934049,6.74092635 11.3251712,4.07624971 C12.2083562,3.04664214 13.2437843,2.23035553 14.6505053,2.03656086 C15.9899832,1.85201549 17.0373463,2.33062958 17.846884,3.39738113 C18.211045,3.87716973 18.4437762,4.42786957 18.6869868,5.01351118 C18.8466529,4.83601288 18.8009509,4.64765034 18.8125947,4.47998859 C18.8735793,3.6048295 18.9418413,2.7295236 18.9729886,1.85304319 C18.9837591,1.5510465 19.1173721,1.46339846 19.3722266,1.41803289 C20.5130315,1.21513575 21.6539819,1.01165135 22.790857,0.78746616 C23.106405,0.725070151 23.144393,0.848247214 23.1401721,1.11691709 C23.1273639,1.93276327 23.1355146,2.74904988 23.1355146,3.56489606 C23.1355146,6.38269985 23.1289649,9.20035682 23.1436653,12.017867 C23.1455574,12.3784425 23.0436738,12.4840019 22.6886824,12.4998578 C21.4845641,12.5532981 20.2811736,12.6319905 19.0799663,12.7318241 C18.7671838,12.7576634 18.6817471,12.6713367 18.6744697,12.3727168 C18.6488533,11.3334195 18.500831,10.3164379 17.996944,9.38842573 C17.6228857,8.69957379 17.1134679,8.15929775 16.291413,8.06518989 C15.2890242,7.95067486 14.4217039,8.70573998 14.1575344,9.87276558 C13.8974402,11.0214394 14.2538871,11.9280167 15.176079,12.6299351 C15.763365,13.0769842 16.4123634,13.4195016 17.054812,13.7724428 C17.7377231,14.1478465 18.4193241,14.5238375 19.0726889,14.9513603 C21.3442559,16.4378535 22.7380231,18.5215866 23.230703,21.2040277 C23.7102835,23.8167321 23.6394016,26.4104976 22.8562081,28.9624209 C22.5651121,29.9114275 22.1163878,30.7817418 21.4692816,31.5401836 C19.9816359,33.2837483 17.7364131,33.6728058 15.7642383,32.5176721 C14.5825344,31.8252967 13.7470892,30.7939273 13.054572,29.6327743 C12.8122346,29.2263928 12.6010445,28.801219 12.3754452,28.3845605 L12.2872432,28.3772198 Z" id="Fill-12"></path>
                        <path d="M57.8587487,9.68748943 L57.8587487,11.4525126 C57.8587487,12.3427708 57.8691528,13.2334759 57.8531007,14.1234361 C57.84775,14.4231683 57.9161201,14.5550087 58.2460803,14.6008922 C59.3405968,14.7531418 60.4269387,14.9621499 61.5208607,15.1194646 C61.8358092,15.1647521 61.9327164,15.2776731 61.9270685,15.5920046 C61.9087869,16.6069525 61.9058143,17.6229432 61.9282575,18.6377422 C61.9359863,18.9815702 61.8081639,19.0524809 61.4981202,19.052034 C60.4230743,19.0509912 59.3478797,19.0855528 58.2725366,19.0830203 C57.94436,19.0822754 57.8499795,19.197282 57.8526548,19.5183172 C57.8661802,21.1428596 57.8661802,22.7675509 57.8529521,24.3919443 C57.8502767,24.7228117 57.9465894,24.7813578 58.2549981,24.7013597 C59.1585242,24.4667284 60.0669551,24.2502717 60.97821,24.0476695 C61.2337062,23.990911 61.2970229,23.8645826 61.2934557,23.626227 C61.2833489,22.9078828 61.2953879,22.1890917 61.2872132,21.4707475 C61.2846865,21.2554826 61.3196147,21.1309418 61.5755568,21.0992107 C62.5640997,20.9755637 63.5504131,20.8316565 64.5364292,20.6880473 C64.8766449,20.6384395 64.7853856,20.8861804 64.7858315,21.0475173 C64.7917768,22.4690105 64.7495656,23.8921424 64.8069371,25.3112521 C64.833542,25.9713481 64.6028671,26.2870203 64.0291526,26.5864545 C60.2298544,28.5688283 56.2533884,30.0779171 52.1262108,31.2063819 C51.7941698,31.297255 51.6898311,31.254351 51.6933982,30.8923484 C51.7078154,29.3615096 51.706775,27.8305218 51.6928839,26.2999809 C51.6901283,26.0102299 51.7741047,25.8828586 52.0646777,25.8454666 C52.414703,25.8004769 52.8750123,25.8748141 53.0790823,25.6199226 C53.2972722,25.3477503 53.1480469,24.8975561 53.1484928,24.5258704 C53.1531004,19.3242063 53.1467093,14.1223933 53.1611264,8.92072926 C53.1621669,8.5071823 53.0740289,8.32156287 52.6375005,8.2376915 C51.6936954,8.05609432 51.6993434,8.02674679 51.6993434,7.06855728 C51.6993434,5.72512553 51.7060318,4.38169378 51.6944386,3.03841101 C51.6919119,2.7286977 51.7373929,2.63112087 52.0774599,2.74851101 C56.4870358,4.27041151 60.6494389,6.28570811 64.4992715,8.93637135 C64.7205826,9.08862099 64.7962357,9.25100074 64.7944521,9.5115532 C64.7838993,11.02675 64.7813726,12.5420957 64.7954925,14.0571435 C64.7986138,14.3883088 64.7485252,14.4931852 64.3888389,14.3823499 C63.4820429,14.1031759 62.5648428,13.8566268 61.646305,13.6176753 C61.3726759,13.5463176 61.2742824,13.4223727 61.2836461,13.136495 C61.3044544,12.4966591 61.2922667,11.8557805 61.2882537,11.2153488 C61.2872132,11.0513304 61.3251141,10.8820979 61.0947365,10.7967368 C60.0458496,10.4086641 58.9948818,10.027891 57.8587487,9.68748943" id="Fill-14"></path>
                        <path d="M26.6851465,16.9502284 C26.6851465,13.6364055 26.6778189,10.3225826 26.6945676,7.00890744 C26.6966612,6.60470346 26.5925802,6.5273184 26.1959959,6.57280428 C25.0914816,6.69951491 25.0892385,6.67957793 25.0892385,5.61065997 C25.0892385,4.03120742 25.0961174,2.45160719 25.0835559,0.872302322 C25.0808641,0.547255565 25.1275211,0.400607937 25.5214137,0.35438366 C28.0646678,0.0554765105 30.615399,-0.021908542 33.1731586,0.00496947243 C33.4894391,0.00821846318 33.5606209,0.104802097 33.5585273,0.399131123 C33.5462649,2.24175192 33.5455172,4.08466809 33.5591255,5.9271412 C33.5613686,6.23668141 33.5012529,6.36974235 33.1532695,6.35305436 C32.7824064,6.33518491 32.3022283,6.19562599 32.0613167,6.41847721 C31.7942354,6.66554819 31.9702459,7.15112463 31.9697973,7.53066582 C31.9630679,14.0189004 31.970545,20.5071349 31.9534972,26.9953694 C31.9523009,27.4580552 32.0874865,27.5599554 32.529382,27.5463687 C33.5516484,27.5147649 33.5523961,27.5372125 33.5523961,28.5470579 C33.5523961,30.2038955 33.5407318,31.8610284 33.5616677,33.5177183 C33.5661539,33.8759934 33.4553436,33.9455514 33.1140896,33.9470282 C30.6346898,33.9572182 28.1626175,33.8212036 25.6909939,33.6482687 C25.2314525,33.6162218 25.0653118,33.4889205 25.0753311,32.9969937 C25.110922,31.2478553 25.0971642,29.4975353 25.0820605,27.7478061 C25.0793687,27.4249746 25.1629625,27.2830528 25.499132,27.3472942 C25.5447422,27.3561551 25.5928946,27.3514293 25.6400002,27.3533491 C26.6851465,27.3963244 26.6851465,27.3963244 26.6851465,26.3804241 L26.6851465,16.9502284 Z" id="Fill-16"></path>
                        <path d="M1.27241054,17.6788657 C1.27241054,15.9409152 1.27285653,14.2031127 1.27211322,12.4650142 C1.27196456,11.9424892 1.27032929,11.9424892 0.812751757,12.1412856 C0.00597031031,12.4918065 0.00582164964,12.4918065 0.00597031031,11.6345992 C0.00597031031,10.9673067 0.0147412897,10.2998662 0.00121316893,9.63301783 C-0.00339531179,9.40491275 0.0746515391,9.26680629 0.263004606,9.13802536 C2.28181648,7.75740493 4.3945819,6.53990702 6.59565175,5.47132131 C6.8679981,5.33913582 6.94426102,5.38339502 6.94217977,5.68299572 C6.93311147,6.97095309 6.9314762,8.25891045 6.94351772,9.5467198 C6.94604495,9.80472574 6.8241432,9.88732316 6.60932854,9.96148322 C5.59025965,10.3134844 5.59204358,10.3186653 5.59204358,11.3977607 C5.59204358,15.6340613 5.59784135,19.870362 5.58193466,24.1063666 C5.58044805,24.477907 5.69298418,24.6096484 6.04501264,24.6778875 C6.94158513,24.8515197 6.93846326,24.8673583 6.93846326,25.7793345 C6.93846326,26.8499926 6.92909763,27.9207986 6.94366638,28.9913087 C6.94827486,29.3367968 6.85015882,29.3772074 6.53975534,29.2570118 C4.40543413,28.4295573 2.32641468,27.4853118 0.312211287,26.3988152 C0.09486939,26.2815802 -0.00473325781,26.151467 0.000172544248,25.8953854 C0.0159305751,25.0731117 0.0144439684,24.250542 0.0018078116,23.4282683 C-0.00280066912,23.1261512 0.0737595751,23.0576161 0.380446534,23.149391 C1.26824804,23.4150942 1.27241054,23.401476 1.27241054,22.4736612 L1.27241054,17.6788657 Z" id="Fill-19"></path>
                    </g>
                </g>
                <g id="Group-38" transform="translate(0.000000, 36.510086)">
                    <g id="Group-3" transform="translate(0.148415, 0.000000)">
                        <mask id="mask-4" fill="white">
                            <use xlink:href="#path-3"></use>
                        </mask>
                        <g id="Clip-2"></g>
                        <path d="M36.0493548,7.09403809 C36.3010581,6.76573031 36.553201,6.43771684 36.8043183,6.10896758 C38.1986494,4.28259918 40.1060567,3.77799704 42.3032599,3.80713417 C46.0657708,3.85716763 48.4137323,5.84467319 49.9154548,9.12318915 C50.7372267,10.9174773 51.1474533,12.8233106 51.5170968,14.7560737 C51.8539222,12.7450229 52.1478203,10.7285274 53.0243867,8.87213892 C54.0846761,6.62607809 55.4608399,4.67668625 57.9783129,3.88277298 C59.7383317,3.32769591 61.5525591,3.10401691 63.3858326,3.13065237 C64.2163951,3.14271927 64.7933495,2.9623045 65.3799736,2.28729428 C66.6726271,0.799387513 68.4160903,0.117313745 70.3728714,0.0216615445 C74.0115817,-0.155957234 77.350387,0.924029688 80.5513269,2.53304686 C83.4268692,3.97827803 86.0061692,5.86292069 88.4199135,7.98419218 C88.6511055,8.18726916 88.8502119,8.33987121 89.1887954,8.14282768 C90.1110728,7.60614525 91.1452835,7.57906832 92.1711431,7.58171715 C93.6356522,7.5856904 95.1047031,7.70724227 96.5634983,7.62615864 C98.8899229,7.49695459 100.242792,8.75146999 101.174739,10.6687816 C102.453181,13.3001 102.651555,16.1180138 102.524091,18.9843424 C102.516326,19.1551919 102.463583,19.3257472 102.468564,19.4952723 C102.50988,20.9069516 102.046177,22.0418282 100.68862,22.6756344 C102.311213,24.2110729 102.42593,26.7073011 101.025153,28.4233015 C100.242792,29.3818837 99.1889488,29.6954758 98.0344539,29.6751681 C95.8391553,29.6366129 93.6448823,29.5300711 91.4498767,29.4592884 C90.5810753,29.4313286 89.745092,29.2419372 88.9987726,28.8116495 C88.5933807,28.5778166 88.321166,28.6306461 87.9482993,28.8457899 C85.8902802,30.0337903 83.7502157,31.0463792 81.3824754,31.4126535 C79.6173288,31.6857774 77.8357731,31.7680382 76.0886471,31.2357705 C75.7658866,31.1374695 75.5106671,31.1936836 75.1999204,31.3412823 C74.3507512,31.7447874 73.4564572,32.0074631 72.5250962,31.5954228 C72.1819709,31.4437037 71.8562802,31.5417104 71.5196014,31.5683459 C70.7674215,31.6282389 70.004693,31.7343392 69.3374887,31.2357705 C68.995975,30.9805999 68.7599481,31.408386 68.4544758,31.3640916 C67.5727815,31.236212 67.0768468,31.6790081 66.5688983,32.3800652 C65.6378304,33.6651893 64.2445249,34.3067948 62.7069075,34.5476912 C61.0592615,34.805805 59.403704,34.8178719 57.7679253,34.3912631 C55.400771,33.7739385 54.0881923,32.0376303 53.0993996,29.9612418 C52.28173,28.2446527 51.8335574,26.4216689 51.5902051,24.5418824 C51.5688147,24.3769191 51.5855168,24.1953271 51.3981311,24.0240361 C51.0572034,24.8888791 50.8998522,25.788157 50.5436876,26.6226856 C48.8435912,30.6057904 45.7292384,32.8156506 41.627265,33.6918247 C37.7520883,34.5195842 33.7969175,34.0910623 29.8791065,34.2510222 C27.8024807,34.3359319 25.7393337,34.1069553 23.711349,33.631196 C20.6330376,32.9088011 17.6578688,31.9257908 15.0239208,30.0988338 C14.8409304,29.9718371 14.6835792,29.8672083 14.4353921,30.0281983 C13.4483574,30.6680379 12.3433827,30.9398373 11.1814157,30.9976701 C9.25437607,31.0933223 7.32675038,31.1165732 5.39839215,31.0335765 C3.61962013,30.9570547 2.48534346,29.9958237 1.73697286,28.4344855 C0.900843055,26.6902308 0.471130647,24.8350196 0.233638724,22.93831 C-0.0844334335,20.3997006 -0.105091275,17.8457869 0.343081331,15.3215989 C0.728694375,13.150294 1.43032844,11.1018653 3.19635414,9.60306889 C3.8748397,9.02709548 4.63522408,8.72557031 5.52790656,8.6846606 C7.91689071,8.57502847 10.3047028,8.43331605 12.6928079,8.68539639 C12.9092024,8.70835292 13.171308,8.71453352 13.325729,8.83770412 C14.103548,9.45841333 14.6103244,8.97294162 15.1805394,8.47834617 C17.7888483,6.21565657 20.5257926,4.13029145 23.6209526,2.57042479 C26.4947367,1.12195616 29.4974493,0.195748549 32.7631463,0.465782069 C33.8933207,0.559226911 34.9643053,0.861635022 35.9043103,1.54459173 C37.5129848,2.71316731 37.7797786,4.43637849 36.5732728,6.01184381 C36.3417878,6.31381045 36.0698661,6.58457975 35.8166977,6.86991763 C35.8942012,6.94452634 35.9717047,7.01928222 36.0493548,7.09403809" id="Fill-1" fill="#231F20" mask="url(#mask-4)"></path>
                    </g>
                    <path d="M5.58722475,10.0598356 C5.04270925,10.1869294 4.6864376,10.4093072 4.35492332,10.6964722 C3.18092622,11.7133691 2.59085131,13.0565367 2.21392411,14.5119147 C1.55895268,17.0400758 1.51778807,19.6144926 1.79319542,22.185991 C1.99989743,24.1158917 2.35660856,26.0363077 3.26237648,27.7881894 C3.68398412,28.6034286 4.12404992,29.4717818 5.31562622,29.5463455 C5.1287008,29.1491589 4.95788964,28.8307676 4.82472726,28.4972009 C3.45413617,25.0655207 3.35642516,21.4972619 3.69028333,17.8840607 C3.73862611,17.360218 4.06706404,16.9564652 4.53203369,16.9002871 C5.22187052,16.8171143 5.44380784,16.482818 5.46094755,15.8635455 C5.46519585,15.7110621 5.58077905,15.5612051 5.65387919,15.3894606 C5.96151507,15.6702053 5.8279132,16.0078576 5.86893132,16.3072797 C5.89090531,16.4674967 5.84183006,16.6650686 6.09980472,16.6856429 C6.35382406,16.7060713 6.41857409,16.570952 6.46164311,16.3439049 C6.52463522,16.0135484 6.5032472,15.6325586 6.87519362,15.3534191 C6.90742214,15.7065386 6.92954263,15.9963302 6.96191764,16.2846625 C6.98271969,16.4698314 6.9541535,16.7021316 7.24699356,16.6997969 C7.4812363,16.6979 7.47405813,16.5084995 7.52752818,16.3471151 C7.62919451,16.0405431 7.60253273,15.6796899 7.88101645,15.4330898 C8.04948372,15.6262842 7.99674614,15.8580007 8.04787229,16.0643276 C8.1020748,16.2827656 7.87940502,16.6665278 8.32884639,16.6827246 C8.69302867,16.6958571 8.59941947,16.3589344 8.68336012,16.1508565 C8.7752114,15.9235175 8.72877303,15.6163618 9.07728053,15.4332358 C9.09266233,15.7490005 9.1194706,16.0074199 9.11390385,16.2649637 C9.10760464,16.5537338 9.21996498,16.6738236 9.51324452,16.7567046 C10.7458389,17.1045711 10.8387157,17.3221337 10.7632716,18.6310108 C10.5955368,21.5372433 10.8346139,24.4074342 11.7638207,27.1849677 C12.0165216,27.940381 12.3436411,28.6922922 13.2078049,29.293471 C12.7416633,28.3534725 12.3035019,27.6014154 12.1871863,26.6094704 C12.8182793,27.390711 13.2026776,28.2395112 14.0543895,28.8061076 C12.5113759,25.3742814 11.931116,22.8216063 12.2816744,21.0269709 C12.4485303,21.8700803 12.5748075,22.6850278 12.7740383,23.4818815 C13.347706,25.7765751 14.3024027,27.8633367 16.3987214,29.1780505 C20.0478689,31.4667615 24.0953316,32.5644964 28.357114,32.8582277 C30.9619109,33.0378518 33.5791597,32.9084232 36.1890839,32.8140148 C38.5231613,32.7296747 40.869544,32.7835181 43.134916,32.017307 C46.763701,30.7895598 49.1928524,28.4331433 50.2883292,24.7412927 C51.1158697,21.9529613 50.9307022,19.1093273 50.7584261,16.2759075 C50.6237988,14.0635112 50.2008727,11.8902207 49.2422207,9.8645984 C48.5307028,8.36121369 47.7109265,6.9021878 46.1832946,6.06885478 C44.5481367,5.17686306 42.7757145,4.92763651 40.9442556,5.29739065 C39.858008,5.51655825 38.8863181,5.96087607 38.2495118,7.04547847 C39.5131628,7.10924428 40.7435598,6.98638201 41.8163301,7.69670685 C40.2982203,7.53094493 38.8756241,7.87370439 37.3131268,8.38324718 C38.4778948,8.83165068 39.4923608,9.22621073 40.2403554,10.0567713 C39.0062961,9.66542145 37.8128154,9.16098575 36.274343,9.27611441 C37.6560676,10.1244769 38.5301929,11.1472104 39.0593266,12.4760782 C37.7682814,11.1561114 36.3617995,10.0604193 34.3168999,9.77836134 C34.803697,10.6432125 35.1787198,11.4231398 35.2926916,12.4101236 C34.1623495,10.3614464 33.6973798,9.87349935 32.8563619,9.83687413 C32.9997788,10.1424247 33.137629,10.4360101 33.3652795,10.920601 C32.9753144,10.6115484 32.7258364,10.4644639 32.5430128,10.2585748 C32.0773107,9.73444027 31.6026725,9.69270796 31.0004386,10.0537071 C30.4925464,10.3579444 29.9229806,10.5601856 29.3806625,10.8075152 C29.3597139,10.7773104 29.3387654,10.7471055 29.3176704,10.7169006 C29.750851,10.3143151 30.1838851,9.91187556 30.7096495,9.42334484 C29.8403584,9.35709844 29.151254,9.74129838 28.2598424,9.65447766 C29.6907887,8.89643791 30.9739233,8.26286551 32.320636,7.75215538 C33.6027451,7.26581341 34.8053084,6.61910847 35.7859344,5.63752359 C36.8390746,4.5835638 36.7315485,3.48903903 35.5112595,2.65001524 C35.3523143,2.54072327 35.1747645,2.45492397 34.9980936,2.37496136 C33.0929485,1.51317449 31.1319896,1.72767274 29.1874378,2.15039481 C26.6843072,2.69437406 24.3544782,3.71448107 22.2605033,5.16402234 C18.6558898,7.6597898 14.8211353,9.93099072 12.6235897,13.9426918 C12.6675377,12.8629046 13.0879734,11.8592863 13.5306761,10.8593158 C13.6140308,10.6707908 13.9477424,10.4897076 13.6368837,10.2452963 C13.3484385,10.0183951 13.0626301,10.0577927 12.7803375,10.3020581 C12.0453808,10.9376733 11.5412974,11.7272312 11.1532367,12.6057986 C11.0482011,12.8436436 11.0440992,13.1585328 10.7058463,13.3403456 C10.6941268,12.1350697 11.1075308,11.121529 11.7104972,10.0364888 C10.4576867,10.7422902 9.95052695,11.8868646 9.2609831,13.0667509 C9.34741413,11.9315153 9.66266766,11.021138 10.2070367,10.0290471 C9.02688685,10.6258483 8.51621129,11.6195443 7.77187896,12.6022965 C7.88980605,11.5727049 8.29046515,10.8127682 8.7752114,9.92048468 C7.71401412,10.4303193 7.11265922,11.2222118 6.4247268,11.9789383 C6.36891287,11.1752265 6.99004435,10.6630572 7.17052407,9.91100006 C6.23985229,10.2703941 5.65666256,10.959415 4.87028666,11.39454 C5.09002658,10.9856801 5.30962,10.5766742 5.58722475,10.0598356" id="Fill-4" fill="#FCAC41"></path>
                    <path d="M90.7356132,25.0365592 C90.6393814,25.6712612 90.3663824,26.4642705 90.010501,27.2337177 C89.9342197,27.3987992 89.7430764,27.5744835 89.975881,27.749137 C90.1885884,27.9084751 90.3889734,27.8332239 90.5633935,27.6579814 C90.6151768,27.6058504 90.677522,27.5637333 90.7247577,27.508068 C91.6113809,26.4633869 91.9536198,25.1888288 92.2316063,23.8890888 C92.2621188,23.7471276 92.2597717,23.5687925 92.0517585,23.5605458 C90.8952171,23.5144526 89.7725621,23.0180303 88.5847746,23.3511384 C86.7544641,23.8644959 84.9938336,24.6162717 83.1135001,24.9565956 C82.2223294,25.1179955 81.3291051,25.2849913 80.4313331,25.019035 C79.9890484,24.8879712 79.6221648,24.6284945 79.511557,24.1557814 C79.3977218,23.6689311 79.6786423,23.3134391 80.0175072,23.0125816 C80.2927066,22.7682729 80.5951912,22.5526804 80.9493123,22.4413498 C83.6872233,21.5811888 86.4525662,21.1449968 89.3007917,21.8745359 C90.224822,22.1114815 91.1748173,22.1961575 92.1249592,22.2637511 C92.3429476,22.2792137 92.5151673,22.2615421 92.5327707,21.9846884 C92.5505207,21.7025332 92.3675924,21.6741115 92.1573788,21.6565872 C91.8413983,21.6302272 91.5255644,21.5993021 91.2106108,21.560572 C89.0572784,21.2956465 86.9256568,20.7967207 84.7337437,20.9453087 C82.9594706,21.0656223 81.2424084,21.3969632 79.7562438,22.4563706 C79.1176815,22.9115594 78.650312,23.4851474 78.7252731,24.3606237 C78.7961266,25.1888288 79.4764969,25.4023596 80.1124187,25.7490159 C78.8135833,25.7491631 78.0729215,24.9077044 78.2574635,23.7228293 C78.4180942,22.6911072 79.0868756,22.0307816 79.9102733,21.4968073 C81.5465067,20.4359273 83.4032223,20.1574536 85.28869,20.0402326 C87.5988391,19.8966515 89.8594054,20.3731934 92.12892,20.6959931 C92.5600559,20.7574016 92.6766782,20.6721365 92.7140854,20.2465475 C92.8261602,18.9714003 92.8540322,17.7003765 92.717166,16.4265548 C92.6040643,15.3755413 93.0375473,14.7214007 94.0576627,14.486075 C95.536786,14.1448675 97.0203101,14.2089267 98.4834436,14.5822375 C99.4241971,14.8222756 99.8126448,15.3207596 99.8870191,16.2953437 C99.9410027,17.0039715 99.972102,17.7151028 99.9951331,18.425645 C100.01171,18.9379717 99.9985071,19.451182 99.9985071,19.9640978 C100.091218,19.9565874 100.184223,19.949077 100.27708,19.9415666 C100.876769,16.6043008 100.577658,13.3537726 99.0822516,10.0547951 C99.5293773,10.4789115 99.7394441,10.8438283 99.9235461,11.2337797 C100.849483,13.1956125 101.270644,15.2911598 101.276952,17.4310332 C101.281059,18.8225178 101.464868,20.3867415 99.9904389,21.3417397 C99.9348416,21.3778191 99.9153312,21.5262598 99.9348416,21.6091687 C99.9618334,21.7231499 100.071708,21.7266842 100.168966,21.6776458 C100.730661,21.394607 101.396508,21.1850523 101.483498,20.436369 C101.73904,18.2330255 101.761925,16.0257059 101.30057,13.8466607 C100.947035,12.1768496 100.368911,10.5987832 99.0536461,9.40315791 C98.6518492,9.03779931 98.2207133,8.888475 97.6588724,9.02160042 C97.9003319,9.59518839 98.3919061,10.0007497 98.3996809,10.7149735 C97.6692877,9.98086923 96.9677934,9.33615341 96.0037154,8.86550203 C96.3629709,9.6337712 96.8950327,10.2131024 96.927599,11.0941747 C96.1854702,10.3943827 95.716047,9.49755326 94.6591112,9.10701275 C95.1113712,9.99368108 95.4813353,10.7809471 95.6182016,11.8474231 C94.8523082,10.7532617 94.3014694,9.6909091 93.0752479,9.00201449 C93.6981138,10.0690795 94.0762929,11.0036082 94.1370246,12.2400253 C93.7231986,11.5455347 93.4126458,11.0009575 93.079062,10.4711065 C92.6706637,9.82270916 92.2521436,9.44954564 91.7633566,9.2538336 C92.5421591,10.8224752 92.760881,11.7244588 92.5738452,12.5987571 C91.7495673,10.6581301 91.5430211,10.3119156 90.9249961,9.86305912 C92.1713148,12.2522481 92.3259311,14.774268 92.0665747,17.3578437 C91.67666,15.9230638 91.4142231,14.459715 90.913994,13.06072 C90.5003148,11.9041192 90.0583235,10.7389773 89.1033406,9.9147483 C87.622897,8.63724495 86.1531622,7.34413175 84.5492017,6.21609997 C80.9456449,3.6814155 77.1000418,1.7321 72.6512298,1.2559999 C70.2605453,0.99991018 68.059097,1.41077293 66.3803222,3.32813244 C65.5569245,4.26855162 65.2080844,5.46491327 64.7747481,6.60531511 C63.8897386,8.93442094 63.3459411,11.3434904 63.3742532,13.8438627 C63.3949371,15.6501861 64.3100191,16.28371 66.0602342,15.8395659 C66.8534128,15.6384051 67.5694299,15.2846803 68.2200212,14.7909087 C69.1788182,14.0631367 70.0350755,13.2297775 70.8253201,12.3198417 C71.5416307,11.4953182 72.1380915,10.5817008 72.8147945,9.71093682 C72.7770939,10.1109021 72.688637,10.4850965 72.5799362,10.8532531 C72.2174534,12.0824543 72.2126125,12.069937 73.5049933,11.8419744 C74.5340571,11.6603996 75.4749573,11.2346633 76.4212852,10.811725 C75.2402456,12.1049855 73.6728121,12.6784262 71.9890497,13.1798554 C73.205736,14.4754721 74.6512662,15.1384485 76.201243,15.6317783 C77.7635422,16.1290842 79.3603147,16.2595589 80.9940542,16.1245191 C80.8667232,16.2283392 80.7426194,16.3121317 80.60634,16.3446767 C77.1418498,17.1715564 73.9216064,16.8396264 71.1691727,14.32011 C71.0519635,14.2129028 70.9802298,13.9897999 70.7681092,14.1609191 C70.6098255,14.2887431 70.6209743,14.4558862 70.7139788,14.6246492 C70.7612145,14.710356 70.8024358,14.7993026 70.8480578,14.8858931 C72.1083125,17.2817089 72.411824,19.8580687 72.2695301,22.5163065 C72.2599949,22.6950833 72.180633,22.8700313 72.133544,23.0467465 C71.6692551,20.5095586 70.9428226,18.1081468 69.7949361,15.8401549 C69.7174813,15.6870018 69.726283,15.4239907 69.4399348,15.4907007 C68.8761869,15.622059 68.233077,16.5605638 68.3332696,17.1403367 C68.7278785,19.4223185 68.7966783,21.7228554 68.7695398,24.031639 C68.7475356,25.902758 68.4997681,27.7436882 68.0976778,29.5670942 C68.0564565,29.7535287 67.9379272,29.9806077 68.1105869,30.1193291 C68.2693106,30.2468585 68.4833383,30.1194763 68.6668534,30.0644001 C68.9580425,29.9769261 69.1758843,29.8312834 69.2812111,29.5059802 C69.6362124,28.4093154 69.942071,27.2996914 70.079524,26.1557552 C70.2158034,25.0230111 70.2901777,23.8829037 70.4021058,22.6292569 C71.0047278,24.7831202 71.0534305,27.9797502 70.5199016,29.8598523 C70.4224963,30.2031215 70.4509551,30.3372778 70.8443905,30.3708536 C71.6396228,30.4384472 72.3327555,30.2428824 72.9739583,29.7645734 C73.4769746,29.3894954 73.9169122,28.9346012 74.4853544,28.6194591 C74.190938,29.2245613 73.8963749,29.8298107 73.5346257,30.573487 C76.2176728,30.2487729 76.8729583,28.2523334 77.5448203,26.068723 C77.6595356,27.21369 77.5008119,28.1252457 77.2396952,29.0226642 C76.8860142,30.23817 76.8914419,30.2897119 78.2025996,30.3307982 C83.2396576,30.4891055 87.4569853,28.7458105 90.7356132,25.0365592" id="Fill-6" fill="#22A1E6"></path>
                    <path d="M59.856789,11.2724979 C60.5889686,10.7955482 61.2202831,10.5873418 61.8636434,10.4076408 C62.0155942,10.3653236 62.2299509,10.4123427 62.2324181,10.1565296 C62.2343048,9.97109808 62.0714692,9.92672383 61.947093,9.86427662 C61.3411762,9.56070971 60.7245198,9.29255404 60.0601158,9.13180757 C59.8527253,9.08155593 59.5318434,9.18338162 59.3890357,8.82442036 C60.4423876,8.70187689 61.4420414,8.76799747 62.6026442,8.98134653 C61.5664176,7.47291579 60.1752037,6.94718375 58.6648382,6.61805022 C60.192329,6.39456267 61.5868809,6.72678183 62.9042238,7.6686327 C62.9788205,6.67990969 62.320657,6.20310687 61.9343216,5.59068341 C62.1745113,5.48386194 62.3376372,5.63153123 62.5202104,5.67326066 C62.8602495,5.75098907 63.0907156,6.30478562 63.4372854,6.06072723 C63.6959067,5.87882218 63.7725352,5.43199402 63.9297108,5.10286049 C63.9612039,5.03688685 63.985876,4.96723984 64.0208522,4.90317635 C64.2250498,4.52966857 64.0577152,4.4419486 63.7057755,4.4534095 C62.6913184,4.48661673 61.6791834,4.52687681 60.6700962,4.66088118 C58.0687902,5.00676526 56.1208585,6.27054986 54.9231025,8.68674263 C54.3338756,9.87544365 53.8720727,11.1020538 53.6130161,12.3983109 C52.9567393,15.6811241 52.9192958,19.006989 53.0355447,22.3360865 C53.11972,24.7455203 53.5360973,27.0942701 54.5399599,29.3021096 C55.2479029,30.8593226 56.0931387,32.3593781 57.785642,32.9712138 C59.8444529,33.7152907 61.9827949,33.7449715 64.0381227,32.9814992 C65.3733165,32.4855949 66.3086779,31.5018677 66.6887728,30.006808 C67.662013,26.1793083 67.7222418,22.3200707 67.2132717,18.4314461 C67.0511618,17.1927874 67.0282313,17.195873 65.7555884,17.4018753 C63.4798085,17.7702404 61.967266,16.5167412 61.8923791,14.1964967 C61.8804784,13.829601 61.9243076,13.456681 61.8736573,13.0963973 C61.790498,12.5032223 62.3205119,11.7659044 61.8404226,11.373442 C61.4144667,11.025207 60.6748855,11.2899832 59.856789,11.2724979" id="Fill-8" fill="#22A1E6"></path>
                    <path d="M98.6823129,19.8846761 C98.735876,18.8788943 98.6155424,17.8789908 98.6010143,16.8770299 C98.5927964,16.3047748 98.3709128,16.0218803 97.8349879,15.9110738 C96.6968076,15.6756468 95.5540782,15.6998949 94.4087073,15.825985 C93.9367645,15.8777143 93.8647111,16.184269 93.875277,16.6089782 C93.9182742,18.3207471 93.963326,20.032369 93.7474592,21.740464 C93.474067,23.9045701 93.1755808,26.0573605 91.9784077,27.9541498 C91.7505075,28.315373 91.8957884,28.4226525 92.2520934,28.4258856 C93.3031051,28.4358787 94.362775,28.3668084 95.4023404,28.4815827 C96.2458499,28.5747542 96.6772901,28.19957 97.0171593,27.5464878 C97.1413084,27.3079747 97.2729417,27.0724007 97.3821224,26.8271275 C98.3656299,24.6164356 98.5417279,22.2530541 98.6823129,19.8846761" id="Fill-10" fill="#231F20"></path>
                    <path d="M5.364534,19.9675274 C5.15605969,19.5537107 5.14700828,19.1738663 5.10437908,18.7963648 C5.08014467,18.5821348 5.25606312,18.2062441 4.92466488,18.1889651 C4.59764635,18.1716861 4.69254012,18.5510913 4.67896301,18.7726428 C4.5831933,20.3303857 4.56085677,21.8925216 4.6958979,23.4455788 C4.8694805,25.4410068 5.22087943,27.4042197 6.28938328,29.1526171 C6.48632434,29.4747673 6.66881236,29.9494997 7.06780417,29.9553569 C8.50230598,29.9764431 9.94600519,30.0458519 11.4279539,29.7881317 C10.1279092,27.8881773 9.77096268,25.7813146 9.49591674,23.6577586 C9.27955895,21.9865309 9.32014428,20.3024172 9.35240817,18.6207929 C9.35561995,18.4497604 9.45810523,18.1795934 9.16627039,18.1545536 C8.85706269,18.1280494 8.94202911,18.4077344 8.92684611,18.580817 C8.88684473,19.0387096 8.92888997,19.5093419 8.68158221,19.9591808 C8.36011132,19.5007024 8.4288728,18.9706188 8.34711817,18.4778753 C8.31996395,18.3143108 8.36288513,18.1138455 8.11251157,18.1068168 C7.86578777,18.099788 7.88038681,18.2905889 7.85542245,18.4614749 C7.78388715,18.9511433 7.84987482,19.472441 7.54752867,19.9688453 C7.28445394,19.4731732 7.31058623,18.9877513 7.28065819,18.5121404 C7.27014688,18.3450615 7.29102351,18.1466463 7.04926338,18.1295137 C6.76618797,18.109599 6.7581585,18.3242682 6.74385144,18.5232692 C6.70895973,19.0025409 6.75129695,19.4955773 6.47347719,19.9747026 C6.18704399,19.5418498 6.30602618,19.0493992 6.1809124,18.6152285 C6.12835585,18.4327743 6.25580548,18.1112097 5.89520916,18.1406426 C5.60527219,18.164511 5.70615157,18.428967 5.68381504,18.6035139 C5.62702476,19.0488134 5.62877665,19.5077311 5.364534,19.9675274" id="Fill-12" fill="#231F20"></path>
                    <path d="M97.8054755,28.4956772 C99.8025308,28.3526021 99.6163518,26.6652083 100.427947,25.5554407 L100.427947,27.4072125 C100.981965,26.7734503 100.972174,26.1094609 101.05231,25.4784335 C101.159709,24.6310661 100.793677,24.1048261 99.9697303,23.8041381 C99.6665117,23.6935931 99.5060905,23.7218051 99.4539725,24.0659627 C99.2263702,25.5709861 98.7042859,26.9840326 97.8054755,28.4956772" id="Fill-14" fill="#231F20"></path>
                    <path d="M49.1253602,23.7463977 C48.6821908,28.1612204 43.7635095,32.6759508 37.5489914,31.9877469 C42.5508955,31.0082941 46.6773415,28.7591802 49.1253602,23.7463977" id="Fill-16" fill="#231F20"></path>
                    <path d="M33.6902017,2.98920377 C29.4095082,3.13903466 25.6761185,5.03394633 21.8170029,6.53025937 C25.2675822,3.76116786 29.006247,1.89505338 33.6902017,2.98920377" id="Fill-18" fill="#231F20"></path>
                    <path d="M14.3962536,26.1210375 C16.8210771,26.9204095 19.1287859,27.9466382 21.2233429,29.3861671 C18.5148614,29.1366679 16.2170977,28.0909494 14.3962536,26.1210375" id="Fill-20" fill="#231F20"></path>
                    <path d="M19.7391931,12.5623784 C17.7315608,13.7262983 15.6400682,14.419627 13.8025937,15.7319885 C14.0275115,13.9361017 17.5655602,12.012829 19.7391931,12.5623784" id="Fill-22" fill="#231F20"></path>
                    <path d="M17.9582133,24.0810957 C16.4347885,24.7278451 13.9969483,24.1052919 13.2089337,22.8559078 C14.8745407,23.1033516 16.4426041,23.3867557 17.9582133,24.0810957" id="Fill-24" fill="#231F20"></path>
                    <path d="M68.1224784,3.18039647 C69.0868147,2.40709439 70.2425416,2.14174564 71.4542383,2.09057124 C74.8834656,1.94579579 77.9798271,3.04772209 80.929249,4.63952301 C82.4615544,5.46647802 83.9201685,6.41211099 85.2482354,7.54013478 C85.3883816,7.65939592 85.5898142,7.73623042 85.6354467,8.01440922 C84.2263047,7.50485214 82.923786,6.84658312 81.6023647,6.23263609 C79.0261246,5.03579659 76.4639139,3.82029519 73.6586255,3.19133117 C71.8095512,2.7766873 69.9876496,2.59648342 68.1224784,3.18039647" id="Fill-26" fill="#231F20"></path>
                    <path d="M73.1072858,27.6051873 C74.3196729,21.6662019 74.3028535,21.3554197 72.574928,16.9193084 C73.9183214,17.5363133 75.0873483,19.67899 75.2226752,21.7360654 C75.3658718,23.9124236 74.885361,25.8753672 73.1072858,27.6051873" id="Fill-28" fill="#231F20"></path>
                    <path d="M89.4942363,24.6368876 C89.1161328,26.0731438 85.3013543,27.6670289 83.5576369,27.2369424 C83.9664559,26.7220018 88.2956108,24.8261316 89.4942363,24.6368876" id="Fill-30" fill="#231F20"></path>
                    <path d="M91.2752161,19.5907781 C89.2932843,19.1163134 87.367823,18.6556231 85.3386167,18.1697026 C87.1070236,17.2641419 90.6010173,18.1893412 91.2752161,19.5907781" id="Fill-32" fill="#231F20"></path>
                    <path d="M89.082454,15.7319885 C89.7802449,15.7549315 90.3495343,16.0663231 90.8046991,16.6239167 C90.9179345,16.7625239 91.0394699,16.9351501 90.9438719,17.1150547 C90.8644293,17.2642632 90.6831638,17.2041368 90.537766,17.204295 C89.9278659,17.2047697 89.400521,16.9207514 88.8808832,16.6364166 C88.6349964,16.5019233 88.2383761,16.3520819 88.3170776,16.0190131 C88.3908881,15.7069885 88.7885459,15.7365771 89.082454,15.7319885" id="Fill-34" fill="#231F20"></path>
                    <path d="M55.3587896,29.3861671 C58.0175155,31.6474713 61.2581463,31.682873 64.5605187,31.6402203 C62.2782848,33.3827254 56.4539318,33.021457 55.3587896,29.3861671" id="Fill-36" fill="#231F20"></path>
                </g>
            </g>
        </g>
    </g>
</svg>