<?xml version="1.0" encoding="UTF-8"?>
<svg width="65px" height="84px" viewBox="0 0 65 84" version="1.1" xmlns="http://www.w3.org/2000/svg" xmlns:xlink="http://www.w3.org/1999/xlink">
    <!-- Generator: Sketch 55.2 (78181) - https://sketchapp.com -->
    <title>knockknock</title>
    <desc>Created with Sketch.</desc>
    <defs>
        <polygon id="path-1" points="0.119000628 0.0251664613 4.6900188 0.0251664613 4.6900188 12.8010655 0.119000628 12.8010655"></polygon>
        <polygon id="path-3" points="0.177231577 0.0154911456 15.1360194 0.0154911456 15.1360194 21.7481203 0.177231577 21.7481203"></polygon>
        <path d="M23.6438722,4.12603383 C23.6954323,3.70548872 23.0576504,2.88052632 22.7521992,2.58704887 L22.7521992,2.58704887 C21.2735714,3.36118421 20.6208835,5.00255639 20.0471241,6.2018797 L20.0471241,6.2018797 C18.9069361,8.58513158 18.2698872,10.8212782 17.4473684,13.0816165 L17.4473684,13.0816165 C17.0639662,14.134812 16.9488722,15.5987782 15.9834023,16.3230639 L15.9834023,16.3230639 C14.9030827,17.1338534 13.1466165,16.4359586 12.0130263,16.0711278 L12.0130263,16.0711278 C10.6206579,15.6229699 9.31210526,14.9431579 8.05951128,14.1949248 L8.05951128,14.1949248 C6.12368421,13.0388534 4.03219925,11.5954135 1.99545113,10.642406 L1.99545113,10.642406 C1.75084586,10.5285338 1.87449248,11.1726692 1.99080827,11.4165414 L1.99080827,11.4165414 C1.99080827,11.4165414 3.48898496,14.0140977 3.33406015,14.2332895 L3.33406015,14.2332895 C3.17889098,14.4524812 1.61766917,13.3684962 0.759718045,12.9362218 L0.759718045,12.9362218 C0.528308271,12.8196617 0.145394737,12.5838534 0.143195489,12.8431203 L0.143195489,12.8431203 C0.103609023,17.3691729 2.46242481,22.0758083 5.37203008,25.429906 L5.37203008,25.429906 C6.71601504,26.9801316 8.20857143,28.4062218 9.86509398,29.6206955 L9.86509398,29.6206955 C10.3188722,29.953515 10.7733835,30.2870677 11.2139662,30.636015 L11.2139662,30.636015 C11.2826316,30.6905075 11.351297,30.7437782 11.4209398,30.7965602 L11.4209398,30.7965602 C14.6648308,33.2680263 18.838515,34.2474248 22.8343045,33.4466541 L22.8343045,33.4466541 C24.8541917,33.0424812 27.0893609,32.3743985 28.3541729,30.638703 L28.3541729,30.638703 C30.8801316,27.1719549 32.1652256,22.8022932 31.9382143,18.5208459 L31.9382143,18.5208459 C31.9201316,18.1841165 31.9220865,17.7833647 32.1982143,17.5900752 L32.1982143,17.5900752 C32.3560714,17.4796241 32.5620677,17.4718045 32.7551128,17.4686278 L32.7551128,17.4686278 L38.0362406,17.3777256 C38.4707143,17.3701504 38.8790414,17.1304323 39.0635338,16.7372556 L39.0635338,16.7372556 C39.4332519,15.9455263 38.6175752,15.3632143 37.9328759,15.0257519 L37.9328759,15.0257519 C36.2084211,14.1756203 34.4844549,13.3257331 32.7604887,12.4758459 L32.7604887,12.4758459 C32.4203383,12.3082143 32.0643045,12.1264098 31.8585526,11.8080075 L31.8585526,11.8080075 C31.6911654,11.5499624 31.6454699,11.2342481 31.6031955,10.9295301 L31.6031955,10.9295301 C31.3256015,8.91843985 31.0484962,6.90808271 30.7711466,4.89699248 L30.7711466,4.89699248 C30.632594,3.89193609 30.493797,2.88639098 30.355,1.88084586 L30.355,1.88084586 L27.8595865,2.34488722 C27.237688,1.30342105 26.2736842,0.469906015 25.1540226,0.00390977444 L25.1540226,0.00390977444 C24.9040414,1.45394737 24.3896617,2.85755639 23.6438722,4.12603383" id="path-5"></path>
    </defs>
    <g id="Page-1" stroke="none" stroke-width="1" fill="none" fill-rule="evenodd">
        <g id="Desktop" transform="translate(-769.000000, -432.000000)">
            <g id="knockknock" transform="translate(769.000000, 432.000000)">
                <g id="Group-2" transform="translate(0.000000, 41.052632)">
                    <g id="Group-3" transform="translate(60.112768, 10.766533)">
                        <mask id="mask-2" fill="white">
                            <use xlink:href="#path-1"></use>
                        </mask>
                        <g id="Clip-2"></g>
                        <path d="M2.6448891,1.57143609 C2.3323515,3.40976316 1.8805282,5.22414286 1.30017105,6.99649248 C1.00840414,7.88767669 0.702708647,8.77617293 0.480340226,9.68788346 C0.28387406,10.4930526 0.0224078947,11.5115489 0.155095865,12.3438421 C0.292915414,13.208391 1.61515226,12.6544248 1.96409962,12.2490301 C2.26197556,11.9035038 2.38904323,11.4467932 2.50804699,11.0064549 C3.02462594,9.09359774 3.54120489,7.18049624 4.05778383,5.26739474 C4.31631767,4.31023308 4.52671241,3.34158647 4.66331015,2.35974436 C4.84780263,1.03433083 4.04556579,-0.241966165 3.27705075,0.0737481203 C2.77195677,0.281454887 2.73212594,1.05803383 2.6448891,1.57143609" id="Fill-1" fill="#000000" mask="url(#mask-2)"></path>
                    </g>
                    <path d="M60.0503584,27.6702964 C60.0481592,27.6705408 60.0459599,27.6705408 60.0437607,27.6705408 C59.7808283,27.6881347 59.4993246,27.6180032 59.319475,27.4259355 C59.0614298,27.1510295 59.0787795,26.7255972 59.1125013,26.3497701 C59.1418246,26.0242814 59.1144562,25.6770445 59.198272,25.3596197 C59.2534975,25.1497137 59.3717682,24.9473829 59.5584599,24.8369317 C59.6713547,24.7702212 59.8033095,24.7399205 59.9337983,24.7377212 C60.0694186,24.7352776 60.2043058,24.7616686 60.3316178,24.8073641 C60.9606028,25.0338866 61.2626329,25.7044129 61.3105276,26.3324205 C61.3413171,26.7346385 61.2438171,27.0779656 60.9759975,27.3716874 C60.7951704,27.5698641 60.306693,27.6524581 60.0503584,27.6702964" id="Fill-4" fill="#000000"></path>
                    <path d="M7.2912024,4.61826633 C7.83979263,4.99336031 8.31238661,5.57274001 8.11078887,6.39990167 C7.74009338,7.91640543 7.35131518,9.80018362 6.9012024,11.2968941 C6.78537533,11.6817626 6.64291293,12.4529656 6.82520616,12.5861423 C7.00749939,12.719319 7.70783774,12.752552 8.11127759,12.5844317 C8.71655954,12.3322513 10.3227438,10.5071197 10.6821986,9.95901821 C11.0829505,9.34787159 11.3021423,9.06490167 11.7031385,8.45399941 C11.9066911,8.14292798 12.1109768,7.83136783 12.2820295,7.50148061 C12.398834,7.27617986 12.5034204,7.03743926 12.6827813,6.85710091 C13.353552,6.18339791 14.1868227,6.90035279 14.6757889,7.38003325 C15.1327438,7.8284355 14.9719543,8.3472137 14.6469543,8.84668738 C13.6123302,10.4367438 12.848458,11.7386987 11.6496235,13.2087738 C11.3378189,13.5916874 10.8679129,14.1652024 10.9013904,14.6737175 C10.9356009,15.1939618 11.6251874,15.9216686 12.012255,16.2491122 C12.5955445,16.7422325 13.2196423,17.0877588 13.7562588,17.5745257 C14.7473866,18.4735295 14.6960708,18.886255 14.0392287,19.4702776 C13.4811084,19.9655972 12.8328189,20.2422137 12.1561836,19.7117062 C11.3854693,19.107646 10.5453565,18.3555032 9.7880821,17.7624393 C9.12317609,17.2419505 8.32778135,16.8074769 7.35131518,16.3769129 C5.86315729,15.7205596 5.47608962,16.8964242 5.00642797,17.9674581 C4.58490541,18.9292626 4.60054451,19.406255 4.30071368,20.4054468 C3.90655954,21.7196197 3.32986781,23.1088114 2.9362024,24.4234731 C2.59531894,25.5617062 1.89424751,26.6847889 0.749172326,25.4473453 C0.577142251,25.261631 0.403401649,25.0734731 0.279755033,24.8528152 C-0.556936697,23.3605032 0.702988116,20.927646 1.19342045,19.4961799 C1.90670992,17.4154468 2.59360842,15.325428 3.24409714,13.2241686 C3.72719864,11.6622137 4.33077007,9.75351069 4.76964225,8.17811595 C4.94264977,7.55670618 5.35879639,4.37024001 6.10776255,4.28886783 C6.22896556,4.2759167 6.43789413,4.22142422 6.62165353,4.28495806 C6.87261218,4.37170618 7.09766857,4.48582272 7.2912024,4.61826633" id="Fill-6" fill="#000000"></path>
                    <path d="M39.4176235,13.058272 C39.3039956,12.450302 38.7204618,11.9647569 38.1019844,11.9637795 C37.7637889,11.9635351 37.4397663,12.0898697 37.1269844,12.2181592 C36.8684505,12.3239675 35.1410633,13.0780652 35.1080746,12.5140802 C35.0877926,12.1648885 35.1813829,11.8726329 35.2747287,11.5381028 C35.484146,10.7903584 35.9699355,10.1562419 36.4449731,9.54216294 C36.5581122,9.39627949 36.6790708,9.244287 36.8506122,9.17439979 C37.1081686,9.07030204 37.327849,9.25186219 37.4524731,9.46421182 C37.5243152,9.58565919 37.6015332,10.0035163 37.7596347,10.0294186 C38.0729054,10.08049 38.3715144,9.75549001 38.4614392,9.48644866 C38.5381686,9.25674941 38.5132438,9.00970054 38.5599167,8.77438099 C38.6053678,8.54663663 38.5494092,8.38755768 38.417943,8.19353513 C38.2671723,7.97092234 38.0633753,7.76590355 37.8422287,7.61220054 C37.5509505,7.40986971 37.2381686,7.2236667 36.8923979,7.13349753 C36.5493152,7.04381708 36.1580934,7.06776445 35.8069468,7.08926821 C35.4978302,7.10783964 35.3138265,7.15891106 35.0623791,7.34218174 C34.9196723,7.44603513 34.7828302,7.55770806 34.6530746,7.67720054 C34.3925859,7.91887347 34.1645971,8.19255768 33.9659317,8.48676821 C33.5844844,9.05026445 33.2963829,9.67753888 33.1221535,10.3353584 C32.824522,11.4562419 32.8565332,12.662896 33.2135445,13.7661855 C33.4899167,14.6212043 34.2574543,15.2946629 35.165255,15.392896 C36.0290708,15.4864863 36.8865332,15.2172005 37.7139392,14.9515802 C38.4773227,14.7064863 39.280537,14.1649825 39.4076047,13.8424261 C39.5346723,13.5198697 39.4176235,13.058272 39.4176235,13.058272" id="Fill-8" fill="#000000"></path>
                    <path d="M40.4990915,14.4582156 C40.618584,14.5933472 40.8101629,14.7223697 40.9956329,14.6998885 C42.1409524,14.5608472 42.3696742,13.6696629 42.5991291,12.7093246 C42.6506892,12.4945314 42.657287,12.1006216 42.8390915,11.9500953 C43.0768547,11.752896 43.6198246,11.8894938 43.8776253,11.9701329 C44.4347682,12.1441178 44.8785276,12.5563547 45.3506329,12.9001705 C45.8227381,13.2437419 46.3979637,13.5374637 46.9692795,13.4179712 C47.3886028,13.33049 48.1170426,12.9436667 48.1776441,12.4713171 C48.2157644,12.1744186 48.1681141,11.7753772 48.0378697,11.5063359 C47.7397494,10.8905464 46.9705013,10.7119186 46.3666855,10.390584 C46.247193,10.3270502 46.1142607,10.2129336 46.1555577,10.0841554 C46.1675313,10.04799 46.1922118,10.0179336 46.2161592,9.98812159 C46.6051817,9.51357272 46.9942043,9.03853513 47.3829825,8.56374189 C47.7487907,8.11778325 48.1334148,7.62002009 48.128772,7.04332836 C48.1255953,6.62547122 47.9127569,6.23522685 47.650802,5.90973813 C47.4643547,5.67735091 47.213396,5.45205016 46.9155201,5.46255768 C46.5477569,5.47502009 46.3002193,5.82836595 46.0939787,6.13332836 C45.4703697,7.05408024 44.666178,7.87146746 43.6828697,8.39122309 C44.2571178,6.36229452 44.8316103,4.33287723 45.4061028,2.3037043 C45.4972494,1.98139227 45.5893735,1.64612911 45.5358584,1.31526445 C45.4530201,0.804305802 45.0383396,0.408196779 44.5909148,0.147708057 C44.362193,0.0147757265 44.0440351,-0.0832129953 43.8561216,0.102990012 C43.7776817,0.18094114 43.7434712,0.291392268 43.7117043,0.39768926 C42.6910088,3.8368246 41.6800877,7.27889227 40.6789411,10.7236479 C40.4570614,11.4880088 40.2002381,12.7770126 40.1870426,13.0543622 C40.1736028,13.3319562 40.3258396,14.2610163 40.4990915,14.4582156" id="Fill-10" fill="#000000"></path>
                    <path d="M22.8613171,11.1609073 C22.8615614,11.1643284 22.8622945,11.1677494 22.8625389,11.1711705 C22.9072569,11.525005 22.946599,11.8873923 22.9517306,12.2439148 C22.9583283,12.6769223 22.937802,13.1116404 22.9040802,13.5434261 C22.8439674,14.3163396 22.6961291,15.07899 22.5446253,15.8382193 C22.4112043,16.5058133 22.4119374,17.3872231 21.9755088,17.9248171 C21.8303584,18.1034449 21.6786103,18.2798735 21.4924073,18.4152494 C21.2683283,18.5782381 20.8487607,18.7417156 20.5716554,18.6310201 C20.3004148,18.5235013 20.1914298,18.1708885 20.0868434,17.9270163 C19.8578772,17.3938208 19.6196253,16.8894599 19.6149825,16.2941968 C19.6127832,15.9899675 19.7449825,15.6713208 19.8107156,15.3766216 C19.894287,15.0037269 19.9729712,14.6298547 20.0462795,14.255005 C20.1965614,13.4872231 20.3260727,12.7150426 20.4340802,11.9401742 C20.4629148,11.7344223 20.4389674,11.4524299 20.2344374,11.4155314 C20.1628396,11.4023359 20.0900201,11.4284825 20.0225765,11.4560953 C19.4813171,11.6801742 18.9811103,12.0655314 18.7142682,12.5906629 C18.3567682,13.2936893 18.095302,14.03899 17.9044562,14.8035953 C17.814287,15.1635389 17.719475,15.5352118 17.6620501,15.9012644 C17.6073133,16.2504562 17.4455464,17.2709073 17.1647757,17.5108697 C16.8693434,17.7635389 16.5888171,18.0003246 16.1497005,18.0223171 C15.678084,18.0457757 14.8003396,17.2393847 14.8291742,16.0583885 C14.8374825,15.7294787 14.8660727,15.462881 14.9452456,15.1464336 C15.0288171,14.8111705 15.1182532,14.4773735 15.2025577,14.1421103 C15.4459411,13.1741968 15.6450953,12.1603434 15.8552456,11.1711705 C15.9925765,10.525569 16.0394938,9.12489227 17.0320877,9.38855768 C17.498084,9.5122043 17.876599,9.58575693 18.3450389,9.42203513 C18.804193,9.26149001 19.2081216,8.977787 19.6367306,8.7534637 C19.8945313,8.61857648 20.1743246,8.50348249 20.4653584,8.50706269 C20.6711103,8.50983588 20.8712419,8.57165919 21.0628208,8.64618926 C21.2834787,8.73269302 21.4992494,8.83776821 21.6854524,8.98487347 C22.1521817,9.35190355 22.3721065,9.92175317 22.6010727,10.4495727 C22.7056592,10.69149 22.8263735,10.904084 22.8613171,11.1609073" id="Fill-12" fill="#000000"></path>
                    <path d="M29.6650088,7.9484167 C30.0222644,8.019037 30.3680351,8.24849189 30.612396,8.52413099 C30.8917005,8.83935655 31.0153471,9.25892422 31.129708,9.66456332 C31.4823208,10.9188678 31.8151404,12.2775144 31.3584298,13.4976084 C31.0742381,14.2583039 30.506099,14.8824017 29.8712494,15.3882287 C29.0927156,16.0084167 28.1431291,16.4912738 27.1488246,16.4497325 C26.8079411,16.4350708 26.472678,16.3598077 26.1442569,16.2684167 C25.9949524,16.2268754 25.8461366,16.1814242 25.7068509,16.1134919 C25.1861178,15.8578904 24.8711366,15.3136987 24.6634298,14.7721949 C24.0559486,13.192646 24.115084,11.3851084 24.7433359,9.81386783 C25.0605163,9.02140543 25.5631667,8.24311595 26.3441441,7.89807836 C27.113881,7.55817234 28.4664186,8.09087911 28.7838434,8.07059716 C29.0228283,8.05569114 29.2322456,7.86289039 29.6650088,7.9484167 M28.4957419,10.3820069 C28.3171141,10.4228152 28.0593133,10.3038114 27.8430539,10.2952588 C27.6067569,10.2857287 27.3985614,10.6112175 27.302772,10.7854468 C26.8455727,11.6201836 26.6657231,12.5983603 26.8470389,13.5327964 C26.866099,13.6298077 26.9369637,13.7324393 27.019802,13.7869317 C27.0975088,13.8375144 27.2299524,13.8377588 27.3208547,13.8179656 C28.080084,13.6547325 28.6057043,13.0313678 28.9807983,12.3510671 C29.1357231,12.0698077 29.2679223,11.7704656 29.3136178,11.452552 C29.3764186,11.0127024 29.2816065,10.2783979 29.0748772,10.2248829 C28.8683923,10.1716122 28.6885426,10.338022 28.4957419,10.3820069" id="Fill-14" fill="#000000"></path>
                    <path d="M48.8214374,26.1053359 C48.7080539,25.497366 48.1242757,25.0118208 47.5057983,25.0108434 C47.1676028,25.010599 46.8435802,25.1369336 46.5307983,25.2652231 C46.2722644,25.3712757 44.5448772,26.1251291 44.5118885,25.5611441 C44.4916065,25.2119524 44.5854411,24.9196968 44.678787,24.5851667 C44.8879599,23.8374223 45.3739938,23.2033058 45.848787,22.5894712 C45.9619261,22.4433434 46.0831291,22.2913509 46.2544261,22.2214637 C46.5119825,22.117366 46.7319073,22.2989261 46.8565313,22.5112757 C46.9281291,22.6329675 47.0055915,23.0505802 47.1634486,23.0764825 C47.4767193,23.1275539 47.7753283,22.8025539 47.8654975,22.5335126 C47.9419825,22.3038133 47.9170577,22.0567644 47.9637306,21.8216893 C48.0091817,21.5937005 47.9532231,21.4346216 47.8217569,21.240599 C47.6709862,21.0179863 47.4671892,20.8129675 47.2460426,20.6592644 C46.9547644,20.4569336 46.6419825,20.270975 46.2964562,20.1805614 C45.9531291,20.090881 45.5621516,20.1148284 45.2107607,20.1363321 C44.9016441,20.1549035 44.7176404,20.205975 44.466193,20.3892457 C44.3234862,20.493099 44.1866441,20.604772 44.0568885,20.7245088 C43.7963998,20.9659374 43.568411,21.2396216 43.3697456,21.5338321 C42.9885426,22.0973284 42.7004411,22.7246028 42.5259674,23.3824223 C42.2283359,24.5033058 42.2603471,25.7099599 42.6173584,26.8132494 C42.8937306,27.6682682 43.6612682,28.3417269 44.5693133,28.4402043 C45.4331291,28.5335502 46.2903471,28.2642644 47.1177532,27.9986441 C47.8811366,27.7535502 48.6843509,27.2120464 48.8114186,26.88949 C48.9384862,26.567178 48.8214374,26.1053359 48.8214374,26.1053359" id="Fill-16" fill="#000000"></path>
                    <path d="M49.903052,27.5052795 C50.0223001,27.6404111 50.2141235,27.7694336 50.399349,27.7471968 C51.5449129,27.6079111 51.7733904,26.7167269 52.0030896,25.7563885 C52.0544054,25.5415953 52.0610032,25.1476855 52.243052,24.9971592 C52.4808152,24.7999599 53.0235407,24.936802 53.2815859,25.0171968 C53.8387287,25.1914261 54.2824881,25.6034186 54.7545934,25.9472344 C55.2266986,26.2908058 55.8016798,26.5845276 56.37324,26.4650351 C56.7925633,26.3775539 57.5210032,25.9907306 57.5813603,25.518381 C57.619725,25.2214825 57.5718302,24.8224411 57.4415859,24.5533998 C57.1434656,23.9376103 56.3744618,23.7589825 55.7704016,23.4376479 C55.6509092,23.3741141 55.5182212,23.2599975 55.5595182,23.1314637 C55.5714919,23.0950539 55.5961723,23.0649975 55.6201197,23.0354299 C56.0088979,22.5606366 56.3981648,22.085599 56.786943,21.6108058 C57.1527513,21.1648472 57.5373753,20.667084 57.5327325,20.0903923 C57.5293114,19.6725351 57.3167174,19.2825351 57.0547626,18.956802 C56.8683152,18.7244148 56.6173565,18.4991141 56.3194806,18.5096216 C55.9517174,18.522084 55.7039355,18.8754299 55.4979392,19.1803923 C54.8743302,20.1011441 54.0701385,20.9185314 53.0868302,21.4385314 C53.6610783,19.4093584 54.2355708,17.3799411 54.8098189,15.3510126 C54.9009656,15.0284562 54.9930896,14.693193 54.9398189,14.3623284 C54.8569806,13.8516141 54.4420558,13.4552607 53.994631,13.194772 C53.7661535,13.062084 53.4479956,12.9638509 53.2600821,13.1500539 C53.1816423,13.228005 53.1471874,13.3384562 53.1156648,13.4447532 C52.0949693,16.8838885 51.0840483,20.3259562 50.0829016,23.7707118 C49.861022,24.5350727 49.6041986,25.8243208 49.5907588,26.1016705 C49.5773189,26.3790201 49.7298001,27.3083246 49.903052,27.5052795" id="Fill-18" fill="#000000"></path>
                    <path d="M32.2651554,24.5369054 C32.2653998,24.5403265 32.2661329,24.5437475 32.2663772,24.5471686 C32.3110953,24.9012475 32.3504374,25.2633904 32.3555689,25.6199129 C32.3621667,26.0529205 32.3418847,26.4876385 32.3079186,26.9194242 C32.2478058,27.6925821 32.0999674,28.4549881 31.9484637,29.2142175 C31.815287,29.8818114 31.8157757,30.7632212 31.3793471,31.3008152 C31.2341968,31.479443 31.082693,31.6558716 30.8962456,31.7912475 C30.6721667,31.9542363 30.252599,32.1177137 29.9754938,32.0072626 C29.7042532,31.8994994 29.5952682,31.5468866 29.4906817,31.3030144 C29.2617156,30.769819 29.0234637,30.2657024 29.0188208,29.6701949 C29.0166216,29.3659656 29.1488208,29.047319 29.2147983,28.7526197 C29.2981253,28.379725 29.3768095,28.0058528 29.4501178,27.6310032 C29.6006441,26.8632212 29.729911,26.0910408 29.8379186,25.3161723 C29.8667532,25.1104205 29.8430501,24.828428 29.6382757,24.7915295 C29.566678,24.778334 29.4938584,24.8044806 29.4264148,24.8320934 C28.8853998,25.0561723 28.3849486,25.4415295 28.1181065,25.9666611 C27.7606065,26.6696874 27.4991404,27.4149881 27.3082945,28.1795934 C27.2181253,28.539537 27.1233133,28.9112099 27.0658885,29.2772626 C27.011396,29.6264543 26.8496291,30.6469054 26.5686141,30.8871122 C26.2731817,31.1397814 25.9926554,31.3763227 25.5535389,31.3983152 C25.0819223,31.4217738 24.204178,30.6153829 24.2332569,29.4343866 C24.2413208,29.1054769 24.269911,28.8388791 24.349084,28.5224317 C24.4328998,28.1871686 24.5220915,27.8533716 24.606396,27.5181084 C24.8500238,26.5501949 25.0489336,25.5363415 25.259084,24.5471686 C25.3964148,23.9018114 25.4433321,22.5008904 26.4359261,22.7645558 C26.9019223,22.8882024 27.2804374,22.961755 27.7488772,22.7980332 C28.2080313,22.6374881 28.6119599,22.3537851 29.0405689,22.1294618 C29.2986141,21.994819 29.5781629,21.8794806 29.8691968,21.883061 C30.0749486,21.885834 30.2753246,21.9476573 30.4666592,22.0221874 C30.6873171,22.1086911 30.9033321,22.2137663 31.0892907,22.3608716 C31.5560201,22.7279017 31.7759449,23.2977513 32.004911,23.8258152 C32.1094975,24.0674881 32.2302118,24.2800821 32.2651554,24.5369054" id="Fill-20" fill="#000000"></path>
                    <path d="M39.0688471,21.3244148 C39.4261028,21.3950351 39.7718735,21.62449 40.0162344,21.9001291 C40.2957832,22.2153547 40.4191855,22.6349223 40.5335464,23.0405614 C40.8861592,24.2951103 41.2189787,25.6535126 40.7625126,26.8738509 C40.4783208,27.634302 39.9099374,28.2583998 39.2750877,28.7644712 C38.4965539,29.3844148 37.5469674,29.867272 36.5526629,29.8257306 C36.2117795,29.811069 35.8765163,29.7358058 35.5483396,29.6444148 C35.3987907,29.6028735 35.249975,29.5574223 35.1106892,29.48949 C34.5899562,29.2338885 34.2752193,28.6896968 34.0672682,28.148193 C33.4600313,26.5688885 33.5189223,24.7611066 34.1471742,23.1901103 C34.4643547,22.3976479 34.967005,21.6191141 35.7479825,21.2740765 C36.5177193,20.9341705 37.8705013,21.4668772 38.1876817,21.4468396 C38.4266667,21.4316893 38.636084,21.2388885 39.0688471,21.3244148 M37.8995802,23.758005 C37.7209524,23.7988133 37.4631516,23.6798096 37.2468923,23.6712569 C37.0105953,23.6617269 36.8023998,23.9874599 36.7068547,24.1614449 C36.249411,24.9961817 36.0695614,25.9743584 36.2508772,26.9087945 C36.2699374,27.0058058 36.340802,27.1084374 36.4236404,27.1629299 C36.5013471,27.2135126 36.6337907,27.2137569 36.724693,27.1942081 C37.4839223,27.0307306 38.0095426,26.407366 38.3846366,25.7273096 C38.5398058,25.4458058 38.672005,25.1464637 38.7174562,24.8285502 C38.7802569,24.3887005 38.6854449,23.654396 38.4787156,23.600881 C38.2722306,23.5476103 38.092381,23.7140201 37.8995802,23.758005" id="Fill-22" fill="#000000"></path>
                    <g id="Group-26" transform="translate(8.796979, 20.296608)">
                        <mask id="mask-4" fill="white">
                            <use xlink:href="#path-3"></use>
                        </mask>
                        <g id="Clip-25"></g>
                        <path d="M7.46840226,0.378979323 C8.01699248,0.754073308 8.48958647,1.33345301 8.28798872,2.16061466 C7.91729323,3.67711842 7.52851504,5.56065226 7.07840226,7.05760714 C6.96257519,7.44247556 6.82011278,8.21367857 7.00240602,8.34685526 C7.18469925,8.48003195 7.88503759,8.51326504 8.28847744,8.34514474 C8.8937594,8.09296429 10.4999436,6.26783271 10.8593985,5.7197312 C11.2601504,5.10834023 11.4793421,4.8253703 11.8803383,4.21446805 C12.083891,3.90364098 12.2881767,3.59208083 12.4592293,3.26219361 C12.5760338,3.03689286 12.6806203,2.79790789 12.8599812,2.61781391 C13.5307519,1.9441109 14.3640226,2.66082143 14.8529887,3.14050188 C15.3099436,3.58890414 15.1491541,4.10792669 14.8241541,4.60740038 C13.7895301,6.19721241 13.0256579,7.49941165 11.8268233,8.96948684 C11.5150188,9.35240038 11.0451128,9.92591541 11.0785902,10.4344305 C11.1128008,10.9546748 11.8023872,11.6823816 12.1896992,12.0098252 C12.7727444,12.5029455 13.3968421,12.8482274 13.9334586,13.3349944 C14.9245865,14.2342425 14.8732707,14.646968 14.2164286,15.2307462 C13.6585526,15.7263102 13.0100188,16.0026823 12.3333835,15.4724192 C11.5626692,14.868359 10.7225564,14.1159718 9.96528195,13.5231523 C9.30037594,13.0026635 8.5049812,12.5681898 7.52851504,12.1373816 C6.04035714,11.4810282 5.65328947,12.6571372 5.18362782,13.7281711 C4.76210526,14.6897312 4.77774436,15.166968 4.47791353,16.1659154 C4.0837594,17.4800883 3.50706767,18.8695244 3.11340226,20.1841861 C2.7725188,21.3224192 2.07144737,22.4455019 0.92637218,21.2078139 C0.754342105,21.022344 0.580601504,20.8341861 0.456954887,20.6135282 C-0.379736842,19.1212162 0.880432331,16.6881147 1.3706203,15.2568929 C2.08390977,13.1761598 2.77080827,11.086141 3.42129699,8.98463722 C3.90464286,7.42292669 4.50796992,5.51422368 4.94684211,3.93858459 C5.11984962,3.31717481 5.53599624,0.130953008 6.28496241,0.0495808271 C6.40616541,0.0366296992 6.61509398,-0.017862782 6.79885338,0.0456710526 C7.04981203,0.132419173 7.27486842,0.246535714 7.46840226,0.378979323" id="Fill-24" fill="#000000" mask="url(#mask-4)"></path>
                    </g>
                </g>
                <g id="Group-4" transform="translate(12.706767, 0.000000)">
                    <g id="Group-51" transform="translate(4.154135, 0.000000)">
                        <path d="M24.5627914,38.7987688 C23.6603665,37.007359 23.0897838,35.4972086 22.1868703,34.0117387 C21.8564944,33.4680357 21.1632425,32.7083177 20.7761748,32.0649154 C20.6029229,31.7765695 21.0004981,31.148562 21.8134868,30.832359 C22.0348778,30.746344 22.3180921,30.8685244 22.3921335,31.0017011 L26.2483929,38.4583741 C28.119953,37.4420771 28.2775658,37.4911936 29.1653289,37.0403477 C29.8092199,37.1815883 27.6126598,38.3049154 27.1671898,38.7936372 C28.1297274,38.4019267 28.3672462,38.451532 29.4473214,38.0045959 C29.3410244,38.5954605 26.6728477,40.0801974 26.1675094,40.2766635 C25.5126222,40.531532 25.4202538,40.6744831 25.067641,40.3643891 C24.7150282,40.0540508 24.6991447,39.2381297 24.5627914,38.7987688" id="Fill-27" fill="#549970"></path>
                        <path d="M1.63450564,22.4703778 C1.93971241,22.9847575 2.67450564,23.4346259 3.23800188,23.4927838 C3.46232519,23.5164868 3.50631015,23.110359 3.30251316,22.8982538 C2.74341541,22.3171635 2.08828383,21.2764305 1.69046429,21.2031222 C1.2928891,21.1298139 1.32563346,21.9496447 1.63450564,22.4703778" id="Fill-29" fill="#BAD9C7"></path>
                        <path d="M18.6802425,33.6912838 C20.7001297,33.2866222 22.9355432,32.6187838 24.1998665,30.8830883 C26.7260695,27.4160959 28.0109192,23.0464342 27.7839079,18.7652312 C27.7660695,18.4285019 27.7677801,18.02775 28.0441523,17.8344605 C28.2020094,17.7235207 28.4080056,17.7161898 28.6010508,17.7130132 L33.8819342,17.6221109 C34.3166523,17.6145357 34.7252237,17.375062 34.9089831,16.9813966 C35.2791898,16.190156 34.4635132,15.6075996 33.7785695,15.2701372 C32.0546034,14.4200056 30.3303929,13.5698741 28.6061823,12.7202312 C28.2662763,12.5525996 27.9099981,12.3707951 27.7040019,12.0526372 C27.5371034,11.7943477 27.4909192,11.4786335 27.4488891,11.1739154 C27.1717838,9.16306955 26.8941898,7.15246805 26.6170846,5.14162218 C26.4782876,4.13607707 26.3394906,3.13077632 26.200938,2.12547556 C26.1317838,1.62209211 25.8458816,0.335531955 25.1614267,0.0386334586 C25.0475545,-0.0107274436 23.6346598,2.17165977 23.7055244,2.5890282 C23.0836259,1.54780639 22.1201109,0.714291353 20.9999605,0.248539474 C20.7494906,1.69808835 20.2353553,3.10218609 19.4898102,4.37017481 C19.5408816,3.94987406 18.9035883,3.12540038 18.5981372,2.83143421 C17.1195094,3.60556955 16.4665771,5.24718609 15.8928177,6.44626504 C14.7523853,8.82976128 14.1155808,11.0656635 13.2933064,13.3257575 C12.9101485,14.3787086 12.7950545,15.8429192 11.8293402,16.5674492 C10.7490207,17.3784831 8.99255451,16.680344 7.85896429,16.3155132 C6.46659586,15.8673553 5.15779887,15.1875432 3.90520489,14.4390658 C1.96962218,13.2832387 -1.69139286,22.3201936 1.21796805,25.6738026 C2.56219737,27.2245169 4.0545094,28.6508515 5.71078759,29.8650808 C6.16456579,30.197656 6.61883271,30.5316974 7.05965977,30.8804004 C7.12832519,30.9346485 7.19723496,30.9879192 7.26663346,31.0407011 C10.5107688,33.5124117 14.684453,34.4913214 18.6802425,33.6912838" id="Fill-31" fill="#000000"></path>
                        <path d="M12.9644944,39.5486635 C13.5128402,37.874547 13.6746071,36.0037199 13.7982538,34.269735 C13.8437049,33.6351297 13.7183477,32.6144342 13.7750395,31.8657124 C13.8006974,31.5304492 14.4883289,31.2484568 15.3343064,31.4612951 C15.5647387,31.5192086 15.7250395,31.7828741 15.7084229,31.9343778 L14.5359793,40.2468026 C16.6504342,40.5016711 16.7503778,40.6328929 17.7353966,40.779265 C18.1784229,41.2672538 15.7372575,40.9114643 15.0911673,41.0519718 C16.1025771,41.2899793 16.267765,41.4678741 17.4069756,41.7283628 C16.9783665,42.1489079 13.9431598,41.8148665 13.4175395,41.6826673 C12.7357726,41.5113703 12.5776711,41.5744154 12.4699079,41.1172162 C12.3619004,40.6602613 12.8212989,39.9858252 12.9644944,39.5486635" id="Fill-33" fill="#549970"></path>
                        <path d="M16.3550996,11.7973534 C16.3756259,11.7047406 17.1324117,9.01115038 17.7741034,8.62994737 C17.8901748,8.56079323 17.950532,8.72378195 17.9175432,8.80784211 C17.8843102,8.89190226 16.7191974,11.7953985 16.6133891,11.9036504 C16.5073365,12.0119023 16.3345733,11.8899662 16.3550996,11.7973534" id="Fill-35" fill="#FFFFFF"></path>
                        <path d="M16.0285357,39.6008102 C16.5482914,39.9944756 17.451938,40.3539305 19.1358289,41.7203966 C19.523141,42.0346447 19.3906974,42.699062 18.8572575,42.7081034 C16.5135921,42.7474455 12.3286673,41.8916936 12.033968,41.6294944 C11.4206222,41.0835921 11.9386673,36.9023327 12.2692876,36.7151523 C12.5996635,36.5279718 16.1724643,37.2075395 16.2286673,37.5371823 C16.2846259,37.8670695 15.7922387,39.421938 16.0285357,39.6008102" id="Fill-37" fill="#000000"></path>
                        <path d="M19.3555827,14.9220207 C19.0039474,14.7546335 18.6264098,14.6207237 18.2368985,14.622418 C17.8476316,14.6241447 17.4434586,14.780047 17.2174248,15.0972274 C17.036109,15.3516071 16.9872368,15.6788064 16.9984774,15.9906109 C17.0285338,16.809953 17.4615414,17.604859 18.1337782,18.074765 C18.5665414,18.3772838 19.0784774,18.5444267 19.5896805,18.6776034 C20.2423684,18.8479229 20.9424624,18.9691259 21.5829323,18.756532 C21.8414662,18.6707613 22.1522932,18.5300094 22.2011654,18.2621898 C22.4257331,17.028656 20.6692669,15.5473402 19.3555827,14.9220207" id="Fill-39" fill="#FF723D"></path>
                        <path d="M27.0071335,37.2106429 C27.6585996,37.182297 28.5199718,36.7693271 30.6884305,36.7478233 C31.1874154,36.7426917 31.5089944,37.3391767 31.103844,37.6861692 C29.3239192,39.2112256 25.8148966,41.1795526 25.4204981,41.1656241 C24.5999342,41.1365451 22.3224906,37.2546278 22.4578665,36.8998158 C22.5929981,36.5447594 25.5052914,35.1316203 25.8046335,35.2811692 C26.0790508,35.4185 26.7112124,37.223594 27.0071335,37.2106429" id="Fill-41" fill="#000000"></path>
                        <path d="M15.141188,12.2774981 C15.1617143,12.1848853 15.9185,9.49105075 16.5601917,9.10984774 C16.6762632,9.04093797 16.7366203,9.20392669 16.7036316,9.28798684 C16.6703985,9.37204699 15.5052857,12.2755432 15.3994774,12.3837951 C15.2934248,12.4918026 15.1206617,12.3698665 15.141188,12.2774981" id="Fill-43" fill="#FFFFFF"></path>
                        <path d="M20.0816034,13.3148346 C19.1957951,12.3750226 18.9802688,11.2326353 18.902562,10.0301353 C18.8905883,9.7928609 18.8759267,9.55607519 18.8668853,9.31904511 C18.8114154,7.77932707 19.6033891,6.88032331 21.1897801,6.7153797 C21.6308515,6.66992857 21.9912838,6.62692105 22.521547,6.6985188 C23.9119605,6.88667669 25.2461711,7.41009774 25.6515658,8.91878195 C25.9118102,9.88718421 26.1063214,12.0312068 25.7908515,12.689515 C25.2625432,13.7923158 23.9393289,14.2233686 22.5525808,14.2233686 C21.5941974,14.2236128 20.6651372,13.9338008 20.0816034,13.3148346" id="Fill-45" fill="#FFFFFF"></path>
                        <path d="M20.6182932,11.2690207 C20.6182932,12.128438 21.2076917,12.4055432 22.4236316,12.4463515 C22.8493083,12.4605244 23.1281241,12.2848289 23.0418647,11.8400921 C22.7664699,10.4205996 22.633782,10.0176485 21.5549286,10.0777613 C20.8631429,10.1163703 20.5667331,10.5139455 20.6182932,11.2690207" id="Fill-47" fill="#000000"></path>
                        <path d="M28.1685564,13.9927895 C28.3117519,14.0531466 32.5756053,15.9865301 32.7486128,16.077188 C32.9213759,16.1678459 32.9533872,16.3076203 32.6677293,16.3244812 C32.3818271,16.3415865 28.2501729,16.3374323 28.0168083,16.3191053 C27.594797,16.2856278 27.8093459,13.8415301 28.1685564,13.9927895" id="Fill-49" fill="#FAD93B"></path>
                    </g>
                    <g id="Group-54" transform="translate(0.000000, 0.244361)">
                        <mask id="mask-6" fill="white">
                            <use xlink:href="#path-5"></use>
                        </mask>
                        <g id="Clip-53"></g>
                        <path d="M7.96081391,11.6121767 C6.59141541,10.8612556 5.0883515,10.3737556 3.55889662,10.057797 C2.27893421,9.79364286 0.894629699,9.65802256 -0.290765038,10.2083233 C-1.86151692,10.9384737 -2.70969361,12.7504098 -2.75001316,14.4814624 C-2.79008835,16.2130038 -2.16183647,17.8858985 -1.46320865,19.4705789 C-0.257531955,22.206688 0.21237406,22.6096391 2.41235526,24.6351466 C3.33701692,25.4862556 7.92538158,27.8673083 9.74025,28.4664812 C18.2584267,31.2783421 20.9661898,25.6548647 21.1663214,23.843906 C21.4360959,21.4046955 20.5080132,19.9209361 19.2783891,18.7042632 C18.0429004,17.4817256 16.5522989,16.853718 14.7718853,16.0827594 C12.9912274,15.3120451 10.4291034,12.9654474 7.96081391,11.6121767" id="Fill-52" fill="#549970" mask="url(#mask-6)"></path>
                    </g>
                    <g id="Group-73" transform="translate(5.131579, 15.883459)">
                        <path d="M6.7319718,7.1913703 C6.47905827,7.07994173 4.96548684,6.86465977 4.22214098,5.98984774 C3.83800564,5.57932143 3.75590038,5.95319361 3.56603195,6.31533647 C3.46877632,6.49934023 3.50689662,6.77644549 3.66670865,6.90106955 C4.4870282,7.54325 5.35817481,7.78736654 6.25522368,7.75535526 C6.57704699,7.75144549 6.98488534,7.30279887 6.7319718,7.1913703" id="Fill-55" fill="#BAD9C7"></path>
                        <path d="M3.80929323,2.22026316 C3.74453759,2.30847744 3.61649248,2.37323308 3.41391729,2.3187406 C3.21109774,2.26595865 2.44258271,1.38528195 2.07237594,0.90193609 C1.96998872,0.76924812 1.95630451,0.0222368421 2.50318421,0.256090226 C2.74852256,0.362142857 3.40536466,1.30342105 3.83543985,1.83466165 C3.89481955,1.90821429 3.87331579,2.13302632 3.80929323,2.22026316" id="Fill-57" fill="#BAD9C7"></path>
                        <path d="M10.3794737,6.2178609 C9.98947368,5.95004135 9.58212406,5.68271053 9.22755639,5.36626316 C9.15082707,5.29784211 9.08973684,5.21646992 9.03646617,5.13143233 C8.90133459,4.91468421 9.05234962,4.65883835 9.33483083,4.62242857 C9.96308271,4.54056767 10.3547932,4.87167669 10.736485,5.20547368 C10.8711278,5.32325564 10.9869549,5.4547218 11.1343045,5.55735338 C11.3828195,5.73060526 11.5690226,5.9085 11.2779887,6.13404511 C11.023609,6.331 10.7105827,6.44487218 10.3794737,6.2178609" id="Fill-59" fill="#BAD9C7"></path>
                        <path d="M6.90593233,5.72437406 C6.79743609,5.67965602 5.24623308,5.07290789 4.56764286,4.61790789 C4.14269925,4.33542669 4.45596992,3.58206203 4.96619549,3.7316109 C5.09839474,3.76948684 5.21813158,3.84621617 5.33518045,3.92196805 C6.01303759,4.35888534 6.69016165,4.78700564 7.35164662,5.21879135 C7.44816917,5.28183647 7.52269925,5.34390414 7.56106391,5.41085902 C7.62117669,5.51544549 7.62899624,5.6210094 7.43570677,5.74294549 C7.28933459,5.83555827 7.01467293,5.77397932 6.90593233,5.72437406" id="Fill-61" fill="#000000"></path>
                        <path d="M5.63437594,8.85524812 C5.72723308,8.79806767 5.87849248,8.81541729 5.98063534,8.82714662 C6.26580451,8.85964662 6.49134962,9.08861278 6.76405639,9.16900752 C6.95881203,9.22618797 7.16040977,9.25526692 7.36225188,9.27359398 C7.47978947,9.28434586 7.70118045,9.23547368 7.79012782,9.3366391 C7.89984586,9.46150752 7.63227068,9.68729699 7.53330451,9.74007895 C7.2821015,9.87301128 6.98764662,9.90306767 6.70394361,9.88498496 C6.45371805,9.8691015 6.20446992,9.81680827 5.97257143,9.72053008 C5.80103008,9.64942105 5.51634962,9.53041729 5.45599248,9.33541729 C5.4071203,9.17731579 5.50437594,8.95128195 5.63437594,8.85524812" id="Fill-63" fill="#000000"></path>
                        <path d="M3.0603515,4.14128195 C3.1309718,4.23951504 3.13219361,4.3047594 3.12437406,4.45626316 C3.11508835,4.63464662 2.90542669,4.75145113 2.76565226,4.65053008 C2.66644173,4.57917669 2.59777632,4.52810526 2.53595301,4.46872556 C1.99225,3.94823684 1.45343421,3.41333083 0.916328947,2.87256015 C0.677588346,2.63284211 0.388020677,2.41340602 0.236272556,2.12457143 C0.0933214286,1.85284211 0.136328947,1.3922218 0.302983083,1.28983459 C0.469392857,1.18720301 0.71668609,1.37071805 0.852795113,1.50071805 C1.22129135,1.85235338 1.5653515,2.23746617 1.89230639,2.63186466 C2.29965602,3.1235188 2.6972312,3.62299248 3.0603515,4.14128195" id="Fill-65" fill="#000000"></path>
                        <path d="M7.83098496,3.60410338 C6.81615414,3.14421617 5.76002632,2.51107707 4.80799624,1.80218609 C4.67653008,1.70761842 4.63230075,1.22329511 5.19604135,1.38017481 C5.76173684,1.53143421 6.82641729,2.03970489 7.42265789,2.45805075 C8.02965038,2.87566353 8.39570301,3.34239286 8.45190602,3.43109586 C8.50981955,3.52346429 8.58092857,3.72261842 8.51250752,3.77466729 C8.38715038,3.87118985 7.9338609,3.64882143 7.83098496,3.60410338" id="Fill-67" fill="#000000"></path>
                        <path d="M8.94732331,7.68080075 C8.89160902,7.54640226 8.98128947,7.33014286 9.11813158,7.25536842 C9.24519925,7.18572556 9.59781203,7.19036842 9.72292481,7.26929699 C10.0655188,7.48628947 10.3775677,7.72234211 10.7106316,7.96254887 C10.8870602,8.08937218 10.8181504,8.28461654 10.5872293,8.32102632 C9.88786842,8.43196617 9.14647744,8.16268045 8.94732331,7.68080075" id="Fill-69" fill="#000000"></path>
                        <path d="M13.7996955,4.60923308 C13.2432857,3.69556767 12.4671955,2.92803008 11.5549962,2.38945865 C11.3536429,2.27045489 11.1131917,2.43026692 10.982703,2.65141353 C10.849282,2.87695865 10.8666316,3.09175188 11.0259549,3.18583083 C11.9423083,3.72684586 12.7039812,4.50489098 13.2286241,5.43517293 C13.4568571,5.84130075 13.6349962,6.26648872 13.7571767,6.69900752 C13.8815564,7.14081203 14.0098459,7.71970301 13.8910865,8.27880075 C13.6657857,9.33859398 12.7731353,10.1816391 12.2609549,10.5899662 C10.6432857,11.879703 8.42693233,12.1140451 6.74548496,11.1727669 C6.64505263,11.1168083 6.52580451,11.1243835 6.409,11.193782 C6.22768421,11.3020338 6.08204511,11.5427293 6.08445842,11.7306429 C6.08571053,11.8376729 6.13384962,11.9229549 6.2196203,11.971094 C6.9952218,12.4053233 7.89789098,12.6311128 8.80764662,12.6311128 C9.19740226,12.6311128 9.5883797,12.5895714 9.97129323,12.5052669 C10.997609,12.2802105 11.9850714,11.7506805 12.906312,10.9318271 C13.9529098,10.000812 14.545485,8.99942105 14.6669323,7.95551128 C14.805485,6.76718421 14.3094323,5.44763534 13.7996955,4.60923308" id="Fill-71" fill="#000000"></path>
                    </g>
                </g>
            </g>
        </g>
    </g>
</svg>