<?xml version="1.0" encoding="UTF-8"?>
<svg width="95px" height="76px" viewBox="0 0 95 76" version="1.1" xmlns="http://www.w3.org/2000/svg" xmlns:xlink="http://www.w3.org/1999/xlink">
    <!-- Generator: Sketch 55.2 (78181) - https://sketchapp.com -->
    <title>mentor-match</title>
    <desc>Created with Sketch.</desc>
    <defs>
        <path d="M27.7454545,3.75277675 L35.8371096,8.42449598 C39.8593236,10.7467223 42.3371096,15.0383736 42.3371096,19.6828262 L42.3371096,29.0262647 C42.3371096,33.6707174 39.8593236,37.9623686 35.8371096,40.2845949 L27.7454545,44.9563142 C23.7232405,47.2785405 18.7676685,47.2785405 14.7454545,44.9563142 L6.65379948,40.2845949 C2.63158549,37.9623686 0.153799484,33.6707174 0.153799484,29.0262647 L0.153799484,19.6828262 C0.153799484,15.0383736 2.63158549,10.7467223 6.65379948,8.42449598 L14.7454545,3.75277675 C18.7676685,1.43055042 23.7232405,1.43055042 27.7454545,3.75277675 Z" id="path-1"></path>
    </defs>
    <g id="Page-1" stroke="none" stroke-width="1" fill="none" fill-rule="evenodd">
        <g id="Desktop" transform="translate(-877.000000, -434.000000)">
            <g id="mentor-match" transform="translate(877.000000, 432.000000)">
                <g id="M" transform="translate(26.600000, 0.000000)">
                    <mask id="mask-2" fill="white">
                        <use xlink:href="#path-1"></use>
                    </mask>
                    <use id="Mask" fill="#2A6C9B" fill-rule="nonzero" xlink:href="#path-1"></use>
                    <polygon id="Path-2" fill="#21567C" fill-rule="nonzero" opacity="0.45140439" mask="url(#mask-2)" points="0.10359235 30.1766051 -3.70553977 52.3053267 34.5414063 55.5466619 58.4573864 45.0642756 50.7521307 28.8036222 27.3759233 12.0450284 22.9470881 12.0450284 19.4331676 16.0636364 14.2432528 24.2142045 14.8083509 13.4180113 9.86569602 12.0450284 3.79460227 20.2927557"></polygon>
                    <path d="M11.1927273,39.1745455 C11.1466664,39.1975759 11.1006063,39.2090909 11.0545455,39.2090909 L10.7781818,39.2090909 C10.455756,39.2090909 10.0815173,39.1572732 9.65545455,39.0536364 C9.22939181,38.9499995 8.8148505,38.8233341 8.41181818,38.6736364 C8.00878586,38.5239386 7.66333477,38.3569706 7.37545455,38.1727273 C7.08757432,37.9884839 6.90909125,37.8272734 6.84,37.6890909 C6.81696958,37.3666651 6.80545455,37.032729 6.80545455,36.6872727 L6.80545455,35.6854545 C6.80545455,33.1060477 6.99545265,30.4115292 7.37545455,27.6018182 C7.75545645,24.7921072 8.38302593,21.7521376 9.25818182,18.4818182 C9.35030349,18.1593923 9.4481813,17.7506085 9.55181818,17.2554545 C9.65545506,16.7603006 9.76484791,16.2248514 9.88,15.6490909 C9.32726996,16.0866689 8.67091289,16.7833286 7.91090909,17.7390909 C7.15090529,18.6948533 6.35061026,19.8233268 5.51,21.1245455 C4.66938974,22.4257641 3.82879208,23.8536286 2.98818182,25.4081818 C2.14757155,26.962735 1.38182164,28.540295 0.690909091,30.1409091 C-3.45454545e-06,31.7415232 -0.593027827,33.3248407 -1.08818182,34.8909091 C-1.58333581,36.4569775 -1.88848427,37.9078721 -2.00363636,39.2436364 C-3.10909644,38.9212105 -3.87484635,38.5987895 -4.30090909,38.2763636 C-4.72697183,37.9539378 -4.94,37.5624265 -4.94,37.1018182 C-4.94,36.6872707 -4.8133346,36.1000038 -4.56,35.34 C-4.3066654,34.5799962 -3.94969927,33.6818234 -3.48909091,32.6454545 C-3.02848255,31.6090857 -2.46424576,30.4518246 -1.79636364,29.1736364 C-1.12848151,27.8954482 -0.391519182,26.5194013 0.414545455,25.0454545 C1.33576218,23.364234 2.23969254,21.786674 3.12636364,20.3127273 C4.01303474,18.8387805 4.88241998,17.5030363 5.73454545,16.3054545 C6.58667093,15.1078728 7.42151106,14.0715195 8.23909091,13.1963636 C9.05667075,12.3212077 9.86848082,11.6533356 10.6745455,11.1927273 C10.9969713,11.1927273 11.4287852,11.2733325 11.97,11.4345455 C12.5112148,11.5957584 13.0409065,11.791514 13.5590909,12.0218182 C14.0772753,12.2521224 14.5378768,12.4881806 14.9409091,12.73 C15.3439414,12.9718194 15.5684846,13.1733325 15.6145455,13.3345455 C15.2921196,13.9793972 14.9121234,14.9466602 14.4745455,16.2363636 C14.0369675,17.5260671 13.5936386,18.9884767 13.1445455,20.6236364 C12.6954523,22.2587961 12.269396,23.991809 11.8663636,25.8227273 C11.4633313,27.6536455 11.1466678,29.4096886 10.9163636,31.0909091 C11.4460633,29.8242361 12.0621177,28.5057644 12.7645455,27.1354545 C13.4669732,25.7651447 14.2096931,24.4063704 14.9927273,23.0590909 C15.7757615,21.7118114 16.5760565,20.4048548 17.3936364,19.1381818 C18.2112162,17.8715088 19.0115112,16.7142477 19.7945455,15.6663636 C20.5775797,14.6184796 21.3087845,13.7030342 21.9881818,12.92 C22.6675792,12.1369658 23.2721186,11.561214 23.8018182,11.1927273 C24.124244,11.1927273 24.5560579,11.2733325 25.0972727,11.4345455 C25.6384876,11.5957584 26.1681792,11.791514 26.6863636,12.0218182 C27.204548,12.2521224 27.6651495,12.4881806 28.0681818,12.73 C28.4712141,12.9718194 28.6957573,13.1733325 28.7418182,13.3345455 C28.0048448,14.6472793 27.36,16.2478693 26.8072727,18.1363636 C26.2545427,20.0248579 25.7881837,22.0054442 25.4081818,24.0781818 C25.0281799,26.1509195 24.740304,28.2063534 24.5445455,30.2445455 C24.3487869,32.2827375 24.2509091,34.1078707 24.2509091,35.72 L24.2509091,37.3781818 C24.2509091,37.9539423 24.2739392,38.5527242 24.32,39.1745455 C23.9975741,39.1745455 23.6118204,39.1342428 23.1627273,39.0536364 C22.7136341,38.9730299 22.2760627,38.8636371 21.85,38.7254545 C21.4239373,38.587272 21.0381835,38.431819 20.6927273,38.2590909 C20.347271,38.0863628 20.1054545,37.8963647 19.9672727,37.6890909 C19.9442423,37.3666651 19.9327273,37.032729 19.9327273,36.6872727 L19.9327273,35.6854545 C19.9327273,33.1060477 20.1227254,30.4115292 20.5027273,27.6018182 C20.8827292,24.7921072 21.5102987,21.7521376 22.3854545,18.4818182 C22.4775762,18.1593923 22.5812115,17.7218209 22.6963636,17.1690909 C22.8115157,16.6163609 22.9266661,16.0406091 23.0418182,15.4418182 C22.3969665,15.764244 21.6657617,16.3802985 20.8481818,17.29 C20.030602,18.1997015 19.2015194,19.305145 18.3609091,20.6063636 C17.5202988,21.9075823 16.6912162,23.3527193 15.8736364,24.9418182 C15.0560565,26.530917 14.3190942,28.1487796 13.6627273,29.7954545 C13.0063604,31.4421294 12.4536386,33.0772646 12.0045455,34.7009091 C11.5554523,36.3245536 11.2848489,37.8157508 11.1927273,39.1745455 Z" fill="#FFFFFF" fill-rule="nonzero" mask="url(#mask-2)"></path>
                    <path d="M25.0109091,39.1745455 C24.9648483,39.1975759 24.9187881,39.2090909 24.8727273,39.2090909 L24.5963636,39.2090909 C24.2739378,39.2090909 23.8996991,39.1572732 23.4736364,39.0536364 C23.0475736,38.9499995 22.6330323,38.8233341 22.23,38.6736364 C21.8269677,38.5239386 21.4815166,38.3569706 21.1936364,38.1727273 C20.9057561,37.9884839 20.7272731,37.8272734 20.6581818,37.6890909 C20.6351514,37.3666651 20.6236364,37.032729 20.6236364,36.6872727 L20.6236364,35.6854545 C20.6236364,33.1060477 20.8136345,30.4115292 21.1936364,27.6018182 C21.5736383,24.7921072 22.2012077,21.7521376 23.0763636,18.4818182 C23.1684853,18.1593923 23.2663631,17.7506085 23.37,17.2554545 C23.4736369,16.7603006 23.5830297,16.2248514 23.6981818,15.6490909 C23.1454518,16.0866689 22.4890947,16.7833286 21.7290909,17.7390909 C20.9690871,18.6948533 20.1687921,19.8233268 19.3281818,21.1245455 C18.4875716,22.4257641 17.6469739,23.8536286 16.8063636,25.4081818 C15.9657534,26.962735 15.2000035,28.540295 14.5090909,30.1409091 C13.8181784,31.7415232 13.225154,33.3248407 12.73,34.8909091 C12.234846,36.4569775 11.9296975,37.9078721 11.8145455,39.2436364 C10.7090854,38.9212105 9.94333546,38.5987895 9.51727273,38.2763636 C9.09120999,37.9539378 8.87818182,37.5624265 8.87818182,37.1018182 C8.87818182,36.6872707 9.00484722,36.1000038 9.25818182,35.34 C9.51151642,34.5799962 9.86848255,33.6818234 10.3290909,32.6454545 C10.7896993,31.6090857 11.3539361,30.4518246 12.0218182,29.1736364 C12.6897003,27.8954482 13.4266626,26.5194013 14.2327273,25.0454545 C15.153944,23.364234 16.0578744,21.786674 16.9445455,20.3127273 C17.8312166,18.8387805 18.7006018,17.5030363 19.5527273,16.3054545 C20.4048527,15.1078728 21.2396929,14.0715195 22.0572727,13.1963636 C22.8748526,12.3212077 23.6866626,11.6533356 24.4927273,11.1927273 C24.8151531,11.1927273 25.246967,11.2733325 25.7881818,11.4345455 C26.3293966,11.5957584 26.8590883,11.791514 27.3772727,12.0218182 C27.8954571,12.2521224 28.3560586,12.4881806 28.7590909,12.73 C29.1621232,12.9718194 29.3866664,13.1733325 29.4327273,13.3345455 C29.1103014,13.9793972 28.7303052,14.9466602 28.2927273,16.2363636 C27.8551493,17.5260671 27.4118204,18.9884767 26.9627273,20.6236364 C26.5136341,22.2587961 26.0875778,23.991809 25.6845455,25.8227273 C25.2815131,27.6536455 24.9648496,29.4096886 24.7345455,31.0909091 C25.2642451,29.8242361 25.8802995,28.5057644 26.5827273,27.1354545 C27.285155,25.7651447 28.0278749,24.4063704 28.8109091,23.0590909 C29.5939433,21.7118114 30.3942383,20.4048548 31.2118182,19.1381818 C32.029398,17.8715088 32.8296931,16.7142477 33.6127273,15.6663636 C34.3957615,14.6184796 35.1269663,13.7030342 35.8063636,12.92 C36.485761,12.1369658 37.0903004,11.561214 37.62,11.1927273 C37.9424259,11.1927273 38.3742397,11.2733325 38.9154545,11.4345455 C39.4566694,11.5957584 39.986361,11.791514 40.5045455,12.0218182 C41.0227299,12.2521224 41.4833313,12.4881806 41.8863636,12.73 C42.289396,12.9718194 42.5139392,13.1733325 42.56,13.3345455 C41.8230266,14.6472793 41.1781818,16.2478693 40.6254545,18.1363636 C40.0727245,20.0248579 39.6063655,22.0054442 39.2263636,24.0781818 C38.8463617,26.1509195 38.5584858,28.2063534 38.3627273,30.2445455 C38.1669687,32.2827375 38.0690909,34.1078707 38.0690909,35.72 L38.0690909,37.3781818 C38.0690909,37.9539423 38.092121,38.5527242 38.1381818,39.1745455 C37.815756,39.1745455 37.4300022,39.1342428 36.9809091,39.0536364 C36.5318159,38.9730299 36.0942446,38.8636371 35.6681818,38.7254545 C35.2421191,38.587272 34.8563654,38.431819 34.5109091,38.2590909 C34.1654528,38.0863628 33.9236364,37.8963647 33.7854545,37.6890909 C33.7624241,37.3666651 33.7509091,37.032729 33.7509091,36.6872727 L33.7509091,35.6854545 C33.7509091,33.1060477 33.9409072,30.4115292 34.3209091,27.6018182 C34.700911,24.7921072 35.3284805,21.7521376 36.2036364,18.4818182 C36.295758,18.1593923 36.3993934,17.7218209 36.5145455,17.1690909 C36.6296975,16.6163609 36.7448479,16.0406091 36.86,15.4418182 C36.2151483,15.764244 35.4839435,16.3802985 34.6663636,17.29 C33.8487838,18.1997015 33.0197012,19.305145 32.1790909,20.6063636 C31.3384806,21.9075823 30.509398,23.3527193 29.6918182,24.9418182 C28.8742383,26.530917 28.137276,28.1487796 27.4809091,29.7954545 C26.8245422,31.4421294 26.2718204,33.0772646 25.8227273,34.7009091 C25.3736341,36.3245536 25.1030308,37.8157508 25.0109091,39.1745455 Z" fill="#FFFFFF" fill-rule="nonzero" mask="url(#mask-2)"></path>
                </g>
                <path d="M7.99243636,59.1639273 L7.94821818,59.1639273 C7.85978182,59.6613818 7.70501818,60.3909818 7.62763636,60.6452364 L6.46690909,64.9454545 L4.15650909,64.9454545 L2.9184,60.5346909 C2.86312727,60.3467636 2.71941818,59.7166545 2.68625455,59.1639273 L2.64203636,59.1639273 L2.64203636,63.5194182 L3.27214545,63.5194182 L3.27214545,64.9454545 L0.276363636,64.9454545 L0.276363636,63.5194182 L0.873309091,63.5194182 L0.873309091,58.6443636 L0.287418182,58.6443636 L0.287418182,57.2183273 L4.47709091,57.2183273 L5.5936,61.3527273 L6.65483636,57.2183273 L10.8666182,57.2183273 L10.8666182,58.6443636 L10.2586182,58.6443636 L10.2586182,63.5083636 L10.8666182,63.5083636 L10.8666182,64.9454545 L7.37338182,64.9454545 L7.37338182,63.5083636 L8.00349091,63.5083636 L7.99243636,59.8161455 L7.99243636,59.1639273 Z M16.5583273,63.1104 L17.4869091,64.1826909 C16.6688727,64.8901818 15.7845091,65.1444364 14.6348364,65.1444364 C13.2640727,65.1444364 11.7164364,64.2711273 11.7164364,62.1486545 C11.7164364,60.3357091 13.0208727,59.2634182 14.6901091,59.2634182 C16.0056,59.2634182 17.0115636,59.9377455 17.3321455,60.8663273 C17.4648,61.2532364 17.5864,62.1044364 17.3542545,62.7345455 L13.8720727,62.7345455 C13.9384,63.0330182 14.0821091,63.6410182 15.0106909,63.6410182 C15.3865455,63.6410182 15.9613818,63.6078545 16.5583273,63.1104 Z M14.7564364,60.7557818 C14.0821091,60.7557818 13.9273455,61.3637818 13.9052364,61.6401455 L15.5744727,61.6401455 C15.5634182,61.2200727 15.4639273,60.7557818 14.7564364,60.7557818 Z M21.8520727,63.4973091 L21.8520727,64.9454545 L18.4472727,64.9454545 L18.4472727,63.4973091 L18.9115636,63.4973091 L18.9115636,60.8552727 L18.4472727,60.8552727 L18.4472727,59.4181818 L20.8018909,59.4181818 L21.0561455,60.1035636 C21.432,59.584 21.9405091,59.2192 22.6369455,59.2192 C24.3504,59.2192 24.6378182,60.4904727 24.6378182,61.6512 L24.6378182,63.4973091 L25.1573818,63.4973091 L25.1573818,64.9454545 L22.3716364,64.9454545 L22.3716364,61.9275636 C22.3716364,61.5517091 22.4048,60.8994909 21.7525818,60.8994909 C21.1888,60.8994909 21.0561455,61.4522182 21.0561455,61.9275636 L21.0561455,63.4973091 L21.8520727,63.4973091 Z M26.0072,60.8552727 L26.0072,59.4181818 L26.6041455,59.4181818 L26.6041455,58.4011636 L28.6381818,57.7489455 L28.6381818,59.4181818 L29.6883636,59.4181818 L29.6883636,60.8552727 L28.6381818,60.8552727 L28.6381818,62.8229818 C28.6381818,63.1988364 28.5608,63.7073455 28.9919273,63.7073455 C29.1356364,63.7073455 29.4783273,63.6078545 29.6883636,63.5194182 L29.6883636,64.9344 C29.3567273,65.0670545 28.6050182,65.1444364 28.3507636,65.1444364 C26.6925818,65.1444364 26.6373091,64.2379636 26.6041455,62.8229818 L26.6041455,60.8552727 L26.0072,60.8552727 Z M33.5781818,65.0891636 C31.9973818,65.0891636 30.4718545,64.1163636 30.4939636,62.1597091 C30.5050182,60.3136 31.9973818,59.2855273 33.5229091,59.2855273 C35.2695273,59.3076364 36.5629091,60.3578182 36.5960727,62.2039273 C36.6181818,64.0389818 35.2584727,65.0891636 33.5781818,65.0891636 Z M33.5781818,63.6741818 C34.0535273,63.6741818 34.3298909,63.0330182 34.3298909,62.2039273 C34.3298909,61.3748364 34.0424727,60.7336727 33.5229091,60.7226182 C33.0917818,60.7226182 32.7601455,61.3637818 32.7601455,62.1707636 C32.7601455,63.0772364 33.1138909,63.6741818 33.5781818,63.6741818 Z M40.6406545,63.4973091 L40.6406545,64.9454545 L37.5122182,64.9454545 L37.5122182,63.4973091 L37.9986182,63.4973091 L37.9986182,60.8552727 L37.5232727,60.8552727 L37.5232727,59.4181818 L39.6015273,59.4181818 L39.9331636,60.1256727 C40.2205818,59.5950545 40.508,59.1418182 41.6466182,59.1418182 L41.6466182,61.1316364 C40.6517091,61.1316364 40.0879273,61.3858909 40.0879273,62.3586909 L40.0879273,63.4973091 L40.6406545,63.4973091 Z M45.7229818,62.6792727 C45.7229818,61.9607273 46.0767273,61.0763636 47.348,60.4241455 C46.9058182,60.1367273 46.5410182,59.5508364 46.5410182,58.9649455 C46.5410182,58.0363636 47.5027636,57.0856727 48.9066909,57.0856727 C50.6201455,57.0856727 51.3165818,58.1137455 51.3165818,58.9649455 C51.3165818,59.8382545 50.6533091,60.3357091 50.0563636,60.5789091 L51.0844364,61.6069818 C51.3497455,61.1095273 51.5266182,60.5899636 51.6592727,60.1367273 L54.0249455,60.1367273 L54.0249455,61.5296 L52.9416,61.5296 C52.7647273,62.0491636 52.5546909,62.4692364 52.3114909,62.8340364 L52.9968727,63.5083636 L53.6380364,63.5083636 L53.6380364,64.9454545 L51.9909091,64.9454545 L51.2723636,64.2379636 C50.6864727,64.7796364 49.6915636,65.0891636 48.6524364,65.0891636 C46.8173818,65.0891636 45.7229818,64.0389818 45.7229818,62.6792727 Z M47.7901818,62.6129455 C47.7901818,63.1435636 48.2544727,63.4530909 48.6856,63.4530909 C49.0393455,63.4530909 49.6031273,63.3314909 49.9900364,62.9888 L48.5861091,61.6069818 L48.5418909,61.6069818 C48.2434182,61.7949091 47.7901818,62.2039273 47.7901818,62.6129455 Z M49.5368,58.9981091 C49.5368,58.6775273 49.3709818,58.3237818 48.8956364,58.3237818 C48.564,58.3237818 48.3429091,58.6443636 48.3429091,58.9317818 C48.3429091,59.3960727 48.7740364,59.6282182 49.0061818,59.7277091 C49.0725091,59.7608727 49.5368,59.4071273 49.5368,58.9981091 Z M65.9279273,59.1639273 L65.8837091,59.1639273 C65.7952727,59.6613818 65.6405091,60.3909818 65.5631273,60.6452364 L64.4024,64.9454545 L62.092,64.9454545 L60.8538909,60.5346909 C60.7986182,60.3467636 60.6549091,59.7166545 60.6217455,59.1639273 L60.5775273,59.1639273 L60.5775273,63.5194182 L61.2076364,63.5194182 L61.2076364,64.9454545 L58.2118545,64.9454545 L58.2118545,63.5194182 L58.8088,63.5194182 L58.8088,58.6443636 L58.2229091,58.6443636 L58.2229091,57.2183273 L62.4125818,57.2183273 L63.5290909,61.3527273 L64.5903273,57.2183273 L68.8021091,57.2183273 L68.8021091,58.6443636 L68.1941091,58.6443636 L68.1941091,63.5083636 L68.8021091,63.5083636 L68.8021091,64.9454545 L65.3088727,64.9454545 L65.3088727,63.5083636 L65.9389818,63.5083636 L65.9279273,59.8161455 L65.9279273,59.1639273 Z M70.4589091,61.1648 L69.9946182,59.8824727 C70.4368,59.6171636 71.3874909,59.0976 72.4045091,59.0976 C73.7310545,59.0976 75.4002909,59.5950545 75.4002909,61.3748364 L75.4002909,63.5304727 L76.0635636,63.5304727 L76.0635636,64.9454545 L73.6978909,64.9454545 L73.4325818,64.448 C73.0235636,65.0117818 72.3381818,65.1554909 71.9402182,65.1554909 C70.8900364,65.1554909 69.7624727,64.5917091 69.7624727,63.3093818 C69.7624727,62.0602182 70.8126545,61.2753455 72.0618182,61.2753455 C72.7140364,61.2753455 73.1009455,61.5959273 73.1562182,61.6622545 L73.1562182,61.2753455 C73.1562182,60.7778909 72.7029818,60.6562909 72.1060364,60.6562909 C71.4538182,60.6562909 70.8789818,60.9326545 70.4589091,61.1648 Z M72.4487273,63.7184 C72.7803636,63.7184 73.0567273,63.5194182 73.1562182,63.3536 L73.1562182,62.9335273 C73.1230545,62.8782545 72.9682909,62.6129455 72.504,62.6129455 C72.0618182,62.6129455 71.8628364,62.8561455 71.8628364,63.1988364 C71.8628364,63.5083636 72.1170909,63.7184 72.4487273,63.7184 Z M76.9133818,60.8552727 L76.9133818,59.4181818 L77.5103273,59.4181818 L77.5103273,58.4011636 L79.5443636,57.7489455 L79.5443636,59.4181818 L80.5945455,59.4181818 L80.5945455,60.8552727 L79.5443636,60.8552727 L79.5443636,62.8229818 C79.5443636,63.1988364 79.4669818,63.7073455 79.8981091,63.7073455 C80.0418182,63.7073455 80.3845091,63.6078545 80.5945455,63.5194182 L80.5945455,64.9344 C80.2629091,65.0670545 79.5112,65.1444364 79.2569455,65.1444364 C77.5987636,65.1444364 77.5434909,64.2379636 77.5103273,62.8229818 L77.5103273,60.8552727 L76.9133818,60.8552727 Z M85.2581818,61.9165091 C85.2360727,61.3858909 85.0702545,60.7557818 84.5617455,60.7557818 C83.9095273,60.7557818 83.5889455,61.4522182 83.5889455,62.1707636 C83.5889455,62.8893091 84.0200727,63.4641455 84.7275636,63.4752 C85.3134545,63.4862545 85.7003636,63.2430545 86.0651636,62.8450909 L87.0379636,63.9726545 C86.5184,64.5364364 85.5234909,65.1002182 84.3296,65.1002182 C82.7045818,65.1002182 81.2896,64.1163636 81.2896,62.1486545 C81.2896,60.192 82.5940364,59.3186909 84.0090182,59.3186909 C84.7607273,59.3186909 85.2029091,59.7277091 85.3908364,59.9488 L85.5787636,59.4181818 L86.8832,59.4181818 L86.8832,61.9165091 L85.2581818,61.9165091 Z M91.4141818,63.4973091 L91.4141818,64.9454545 L87.9430545,64.9454545 L87.9430545,63.4973091 L88.4073455,63.4973091 L88.4073455,58.0916364 L87.9430545,58.0916364 L87.9430545,56.6545455 L90.6182545,56.6545455 L90.6182545,60.1035636 C90.7398545,59.9045818 91.5468364,59.2192 92.3538182,59.2192 C94.0672727,59.2192 94.2883636,60.4904727 94.2883636,61.6512 L94.2883636,63.4973091 L94.8079273,63.4973091 L94.8079273,64.9454545 L91.9669091,64.9454545 L91.9669091,61.9386182 C91.9669091,61.5627636 91.9669091,60.9105455 91.3146909,60.9105455 C90.7509091,60.9105455 90.6182545,61.4632727 90.6182545,61.9386182 L90.6182545,63.4973091 L91.4141818,63.4973091 Z" id="Mentor&amp;Match" fill="#2A6C9B" fill-rule="nonzero"></path>
                <path d="M32.9259636,75.7623273 C32.0885818,75.7623273 31.2097455,75.2731636 30.8698182,74.7591273 L31.7735273,73.8222545 C32.0968727,74.1538909 32.4533818,74.4357818 32.9342545,74.4357818 C33.4897455,74.4357818 33.8462545,74.0875636 33.8462545,73.6066909 C33.8462545,73.1672727 33.4731636,72.8024727 33.0005818,72.8024727 C32.6192,72.8024727 32.3953455,73.0014545 32.2212364,73.1838545 L31.16,72.7112727 L31.6657455,69.8592 L34.9489455,69.8592 L34.9489455,71.0945455 L32.7186909,71.0945455 L32.5777455,71.8987636 C32.7435636,71.7909818 33.0669091,71.6997818 33.4731636,71.6997818 C34.4432,71.6997818 35.4049455,72.3796364 35.4049455,73.6647273 C35.4049455,75.0576 34.1281455,75.7623273 32.9259636,75.7623273 Z M38.7868826,75.7540364 C37.4023008,75.7540364 36.4073917,74.7674182 36.4073917,72.7278545 C36.4073917,70.9701818 37.3691372,69.7514182 38.7454281,69.7514182 C40.3704463,69.7514182 41.124919,70.9536 41.124919,72.7858909 C41.124919,74.6264727 40.2875372,75.7540364 38.7868826,75.7540364 Z M38.7868826,74.4689455 C39.1682645,74.4689455 39.4584463,73.7973818 39.4584463,72.7858909 C39.4584463,71.7992727 39.1433917,71.0862545 38.7371372,71.0862545 C38.4303736,71.0779636 38.0489917,71.7163636 38.0489917,72.7278545 C38.0489917,73.7973818 38.4552463,74.4689455 38.7868826,74.4689455 Z M42.5916562,71.8656 L42.2102744,70.9453091 C42.6828562,70.7131636 43.0559471,70.5805091 43.6611835,69.8592 L45.1369653,69.8592 L45.1369653,74.5518545 L45.9080198,74.5518545 L45.9080198,75.6545455 L42.5916562,75.6545455 L42.5916562,74.5518545 L43.4207471,74.5518545 L43.4207471,71.4759273 L42.5916562,71.8656 Z M49.0246479,68.8974545 L49.8786116,69.7762909 C49.4806479,70.2571636 48.6018116,71.2769455 48.6018116,73.0677818 C48.6018116,74.9166545 49.3894479,75.9198545 49.8786116,76.5002182 L49.0246479,77.3873455 C48.1292298,76.5748364 47.0762843,74.9581091 47.0762843,73.0677818 C47.0762843,71.1111273 48.3365025,69.4944 49.0246479,68.8974545 Z M53.8243306,73.3828364 C53.8077488,72.9848727 53.6833851,72.5122909 53.3020033,72.5122909 C52.8128397,72.5122909 52.5724033,73.0346182 52.5724033,73.5735273 C52.5724033,74.1124364 52.8957488,74.5435636 53.4263669,74.5518545 C53.8657851,74.5601455 54.1559669,74.3777455 54.4295669,74.0792727 L55.1591669,74.9249455 C54.7694942,75.3477818 54.0233124,75.7706182 53.1278942,75.7706182 C51.9091306,75.7706182 50.8478942,75.0327273 50.8478942,73.5569455 C50.8478942,72.0894545 51.8262215,71.4344727 52.8874579,71.4344727 C53.4512397,71.4344727 53.782876,71.7412364 53.9238215,71.9070545 L54.0647669,71.5090909 L55.0430942,71.5090909 L55.0430942,73.3828364 L53.8243306,73.3828364 Z M56.2030678,69.7845818 L57.0570314,68.9057455 C57.7451769,69.5026909 59.005395,71.1194182 59.005395,73.0760727 C59.005395,74.9664 57.9524496,76.5831273 57.0570314,77.3956364 L56.2030678,76.5085091 C56.6922314,75.9281455 57.4798678,74.9249455 57.4798678,73.0760727 C57.4798678,71.2852364 56.6010314,70.2654545 56.2030678,69.7845818 Z M62.0225322,75.7623273 C61.2348959,75.7623273 60.4140959,75.3063273 60.0907504,74.8254545 L60.9364231,73.9466182 C61.2431868,74.2533818 61.5582413,74.4855273 62.0308231,74.4855273 C62.495114,74.4855273 62.777005,74.2616727 62.777005,73.8471273 C62.777005,73.3994182 62.503405,73.2418909 62.0888595,73.2418909 L61.4670413,73.2418909 L61.4670413,72.2552727 L62.0722777,72.2552727 C62.4702413,72.2552727 62.777005,72.0562909 62.777005,71.6832 C62.777005,71.2354909 62.3956231,71.0282182 62.047405,71.0282182 C61.7323504,71.0282182 61.3675504,71.2189091 61.0773686,71.5256727 L60.2731504,70.5556364 C60.5716231,70.2322909 61.2929322,69.768 62.047405,69.768 C63.3988231,69.768 64.1615868,70.4644364 64.1615868,71.5256727 C64.1615868,72.0894545 63.7636231,72.4128 63.5480595,72.5786182 C63.8133686,72.7693091 64.319114,73.1921455 64.319114,73.9383273 C64.319114,75.1653818 63.141805,75.7623273 62.0225322,75.7623273 Z" id="501(c)3" fill="#2A6C9B" fill-rule="nonzero"></path>
            </g>
        </g>
    </g>
</svg>