<?xml version="1.0" encoding="UTF-8"?>
<!DOCTYPE svg PUBLIC "-//W3C//DTD SVG 1.1//EN" "http://www.w3.org/Graphics/SVG/1.1/DTD/svg11.dtd">
<!-- Creator: CorelDRAW X7 -->
<svg xmlns="http://www.w3.org/2000/svg" xml:space="preserve" width="40mm" height="12mm" version="1.1" style="shape-rendering:geometricPrecision; text-rendering:geometricPrecision; image-rendering:optimizeQuality; fill-rule:evenodd; clip-rule:evenodd"
viewBox="0 0 4000 1200"
 xmlns:xlink="http://www.w3.org/1999/xlink">
 <defs>
  <style type="text/css">
   <![CDATA[
    .fil7 {fill:#3288C2}
    .fil4 {fill:#6D6E71}
    .fil3 {fill:#B2B2B4}
    .fil6 {fill:#D23257}
    .fil2 {fill:#ED217C}
    .fil1 {fill:#F58220}
    .fil0 {fill:#FEFDFE}
    .fil5 {fill:#2B2A29;fill-rule:nonzero}
   ]]>
  </style>
 </defs>
 <g id="Layer_x0020_1">
  <metadata id="CorelCorpID_0Corel-Layer"/>
  <g id="_2557737058848">
   <polygon class="fil0" points="-4532,-3671 -3218,-3671 -3218,-4756 -4532,-4756 "/>
   <path class="fil1" d="M-3324 -4308c-52,-27 -76,62 -132,88l26 -77c-36,-2 -33,0 -48,23 -9,14 -24,36 -30,47 12,-40 5,-38 -3,-51 -53,31 -59,85 -104,115 16,-27 36,-55 37,-94 -57,3 -47,45 -108,108 -9,10 -33,35 -47,22 -36,-69 83,-110 42,-186 -38,0 -14,-5 -44,34 -62,78 -160,86 -183,216 -29,166 178,279 203,272 39,-11 -24,-95 27,-174 49,-73 401,-252 364,-343z"/>
   <path class="fil1" d="M-4159 -3798c23,15 43,7 74,-20 71,-61 150,-108 139,-230 -13,-150 -138,-156 -188,-236 -20,-32 1,-25 -34,-30 -59,58 68,107 36,195 -89,-26 -87,-138 -155,-137 2,43 21,62 36,92 -39,-28 -53,-81 -96,-111 -24,6 -2,-18 -23,34 -6,-12 -12,-24 -22,-37 -13,-16 -16,-21 -40,-19l30 84c-40,-13 -44,-36 -69,-67 -12,-14 -91,-68 -74,0 18,73 263,223 329,272 108,83 37,175 57,210z"/>
   <path class="fil2" d="M-4146 -4642c-12,60 57,144 -46,206 -33,19 -94,10 -80,53 13,40 58,-3 112,1l13 36c1,1 2,4 3,5 74,-29 73,-95 154,-144 -2,-2 -4,-5 -5,-4 0,0 -66,-28 -86,-67 -19,-35 -9,-123 -65,-86z"/>
   <path class="fil2" d="M-3787 -4541l-44 -15c-14,89 41,128 41,222l41 -33c13,-7 35,-15 51,-16 58,-5 58,26 107,14 13,-83 -70,-23 -121,-111 -49,-87 45,-171 -41,-165 -7,12 -26,82 -34,104z"/>
   <path class="fil2" d="M-4020 -4575c-15,25 -22,15 -27,41 69,36 138,28 202,64 -27,-96 4,-123 48,-164 32,-29 11,-59 -18,-50 -22,8 -65,101 -160,62 -45,-18 -46,-42 -66,-57 -29,-21 -57,7 -36,36 15,21 22,3 57,68z"/>
   <path class="fil3" d="M-3963 -4344c5,16 14,43 51,19 3,-2 9,-8 11,-9l11 -10c11,36 15,33 56,21 20,-55 -30,-92 -59,-32 -25,-26 -46,-55 -73,0 -12,-13 -17,-27 -41,-28 -57,-1 -37,111 39,44 1,-1 3,-3 5,-5z"/>
   <path class="fil4" d="M-4243 -4586c-66,26 -42,137 38,113 68,-21 33,-141 -38,-113z"/>
   <path class="fil4" d="M-3948 -4763c-77,31 -39,134 35,112 67,-20 35,-141 -35,-112z"/>
   <path class="fil4" d="M-3656 -4584c-76,34 -27,137 41,109 64,-25 27,-140 -41,-109z"/>
   <path class="fil5" d="M-2944 -4560l0 200 -32 0 0 -88 -101 0 0 88 -31 0 0 -200 31 0 0 84 101 0 0 -84 32 0zm81 203c-7,0 -14,-1 -20,-3 -6,-3 -11,-6 -16,-10 -4,-4 -8,-9 -10,-15 -3,-5 -4,-11 -4,-18 0,-7 1,-13 4,-19 3,-6 8,-10 13,-15 6,-4 12,-7 20,-9 8,-2 16,-4 25,-4 7,0 14,1 21,2 7,2 13,3 18,5l0 -10c0,-11 -3,-19 -9,-25 -6,-7 -15,-10 -27,-10 -8,0 -16,2 -23,5 -8,3 -16,7 -24,12l-9 -19c19,-13 38,-20 59,-20 20,0 36,6 47,16 12,10 17,25 17,44l0 54c0,3 1,6 2,7 1,2 4,3 7,3l0 26c-3,1 -6,1 -8,2 -3,0 -5,0 -7,0 -6,0 -11,-2 -14,-5 -3,-3 -5,-6 -6,-11l-1 -10c-6,9 -14,16 -24,20 -10,5 -20,7 -31,7zm8 -23c8,0 15,-1 22,-4 6,-2 11,-6 15,-11 4,-3 6,-7 6,-11l0 -19c-5,-2 -11,-4 -17,-5 -6,-1 -11,-2 -17,-2 -11,0 -20,3 -27,7 -7,5 -11,12 -11,19 0,8 3,14 8,19 6,5 13,7 21,7zm195 -100c-12,0 -23,3 -32,8 -9,5 -16,13 -20,22l0 90 -31 0 0 -147 29 0 0 33c5,-10 12,-19 20,-25 8,-6 17,-10 26,-10 2,0 4,0 5,0 1,0 2,1 3,1l0 28zm27 155c3,1 5,1 7,2 3,0 5,0 7,0 2,0 4,0 6,-1 2,-1 4,-2 6,-4 1,-3 3,-6 6,-11 2,-5 4,-12 7,-21l-60 -147 32 0 46 120 40 -120 30 0 -68 182c-4,10 -9,17 -17,22 -7,5 -16,8 -26,8 -6,0 -11,-1 -16,-3l0 -27zm185 -32c-7,0 -14,-1 -20,-3 -6,-3 -11,-6 -15,-10 -5,-4 -8,-9 -11,-15 -2,-5 -4,-11 -4,-18 0,-7 2,-13 5,-19 3,-6 7,-10 13,-15 5,-4 12,-7 19,-9 8,-2 16,-4 26,-4 7,0 13,1 20,2 7,2 13,3 19,5l0 -10c0,-11 -4,-19 -10,-25 -6,-7 -15,-10 -27,-10 -7,0 -15,2 -23,5 -7,3 -15,7 -23,12l-10 -19c19,-13 39,-20 59,-20 21,0 36,6 48,16 11,10 17,25 17,44l0 54c0,3 0,6 2,7 1,2 3,3 6,3l0 26c-3,1 -5,1 -8,2 -2,0 -5,0 -7,0 -6,0 -10,-2 -14,-5 -3,-3 -5,-6 -5,-11l-1 -10c-7,9 -15,16 -25,20 -9,5 -20,7 -31,7zm9 -23c7,0 14,-1 21,-4 7,-2 12,-6 16,-11 4,-3 6,-7 6,-11l0 -19c-6,-2 -11,-4 -17,-5 -6,-1 -12,-2 -18,-2 -11,0 -20,3 -27,7 -7,5 -10,12 -10,19 0,8 2,14 8,19 5,5 12,7 21,7zm244 20l-31 0 0 -82c0,-14 -2,-24 -7,-31 -4,-6 -11,-9 -19,-9 -5,0 -9,1 -14,3 -5,1 -9,4 -13,7 -4,3 -7,7 -10,11 -3,4 -6,9 -8,14l0 87 -31 0 0 -147 29 0 0 30c5,-10 13,-18 24,-24 11,-6 23,-9 36,-9 9,0 16,2 22,5 5,3 10,8 13,13 3,6 6,12 7,19 1,8 2,15 2,23l0 90zm75 3c-7,0 -14,-1 -20,-3 -6,-3 -11,-6 -16,-10 -4,-4 -8,-9 -10,-15 -3,-5 -4,-11 -4,-18 0,-7 1,-13 4,-19 3,-6 8,-10 13,-15 6,-4 12,-7 20,-9 8,-2 16,-4 25,-4 7,0 14,1 21,2 7,2 13,3 18,5l0 -10c0,-11 -3,-19 -9,-25 -6,-7 -15,-10 -27,-10 -8,0 -16,2 -23,5 -8,3 -16,7 -24,12l-9 -19c19,-13 38,-20 59,-20 20,0 36,6 47,16 12,10 17,25 17,44l0 54c0,3 1,6 2,7 2,2 4,3 7,3l0 26c-3,1 -6,1 -8,2 -3,0 -5,0 -7,0 -6,0 -11,-2 -14,-5 -3,-3 -5,-6 -6,-11l-1 -10c-6,9 -14,16 -24,20 -10,5 -20,7 -31,7zm8 -23c8,0 15,-1 22,-4 6,-2 12,-6 15,-11 4,-3 6,-7 6,-11l0 -19c-5,-2 -11,-4 -17,-5 -5,-1 -11,-2 -17,-2 -11,0 -20,3 -27,7 -7,5 -11,12 -11,19 0,8 3,14 8,19 6,5 13,7 21,7zm305 -133c-2,-2 -5,-4 -9,-6 -3,-3 -7,-5 -12,-7 -5,-2 -10,-4 -16,-5 -6,-1 -12,-2 -19,-2 -12,0 -22,2 -28,7 -6,5 -10,12 -10,21 0,5 1,9 4,12 2,3 5,6 9,8 4,2 9,4 15,6 7,2 14,4 22,6 10,2 19,5 27,8 8,3 15,6 21,11 6,4 10,9 13,15 4,6 5,14 5,23 0,11 -2,20 -6,27 -4,7 -9,13 -16,18 -6,5 -14,8 -23,10 -9,2 -18,3 -28,3 -15,0 -30,-2 -45,-6 -14,-5 -27,-12 -38,-21l14 -27c3,3 6,5 11,8 4,3 10,6 16,9 6,2 13,4 20,6 7,2 15,3 23,3 12,0 21,-2 28,-7 7,-4 10,-11 10,-19 0,-5 -1,-9 -4,-13 -2,-3 -6,-6 -10,-9 -5,-2 -11,-4 -18,-6 -6,-2 -14,-4 -23,-7 -10,-2 -18,-5 -26,-8 -7,-3 -13,-6 -18,-11 -5,-4 -9,-9 -11,-14 -3,-6 -4,-12 -4,-20 0,-10 2,-19 5,-26 4,-8 9,-14 15,-20 7,-5 15,-9 23,-11 9,-3 19,-4 29,-4 14,0 27,2 38,6 11,5 21,10 30,16l-14 26zm129 146c-5,2 -10,4 -17,6 -7,3 -14,4 -22,4 -5,0 -10,-1 -14,-2 -4,-2 -8,-4 -11,-6 -4,-3 -6,-6 -8,-10 -2,-5 -3,-10 -3,-16l0 -92 -20 0 0 -24 20 0 0 -49 31 0 0 49 32 0 0 24 -32 0 0 82c0,6 2,9 5,12 3,2 6,3 11,3 4,0 8,-1 12,-2 4,-2 7,-3 9,-4l7 25zm59 10c-7,0 -13,-1 -20,-3 -6,-3 -11,-6 -15,-10 -5,-4 -8,-9 -11,-15 -2,-5 -4,-11 -4,-18 0,-7 2,-13 5,-19 3,-6 7,-10 13,-15 5,-4 12,-7 20,-9 7,-2 16,-4 25,-4 7,0 14,1 20,2 7,2 13,3 19,5l0 -10c0,-11 -3,-19 -10,-25 -6,-7 -15,-10 -26,-10 -8,0 -16,2 -24,5 -7,3 -15,7 -23,12l-10 -19c19,-13 39,-20 59,-20 21,0 37,6 48,16 11,10 17,25 17,44l0 54c0,3 0,6 2,7 1,2 3,3 7,3l0 26c-3,1 -6,1 -9,2 -2,0 -5,0 -7,0 -6,0 -10,-2 -13,-5 -4,-3 -5,-6 -6,-11l-1 -10c-7,9 -15,16 -24,20 -10,5 -21,7 -32,7zm9 -23c7,0 14,-1 21,-4 7,-2 12,-6 16,-11 4,-3 6,-7 6,-11l0 -19c-6,-2 -11,-4 -17,-5 -6,-1 -12,-2 -17,-2 -12,0 -21,3 -28,7 -7,5 -10,12 -10,19 0,8 2,14 8,19 5,5 12,7 21,7zm192 13c-4,2 -10,4 -16,6 -7,3 -15,4 -23,4 -5,0 -9,-1 -14,-2 -4,-2 -8,-4 -11,-6 -3,-3 -6,-6 -8,-10 -2,-5 -2,-10 -2,-16l0 -92 -20 0 0 -24 20 0 0 -49 31 0 0 49 32 0 0 24 -32 0 0 82c0,6 1,9 4,12 3,2 7,3 11,3 4,0 9,-1 13,-2 3,-2 6,-3 8,-4l7 25zm88 10c-12,0 -22,-2 -32,-6 -9,-4 -17,-9 -24,-16 -7,-7 -12,-15 -15,-25 -4,-9 -6,-19 -6,-29 0,-10 2,-20 6,-29 3,-10 8,-18 15,-25 7,-7 15,-13 24,-17 10,-4 20,-6 32,-6 11,0 22,2 31,7 9,4 17,9 24,16 6,7 11,15 15,24 3,9 5,19 5,29 0,2 0,4 0,6 0,2 -1,4 -1,5l-118 0c1,7 2,12 5,18 2,5 6,10 10,13 4,4 8,7 13,9 6,2 11,3 17,3 4,0 8,0 12,-1 4,-1 8,-3 11,-5 3,-2 6,-4 9,-7 3,-3 5,-6 6,-9l27 7c-5,12 -14,21 -25,28 -12,7 -26,10 -41,10zm44 -87c0,-7 -2,-12 -4,-18 -3,-5 -6,-9 -10,-13 -4,-4 -9,-7 -14,-9 -5,-2 -11,-3 -16,-3 -6,0 -12,1 -17,3 -5,2 -10,5 -14,9 -4,4 -7,8 -9,13 -3,6 -4,11 -5,18l89 0zm-1548 314c0,-12 2,-24 6,-36 5,-12 11,-22 19,-32 8,-9 18,-17 30,-23 12,-6 25,-9 41,-9 17,0 33,4 46,12 13,9 22,19 29,32l-25 17c-3,-6 -6,-11 -10,-16 -4,-4 -8,-7 -13,-9 -5,-3 -9,-5 -14,-6 -5,-1 -10,-1 -15,-1 -10,0 -19,2 -27,6 -7,4 -14,10 -19,17 -5,7 -9,15 -12,23 -3,9 -4,18 -4,26 0,10 2,19 5,28 3,9 7,17 13,24 5,6 12,12 20,16 8,4 16,6 25,6 5,0 10,-1 15,-2 5,-1 10,-3 15,-6 4,-2 9,-6 13,-10 4,-4 7,-9 9,-15l27 15c-4,7 -8,14 -14,20 -5,6 -12,10 -19,14 -7,4 -15,7 -23,9 -8,2 -16,4 -24,4 -14,0 -27,-4 -38,-10 -11,-6 -21,-13 -30,-23 -8,-10 -15,-21 -19,-33 -5,-12 -7,-25 -7,-38zm321 -51c-2,-3 -4,-5 -8,-7 -3,-2 -8,-5 -12,-7 -5,-2 -11,-3 -16,-5 -6,-1 -12,-2 -19,-2 -12,0 -22,3 -28,8 -7,4 -10,11 -10,20 0,5 1,9 3,12 2,3 5,6 10,8 4,2 9,5 15,6 6,2 14,4 22,6 10,3 19,5 27,8 8,3 15,7 21,11 5,4 10,9 13,16 3,6 5,13 5,23 0,10 -2,19 -6,26 -4,8 -9,14 -16,18 -7,5 -14,8 -23,11 -9,2 -19,3 -29,3 -15,0 -30,-3 -44,-7 -14,-5 -27,-11 -38,-20l14 -27c3,2 6,5 11,8 4,3 9,6 16,8 6,3 12,5 20,7 7,1 15,2 23,2 12,0 21,-2 28,-6 6,-5 10,-11 10,-20 0,-5 -1,-9 -4,-12 -2,-4 -6,-7 -11,-9 -4,-3 -10,-5 -17,-7 -7,-2 -14,-4 -23,-6 -10,-3 -19,-6 -26,-9 -8,-3 -14,-6 -19,-10 -5,-4 -8,-9 -11,-15 -2,-5 -4,-12 -4,-20 0,-10 2,-18 6,-26 4,-8 9,-14 15,-19 7,-5 14,-9 23,-12 9,-3 19,-4 29,-4 14,0 26,2 38,7 11,4 21,9 30,16l-15 26zm55 153l0 -201 87 0c9,0 17,2 25,6 8,4 14,9 20,15 5,6 9,13 12,21 4,8 5,16 5,24 0,6 -1,13 -3,19 -2,6 -4,12 -8,17 -3,6 -7,10 -12,14 -5,4 -10,7 -16,9l48 76 -36 0 -44 -70 -47 0 0 70 -31 0zm31 -98l56 0c4,0 8,-1 12,-3 4,-2 7,-5 9,-8 3,-3 5,-7 7,-12 1,-4 2,-9 2,-14 0,-5 -1,-10 -3,-15 -2,-4 -4,-8 -7,-12 -3,-3 -6,-6 -10,-8 -4,-2 -8,-3 -12,-3l-54 0 0 75zm366 -75l-66 0 0 173 -32 0 0 -173 -67 0 0 -28 165 0 0 28zm106 52c-12,0 -23,3 -32,8 -9,6 -16,13 -20,23l0 90 -31 0 0 -148 29 0 0 33c5,-10 12,-18 20,-25 8,-6 17,-9 26,-9 2,0 3,0 5,0 1,0 2,0 3,0l0 28zm68 124c-15,0 -27,-5 -35,-15 -8,-11 -12,-26 -12,-45l0 -91 31 0 0 84c0,27 10,40 28,40 9,0 18,-3 26,-8 8,-6 14,-13 18,-24l0 -92 31 0 0 111c0,4 1,6 2,8 1,1 4,2 7,2l0 27c-3,0 -6,1 -9,1 -2,0 -4,0 -6,0 -12,-1 -18,-6 -20,-16l0 -15c-7,11 -15,19 -26,24 -11,6 -22,9 -35,9zm183 0c-6,0 -13,-1 -19,-2 -6,-1 -12,-2 -18,-4 -6,-2 -11,-4 -17,-6 -5,-3 -10,-6 -14,-9l13 -21c18,13 36,19 54,19 9,0 17,-2 22,-5 6,-4 8,-9 8,-16 0,-6 -3,-10 -9,-13 -6,-3 -16,-6 -29,-9 -9,-3 -17,-5 -24,-7 -6,-3 -12,-5 -16,-8 -4,-3 -7,-7 -9,-11 -2,-4 -3,-9 -3,-14 0,-8 2,-14 5,-20 3,-6 7,-11 12,-15 5,-4 12,-7 19,-9 7,-2 14,-3 22,-3 11,0 21,1 31,5 10,3 19,8 27,14l-13 18c-14,-10 -29,-15 -45,-15 -8,0 -15,1 -20,5 -6,3 -8,8 -8,15 0,3 0,6 1,8 1,2 3,4 6,5 2,2 6,3 10,4 4,2 9,3 15,4 10,3 19,5 26,8 8,2 14,5 18,8 5,4 9,8 11,12 2,4 3,10 3,16 0,7 -1,13 -4,19 -3,5 -7,10 -12,14 -5,4 -11,7 -19,9 -7,3 -15,4 -24,4zm167 -11c-4,2 -9,4 -16,7 -7,2 -14,3 -22,3 -5,0 -10,-1 -14,-2 -4,-1 -8,-3 -11,-6 -4,-2 -6,-6 -8,-10 -2,-4 -3,-9 -3,-16l0 -92 -20 0 0 -24 20 0 0 -48 31 0 0 48 32 0 0 24 -32 0 0 83c0,5 2,9 5,11 3,2 6,4 11,4 4,0 8,-1 12,-3 4,-1 7,-2 9,-3l6 24z"/>
  </g>
  <g id="_2557737056064">
   <g id="_2559027983296">
    <path class="fil6" d="M1231 263l0 252c0,15 18,31 33,31l262 0c69,0 135,-65 135,-117l0 -239c-1,-20 -3,-37 -6,-50 -13,-3 -32,-5 -52,-6l-243 0c-67,0 -129,66 -129,129z"/>
    <path class="fil6" d="M661 1037c1,20 3,38 6,50 14,3 31,5 52,6l243 0c66,0 129,-66 129,-129l0 -252c0,-14 -17,-31 -33,-31l-263 0c-65,0 -134,59 -134,123l0 233z"/>
    <path class="fil6" d="M667 140c-3,13 -5,30 -6,50l0 239c0,55 68,117 134,117l263 0c16,0 33,-16 33,-31l0 -252c0,-63 -61,-129 -129,-129l-240 0c-26,1 -46,3 -55,6z"/>
    <path class="fil7" d="M1231 712l0 252c0,66 69,129 122,129l250 0c20,-1 39,-3 52,-6 3,-12 5,-30 6,-50l0 -239c0,-27 -27,-67 -44,-81 -18,-16 -56,-36 -91,-36l-262 0c-15,0 -33,17 -33,31z"/>
   </g>
  </g>
  <path class="fil5" d="M2044 523l0 -18c12,0 20,-3 26,-9 5,-5 8,-12 10,-20 1,-8 2,-18 2,-32l0 -180c-5,-5 -10,-8 -16,-10 -6,-2 -13,-3 -23,-4l0 -16c23,2 39,3 48,3 11,0 29,-1 54,-3l84 199 79 -199c7,0 14,1 21,1 7,1 13,1 19,1 3,0 8,0 13,0 6,-1 11,-1 17,-1 7,0 12,-1 16,-1 5,0 11,0 18,0l0 17c-12,0 -21,1 -27,3 -6,3 -10,7 -12,13 -3,7 -4,15 -4,27l0 174c0,11 2,18 5,24 3,5 7,9 13,10 6,2 14,4 25,4l0 17c-10,0 -25,0 -44,-1 -20,0 -35,0 -44,0 -13,0 -33,0 -59,1l0 -17c12,-2 21,-4 26,-6 5,-2 9,-6 10,-11 2,-5 3,-14 3,-26l0 -157 -87 216 -21 0 -91 -222 0 144c0,14 0,25 2,33 1,8 4,14 10,19 6,5 15,9 27,10l0 17c-6,0 -16,0 -29,-1 -13,0 -23,0 -29,0 -9,0 -23,0 -42,1zm622 -96c0,19 -5,36 -14,53 -9,16 -22,29 -38,39 -16,9 -34,14 -52,14 -19,0 -37,-5 -54,-14 -17,-10 -30,-23 -40,-39 -10,-16 -15,-34 -15,-54 0,-18 5,-35 14,-51 10,-16 23,-28 39,-37 16,-9 34,-14 53,-14 18,0 36,5 52,14 17,9 30,21 40,37 10,16 15,34 15,52zm-106 -81c-12,0 -22,5 -28,14 -6,9 -10,19 -12,31 -2,11 -3,24 -3,39 0,1 0,2 0,4 0,1 0,2 0,3 0,48 14,73 42,73 18,0 30,-9 35,-25 5,-16 7,-36 7,-60 0,-21 -2,-40 -7,-55 -5,-16 -16,-24 -34,-24zm146 176l0 -16c18,-2 27,-9 27,-21l0 -88c0,-13 -2,-23 -5,-29 -3,-6 -10,-9 -22,-10l0 -15c12,-1 25,-3 39,-6 3,0 9,-2 18,-5 10,-3 18,-4 23,-4l4 37c16,-24 35,-35 54,-35 7,0 13,1 18,3 5,2 9,6 12,11 3,6 4,11 4,17 0,6 -2,11 -5,16 -3,4 -8,7 -14,9 -5,1 -7,1 -7,1 -6,0 -10,-1 -12,-3 -3,-2 -6,-6 -11,-11 -4,-6 -8,-8 -11,-8 -7,0 -13,4 -18,14 -5,9 -7,18 -7,26l0 80c0,9 2,15 7,17 5,3 13,4 23,4l0 16c-7,0 -16,0 -29,-1 -13,0 -23,0 -30,0 -6,0 -16,0 -29,0 -13,1 -23,1 -29,1zm388 -50l15 13c-10,14 -23,25 -38,32 -15,7 -31,11 -47,11 -18,0 -35,-4 -51,-12 -15,-8 -28,-20 -38,-35 -10,-14 -15,-32 -15,-52l0 -7c2,-19 7,-36 17,-50 10,-14 23,-25 39,-32 16,-8 33,-11 51,-11 6,0 11,0 14,0 13,1 24,5 35,12 11,7 20,16 26,27 6,11 9,28 10,51l-126 0c0,1 0,1 0,3 0,1 0,2 0,2 0,47 16,72 47,77 1,0 3,0 4,0 2,0 4,0 4,0 18,0 36,-9 53,-29zm-70 -126c-13,0 -22,5 -28,16 -7,11 -10,24 -10,37l70 0c0,-35 -11,-53 -32,-53z"/>
  <path class="fil5" d="M2005 718c27,2 51,3 71,3 14,0 38,-1 71,-2l0 16c-12,1 -21,2 -26,5 -6,3 -9,8 -9,15 0,2 2,10 6,24l42 135 64 -195 21 0 66 195 35 -110c6,-21 9,-35 9,-41 0,-18 -12,-27 -35,-27l0 -17c8,0 16,0 24,0 8,1 16,1 23,1 11,0 27,-1 48,-2l0 18c-9,1 -15,4 -19,7 -4,3 -7,6 -9,10 -1,3 -4,11 -8,23l-78 236 -22 0 -66 -192 -63 192 -22 0 -83 -246c-4,-10 -8,-18 -14,-22 -6,-4 -14,-7 -26,-9l0 -17zm661 194c0,18 -5,36 -14,52 -9,16 -22,29 -38,39 -16,9 -34,14 -52,14 -19,0 -37,-4 -54,-14 -17,-9 -30,-22 -40,-39 -10,-16 -15,-34 -15,-53 0,-19 5,-36 14,-52 10,-15 23,-28 39,-37 16,-9 34,-14 52,-14 19,0 37,5 53,14 17,9 30,22 40,38 10,16 15,33 15,52zm-106 -81c-12,0 -22,4 -28,13 -6,9 -10,19 -12,31 -2,12 -3,25 -3,39 0,1 0,3 0,4 0,1 0,2 0,3 0,49 14,73 42,73 18,0 30,-8 35,-24 5,-16 7,-36 7,-60 0,-22 -2,-40 -7,-56 -5,-16 -17,-23 -34,-23zm146 175l0 -15c18,-2 27,-9 27,-21l0 -89c0,-13 -2,-23 -5,-29 -3,-6 -10,-9 -22,-10l0 -15c12,-1 25,-3 39,-5 3,-1 9,-2 18,-5 10,-3 18,-5 23,-5l4 37c16,-23 35,-35 54,-35 7,0 13,1 18,3 5,3 9,6 12,12 3,5 4,11 4,16 0,6 -2,12 -5,16 -3,5 -8,8 -14,9 -5,1 -7,2 -7,2 -6,0 -10,-1 -12,-4 -3,-2 -6,-6 -11,-11 -4,-5 -8,-8 -11,-8 -7,0 -13,5 -18,14 -5,9 -7,18 -7,26l0 81c0,9 2,14 7,17 5,2 12,3 23,4l0 15c-7,0 -16,0 -29,0 -13,0 -23,-1 -30,-1 -6,0 -16,1 -29,1 -13,0 -23,0 -29,0zm211 0l0 -14c10,-1 17,-3 21,-6 4,-3 6,-9 6,-18l0 -209c0,-10 -2,-16 -6,-19 -4,-4 -11,-6 -21,-6l0 -15c30,-1 58,-7 86,-18l0 210 38 -39c15,-13 22,-23 22,-29 0,-7 -9,-11 -25,-12l0 -14c23,0 39,1 50,1 10,0 25,-1 45,-1l0 14c-20,4 -36,12 -48,23l-31 33 73 96c1,2 3,4 7,6 3,1 6,2 9,2l0 16c-17,-1 -30,-1 -39,-1 -12,0 -21,0 -26,1l-61 -84 -14 13c0,5 0,11 -1,18 0,7 -1,11 -1,13 0,8 2,13 6,17 4,3 11,6 22,8l0 15c-13,-1 -28,-2 -46,-2 -7,0 -18,0 -33,1 -15,0 -26,0 -33,0z"/>
  <path class="fil7" d="M3296 646c-9,12 -48,30 -63,38 1,19 12,21 17,42l86 -48c15,-9 28,-16 43,-25 15,-8 31,-20 47,-24 -5,-22 -114,-85 -140,-103 -12,-9 -11,-11 -24,-15 -11,8 -21,23 -25,38l66 43c5,4 6,5 10,8l-1537 0 0 46 1520 0z"/>
 </g>
</svg>
