<?xml version="1.0" encoding="UTF-8"?>
<svg width="373px" height="73px" viewBox="0 0 373 73" version="1.1" xmlns="http://www.w3.org/2000/svg" xmlns:xlink="http://www.w3.org/1999/xlink">
    <!-- Generator: Sketch 55.2 (78181) - https://sketchapp.com -->
    <title>ScanFIT</title>
    <desc>Created with Sketch.</desc>
    <g id="Page-1" stroke="none" stroke-width="1" fill="none" fill-rule="evenodd">
        <g id="Desktop" transform="translate(-516.000000, -303.000000)" fill="#3AC795" fill-rule="nonzero">
            <path d="M569.514,316.673 L565.246,319.195 C560.299,311.241 552.345,310.077 544.682,309.98 C536.728,309.98 524.118,312.89 524.118,323.754 C524.118,332.387 533.43,334.424 544.876,336.558 C557.971,339.08 571.551,341.408 571.551,356.055 C571.454,371.381 556.031,375.067 544.682,375.067 C534.109,375.067 522.081,370.702 516.843,360.323 L521.499,357.995 C525.67,366.24 536.34,370.314 544.682,370.314 C553.024,370.314 566.313,367.986 566.313,355.958 C566.41,345.773 555.158,343.542 544.003,341.408 C531.587,338.983 518.88,336.461 518.88,323.948 C518.589,309.592 533.527,305.13 544.682,305.13 C554.382,305.13 562.821,306.682 569.514,316.673 Z M617.82,364.106 L621.021,367.307 C616.171,372.157 609.866,374.485 603.561,374.485 C590.078,374.485 578.923,365.173 578.923,350.041 C578.923,334.909 589.69,325.597 603.561,325.597 C609.866,325.597 616.171,328.022 621.021,332.775 L617.917,335.782 C614.037,331.902 608.702,330.059 603.561,330.059 C592.697,330.059 583.579,337.14 583.579,350.041 C583.579,362.942 592.697,370.023 603.561,370.023 C608.702,370.023 613.94,367.986 617.82,364.106 Z M672.043,326.082 L676.796,326.082 L676.796,374 L672.043,374 L672.043,363.815 C667.387,371.284 660.209,374.776 652.449,374.776 C639.063,374.776 628.102,364.688 628.102,350.041 C628.102,335.394 639.063,325.5 652.449,325.5 C660.209,325.5 668.066,329.089 672.043,336.558 L672.043,326.082 Z M652.449,330.059 C641.585,330.059 632.855,338.013 632.855,350.041 C632.855,362.069 641.585,370.12 652.449,370.12 C679.124,370.12 679.124,330.059 652.449,330.059 Z M689.697,326.082 L694.353,326.082 L694.353,334.618 C698.039,328.022 704.732,325.306 711.425,325.209 C724.229,325.209 733.056,333.066 733.056,346.355 L733.056,374 L728.303,374 L728.303,346.452 C728.303,335.588 721.61,329.768 711.231,329.865 C701.337,329.962 694.45,337.431 694.45,347.325 L694.45,374 L689.697,374 L689.697,326.082 Z M789.205359,315.411621 L761.49784,315.411621 L761.49784,333.172852 L784.658484,333.172852 C786.805631,333.172852 788.408072,333.654373 789.465857,334.617432 C790.523643,335.58049 791.052527,336.867179 791.052527,338.477539 C791.052527,340.087899 790.515749,341.366694 789.442176,342.313965 C788.368603,343.261235 786.774055,343.734863 784.658484,343.734863 L761.49784,343.734863 L761.49784,366.611328 C761.49784,369.516291 760.842654,371.671298 759.532264,373.076416 C758.221873,374.481534 756.540493,375.184082 754.488074,375.184082 C752.404079,375.184082 750.706912,374.47364 749.396521,373.052734 C748.086131,371.631829 747.430945,369.484715 747.430945,366.611328 L747.430945,313.185547 C747.430945,311.164703 747.73091,309.514899 748.330848,308.236084 C748.930786,306.957269 749.870148,306.0258 751.148963,305.44165 C752.427778,304.8575 754.061795,304.56543 756.051062,304.56543 L789.205359,304.56543 C791.447233,304.56543 793.112825,305.062739 794.202186,306.057373 C795.291546,307.052007 795.836219,308.354484 795.836219,309.964844 C795.836219,311.606779 795.291546,312.925044 794.202186,313.919678 C793.112825,314.914312 791.447233,315.411621 789.205359,315.411621 Z M806.871863,366.611328 L806.871863,311.906738 C806.871863,309.064927 807.519155,306.933601 808.813758,305.512695 C810.108361,304.09179 811.781847,303.381348 813.834266,303.381348 C815.949836,303.381348 817.662791,304.083896 818.973182,305.489014 C820.283572,306.894131 820.938758,309.033352 820.938758,311.906738 L820.938758,366.611328 C820.938758,369.484715 820.283572,371.631829 818.973182,373.052734 C817.662791,374.47364 815.949836,375.184082 813.834266,375.184082 C811.813422,375.184082 810.14783,374.465746 808.837439,373.029053 C807.527049,371.592359 806.871863,369.453139 806.871863,366.611328 Z M881.753211,316.169434 L866.407508,316.169434 L866.407508,366.611328 C866.407508,369.516291 865.760216,371.671298 864.465613,373.076416 C863.17101,374.481534 861.497525,375.184082 859.445105,375.184082 C857.361111,375.184082 855.663943,374.47364 854.353553,373.052734 C853.043162,371.631829 852.387977,369.484715 852.387977,366.611328 L852.387977,316.169434 L837.042273,316.169434 C834.642522,316.169434 832.858523,315.640549 831.690223,314.582764 C830.521923,313.524978 829.937781,312.127776 829.937781,310.391113 C829.937781,308.5913 830.545604,307.170415 831.761268,306.128418 C832.976931,305.086421 834.737249,304.56543 837.042273,304.56543 L881.753211,304.56543 C884.184538,304.56543 885.992219,305.102208 887.176307,306.175781 C888.360395,307.249354 888.95243,308.654451 888.95243,310.391113 C888.95243,312.127776 888.352501,313.524978 887.152625,314.582764 C885.952749,315.640549 884.152963,316.169434 881.753211,316.169434 Z" id="ScanFIT"></path>
        </g>
    </g>
</svg>