<?xml version="1.0" encoding="UTF-8"?>
<svg width="304px" height="70px" viewBox="0 0 304 70" version="1.1" xmlns="http://www.w3.org/2000/svg" xmlns:xlink="http://www.w3.org/1999/xlink">
    <!-- Generator: Sketch 55.2 (78181) - https://sketchapp.com -->
    <title>thrutime</title>
    <desc>Created with Sketch.</desc>
    <g id="Page-1" stroke="none" stroke-width="1" fill="none" fill-rule="evenodd">
        <g id="Desktop" transform="translate(-189.000000, -305.000000)">
            <g id="thrutime" transform="translate(189.000000, 305.000000)">
                <path d="M103.564,50 C103.241332,50 102.970001,49.8973344 102.75,49.692 C102.529999,49.4866656 102.42,49.2226683 102.42,48.9 L102.42,26.372 L94.676,26.372 C94.3533317,26.372 94.0820011,26.2693344 93.862,26.064 C93.6419989,25.8586656 93.532,25.5946683 93.532,25.272 L93.532,20.344 C93.532,20.0213317 93.6419989,19.7500011 93.862,19.53 C94.0820011,19.3099989 94.3533317,19.2 94.676,19.2 L118.568,19.2 C118.890668,19.2 119.161999,19.3099989 119.382,19.53 C119.602001,19.7500011 119.712,20.0213317 119.712,20.344 L119.712,25.272 C119.712,25.5946683 119.602001,25.8586656 119.382,26.064 C119.161999,26.2693344 118.890668,26.372 118.568,26.372 L110.824,26.372 L110.824,48.9 C110.824,49.2226683 110.714001,49.4866656 110.494,49.692 C110.273999,49.8973344 110.002668,50 109.68,50 L103.564,50 Z M124.244,50 C123.921332,50 123.650001,49.8973344 123.43,49.692 C123.209999,49.4866656 123.1,49.2226683 123.1,48.9 L123.1,19.86 C123.1,19.5373317 123.209999,19.2733344 123.43,19.068 C123.650001,18.8626656 123.921332,18.76 124.244,18.76 L130.184,18.76 C130.506668,18.76 130.777999,18.8626656 130.998,19.068 C131.218001,19.2733344 131.328,19.5373317 131.328,19.86 L131.328,29.672 C133.029342,27.6773234 135.331985,26.68 138.236,26.68 C139.908008,26.68 141.41866,27.0613295 142.768,27.824 C144.11734,28.5866705 145.17333,29.7159925 145.936,31.212 C146.69867,32.7080075 147.08,34.5119894 147.08,36.624 L147.08,48.9 C147.08,49.2226683 146.970001,49.4866656 146.75,49.692 C146.529999,49.8973344 146.258668,50 145.936,50 L139.952,50 C139.658665,50 139.402001,49.8900011 139.182,49.67 C138.961999,49.4499989 138.852,49.1933348 138.852,48.9 L138.852,36.888 C138.852,35.5973269 138.529337,34.5926703 137.884,33.874 C137.238663,33.1553297 136.314673,32.796 135.112,32.796 C133.938661,32.796 133.01467,33.1553297 132.34,33.874 C131.66533,34.5926703 131.328,35.5973269 131.328,36.888 L131.328,48.9 C131.328,49.2226683 131.218001,49.4866656 130.998,49.692 C130.777999,49.8973344 130.506668,50 130.184,50 L124.244,50 Z M152.976,50 C152.682665,50 152.426001,49.8900011 152.206,49.67 C151.985999,49.4499989 151.876,49.1933348 151.876,48.9 L151.876,28.264 C151.876,27.9413317 151.978666,27.6700011 152.184,27.45 C152.389334,27.2299989 152.653332,27.12 152.976,27.12 L158.344,27.12 C158.666668,27.12 158.937999,27.2299989 159.158,27.45 C159.378001,27.6700011 159.488,27.9413317 159.488,28.264 L159.488,29.936 C160.309337,29.0266621 161.269994,28.3300024 162.37,27.846 C163.470006,27.3619976 164.69466,27.12 166.044,27.12 L168.024,27.12 C168.346668,27.12 168.610666,27.2226656 168.816,27.428 C169.021334,27.6333344 169.124,27.8973317 169.124,28.22 L169.124,33.016 C169.124,33.3093348 169.021334,33.5659989 168.816,33.786 C168.610666,34.0060011 168.346668,34.116 168.024,34.116 L163.58,34.116 C162.406661,34.116 161.50467,34.4386634 160.874,35.084 C160.24333,35.7293366 159.928,36.6386608 159.928,37.812 L159.928,48.9 C159.928,49.2226683 159.818001,49.4866656 159.598,49.692 C159.377999,49.8973344 159.106668,50 158.784,50 L152.976,50 Z M180.564,50.44 C177.982654,50.44 175.900008,49.5746753 174.316,47.844 C172.731992,46.1133247 171.94,43.6640158 171.94,40.496 L171.94,28.22 C171.94,27.8973317 172.049999,27.6333344 172.27,27.428 C172.490001,27.2226656 172.746665,27.12 173.04,27.12 L178.892,27.12 C179.214668,27.12 179.485999,27.2226656 179.706,27.428 C179.926001,27.6333344 180.036,27.8973317 180.036,28.22 L180.036,40.232 C180.036,42.9600136 181.253321,44.324 183.688,44.324 C184.861339,44.324 185.777997,43.9646703 186.438,43.246 C187.098003,42.5273297 187.428,41.5226731 187.428,40.232 L187.428,28.22 C187.428,27.8973317 187.537999,27.6333344 187.758,27.428 C187.978001,27.2226656 188.249332,27.12 188.572,27.12 L194.38,27.12 C194.702668,27.12 194.966666,27.2226656 195.172,27.428 C195.377334,27.6333344 195.48,27.8973317 195.48,28.22 L195.48,48.9 C195.48,49.1933348 195.377334,49.4499989 195.172,49.67 C194.966666,49.8900011 194.702668,50 194.38,50 L189.012,50 C188.689332,50 188.418001,49.8973344 188.198,49.692 C187.977999,49.4866656 187.868,49.2226683 187.868,48.9 L187.868,47.228 C186.342659,49.369344 183.908017,50.44 180.564,50.44 Z M208.9,50 C208.577332,50 208.306001,49.8973344 208.086,49.692 C207.865999,49.4866656 207.756,49.2226683 207.756,48.9 L207.756,26.372 L200.012,26.372 C199.689332,26.372 199.418001,26.2693344 199.198,26.064 C198.977999,25.8586656 198.868,25.5946683 198.868,25.272 L198.868,20.344 C198.868,20.0213317 198.977999,19.7500011 199.198,19.53 C199.418001,19.3099989 199.689332,19.2 200.012,19.2 L223.904,19.2 C224.226668,19.2 224.497999,19.3099989 224.718,19.53 C224.938001,19.7500011 225.048,20.0213317 225.048,20.344 L225.048,25.272 C225.048,25.5946683 224.938001,25.8586656 224.718,26.064 C224.497999,26.2693344 224.226668,26.372 223.904,26.372 L216.16,26.372 L216.16,48.9 C216.16,49.2226683 216.050001,49.4866656 215.83,49.692 C215.609999,49.8973344 215.338668,50 215.016,50 L208.9,50 Z M229.536,23.952 C229.213332,23.952 228.949334,23.8420011 228.744,23.622 C228.538666,23.4019989 228.436,23.1306683 228.436,22.808 L228.436,18.716 C228.436,18.3933317 228.545999,18.1220011 228.766,17.902 C228.986001,17.6819989 229.242665,17.572 229.536,17.572 L235.036,17.572 C235.358668,17.572 235.629999,17.6819989 235.85,17.902 C236.070001,18.1220011 236.18,18.3933317 236.18,18.716 L236.18,22.808 C236.18,23.1306683 236.070001,23.4019989 235.85,23.622 C235.629999,23.8420011 235.358668,23.952 235.036,23.952 L229.536,23.952 Z M229.536,50 C229.242665,50 228.986001,49.8900011 228.766,49.67 C228.545999,49.4499989 228.436,49.1933348 228.436,48.9 L228.436,28.22 C228.436,27.8973317 228.545999,27.6333344 228.766,27.428 C228.986001,27.2226656 229.242665,27.12 229.536,27.12 L235.036,27.12 C235.358668,27.12 235.629999,27.2226656 235.85,27.428 C236.070001,27.6333344 236.18,27.8973317 236.18,28.22 L236.18,48.9 C236.18,49.2226683 236.070001,49.4866656 235.85,49.692 C235.629999,49.8973344 235.358668,50 235.036,50 L229.536,50 Z M242.296,50 C242.002665,50 241.746001,49.8900011 241.526,49.67 C241.305999,49.4499989 241.196,49.1933348 241.196,48.9 L241.196,28.22 C241.196,27.8973317 241.305999,27.6333344 241.526,27.428 C241.746001,27.2226656 242.002665,27.12 242.296,27.12 L247.4,27.12 C247.722668,27.12 247.986666,27.2226656 248.192,27.428 C248.397334,27.6333344 248.5,27.8973317 248.5,28.22 L248.5,29.716 C249.204004,28.8653291 250.113328,28.1466696 251.228,27.56 C252.342672,26.9733304 253.603993,26.68 255.012,26.68 C258.238683,26.68 260.453327,27.9413207 261.656,30.464 C262.360004,29.3493278 263.34266,28.4400035 264.604,27.736 C265.86534,27.0319965 267.214659,26.68 268.652,26.68 C271.057345,26.68 273.015326,27.4939919 274.526,29.122 C276.036674,30.7500081 276.792,33.1773172 276.792,36.404 L276.792,48.9 C276.792,49.1933348 276.689334,49.4499989 276.484,49.67 C276.278666,49.8900011 276.014668,50 275.692,50 L270.28,50 C269.957332,50 269.686001,49.8973344 269.466,49.692 C269.245999,49.4866656 269.136,49.2226683 269.136,48.9 L269.136,36.712 C269.136,35.3626599 268.850003,34.3726698 268.278,33.742 C267.705997,33.1113302 266.936005,32.796 265.968,32.796 C265.058662,32.796 264.318003,33.1113302 263.746,33.742 C263.173997,34.3726698 262.888,35.3626599 262.888,36.712 L262.888,48.9 C262.888,49.1933348 262.785334,49.4499989 262.58,49.67 C262.374666,49.8900011 262.110668,50 261.788,50 L256.376,50 C256.053332,50 255.782001,49.8973344 255.562,49.692 C255.341999,49.4866656 255.232,49.2226683 255.232,48.9 L255.232,36.712 C255.232,35.3626599 254.93867,34.3726698 254.352,33.742 C253.76533,33.1113302 253.002671,32.796 252.064,32.796 C251.154662,32.796 250.40667,33.1113302 249.82,33.742 C249.23333,34.3726698 248.94,35.3479934 248.94,36.668 L248.94,48.9 C248.94,49.1933348 248.837334,49.4499989 248.632,49.67 C248.426666,49.8900011 248.162668,50 247.84,50 L242.296,50 Z M292.324,50.44 C288.745315,50.44 285.929344,49.4793429 283.876,47.558 C281.822656,45.6366571 280.766667,42.842685 280.708,39.176 L280.708,37.812 C280.825334,34.3213159 281.910656,31.5933432 283.964,29.628 C286.017344,27.6626568 288.789316,26.68 292.28,26.68 C294.802679,26.68 296.936658,27.1859949 298.682,28.198 C300.427342,29.2100051 301.732662,30.6033245 302.598,32.378 C303.463338,34.1526755 303.896,36.169322 303.896,38.428 L303.896,39.528 C303.896,39.8506683 303.786001,40.1219989 303.566,40.342 C303.345999,40.5620011 303.074668,40.672 302.752,40.672 L288.804,40.672 L288.804,40.936 C288.833333,42.2560066 289.14133,43.3193293 289.728,44.126 C290.31467,44.9326707 291.150661,45.336 292.236,45.336 C292.940004,45.336 293.504665,45.1966681 293.93,44.918 C294.355335,44.6393319 294.758665,44.2800022 295.14,43.84 C295.404001,43.5466652 295.616666,43.3633337 295.778,43.29 C295.939334,43.2166663 296.195998,43.18 296.548,43.18 L302.312,43.18 C302.576001,43.18 302.803332,43.2606659 302.994,43.422 C303.184668,43.5833341 303.28,43.7813322 303.28,44.016 C303.28,44.7786705 302.847338,45.6733282 301.982,46.7 C301.116662,47.7266718 299.855342,48.606663 298.198,49.34 C296.540658,50.073337 294.582678,50.44 292.324,50.44 Z M295.8,36.184 L295.8,36.096 C295.8,34.687993 295.492003,33.5953372 294.876,32.818 C294.259997,32.0406628 293.394672,31.652 292.28,31.652 C291.165328,31.652 290.307336,32.0406628 289.706,32.818 C289.104664,33.5953372 288.804,34.687993 288.804,36.096 L288.804,36.184 L295.8,36.184 Z" id="ThruTime" fill="#43496A" fill-rule="nonzero"></path>
                <g id="Group-24">
                    <path d="M35.1711346,41.2047457 C35.1711346,46.219688 35.1019007,51.2361355 35.209138,56.2488202 C35.2460126,57.9924609 34.5830228,58.2569795 33.1050296,57.9491897 C29.3125923,57.1597728 26.2851143,53.5152101 26.2482397,49.3724643 C26.1872838,42.4776711 26.2358228,35.581749 26.2331889,28.685827 C26.2309312,23.8371965 23.939816,21.5803219 19.1254262,21.4956609 C16.3891821,21.4471219 13.5991312,21.9471863 10.9321211,20.9237287 C7.88470074,19.7546541 6.0804804,17.488749 5.28880582,14.3758575 C4.98026345,13.1646406 5.28579565,12.5569626 6.75137192,12.5806677 C11.6395109,12.6593084 16.5299075,12.5870643 21.4195516,12.6118982 C28.6191245,12.6483965 35.0240126,18.9407795 35.1357651,26.1602948 C35.213277,31.1737321 35.1504397,36.1898033 35.1504397,41.2047457 L35.1711346,41.2047457 Z" id="Fill-4" fill="#43496A"></path>
                    <path d="M47.8026518,11.8182187 C53.8427502,12.63141 59.9131764,12.0204045 65.966619,12.2088416 C66.9763349,12.2403826 67.9876682,12.2084373 68.9981928,12.2238034 C71.7907829,12.2666668 73.8158758,14.1037269 73.8183043,16.5865684 C73.8207283,19.1442187 71.8761053,21.0597269 69.1081818,21.0698362 C62.639854,21.0932897 56.1719305,21.050022 49.704007,21.0455739 C49.038007,21.0451695 48.3711982,21.1252351 47.7047939,21.1689072 C44.7435808,20.2052897 41.7823676,19.2412679 38.8211545,18.2776504 C34.9347392,15.0709837 31.9314715,10.6350274 26.464772,9.64027334 C23.9354277,9.18009848 21.4133622,8.93828427 18.8472201,8.95728974 C14.2017993,8.99206569 9.55556982,9.01430613 4.9109578,8.95243728 C1.05891409,8.90067771 -1.12388373,5.48050285 0.612892227,2.32680886 C1.30396327,1.07123509 2.36907802,0.142797932 3.806619,0.149267878 C11.0028157,0.179191375 18.2155917,-0.367923379 25.3899523,0.463060227 C30.5731873,1.06355203 35.3071655,2.86583618 39.2449359,6.44048099 C39.42569,6.60465586 39.7220944,6.64185804 39.964313,6.73809848 C41.6655042,9.83801105 44.4920616,11.2011477 47.8026518,11.8182187" id="Fill-10" fill="#FA1100"></path>
                    <path d="M38.821195,18.2774886 C41.7824081,19.2415105 44.7436212,20.2055324 47.7048343,21.1687455 C47.6943206,35.6517182 47.6753152,50.1354996 47.6858288,64.619281 C47.687042,66.3107673 47.4225829,67.8368657 46.0141567,68.9577837 C43.5288889,70.9359695 39.9109764,69.8013029 39.0318726,66.7527455 C38.902878,66.3051061 38.8175556,65.8263302 38.8171512,65.3617072 C38.8110857,49.6672373 38.8167469,33.972363 38.821195,18.2774886" id="Fill-12" fill="#43496A"></path>
                    <path d="M47.8026518,11.8182187 C44.4920616,11.2011477 41.6655042,9.83801105 39.964313,6.73809848 C42.938466,1.81932252 47.293548,-0.217901521 53.0194496,0.0283607739 C58.2613185,0.253595747 63.5201709,0.0627323586 68.7713403,0.0837596811 C71.7604551,0.0958908286 73.7705862,1.86339903 73.8000319,4.43479793 C73.8300288,7.08990176 71.7729906,8.9435411 68.693701,8.95567225 C62.9714387,8.97831706 57.2483676,8.97791269 51.525701,8.95445913 C49.5090999,8.9463717 48.143537,9.69284165 47.8026518,11.8182187" id="Fill-14" fill="#43496A"></path>
                </g>
            </g>
        </g>
    </g>
</svg>