<?xml version="1.0" encoding="UTF-8"?>
<svg width="147px" height="72px" viewBox="0 0 147 72" version="1.1" xmlns="http://www.w3.org/2000/svg" xmlns:xlink="http://www.w3.org/1999/xlink">
    <!-- Generator: Sketch 55.2 (78181) - https://sketchapp.com -->
    <title>urbanvie</title>
    <desc>Created with Sketch.</desc>
    <g id="Page-1" stroke="none" stroke-width="1" fill="none" fill-rule="evenodd">
        <g id="Desktop" transform="translate(-518.000000, -186.000000)">
            <g id="urbanvie" transform="translate(518.000000, 186.000000)">
                <g id="Group-14-Copy">
                    <rect id="Rectangle" fill="#EE961F" x="0" y="5.17241379" width="30" height="66.2068966"></rect>
                    <rect id="Rectangle" fill="#F08900" x="15.5172414" y="5.17241379" width="14.4827586" height="66.2068966"></rect>
                    <rect id="Rectangle" fill="#2F3E5A" x="4.13793103" y="0" width="11.3793103" height="5.17241379"></rect>
                    <rect id="Rectangle" fill="#2F3E5A" x="3.10344828" y="17.5862069" width="4.13793103" height="4.13793103"></rect>
                    <rect id="Rectangle-Copy-3" fill="#2F3E5A" x="13.4482759" y="17.5862069" width="4.13793103" height="4.13793103"></rect>
                    <rect id="Rectangle-Copy-3" fill="#102242" x="15.5172414" y="17.5862069" width="2.06896552" height="4.13793103"></rect>
                    <rect id="Rectangle-Copy-4" fill="#FFFFFF" x="22.7586207" y="17.5862069" width="4.13793103" height="4.13793103"></rect>
                    <rect id="Rectangle" fill="#FAFAFA" x="3.10344828" y="27.9310345" width="4.13793103" height="4.13793103"></rect>
                    <rect id="Rectangle-Copy-3" fill="#2F3E5A" x="13.4482759" y="27.9310345" width="4.13793103" height="4.13793103"></rect>
                    <rect id="Rectangle-Copy-3" fill="#102242" x="15.5172414" y="27.9310345" width="2.06896552" height="4.13793103"></rect>
                    <rect id="Rectangle-Copy-4" fill="#102242" x="22.7586207" y="27.9310345" width="4.13793103" height="4.13793103"></rect>
                    <rect id="Rectangle" fill="#2F3E5A" x="3.10344828" y="37.2413793" width="4.13793103" height="4.13793103"></rect>
                    <rect id="Rectangle-Copy-3" fill="#FAFAFA" x="13.4482759" y="37.2413793" width="4.13793103" height="4.13793103"></rect>
                    <rect id="Rectangle-Copy-3" fill="#FFFFFF" x="15.5172414" y="37.2413793" width="2.06896552" height="4.13793103"></rect>
                    <rect id="Rectangle-Copy-4" fill="#102242" x="22.7586207" y="37.2413793" width="4.13793103" height="4.13793103"></rect>
                    <rect id="Rectangle" fill="#2F3E5A" x="3.10344828" y="46.5517241" width="4.13793103" height="4.13793103"></rect>
                    <rect id="Rectangle-Copy-3" fill="#FAFAFA" x="13.4482759" y="46.5517241" width="4.13793103" height="4.13793103"></rect>
                    <rect id="Rectangle-Copy-3" fill="#FFFFFF" x="15.5172414" y="46.5517241" width="2.06896552" height="4.13793103"></rect>
                    <rect id="Rectangle-Copy-4" fill="#102242" x="22.7586207" y="46.5517241" width="4.13793103" height="4.13793103"></rect>
                    <rect id="Rectangle" fill="#2F3E5A" x="3.10344828" y="56.8965517" width="4.13793103" height="4.13793103"></rect>
                    <rect id="Rectangle-Copy-3" fill="#2F3E5A" x="13.4482759" y="56.8965517" width="4.13793103" height="4.13793103"></rect>
                    <rect id="Rectangle-Copy-3" fill="#102242" x="15.5172414" y="56.8965517" width="2.06896552" height="4.13793103"></rect>
                    <rect id="Rectangle-Copy-4" fill="#102242" x="22.7586207" y="56.8965517" width="4.13793103" height="4.13793103"></rect>
                </g>
                <path d="M51.756,24.4 L54.388,24.4 L54.388,37.196 C54.388,38.4093394 54.2153351,39.4546623 53.87,40.332 C53.5246649,41.2093377 53.0346698,41.9419971 52.4,42.53 C51.7653302,43.1180029 51.0140043,43.5519986 50.146,43.832 C49.2779957,44.1120014 48.3120053,44.252 47.248,44.252 C44.7279874,44.252 42.80534,43.7060055 41.48,42.614 C40.15466,41.5219945 39.492,39.9026774 39.492,37.756 L39.492,24.4 L42.292,24.4 L42.292,36.692 C42.292,38.5960095 42.7073292,39.9213296 43.538,40.668 C44.3686708,41.4146704 45.5959919,41.788 47.22,41.788 C48.7880078,41.788 49.9359964,41.3773374 50.664,40.556 C51.3920036,39.7346626 51.756,38.4186757 51.756,36.608 L51.756,24.4 Z M58.66,30.14 C58.9400014,30.0866664 59.2499983,30.0400002 59.59,30 C59.9300017,29.9599998 60.2733316,29.9266668 60.62,29.9 C60.9666684,29.8733332 61.3133316,29.8533334 61.66,29.84 C62.0066684,29.8266666 62.3333318,29.82 62.64,29.82 C63.30667,29.82 63.9499969,29.886666 64.57,30.02 C65.1900031,30.153334 65.7366643,30.3733318 66.21,30.68 C66.6833357,30.9866682 67.0633319,31.3866642 67.35,31.88 C67.6366681,32.3733358 67.78,32.9799964 67.78,33.7 C67.78,34.2600028 67.6933342,34.7666644 67.52,35.22 C67.3466658,35.6733356 67.1066682,36.0733316 66.8,36.42 C66.4933318,36.7666684 66.1300021,37.0566655 65.71,37.29 C65.2899979,37.5233345 64.8333358,37.6999994 64.34,37.82 L65.38,38.52 L69.14,44 L66.84,44 L62.68,38.1 L60.66,37.82 L60.66,44 L58.66,44 L58.66,30.14 Z M62.7,31.54 L62.13,31.54 C61.9366657,31.54 61.7466676,31.5466666 61.56,31.56 C61.3733324,31.5733334 61.2000008,31.5866666 61.04,31.6 C60.8799992,31.6133334 60.7533338,31.6333332 60.66,31.66 L60.66,36.5 L62.3,36.5 C62.7800024,36.5 63.2233313,36.4500005 63.63,36.35 C64.0366687,36.2499995 64.3899985,36.0966677 64.69,35.89 C64.9900015,35.6833323 65.2266658,35.413335 65.4,35.08 C65.5733342,34.746665 65.66,34.3400024 65.66,33.86 C65.66,33.1399964 65.4066692,32.5733354 64.9,32.16 C64.3933308,31.7466646 63.66,31.54 62.7,31.54 Z M81.12,33.24 C81.12,33.5866684 81.0633339,33.9299983 80.95,34.27 C80.8366661,34.6100017 80.6633345,34.9299985 80.43,35.23 C80.1966655,35.5300015 79.9000018,35.7933322 79.54,36.02 C79.1799982,36.2466678 78.7533358,36.4133328 78.26,36.52 L78.26,36.6 C78.6866688,36.6533336 79.099998,36.7599992 79.5,36.92 C79.900002,37.0800008 80.2533318,37.2999986 80.56,37.58 C80.8666682,37.8600014 81.1133324,38.199998 81.3,38.6 C81.4866676,39.000002 81.58,39.4733306 81.58,40.02 C81.58,40.7400036 81.413335,41.3633307 81.08,41.89 C80.746665,42.4166693 80.3066694,42.8499983 79.76,43.19 C79.2133306,43.5300017 78.5966701,43.7799992 77.91,43.94 C77.2233299,44.1000008 76.5333368,44.18 75.84,44.18 C75.5999988,44.18 75.3066684,44.1766667 74.96,44.17 C74.6133316,44.1633333 74.2500019,44.1500001 73.87,44.13 C73.4899981,44.1099999 73.1100019,44.0833335 72.73,44.05 C72.3499981,44.0166665 72.0133348,43.966667 71.72,43.9 L71.72,30.12 C72.2666694,30.0266662 72.906663,29.9533336 73.64,29.9 C74.373337,29.8466664 75.1599958,29.82 76,29.82 C76.5733362,29.82 77.1633303,29.8699995 77.77,29.97 C78.3766697,30.0700005 78.9266642,30.2466654 79.42,30.5 C79.9133358,30.7533346 80.3199984,31.0999978 80.64,31.54 C80.9600016,31.9800022 81.12,32.5466632 81.12,33.24 Z M73.68,42.36 C73.7733338,42.3866668 73.9133324,42.4066666 74.1,42.42 C74.2866676,42.4333334 74.4899989,42.4466666 74.71,42.46 C74.9300011,42.4733334 75.1499989,42.4833333 75.37,42.49 C75.5900011,42.4966667 75.7933324,42.5 75.98,42.5 C76.4333356,42.5 76.8699979,42.4533338 77.29,42.36 C77.7100021,42.2666662 78.0799984,42.120001 78.4,41.92 C78.7200016,41.719999 78.9766657,41.4666682 79.17,41.16 C79.3633343,40.8533318 79.46,40.4866688 79.46,40.06 C79.46,39.526664 79.3433345,39.1033349 79.11,38.79 C78.8766655,38.4766651 78.5733352,38.2366675 78.2,38.07 C77.8266648,37.9033325 77.406669,37.7966669 76.94,37.75 C76.473331,37.7033331 76.0133356,37.68 75.56,37.68 L73.68,37.68 L73.68,42.36 Z M74.78,36.12 C75.0333346,36.12 75.326665,36.1100001 75.66,36.09 C75.993335,36.0699999 76.2733322,36.0466668 76.5,36.02 C76.833335,35.9266662 77.1499985,35.8100007 77.45,35.67 C77.7500015,35.5299993 78.0133322,35.3633343 78.24,35.17 C78.4666678,34.9766657 78.646666,34.7500013 78.78,34.49 C78.913334,34.2299987 78.98,33.933335 78.98,33.6 C78.98,33.1466644 78.8900009,32.7833347 78.71,32.51 C78.5299991,32.2366653 78.2933348,32.0266674 78,31.88 C77.7066652,31.7333326 77.3733352,31.6333336 77,31.58 C76.6266648,31.5266664 76.2466686,31.5 75.86,31.5 C75.393331,31.5 74.9633353,31.5099999 74.57,31.53 C74.1766647,31.5500001 73.880001,31.5733332 73.68,31.6 L73.68,36.12 L74.78,36.12 Z M91.9,40.34 L86.36,40.34 L84.88,44 L82.92,44 L88.68,29.8 L89.72,29.8 L95.5,44 L93.42,44 L91.9,40.34 Z M86.96,38.66 L91.32,38.66 L89.7,34.68 L89.16,32.54 L89.12,32.54 L88.58,34.72 L86.96,38.66 Z M100.36,35.1 L99.16,33.14 L99.08,33.14 L99.32,35.1 L99.32,44 L97.44,44 L97.44,29.8 L98.56,29.8 L105.7,38.88 L106.84,40.74 L106.94,40.74 L106.7,38.88 L106.7,30 L108.58,30 L108.58,44.2 L107.46,44.2 L100.36,35.1 Z M118.648,37.448 L119.376,40.5 L119.432,40.5 L120.188,37.392 L125.228,24.4 L128.028,24.4 L119.908,44.28 L118.508,44.28 L110.276,24.4 L113.356,24.4 L118.648,37.448 Z M130.924,31.32 L129.324,31.32 L129.324,30 L134.524,30 L134.524,31.32 L132.924,31.32 L132.924,42.68 L134.524,42.68 L134.524,44 L129.324,44 L129.324,42.68 L130.924,42.68 L130.924,31.32 Z M137.684,30 L146.144,30 L146.144,31.72 L139.684,31.72 L139.684,35.98 L145.584,35.98 L145.584,37.7 L139.684,37.7 L139.684,42.28 L146.244,42.28 L146.244,44 L137.684,44 L137.684,30 Z" id="URBANVIE" fill="#F08900" fill-rule="nonzero"></path>
            </g>
        </g>
    </g>
</svg>