<?xml version="1.0" encoding="utf-8"?>
<!-- Generator: Adobe Illustrator 16.0.0, SVG Export Plug-In . SVG Version: 6.00 Build 0)  -->
<!DOCTYPE svg PUBLIC "-//W3C//DTD SVG 1.1//EN" "http://www.w3.org/Graphics/SVG/1.1/DTD/svg11.dtd">
<svg version="1.1" id="Layer_1" xmlns="http://www.w3.org/2000/svg" xmlns:xlink="http://www.w3.org/1999/xlink" x="0px" y="0px"
	 width="400px" height="400px" viewBox="0 0 400 400" enable-background="new 0 0 400 400" xml:space="preserve">
<g>
	<path fill="#321E94" d="M274.604,45.876c0.867,1.061,2.192,0.596,3.281,0.939c9.264,2.93,15.731,11.16,15.816,21.139
		c0.166,19.842,0.074,39.689,0.045,59.535c-0.005,3.266-1.818,5.213-4.557,5.205c-2.789-0.008-4.442-1.873-4.445-5.229
		c-0.021-19.043-0.008-38.086-0.012-57.129c-0.002-10.191-5.187-15.432-15.265-15.432c-49.815-0.004-99.63-0.004-149.445,0
		c-4.561,0-4.561,0.004-4.561,4.482c0,11.727,0.02,23.453-0.005,35.18c-0.023,11.047-6.309,17.316-17.343,17.328
		c-12.228,0.014-24.456,0.066-36.683-0.055c-2.275-0.023-2.898,0.635-2.884,2.838c0.084,12.127,0.035,24.256,0.035,36.383
		c-0.001,59.436,0.123,118.874-0.121,178.311c-0.042,10.053,6.867,15.6,15.572,15.57c65.049-0.215,130.101-0.115,195.148-0.117
		c10.365,0,15.541-5.148,15.549-15.455c0.002-1.203-0.033-2.408,0.015-3.609c0.114-2.852,1.813-4.736,4.304-4.828
		c2.432-0.088,4.44,1.805,4.686,4.529c1.414,15.686-6.282,25.893-19.004,28.129c-0.057,0.01-0.088,0.172-0.129,0.262
		c-69.174,0-138.35,0-207.523,0c-0.076-0.477-0.445-0.561-0.83-0.703c-11.812-4.348-16.694-11.287-16.694-23.737
		c-0.002-71.054,0.031-142.106-0.049-213.159c-0.008-7.371,2.466-13.369,7.674-18.521c13.534-13.395,27.019-26.84,40.379-40.404
		c4.939-5.014,9.934-9.754,17.039-11.451C167.935,45.876,221.27,45.876,274.604,45.876z M106.634,62.699
		c-13.5,13.504-26.982,26.992-40.153,40.168c10.096,0,20.902,0.014,31.709-0.004c5.929-0.01,8.22-2.268,8.236-8.148
		c0.025-10.117,0.015-20.234-0.01-30.352C106.414,63.625,106.721,62.791,106.634,62.699z"/>
	<path fill="#321E94" d="M354.105,196.878c0.051,3.54-0.937,6.761-2.823,9.685c-2.438,3.773-2.279,7.371,0.007,11.232
		c5.938,10.023,2.213,21.695-8.442,26.256c-4.287,1.834-6.356,4.785-6.786,9.322c-0.762,8.072-5.529,13.932-13.204,15.992
		c-1.95,0.523-2.246,1.332-2.239,3.041c0.052,12.525,0.065,25.051,0.01,37.576c-0.023,5.959-3.28,9.842-8.59,10.49
		c-2.505,0.307-4.713-0.523-6.811-1.828c-4.752-2.957-9.561-5.83-14.273-8.847c-1.275-0.815-2.169-0.819-3.458,0.006
		c-4.629,2.968-9.394,5.726-14.031,8.677c-3.483,2.217-7.063,2.893-10.756,0.826c-3.683-2.062-4.995-5.435-4.97-9.578
		c0.074-12.324-0.004-24.648,0.058-36.976c0.009-1.862-0.163-2.867-2.414-3.451c-7.491-1.938-12.556-8.213-13.133-16.096
		c-0.331-4.524-2.468-7.324-6.565-9.111c-10.884-4.745-14.569-16.215-8.502-26.446c2.229-3.761,2.237-7.207,0.01-10.97
		c-6.073-10.257-2.41-21.692,8.474-26.456c4.089-1.789,6.217-4.576,6.587-9.102c0.928-11.357,10.807-18.752,21.961-16.322
		c4.771,1.041,8.258-0.115,11.465-3.734c7.485-8.447,19.782-8.385,27.159,0.1c3.103,3.568,6.552,4.67,11.201,3.654
		c11.296-2.469,20.845,4.613,22.023,16.166c0.465,4.529,2.521,7.5,6.818,9.299C350.144,183.325,353.729,189.081,354.105,196.878z
		 M345.047,196.796c-0.184-3.99-2.117-6.816-5.819-8.303c-7.435-2.986-11.313-8.47-12.108-16.4
		c-0.665-6.648-5.214-9.834-11.748-8.354c-7.559,1.713-13.797-0.344-18.882-6.166c-4.341-4.969-10.244-5.039-14.492-0.113
		c-5.146,5.965-11.464,8.008-19.126,6.252c-6.477-1.484-11.186,2.158-11.719,8.828c-0.573,7.203-4.024,12.724-10.775,15.308
		c-6.751,2.586-8.872,9.391-4.957,15.282c3.782,5.689,3.859,12.213,0.072,17.893c-4.025,6.033-1.855,12.929,4.992,15.496
		c6.537,2.455,9.975,7.849,10.632,14.779c0.708,7.475,5.112,10.826,12.489,9.211c7.096-1.557,13.057,0.418,17.879,5.799
		c5.017,5.596,10.34,5.654,15.314,0.103c4.902-5.472,10.911-7.479,18.128-5.882c7.107,1.574,11.435-1.481,12.253-8.77
		c0.865-7.678,4.743-12.93,11.917-15.885c5.813-2.396,7.665-8.18,4.375-13.609c-4.149-6.846-4.165-13.578,0.102-20.344
		C344.552,200.367,345.161,198.688,345.047,196.796z M266.79,290.207c0,6.313,0.083,12.627-0.04,18.939
		c-0.05,2.479,0.693,2.483,2.49,1.354c4.652-2.928,9.414-5.691,14.027-8.682c3.983-2.58,7.825-2.57,11.797-0.074
		c4.654,2.924,9.396,5.717,14.012,8.701c2.189,1.416,2.578,0.768,2.564-1.527c-0.066-11.826-0.007-23.65-0.063-35.475
		c-0.007-1.426,0.842-3.467-0.502-4.178c-1.725-0.912-3.703,0.141-5.328,1.18c-0.83,0.531-1.563,1.256-2.232,1.99
		c-8.679,9.496-19.934,9.521-28.619-0.009c-1.541-1.688-3.316-2.862-5.555-3.319c-1.75-0.355-2.677-0.103-2.613,2.16
		C266.904,277.576,266.79,283.893,266.79,290.207z"/>
	<path fill="#321E94" d="M199.415,77.042c14.938,0,29.874-0.012,44.812,0.004c7.25,0.006,11.168,3.889,11.203,11.074
		c0.02,4.209,0.022,8.42,0,12.631c-0.041,7.076-4.084,11.125-11.25,11.137c-17.844,0.031-35.688,0.01-53.532,0.01
		c-2.707,0-5.415,0.047-8.121-0.014c-3.439-0.076-5.475-1.918-5.361-4.736c0.107-2.68,2.053-4.27,5.435-4.271
		c20.049-0.02,40.099-0.063,60.148,0.047c2.812,0.016,3.937-0.65,3.714-3.637c-0.261-3.488-0.17-7.018-0.02-10.52
		c0.09-2.074-0.525-2.768-2.678-2.74c-9.121,0.111-18.244,0.047-27.367,0.047c-20.551,0-41.103,0.035-61.652-0.047
		c-2.278-0.008-3.244,0.439-3.102,2.951c0.215,3.797,0.121,7.617,0.029,11.424c-0.043,1.795,0.561,2.568,2.414,2.486
		c2.202-0.096,4.412-0.066,6.615,0.018c2.607,0.1,4.128,1.646,4.32,4.127c0.196,2.527-1.232,4.395-3.726,4.66
		c-3.772,0.402-7.622,0.639-11.362-0.289c-3.965-0.982-7.004-4.551-7.148-8.68c-0.193-5.506-0.234-11.031,0-16.533
		c0.23-5.424,4.545-9.123,10.314-9.137C168.539,77.019,183.978,77.042,199.415,77.042z"/>
	<path fill="#321E94" d="M145.71,164.119c-18.439,0-36.879,0.004-55.317-0.002c-4.602,0-6.824-1.434-6.918-4.434
		c-0.096-3.09,2.189-4.602,6.983-4.602c36.879-0.002,73.758-0.002,110.638,0c0.7,0,1.403-0.027,2.104,0.014
		c2.977,0.18,4.666,1.748,4.724,4.355c0.058,2.605-1.586,4.322-4.491,4.617c-0.894,0.092-1.802,0.049-2.703,0.049
		C182.388,164.121,164.05,164.119,145.71,164.119z"/>
	<path fill="#321E94" d="M145.913,250.184c18.441,0,36.881,0,55.319,0.006c1.002,0,2.02-0.043,2.998,0.115
		c2.274,0.369,3.539,1.789,3.67,4.074c0.134,2.275-0.916,3.904-3.139,4.506c-1.137,0.307-2.376,0.324-3.568,0.324
		c-36.979,0.014-73.96,0.012-110.94,0.012c-0.501,0-1.003,0.021-1.503-0.004c-3.217-0.152-5.282-1.947-5.275-4.576
		c0.007-2.643,2.053-4.436,5.314-4.442c16.837-0.027,33.673-0.013,50.511-0.015C141.503,250.184,143.708,250.184,145.913,250.184z"
		/>
	<path fill="#321E94" d="M145.61,195.733c-18.443,0-36.886,0-55.329-0.002c-0.9,0-1.81,0.045-2.703-0.047
		c-2.455-0.256-3.84-1.787-4.038-4.109c-0.188-2.211,0.937-3.912,3.144-4.537c1.127-0.316,2.367-0.324,3.557-0.324
		c36.985-0.016,73.97-0.016,110.954-0.002c1.191,0.002,2.443-0.029,3.563,0.303c2.315,0.689,3.41,2.4,3.116,4.816
		c-0.276,2.273-1.67,3.568-3.933,3.842c-0.891,0.109-1.801,0.059-2.703,0.059C182.694,195.733,164.151,195.733,145.61,195.733z"/>
	<path fill="#321E94" d="M145.722,218.461c18.441,0,36.885,0,55.328,0.002c0.902,0,1.813-0.057,2.704,0.045
		c2.532,0.289,4.034,1.701,4.146,4.287c0.115,2.621-1.396,4.082-3.819,4.623c-0.86,0.191-1.796,0.072-2.698,0.072
		c-37.087,0.002-74.173,0.002-111.261,0c-0.901,0-1.827,0.096-2.698-0.072c-2.486-0.48-3.98-2.086-3.891-4.592
		c0.088-2.475,1.568-4.066,4.154-4.314c1.092-0.104,2.201-0.049,3.305-0.049C109.235,218.461,127.478,218.461,145.722,218.461z"/>
	<path fill="#321E94" d="M117.312,296.631c9.12-0.002,18.24-0.014,27.36,0.004c3.76,0.008,5.784,1.682,5.693,4.617
		c-0.085,2.76-2.146,4.4-5.679,4.402c-18.542,0.014-37.083,0.016-55.624-0.002c-3.454-0.004-5.584-1.787-5.594-4.533
		c-0.008-2.754,2.078-4.473,5.579-4.482C98.47,296.615,107.89,296.631,117.312,296.631z"/>
	<path fill="#321E94" d="M289.197,174.398c20.924,0.01,37.809,16.917,37.773,37.831c-0.033,20.898-16.969,37.726-37.922,37.672
		c-20.727-0.051-37.598-16.918-37.681-37.67C251.287,191.448,268.346,174.39,289.197,174.398z M289.214,183.438
		c-15.804-0.027-28.627,12.688-28.801,28.556c-0.173,15.797,12.856,28.871,28.774,28.875c15.863,0.004,28.687-12.729,28.753-28.549
		C318.008,196.329,305.214,183.466,289.214,183.438z"/>
</g>
</svg>
