<svg id="Layer_35" enable-background="new 0 0 64 64" height="512" viewBox="0 0 64 64" width="512" xmlns="http://www.w3.org/2000/svg"><circle cx="46" cy="18" fill="#69d6f4" r="16"/><path d="m30 50.96v12.04h-16v-9h2c2.53 0 4.78-1.17 6.24-3z" fill="#f0d0b4"/><path d="m24 42.15v3.85c0 1.89-.66 3.63-1.76 5-1.46 1.83-3.71 3-6.24 3h-2-8l-1-11-3-1v-10c0-1.52.19-3 .55-4.42l4.77-1.91c1.11-.44 2.29-.67 3.49-.67 1.61 0 3.17.42 4.54 1.17 1.37.76 2.55 1.87 3.4 3.24l2.25 3.59h1l2-2.67c.63-.84 1.62-1.33 2.67-1.33.92 0 1.75.37 2.35.98.61.6.98 1.43.98 2.35v3.14c0 .97-.43 1.89-1.16 2.53z" fill="#f0d0b4"/><path d="m30.02 17.13c-.01.29-.02.58-.02.87 0 2.92.78 5.66 2.14 8.01 1.41 2.42 3.43 4.44 5.85 5.85.01.19.01.38.01.57v3.57c0 6.24-3.18 11.74-8 14.96l-7.76.04c1.1-1.37 1.76-3.11 1.76-5v-3.85l4.84-4.15c.73-.64 1.16-1.56 1.16-2.53v-3.14c0-.92-.37-1.75-.98-2.35-.6-.61-1.43-.98-2.35-.98-1.05 0-2.04.49-2.67 1.33l-2 2.67h-1l-2.25-3.59c-.85-1.37-2.03-2.48-3.4-3.24-1.37-.75-2.93-1.17-4.54-1.17-1.2 0-2.38.23-3.49.67l-4.77 1.91c2.02-8.01 9.41-13.88 18.11-13.57 3.48.13 6.68 1.26 9.36 3.12z" fill="#656d78"/><g fill="#ff826e"><circle cx="10" cy="4" r="2"/><circle cx="4" cy="10" r="2"/><circle cx="58" cy="43" r="2"/><circle cx="60" cy="51" r="2"/></g><path d="m46 35c9.374 0 17-7.626 17-17s-7.626-17-17-17c-8.504 0-15.549 6.283-16.787 14.447-2.606-1.487-5.519-2.328-8.522-2.435-5.214-.184-10.141 1.702-13.884 5.314-3.745 3.615-5.807 8.471-5.807 13.674v10.721l3.063 1.021 1.024 11.258h7.913v8h2v-8h1c4.963 0 9-4.038 9-9v-1h-2v1c0 3.86-3.141 7-7 7h-9.087l-.976-10.742-2.937-.979v-9.279c0-1.258.146-2.49.409-3.687l4.287-1.714c.993-.397 2.039-.599 3.109-.599 2.905 0 5.56 1.471 7.101 3.936l2.539 4.064h2.055l2.3-3.066c.438-.585 1.137-.934 1.867-.934 1.286 0 2.333 1.047 2.333 2.333v3.133c0 .682-.297 1.328-.814 1.771l-5.322 4.561c-.422.363-1.155.16-1.333-.37l-.582-1.746-1.896.633.582 1.746c.386 1.161 1.466 1.939 2.686 1.939.676 0 1.331-.242 1.844-.682l5.321-4.561c.962-.824 1.514-2.023 1.514-3.29v-3.133c0-2.39-1.943-4.334-4.333-4.334-1.356 0-2.652.648-3.467 1.733l-1.671 2.227-1.929-3.085c-1.908-3.052-5.196-4.875-8.795-4.875-1.325 0-2.621.25-3.852.742l-2.799 1.12c.878-2.27 2.232-4.348 4.042-6.096 3.349-3.232 7.746-4.929 12.425-4.754 2.988.106 5.876 1.029 8.396 2.659-.002.11-.017.218-.017.329 0 6.067 3.204 11.386 7.999 14.395 0 .012.001.024.001.036v3.569c0 5.682-2.825 10.966-7.557 14.134l-.443.297v12.569h2v-11.51c5.02-3.568 8-9.319 8-15.49v-2.526c2.138.971 4.503 1.526 7 1.526zm-14.949-16h5.99c.084 2.282.44 4.274.974 6h-5.271c-.961-1.812-1.55-3.845-1.693-6zm14.944-15.841c.961.615 3.31 2.396 5.03 5.841h-10.074c1.708-3.451 4.059-5.221 5.044-5.841zm5.883 7.841c.589 1.68.986 3.679 1.081 6h-13.919c.093-2.323.483-4.323 1.064-6zm9.071 6h-5.99c-.084-2.282-.44-4.274-.974-6h5.271c.961 1.812 1.55 3.845 1.693 6zm0 2c-.143 2.155-.732 4.188-1.693 6h-5.271c.534-1.726.889-3.718.974-6zm-23.908-2h-5.99c.143-2.155.732-4.188 1.693-6h5.271c-.534 1.726-.89 3.718-.974 6zm2 2h13.919c-.093 2.323-.483 4.323-1.064 6h-11.774c-.589-1.68-.986-3.679-1.081-6zm12.009 8c-1.71 3.452-4.062 5.222-5.044 5.841-.961-.614-3.31-2.396-5.03-5.841zm-1.559 5.573c1.267-1.251 2.68-3.069 3.764-5.573h4.717c-2.066 2.741-5.041 4.749-8.481 5.573zm8.481-23.573h-4.717c-1.083-2.504-2.496-4.322-3.764-5.573 3.44.824 6.415 2.832 8.481 5.573zm-15.463-5.573c-1.267 1.251-2.68 3.069-3.764 5.573h-4.717c2.066-2.741 5.041-4.749 8.481-5.573zm-8.481 23.573h4.717c1.083 2.504 2.496 4.322 3.763 5.573-3.439-.824-6.414-2.832-8.48-5.573z"/><path d="m60 48c-1.302 0-2.402.839-2.816 2h-11.184c-1.654 0-3-1.346-3-3v-10h-2v10c0 2.757 2.243 5 5 5h11.184c.414 1.161 1.514 2 2.816 2 1.654 0 3-1.346 3-3s-1.346-3-3-3zm0 4c-.552 0-1-.449-1-1s.448-1 1-1 1 .449 1 1-.448 1-1 1z"/><path d="m45 37v2c0 2.757 2.243 5 5 5h5.184c.414 1.161 1.514 2 2.816 2 1.654 0 3-1.346 3-3s-1.346-3-3-3c-1.302 0-2.402.839-2.816 2h-5.184c-1.654 0-3-1.346-3-3v-2zm13 5c.552 0 1 .449 1 1s-.448 1-1 1-1-.449-1-1 .448-1 1-1z"/><path d="m26 3h2v2h-2z"/><path d="m30 3h2v2h-2z"/><path d="m10 7c1.302 0 2.402-.839 2.816-2h11.184v-2h-11.184c-.414-1.161-1.514-2-2.816-2-1.654 0-3 1.346-3 3s1.346 3 3 3zm0-4c.552 0 1 .449 1 1s-.448 1-1 1-1-.449-1-1 .448-1 1-1z"/><path d="m20 9h2v2h-2z"/><path d="m24 9h2v2h-2z"/><path d="m4 13c1.302 0 2.402-.839 2.816-2h11.184v-2h-11.184c-.414-1.161-1.514-2-2.816-2-1.654 0-3 1.346-3 3s1.346 3 3 3zm0-4c.552 0 1 .449 1 1s-.448 1-1 1-1-.449-1-1 .448-1 1-1z"/><path d="m9.495 21.293 1.479 1.351c.5-.482 1.039-.926 1.6-1.319l-1.146-1.639c-.646.452-1.266.963-1.834 1.511z"/><path d="m28.037 46.215 1.238 1.571c3.314-2.61 5.388-6.516 5.687-10.715l-1.994-.143c-.26 3.639-2.057 7.024-4.931 9.287z"/><path d="m13.57 18.438.859 1.807c1.879-.893 3.896-1.314 6.05-1.236 1.42.05 2.815.347 4.148.881l.744-1.856c-1.548-.621-3.17-.965-4.82-1.023-2.477-.097-4.809.395-6.981 1.427z"/><path d="m33 33h2v2h-2z"/><path d="m41 21h2v2h-2z"/><path d="m45 21h2v2h-2z"/><path d="m49 21h2v2h-2z"/><path d="m41 13h2v2h-2z"/><path d="m45 13h2v2h-2z"/><path d="m49 13h2v2h-2z"/></svg>