<?xml version="1.0" encoding="utf-8"?>
<!-- Generator: Adobe Illustrator 16.0.0, SVG Export Plug-In . SVG Version: 6.00 Build 0)  -->
<!DOCTYPE svg PUBLIC "-//W3C//DTD SVG 1.1//EN" "http://www.w3.org/Graphics/SVG/1.1/DTD/svg11.dtd">
<svg version="1.1" id="Layer_1" xmlns="http://www.w3.org/2000/svg" xmlns:xlink="http://www.w3.org/1999/xlink" x="0px" y="0px"
	 width="400px" height="400px" viewBox="0 0 400 400" enable-background="new 0 0 400 400" xml:space="preserve">
<g>
	<path fill="#B26C00" d="M274.291,170.786c1.936-3.122,4.068-3.908,6.717-3.779c2.34,0.114,4.689,0.033,7.034,0.021
		c3.252-0.016,5.235,1.533,5.933,4.728c0.785,3.592,1.568,7.185,2.395,10.767c0.605,2.639,11.391,7.041,13.691,5.595
		c3.02-1.898,6.033-3.807,9.014-5.764c2.838-1.867,5.406-1.687,7.823,0.752c3.931,3.964,7.891,7.901,11.84,11.847
		c2.313,2.311,2.523,4.815,0.761,7.549c-1.934,2.997-3.722,6.098-5.794,8.994c-1.083,1.51-1.148,2.695-0.176,4.197
		c0.658,1.02,1.366,2.16,1.528,3.318c0.755,5.395,4.419,6.814,9.15,7.637c11.049,1.916,10.626,2.332,10.514,12.949
		c-0.037,3.571-0.01,7.146-0.006,10.721c0.006,3.221-1.457,5.252-4.682,5.967c-3.48,0.77-6.945,1.611-10.419,2.415
		c-0.325,0.075-0.673,0.065-0.99,0.161c-2.092,0.632-6.21,11.682-5.028,13.541c1.854,2.918,3.771,5.791,5.612,8.715
		c2.181,3.461,2.003,5.468-0.802,8.341c-3.744,3.835-7.521,7.64-11.335,11.405c-2.751,2.715-4.78,2.923-8.055,0.89
		c-3.028-1.882-6.054-3.776-8.996-5.789c-1.261-0.86-2.306-1.043-3.631-0.204c-1.023,0.649-2.153,1.323-3.319,1.532
		c-5.44,0.978-7.166,4.53-8.039,9.63c-1.76,10.281-2.033,10.232-12.428,10.23c-5.129,0-5.334-0.074-8.307-3.27
		c0,6.118,0.007,11.854-0.001,17.588c-0.022,17.206-11.319,28.563-28.457,28.568c-38.19,0.013-76.383,0.011-114.573,0.001
		c-17.193-0.005-28.524-11.317-28.533-28.488c-0.013-23.896,0-47.794-0.011-71.69c-0.001-1.687-0.06-3.375,1.043-4.797
		c1.431-1.851,3.346-2.664,5.611-2.074c2.232,0.582,3.648,2.137,3.998,4.458c0.165,1.094,0.081,2.229,0.081,3.343
		c0.003,23.676-0.006,47.35,0.006,71.021c0.006,10.881,6.627,17.496,17.52,17.498c38.415,0.012,76.828,0.014,115.244,0
		c10.653-0.004,17.338-6.685,17.34-17.345c0.012-59.298,0.006-118.594,0.006-177.891c0-1.007-0.043-2.013,0.017-3.015
		c0.19-3.196,2.293-5.378,5.207-5.456c3.042-0.084,5.414,2.161,5.469,5.516C274.361,157.36,274.291,163.604,274.291,170.786z
		 M274.297,309.177c1.962-2.511,4.51-3.038,7.276-2.717c2.253,0.263,3.11-0.62,3.438-2.795c0.443-2.968,1.302-5.871,1.855-8.827
		c0.489-2.613,1.999-4.104,4.518-4.766c4.874-1.277,9.484-3.209,13.815-5.784c2.386-1.42,4.626-1.187,6.885,0.321
		c2.596,1.731,5.287,3.322,7.866,5.076c1.264,0.858,2.101,1.045,3.393-0.18c5.261-4.979,5.313-4.919,1.322-11.102
		c-0.665-1.029-1.248-2.122-1.996-3.086c-2.178-2.814-2.262-5.551-0.351-8.627c2.298-3.695,4.009-7.713,4.961-11.981
		c0.751-3.364,2.729-5.22,6.105-5.722c1.32-0.195,2.617-0.545,3.924-0.826c6.927-1.483,6.848-1.48,6.736-8.576
		c-0.027-1.712-0.624-2.314-2.148-2.6c-2.847-0.532-5.652-1.284-8.508-1.769c-3.362-0.569-5.358-2.373-6.107-5.731
		c-0.929-4.16-2.536-8.107-4.806-11.688c-2.084-3.288-2.037-6.197,0.359-9.203c0.76-0.951,1.33-2.058,1.991-3.089
		c3.727-5.819,3.68-5.77-1.248-10.598c-1.25-1.226-2.122-1.513-3.629-0.438c-2.628,1.874-5.422,3.517-8.137,5.268
		c-2.049,1.32-4.15,1.566-6.301,0.301c-4.539-2.669-9.353-4.675-14.433-6.042c-2.413-0.65-3.735-2.202-4.209-4.646
		c-0.612-3.173-1.376-6.315-2.021-9.48c-0.299-1.461-0.803-2.406-2.599-2.144c-3.06,0.447-5.795-0.265-7.946-3.345
		c0,12-0.002,23.388,0.008,34.775c0,0.324,0.115,0.648,0.186,1.015c1.674-0.083,3.314-0.224,4.959-0.233
		c14.408-0.084,27.287,9.606,31.091,23.369c3.927,14.213-1.905,28.875-14.474,36.379c-4.631,2.769-7.729,2.582-9.684-0.5
		c-1.479-2.334-0.699-6.313,4.043-8.75c8.844-4.543,12.635-15.303,9.672-24.726c-3.026-9.629-12.33-15.899-22.357-14.974
		c-1.6,0.146-3.521-0.244-3.512,2.684C274.335,252.009,274.297,280.593,274.297,309.177z"/>
	<path fill="#B26C00" d="M124.095,242.094c-40.72,0.346-74.964-33.406-74.975-75.053c-0.01-41.408,33.736-75.112,75.152-75.067
		c41.401,0.044,75.079,33.831,74.96,75.249C199.115,208.732,164.96,242.545,124.095,242.094z M173.337,208.236
		c20.718-23.941,21.069-62.721-4.575-87.522c-24.94-24.122-64.616-23.994-89.462,0.291c-25.553,24.973-24.763,63.772-4.31,87.169
		c0.553-0.854,1.067-1.677,1.61-2.48c7.381-10.944,17.675-16.75,30.862-17.168c6.583-0.209,13.178-0.077,19.768-0.036
		c5.804,0.035,11.66-0.307,17.4,0.337C157.353,190.255,166.782,197.016,173.337,208.236z M126.014,199.225
		c-7.414,0-13.224-0.246-19.006,0.055c-10.419,0.545-18.033,5.669-22.922,14.892c-0.787,1.487-0.708,2.415,0.736,3.58
		c21.528,17.402,56.877,17.434,78.638,0.084c1.625-1.294,1.548-2.287,0.708-3.865c-4.005-7.517-10.03-12.416-18.419-14.128
		C138.688,198.4,131.512,199.605,126.014,199.225z"/>
	<path fill="#B26C00" d="M274.376,134.867c-10.494,0.001-20.987,0.032-31.481-0.008c-12.617-0.048-22.207-9.337-22.207-21.443
		c0-12.107,9.596-21.413,22.207-21.435c20.986-0.033,41.976-0.041,62.963,0.003c12.556,0.026,22.112,9.449,22.044,21.599
		c-0.066,11.964-9.616,21.217-22.044,21.274C295.363,134.906,284.87,134.867,274.376,134.867z M273.932,124.142
		c10.481,0,20.963,0.017,31.444-0.006c6.991-0.014,11.877-4.54,11.799-10.861c-0.078-6.17-4.927-10.564-11.749-10.57
		c-20.74-0.017-41.48-0.016-62.221,0c-6.993,0.005-11.867,4.522-11.791,10.855c0.072,6.17,4.915,10.561,11.74,10.576
		C253.413,124.158,263.673,124.142,273.932,124.142z"/>
	<path fill="#B26C00" d="M188.682,38.361c19.095-0.002,38.193-0.015,57.291,0.002c16.939,0.014,28.289,11.391,28.324,28.361
		c0.006,2.902,0.057,5.808-0.017,8.708c-0.091,3.447-2.183,5.718-5.206,5.803c-3.155,0.088-5.41-2.255-5.487-5.85
		c-0.071-3.348,0.024-6.7-0.028-10.051c-0.144-9.19-6.961-16.206-16.084-16.22c-39.311-0.06-78.619-0.06-117.93,0
		c-9.114,0.014-15.946,7.05-16.077,16.225c-0.048,3.35,0.046,6.702-0.027,10.05c-0.08,3.592-2.346,5.936-5.497,5.846
		c-3.027-0.089-5.214-2.359-5.174-5.806c0.058-5.011-0.499-10.048,0.452-15.035c2.446-12.832,13.101-21.933,26.161-22.003
		C149.149,38.283,168.916,38.363,188.682,38.361z"/>
	<path fill="#B26C00" d="M188.167,274.262c-15.063,0-30.125,0-45.188-0.001c-0.893,0-1.789,0.044-2.677-0.017
		c-3.182-0.219-5.341-2.354-5.383-5.273c-0.042-2.925,2.101-5.156,5.236-5.412c0.777-0.063,1.561-0.022,2.343-0.022
		c30.683,0,61.365,0,92.048,0c0.669,0,1.343-0.026,2.009,0.011c3.36,0.188,5.608,2.4,5.555,5.443
		c-0.055,2.916-2.225,5.043-5.407,5.256c-0.89,0.059-1.784,0.016-2.677,0.016C218.738,274.262,203.453,274.262,188.167,274.262z"/>
	<path fill="#B26C00" d="M178.161,306.424c11.49,0,22.979,0,34.468,0c0.781,0.001,1.563-0.025,2.344,0.01
		c3.414,0.157,5.664,2.264,5.689,5.307c0.029,3.04-2.221,5.299-5.6,5.385c-3.791,0.1-7.584,0.027-11.377,0.027
		c-20.079,0-40.158,0-60.235,0c-0.669,0-1.338,0.008-2.008,0c-4.155-0.053-6.603-2.113-6.523-5.486
		c0.075-3.243,2.452-5.225,6.432-5.232C153.621,306.411,165.891,306.424,178.161,306.424z"/>
	<path fill="#B26C00" d="M161.715,295.707c-6.689,0-13.376,0.016-20.063-0.005c-4.254-0.013-6.672-1.927-6.732-5.267
		c-0.062-3.375,2.374-5.442,6.544-5.449c13.488-0.019,26.975-0.019,40.463,0c4.181,0.006,6.618,2.059,6.569,5.429
		c-0.049,3.339-2.478,5.274-6.716,5.287C175.091,295.723,168.403,295.707,161.715,295.707z"/>
	<path fill="#B26C00" d="M188.42,70.531c-5.013,0-10.027,0.03-15.041-0.009c-3.917-0.031-6.298-2.103-6.293-5.364
		c0.005-3.262,2.381-5.332,6.308-5.345c10.138-0.029,20.278-0.034,30.417,0.004c3.703,0.014,6.031,2.058,6.131,5.188
		c0.102,3.256-2.313,5.478-6.145,5.515C198.672,70.568,193.547,70.531,188.42,70.531z"/>
	<path fill="#B26C00" d="M75.924,262.471c2.861-0.002,5.3,2.411,5.349,5.293c0.053,3.17-2.491,5.881-5.525,5.887
		c-3.131,0.006-5.146-2.021-5.184-5.221C70.522,265.025,72.82,262.471,75.924,262.471z"/>
	<path fill="#B26C00" d="M70.564,289.928c-0.063-3.408,2.204-5.977,5.306-6.013c2.864-0.032,5.324,2.354,5.4,5.239
		c0.084,3.168-2.439,5.908-5.469,5.939C72.668,295.126,70.622,293.107,70.564,289.928z"/>
	<path fill="#B26C00" d="M70.564,311.096c0.047-3.382,2.479-5.877,5.583-5.734c2.863,0.133,5.197,2.644,5.125,5.516
		c-0.08,3.197-2.688,5.768-5.748,5.662C72.43,316.432,70.518,314.334,70.564,311.096z"/>
	<path fill="#B26C00" d="M150.976,151.048c-0.042,14.733-12.145,26.746-26.902,26.7c-14.717-0.044-26.737-12.158-26.695-26.906
		c0.042-14.728,12.142-26.733,26.901-26.692C139.021,124.191,151.018,136.278,150.976,151.048z M140.251,151.083
		c0.059-8.775-7.042-16.075-15.77-16.209c-8.921-0.138-16.318,7.059-16.378,15.934c-0.061,8.902,7.215,16.229,16.103,16.216
		C132.958,167.011,140.191,159.825,140.251,151.083z"/>
</g>
</svg>
