<svg id="Capa_1" enable-background="new 0 0 508.733 508.733" height="512" viewBox="0 0 508.733 508.733" width="512" xmlns="http://www.w3.org/2000/svg"><g><g><g><path d="m472.224 188.738h-434.448c-2.9 0-5.251-2.351-5.251-5.251v-25.85c0-2.9 2.351-5.251 5.251-5.251h434.448c2.9 0 5.251 2.351 5.251 5.251v25.85c0 2.9-2.351 5.251-5.251 5.251z" fill="#b9c3cd"/></g></g><g><g><path d="m43.772 188.738h422.456v258.941h-422.456z" fill="#faf8f8"/></g></g><g><g><path d="m334.918 117.156-8.167-1.14c-11.195-1.563-22.566-1.357-33.697.611-8.561 1.514-17.275 1.987-25.95 1.409l-13.209-.88v-38.436l13.209.88c8.675.578 17.388.105 25.95-1.409 11.131-1.968 22.502-2.175 33.697-.611l8.167 1.14z" fill="#fe646f"/></g></g><g><g><path d="m166.741 221.156h36.298v70.373h-36.298z" fill="#bed9fd"/></g></g><g><g><path d="m166.741 257.45h36.298v34.08h-36.298z" fill="#9ec8fc"/></g></g><g><g><path d="m304.62 221.156h36.298v70.373h-36.298z" fill="#bed9fd"/></g></g><g><g><path d="m304.62 257.45h36.298v34.08h-36.298z" fill="#9ec8fc"/></g></g><g><g><path d="m235.68 221.156h36.298v70.373h-36.298z" fill="#bed9fd"/></g></g><g><g><path d="m235.68 257.45h36.298v34.08h-36.298z" fill="#9ec8fc"/></g></g><g><g><path d="m166.741 335.321h36.298v70.373h-36.298z" fill="#bed9fd"/></g></g><g><g><path d="m166.741 371.614h36.298v34.08h-36.298z" fill="#9ec8fc"/></g></g><g><g><path d="m304.62 335.321h36.298v70.373h-36.298z" fill="#bed9fd"/></g></g><g><g><path d="m304.62 371.614h36.298v34.08h-36.298z" fill="#9ec8fc"/></g></g><g><g><path d="m235.68 335.321h36.298v70.373h-36.298z" fill="#bed9fd"/></g></g><g><g><path d="m235.68 371.614h36.298v34.08h-36.298z" fill="#9ec8fc"/></g></g><g><g><path d="m7.5 119.134h125.852v328.545h-125.852z" fill="#faf8f8"/></g></g><g><g><path d="m105.844 119.134h27.507v328.545h-27.507z" fill="#f0e9e6"/></g></g><g><g><path d="m7.5 313.398c0-34.753 28.173-62.926 62.926-62.926 34.753 0 62.926 28.173 62.926 62.926v134.281h-125.852z" fill="#fff4f1"/></g></g><g><g><path d="m70.426 250.473c-4.727 0-9.325.538-13.754 1.526 28.135 6.276 49.172 31.373 49.172 61.4v134.281h27.507v-134.282c.001-34.753-28.172-62.925-62.925-62.925z" fill="#f0e5e3"/></g></g><g><g><path d="m133.352 106.9-62.926-45.845-62.926 45.845v12.234h125.852z" fill="#b9c3cd"/></g></g><g><g><path d="m70.426 61.055-13.754 10.02 39.284 28.621c6.213 4.527 9.888 11.751 9.888 19.438h27.507v-12.234z" fill="#a2abb8"/></g></g><g><g><path d="m70.426 343.912c16.352 0 29.608 13.256 29.608 29.608v74.159h-59.216v-74.159c0-16.352 13.256-29.608 29.608-29.608z" fill="#c7865b"/></g></g><g><g><path d="m375.382 119.134h125.851v328.545h-125.851z" fill="#faf8f8"/></g></g><g><g><path d="m473.726 118.134h27.507v328.545h-27.507z" fill="#f0e9e6"/></g></g><g><g><path d="m375.382 313.398c0-34.753 28.173-62.926 62.926-62.926 34.753 0 62.926 28.173 62.926 62.926v134.281h-125.852z" fill="#fff4f1"/></g></g><g><g><path d="m438.308 250.473c-4.727 0-9.325.538-13.754 1.526 28.135 6.276 49.172 31.373 49.172 61.4v134.281h27.507v-134.282c.001-34.753-28.172-62.925-62.925-62.925z" fill="#f0e5e3"/></g></g><g><g><path d="m501.234 106.9-62.926-45.845-62.926 45.845v12.234h125.852z" fill="#b9c3cd"/></g></g><g><g><path d="m438.308 61.055-13.754 10.02 39.284 28.621c6.213 4.527 9.888 11.751 9.888 19.438h27.507v-12.234z" fill="#a2abb8"/></g></g><g><g><path d="m52.277 151.063h36.298v70.373h-36.298z" fill="#bed9fd"/></g></g><g><g><path d="m52.277 187.356h36.298v34.08h-36.298z" fill="#9ec8fc"/></g></g><g><g><path d="m420.159 151.063h36.298v70.373h-36.298z" fill="#bed9fd"/></g></g><g><g><path d="m420.159 187.356h36.298v34.08h-36.298z" fill="#9ec8fc"/></g></g><g><g><path d="m436.718 343.912c16.352 0 29.608 13.256 29.608 29.608v74.159h-59.216v-74.159c0-16.352 13.256-29.608 29.608-29.608z" fill="#c7865b"/></g></g><g><path d="m210.538 221.156c0-4.142-3.357-7.5-7.5-7.5h-36.297c-4.143 0-7.5 3.358-7.5 7.5v70.374c0 4.142 3.357 7.5 7.5 7.5h36.297c4.143 0 7.5-3.358 7.5-7.5zm-15 7.5v21.293h-21.297v-21.293zm-21.297 55.374v-19.08h21.297v19.08z"/><path d="m304.62 299.03h36.298c4.142 0 7.5-3.358 7.5-7.5v-70.374c0-4.142-3.358-7.5-7.5-7.5h-36.298c-4.143 0-7.5 3.358-7.5 7.5v70.374c0 4.142 3.358 7.5 7.5 7.5zm7.5-15v-19.08h21.298v19.08zm21.298-55.374v21.293h-21.298v-21.293z"/><path d="m235.681 299.03h36.297c4.143 0 7.5-3.358 7.5-7.5v-70.374c0-4.142-3.357-7.5-7.5-7.5h-36.297c-4.143 0-7.5 3.358-7.5 7.5v70.374c0 4.142 3.357 7.5 7.5 7.5zm7.5-15v-19.08h21.297v19.08zm21.297-55.374v21.293h-21.297v-21.293z"/><path d="m203.038 327.821h-36.297c-4.143 0-7.5 3.358-7.5 7.5v70.373c0 4.142 3.357 7.5 7.5 7.5h36.297c4.143 0 7.5-3.358 7.5-7.5v-70.373c0-4.142-3.357-7.5-7.5-7.5zm-7.5 15v21.293h-21.297v-21.293zm-21.297 55.373v-19.08h21.297v19.08z"/><path d="m297.12 405.694c0 4.142 3.357 7.5 7.5 7.5h36.298c4.142 0 7.5-3.358 7.5-7.5v-70.373c0-4.142-3.358-7.5-7.5-7.5h-36.298c-4.143 0-7.5 3.358-7.5 7.5zm15-7.5v-19.08h21.298v19.08zm21.298-55.373v21.293h-21.298v-21.293z"/><path d="m228.181 405.694c0 4.142 3.357 7.5 7.5 7.5h36.297c4.143 0 7.5-3.358 7.5-7.5v-70.373c0-4.142-3.357-7.5-7.5-7.5h-36.297c-4.143 0-7.5 3.358-7.5 7.5zm15-7.5v-19.08h21.297v19.08zm21.297-55.373v21.293h-21.297v-21.293z"/><path d="m505.649 100.838-62.926-45.846c-2.631-1.917-6.201-1.917-8.832 0l-62.926 45.846c-1.938 1.412-3.084 3.665-3.084 6.062v37.986h-106.485v-19.714l5.21.347c2.549.17 5.102.254 7.655.254 6.734 0 13.467-.589 20.099-1.762 10.373-1.834 20.921-2.026 31.354-.569l8.167 1.141c2.15.303 4.324-.345 5.96-1.77 1.637-1.424 2.577-3.488 2.577-5.658v-38.435c0-3.741-2.757-6.911-6.463-7.428l-8.167-1.141c-11.992-1.675-24.117-1.455-36.04.654-7.959 1.407-16.084 1.847-24.146 1.311l-13.207-.88c-2.072-.138-4.107.589-5.623 2.007s-2.376 3.401-2.376 5.476v66.166h-40.839c-4.143 0-7.5 3.358-7.5 7.5s3.357 7.5 7.5 7.5h162.325v21.352h-227.03v-21.352h34.705c4.143 0 7.5-3.358 7.5-7.5s-3.357-7.5-7.5-7.5h-34.705v-37.985c0-2.397-1.146-4.65-3.084-6.062l-62.926-45.846c-2.631-1.917-6.201-1.917-8.832 0l-62.926 45.846c-1.938 1.412-3.084 3.665-3.084 6.062v340.779c0 4.142 3.357 7.5 7.5 7.5h198.057c4.143 0 7.5-3.358 7.5-7.5s-3.357-7.5-7.5-7.5h-64.705v-243.941h227.03v243.941h-132.325c-4.143 0-7.5 3.358-7.5 7.5s3.357 7.5 7.5 7.5h265.677c4.143 0 7.5-3.358 7.5-7.5v-340.779c-.001-2.397-1.147-4.65-3.085-6.062zm-244.253-14.101 5.21.347c9.268.617 18.606.11 27.754-1.507 10.373-1.834 20.921-2.025 31.354-.569l1.704.238v23.291c-11.87-1.619-23.869-1.381-35.67.705-7.959 1.406-16.084 1.848-24.146 1.311l-6.206-.414zm-246.396 23.978 55.426-40.381 55.426 40.381v.919h-110.852zm33.317 329.464v-66.659c0-12.19 9.918-22.108 22.108-22.108s22.108 9.918 22.108 22.108v66.659zm63.272 0h-4.055v-66.659c0-20.461-16.646-37.108-37.108-37.108s-37.108 16.647-37.108 37.108v66.659h-18.318v-126.781c0-30.562 24.864-55.426 55.426-55.426s55.426 24.864 55.426 55.426v126.781zm-41.163-197.207c-22.483 0-42.523 10.603-55.426 27.056v-143.394h110.852v143.394c-12.903-16.453-32.944-27.056-55.426-27.056zm312.456-132.257 55.426-40.381 55.426 40.381v.919h-110.852zm31.728 329.464v-66.659c0-12.19 9.918-22.108 22.108-22.108s22.107 9.918 22.107 22.108v66.659zm79.123 0h-19.907v-66.659c0-20.461-16.647-37.108-37.107-37.108-20.462 0-37.108 16.647-37.108 37.108v66.659h-15.613-1.115v-126.781c0-30.562 24.864-55.426 55.426-55.426s55.426 24.864 55.426 55.426v126.781zm-55.425-197.207c-22.483 0-42.523 10.603-55.426 27.056v-143.394h110.852v143.394c-12.904-16.453-32.944-27.056-55.426-27.056z"/><path d="m88.574 143.563h-36.297c-4.143 0-7.5 3.358-7.5 7.5v70.373c0 4.142 3.357 7.5 7.5 7.5h36.297c4.143 0 7.5-3.358 7.5-7.5v-70.373c0-4.142-3.357-7.5-7.5-7.5zm-7.5 15v21.294h-21.297v-21.294zm-21.297 55.373v-19.08h21.297v19.08z"/><path d="m456.457 143.563h-36.298c-4.143 0-7.5 3.358-7.5 7.5v70.373c0 4.142 3.357 7.5 7.5 7.5h36.298c4.143 0 7.5-3.358 7.5-7.5v-70.373c0-4.142-3.357-7.5-7.5-7.5zm-7.5 15v21.294h-21.298v-21.294zm-21.298 55.373v-19.08h21.298v19.08z"/></g></g></svg>