<?xml version="1.0" encoding="utf-8"?>
<!-- Generator: Adobe Illustrator 16.0.0, SVG Export Plug-In . SVG Version: 6.00 Build 0)  -->
<!DOCTYPE svg PUBLIC "-//W3C//DTD SVG 1.1//EN" "http://www.w3.org/Graphics/SVG/1.1/DTD/svg11.dtd">
<svg version="1.1" id="Layer_1" xmlns="http://www.w3.org/2000/svg" xmlns:xlink="http://www.w3.org/1999/xlink" x="0px" y="0px"
	 width="400px" height="400px" viewBox="0 0 400 400" enable-background="new 0 0 400 400" xml:space="preserve">
<g>
	<path fill="#5940D8" d="M33.772,120.287c2.164-4.522,5.735-6.107,10.713-5.938c8.306,0.285,16.629,0.068,24.945,0.083
		c3.897,0.008,6.005,1.66,6.082,4.703c0.078,3.142-2.163,5.002-6.151,5.013c-7.667,0.023-15.336,0.082-23.002-0.042
		c-2.116-0.034-2.924,0.288-2.921,2.708c0.072,74.519,0.07,149.036,0.009,223.554c-0.001,2.233,0.514,2.84,2.805,2.835
		c44.171-0.073,88.34-0.07,132.512-0.008c2.168,0.004,3.012-0.387,2.901-2.76c-0.204-4.42-0.188-8.859-0.004-13.279
		c0.093-2.205-0.672-2.629-2.713-2.618c-17.603,0.077-35.207-0.017-52.81,0.077c-6.035,0.031-10.919-1.393-12.754-7.939
		c-0.488-1.74-1.968-0.994-2.996-0.998c-14.148-0.051-28.295-0.033-42.442-0.035c-0.972,0-1.955,0.063-2.914-0.056
		c-2.929-0.362-4.853-2.562-4.657-5.226c0.187-2.553,2.161-4.396,5.038-4.424c6.911-0.063,13.823-0.022,20.735-0.023
		c8.1,0,16.2-0.061,24.299,0.045c1.923,0.023,2.719-0.375,2.583-2.465c-0.181-2.797-0.195-5.624,0.003-8.418
		c0.156-2.215-0.675-2.657-2.731-2.645c-14.146,0.082-28.294,0.043-42.442,0.041c-0.972,0-1.95,0.051-2.914-0.035
		c-2.781-0.244-4.37-1.871-4.532-4.576c-0.156-2.6,1.321-4.281,3.811-4.91c1.023-0.258,2.141-0.197,3.215-0.198
		c14.796-0.011,29.591-0.03,44.387,0.024c1.726,0.007,2.975-0.348,4.143-1.766c2.245-2.73,5.444-3.191,8.8-3.187
		c17.82,0.03,35.64-0.069,53.458,0.099c2.977,0.029,3.621-0.846,3.437-3.58c-0.239-3.546-0.157-7.126-0.015-10.686
		c0.067-1.701-0.415-2.461-2.134-2.785c-10.622-1.997-20.376-6.156-29.35-12.141c-1.301-0.865-2.613-0.838-4.002-0.838
		c-27.323-0.002-54.646,0.002-81.969-0.004c-7.882,0-10.409-2.555-10.41-10.508c-0.002-21.167-0.007-42.335,0.004-63.502
		c0.003-6.924,2.908-9.831,9.811-9.832c32.615-0.005,65.229-0.005,97.845,0c7.042,0.001,9.797,2.634,9.875,9.724
		c0.022,2.046,0.378,2.542,2.491,2.005c7.778-1.974,7.797-1.898,7.797-9.976c0-16.199-0.068-32.397,0.068-48.598
		c0.023-2.616-0.749-3.114-3.196-3.104c-27.216,0.088-54.43,0.053-81.646,0.052c-1.08-0.001-2.172,0.076-3.236-0.063
		c-2.715-0.355-4.568-2.528-4.323-5.129c0.256-2.739,1.835-4.279,4.602-4.51c0.751-0.063,1.511-0.022,2.267-0.022
		c28.403-0.003,56.806-0.005,85.209,0.001c7.169,0.001,9.978,2.801,9.98,9.977c0.009,18.251,0.052,36.504-0.048,54.754
		c-0.015,2.714,0.323,3.675,3.55,3.738c30.501,0.599,53.896,13.952,70.146,39.79c2.111,3.359,2.035,6.668-0.078,10.021
		c-16.285,25.822-39.719,39.09-70.197,39.714c-3.027,0.062-3.628,0.869-3.417,3.569c0.224,2.898,0.245,5.846-0.006,8.74
		c-0.231,2.662,0.791,3.168,3.248,3.16c26.027-0.084,52.055,0.01,78.082-0.097c6.65-0.026,12.75,1.388,18.533,4.714
		c6.811,3.92,13.785,7.559,20.7,11.297c2.999,1.62,5.379,3.678,5.344,7.434s-2.473,5.738-5.468,7.353
		c-7.301,3.935-14.603,7.866-21.843,11.907c-5.028,2.807-10.375,4.092-16.101,4.088c-26.243-0.016-52.486,0.061-78.729-0.093
		c-3.249-0.021-3.938,0.917-3.781,3.94c0.262,5.063,0.098,10.148,0.064,15.226c-0.039,6.112-3.012,9.178-9.118,9.2
		c-14.47,0.053-28.942,0.018-43.414,0.018c-31.211,0-62.423-0.074-93.632,0.077c-4.932,0.024-8.849-1.037-11.391-5.481
		C33.772,278.412,33.772,199.349,33.772,120.287z M137.263,248.164c-4.622-5.034-8.341-9.854-11.588-15.051
		c-2.319-3.711-2.336-7.098-0.05-10.86c7.989-13.153,18.72-23.388,32.446-30.275c3.099-1.555,3.872-3.375,3.625-6.438
		c-0.114-1.421-0.509-1.834-1.88-1.789c-2.697,0.089-5.399,0.026-8.099,0.026c-28.402,0-56.805-0.009-85.208,0.028
		c-1.254,0.001-3.054-0.896-3.043,1.856c0.083,20.192,0.064,40.388,0.009,60.583c-0.004,1.635,0.551,1.951,2.048,1.949
		C89.172,248.15,112.819,248.164,137.263,248.164z M195.033,192.411c-25.361,0.966-45.442,11.629-59.817,32.812
		c-1.203,1.774-1.171,2.984-0.006,4.816c27.64,43.482,92.519,43.424,120.024-0.116c1.064-1.688,1.158-2.854,0.023-4.53
		C240.852,204.084,220.716,193.318,195.033,192.411z M211.348,297.572c-17.387,0-34.772,0-52.159,0
		c-5.648,0-5.519,0.005-5.683,5.771c-0.067,2.38,0.489,3.035,2.964,3.021c22.461-0.11,44.922-0.064,67.383-0.063
		c0.971,0,1.967-0.108,2.91,0.063c2.67,0.484,4.295,2.113,4.242,4.873c-0.051,2.73-1.619,4.381-4.367,4.734
		c-0.957,0.124-1.94,0.049-2.912,0.049c-21.599,0.002-43.195,0.002-64.792,0.002c-5.375,0-5.195,0.008-5.44,5.358
		c-0.13,2.856,0.649,3.554,3.523,3.546c35.204-0.111,70.407-0.072,105.611-0.072c6.626,0,6.546,0.002,6.378-6.76
		c-0.046-1.789-0.65-2.128-2.256-2.104c-5.614,0.082-11.23,0.057-16.846,0.021c-3.621-0.021-5.689-1.738-5.777-4.686
		c-0.092-3.068,2.083-4.988,5.797-5.02c4.535-0.037,9.071-0.01,13.605-0.01c5.43,0,5.221-0.01,5.503-5.316
		c0.159-2.994-0.853-3.492-3.589-3.475C247.415,297.632,229.38,297.572,211.348,297.572z M143.844,311.259
		c0-3.886-0.064-7.774,0.032-11.659c0.038-1.545-0.442-2.076-2.004-2.056c-5.613,0.069-11.229,0.091-16.842-0.009
		c-1.862-0.033-2.377,0.604-2.356,2.419c0.09,7.448,0.098,14.899-0.004,22.349c-0.026,1.979,0.566,2.635,2.564,2.592
		c5.396-0.115,10.798-0.139,16.193,0.01c2.116,0.058,2.524-0.742,2.457-2.633C143.751,318.605,143.845,314.932,143.844,311.259z
		 M278.677,298.045c0,6.094-0.063,12.021,0.028,17.949c0.042,2.742-1.154,7.156,0.502,7.859c2.628,1.112,5.613-1.817,8.393-3.185
		c1.125-0.553,1.533-1.249,1.516-2.498c-0.065-4.637-0.043-9.278-0.014-13.917c0.008-1.021-0.051-1.859-1.142-2.389
		C285.074,300.469,282.438,298.503,278.677,298.045z M299.066,307.971c0,2.301,0,4.206,0,6.418c2.088-1.148,3.836-2.111,5.848-3.218
		C302.828,310.029,301.016,309.036,299.066,307.971z"/>
	<path fill="#5940D8" d="M261.05,183.449c-0.002-3.563,0.017-7.128-0.009-10.69c-0.018-2.538,0.965-4.568,2.837-6.268
		c2.324-2.108,2.011-4.597-0.606-6.494c-17.035-12.351-24.746-29.103-21.082-49.784c3.808-21.498,17.293-35.197,38.528-40.125
		c16.327-3.788,31.213,0.386,43.938,11.521c3.265,2.858,3.838,5.721,1.794,8.063c-2.051,2.348-4.988,2.09-8.198-0.718
		c-23.621-20.682-59.826-8.771-66.449,21.863c-3.424,15.835,3.63,32.777,17.853,41.623c3.981,2.478,6.148,5.148,5.396,9.844
		c-0.308,1.921,0.376,2.79,2.463,2.581c2.871-0.286,6.565,1.161,8.43-0.576c1.733-1.617,0.385-5.311,0.521-8.085
		c0.063-1.294-0.001-2.593,0.015-3.888c0.047-3.987,0.66-7.781-4.285-10.16c-3.473-1.67-4.586-5.829-4.69-9.784
		c-0.091-3.454-0.071-6.913-0.021-10.367c0.121-7.935,5.893-13.833,13.598-13.951c7.586-0.117,13.602,5.421,14.039,13.168
		c0.211,3.767,0.178,7.563-0.001,11.333c-0.24,5.104-2.599,9.095-7.124,11.563c-1.307,0.715-1.86,1.397-1.83,2.923
		c0.104,5.182,0.126,10.368-0.004,15.55c-0.051,1.939,0.663,2.39,2.424,2.279c2.15-0.135,4.33-0.174,6.475,0.009
		c2.119,0.181,2.714-0.716,2.445-2.614c-0.634-4.499,1.249-7.238,5.201-9.664c15.104-9.265,21.798-26.504,17.582-44.014
		c-0.827-3.441,0.031-5.853,2.456-6.882c3.065-1.303,5.979,0.407,6.887,4.261c4.378,18.588-0.034,34.772-13.417,48.447
		c-2.117,2.165-4.511,4.012-7.007,5.73c-2.694,1.857-2.808,4.183-0.333,6.467c1.756,1.621,2.72,3.567,2.713,5.989
		c-0.017,7.345,0.063,14.688-0.034,22.03c-0.063,4.712-3.239,7.688-8.026,7.93c-2.229,0.111-5.157-1.013-6.479,0.5
		c-1.089,1.248-0.341,4.094-0.428,6.229c-0.195,4.797-3.286,8.183-8.092,8.397c-4.741,0.211-9.506,0.207-14.25,0.021
		c-5.006-0.196-8.019-3.535-8.258-8.567c-0.1-2.121,0.998-4.998-0.496-6.158c-1.371-1.064-4.117-0.366-6.258-0.438
		c-5-0.161-8.056-3.098-8.193-8.079C260.971,190.796,261.051,187.121,261.05,183.449z M291.682,174.566
		c-6.257,0-12.515,0.057-18.77-0.037c-1.691-0.025-2.225,0.44-2.182,2.162c0.114,4.635,0.092,9.276,0.008,13.912
		c-0.028,1.596,0.31,2.264,2.109,2.252c12.297-0.076,24.592-0.074,36.889-0.001c1.727,0.011,2.194-0.509,2.157-2.185
		c-0.104-4.527-0.181-9.066,0.024-13.587c0.104-2.307-0.813-2.594-2.765-2.557C303.331,174.636,297.505,174.565,291.682,174.566z
		 M287.201,126.828c0,1.723-0.063,3.448,0.017,5.168c0.118,2.539,1.453,3.984,4.058,4.036c2.459,0.049,3.976-1.303,4.099-3.646
		c0.194-3.647,0.196-7.325-0.026-10.973c-0.145-2.345-1.771-3.679-4.164-3.599c-2.379,0.079-3.779,1.46-3.949,3.847
		C287.113,123.376,287.21,125.104,287.201,126.828z M291.357,208.052c0.752,0,1.529-0.127,2.248,0.021
		c3.082,0.632,3.551-0.942,3.353-3.534c-0.108-1.438-0.304-2.122-1.942-2.031c-2.459,0.137-4.932,0.01-7.396,0.055
		c-0.658,0.012-1.45-0.346-1.85,0.722c-1.008,2.684,0.258,4.757,3.016,4.769C289.643,208.055,290.502,208.052,291.357,208.052z"/>
	<path fill="#5940D8" d="M112.862,269.82c14.894,0,29.786-0.002,44.679,0.003c0.97,0,1.949-0.038,2.911,0.067
		c2.465,0.273,3.941,1.715,4.221,4.144c0.296,2.575-0.86,4.44-3.397,5.146c-1.219,0.336-2.554,0.355-3.835,0.356
		c-29.894,0.021-59.787,0.015-89.681,0.015c-0.648,0-1.297,0.028-1.942-0.012c-3.449-0.209-5.574-2.218-5.448-5.127
		c0.121-2.773,2.196-4.569,5.549-4.576C81.565,269.805,97.213,269.82,112.862,269.82z"/>
	<path fill="#5940D8" d="M112.349,157.206c-7.762,0-15.524,0.02-23.286-0.009c-3.731-0.015-5.983-1.879-6.004-4.855
		c-0.022-2.976,2.229-4.852,5.956-4.856c15.739-0.015,31.479-0.017,47.218,0.001c3.59,0.004,5.696,1.74,5.793,4.647
		c0.104,3.084-2.045,5.041-5.744,5.06C128.304,157.232,120.326,157.205,112.349,157.206z"/>
	<path fill="#5940D8" d="M319.712,51.321c3.232-0.11,5.83,3.01,4.763,6.081c-1.019,2.937-2.293,5.827-3.815,8.534
		c-1.218,2.16-3.329,3.033-5.833,2.01c-2.603-1.064-3.713-3.197-2.879-5.734c1.001-3.047,2.487-5.95,3.945-8.824
		C316.617,51.962,318.088,51.376,319.712,51.321z"/>
	<path fill="#5940D8" d="M237.291,100.426c-0.042,3.819-2.875,6.158-5.932,5.374c-2.793-0.716-5.555-1.619-8.246-2.658
		c-2.639-1.019-3.74-3.521-2.909-5.975c0.901-2.666,3.269-3.926,6.144-3.122c2.469,0.689,4.909,1.499,7.338,2.327
		C235.932,97.139,237.21,98.704,237.291,100.426z"/>
	<path fill="#5940D8" d="M359.867,132.438c-2.671-0.337-5.369-0.541-8.01-1.039c-2.85-0.536-4.247-2.631-3.904-5.372
		c0.326-2.602,2.39-4.296,5.265-4.1c2.576,0.175,5.149,0.496,7.708,0.864c3.054,0.439,4.835,2.504,4.621,5.175
		C365.322,130.763,362.945,132.636,359.867,132.438z"/>
	<path fill="#5940D8" d="M262.663,51.308c1.871,0.022,3.442,0.737,4.278,2.417c1.338,2.694,2.662,5.418,3.684,8.242
		c0.936,2.589-0.105,4.699-2.587,5.871c-2.556,1.207-4.781,0.381-6.093-1.954c-1.469-2.614-2.707-5.396-3.717-8.223
		C257.096,54.483,259.395,51.388,262.663,51.308z"/>
	<path fill="#5940D8" d="M222.417,132.476c-2.918-0.002-5.038-1.815-5.283-4.375c-0.255-2.68,1.316-4.804,4.115-5.243
		c2.765-0.436,5.558-0.8,8.349-0.931c2.687-0.124,4.555,1.218,5.07,3.967c0.497,2.66-0.993,4.942-3.768,5.473
		C228.051,131.911,225.139,132.135,222.417,132.476z"/>
	<path fill="#5940D8" d="M231.82,159.994c-3.092-0.048-4.619-1.31-5.325-3.437c-0.683-2.058-0.043-3.968,1.731-5.138
		c2.6-1.712,5.33-3.245,8.09-4.688c2.121-1.108,4.033-0.34,5.496,1.354c1.402,1.624,1.842,3.752,0.463,5.368
		C239.354,156.879,235.271,158.59,231.82,159.994z"/>
	<path fill="#5940D8" d="M362.688,98.391c-0.145,2.608-1.355,4.158-3.479,4.906c-2.536,0.892-5.1,1.718-7.692,2.436
		c-2.695,0.746-4.69-0.392-5.821-2.819c-1.104-2.372-0.021-5.164,2.527-6.184c2.887-1.156,5.867-2.163,8.896-2.859
		C360.021,93.2,362.729,95.738,362.688,98.391z"/>
	<path fill="#5940D8" d="M250.13,78.326c0.097,3.848-3.971,6.497-7.062,4.604c-3.018-1.851-5.68-4.296-7.866-7.101
		c-1.304-1.673-1.083-3.707,0.216-5.402c1.285-1.68,3.214-2.665,5.119-1.694c3.666,1.866,6.613,4.727,9.081,8.026
		C249.979,77.242,250.018,77.966,250.13,78.326z"/>
	<path fill="#5940D8" d="M356.377,155.011c-0.067,3.097-2.674,5.562-5.462,4.847c-3.876-0.991-7.319-3.147-10.215-5.877
		c-1.648-1.554-1.463-3.813-0.093-5.646c1.334-1.786,3.271-2.754,5.39-1.71c2.982,1.467,5.838,3.216,8.652,4.995
		C355.891,152.405,356.235,153.864,356.377,155.011z"/>
	<path fill="#5940D8" d="M337.785,83.484c-2.344,0.054-3.816-0.869-4.734-2.66c-1.005-1.957-0.716-3.862,0.788-5.356
		c2.135-2.121,4.369-4.171,6.741-6.02c2.046-1.593,4.28-1.36,6.147,0.461c1.758,1.714,2.154,3.929,0.716,5.86
		c-2.191,2.939-5.099,5.228-8.087,7.344C338.874,83.455,338.119,83.411,337.785,83.484z"/>
	<path fill="#5940D8" d="M286.488,53.777c0-1.294-0.068-2.589,0.016-3.878c0.182-2.782,2.125-4.785,4.701-4.758
		c2.761,0.029,4.605,1.563,4.867,4.222c0.304,3.091,0.318,6.265-0.021,9.352c-0.29,2.646-2.161,4.201-4.95,4.064
		c-2.762-0.134-4.334-1.739-4.578-4.479c-0.133-1.496-0.022-3.015-0.022-4.522C286.496,53.777,286.493,53.777,286.488,53.777z"/>
	<path fill="#5940D8" d="M166.436,227.563c0.051-15.897,12.999-28.829,28.818-28.779c15.814,0.049,28.771,13.109,28.7,28.929
		c-0.071,15.938-12.923,28.728-28.853,28.71C179.208,256.402,166.386,243.494,166.436,227.563z M183.463,212.811
		c-5.658,4.608-7.919,10.32-7.146,17.455c0.817,7.541,6.68,13.976,14.503,15.914c7.412,1.836,15.764-1.369,19.924-7.519
		c1.219-1.802,0.878-2.255-1.221-2.338c-5.078-0.199-9.682-1.979-13.836-4.832C189.177,227.021,185.222,220.784,183.463,212.811z
		 M210.755,226.684c3.575,0.149,3.797-0.106,3-3.476c-1.95-8.244-9.534-14.36-17.948-14.733c-2.646-0.117-3.093,0.799-2.635,3.17
		C194.744,219.766,202.337,226.333,210.755,226.684z"/>
</g>
</svg>
