<?xml version="1.0" encoding="utf-8"?>
<!-- Generator: Adobe Illustrator 16.0.0, SVG Export Plug-In . SVG Version: 6.00 Build 0)  -->
<!DOCTYPE svg PUBLIC "-//W3C//DTD SVG 1.1//EN" "http://www.w3.org/Graphics/SVG/1.1/DTD/svg11.dtd">
<svg version="1.1" id="Layer_1" xmlns="http://www.w3.org/2000/svg" xmlns:xlink="http://www.w3.org/1999/xlink" x="0px" y="0px"
	 width="400px" height="400px" viewBox="0 0 400 400" enable-background="new 0 0 400 400" xml:space="preserve">
<g>
	<path fill-rule="evenodd" clip-rule="evenodd" fill="#040404" d="M310.568,217.894c12.34-12.354,24.105-24.132,35.875-35.905
		c0.744-0.746,1.451-1.554,2.299-2.166c3.141-2.271,7.1-0.489,7.492,3.341c0.076,0.731,0.021,1.477,0.021,2.215
		c0.002,54.453,0.002,108.905,0,163.358c0,5.773-1.297,7.084-7.037,7.084c-91.916,0-183.831-0.017-275.747,0.058
		c-3.935,0.005-6.149-1.401-7.722-5.018c-6.543-15.045-13.293-29.999-20.023-44.961c-0.757-1.683-1.123-3.344-1.123-5.173
		c0.02-53.294,0.008-106.586,0.025-159.878c0.002-9.485,5.919-15.421,15.328-15.504c6.271-0.056,6.18-0.056,6.293-6.475
		c0.146-8.22-0.807-16.497,0.486-24.648c2.059-12.987,12.754-22.047,25.949-22.414c3.162-0.09,6.336-0.13,9.494,0.023
		c1.994,0.099,2.81-0.374,2.671-2.559c-0.158-2.501-0.251-5.038,0.56-7.523c2.036-6.238,8.277-10.357,14.678-9.577
		c7.124,0.869,12.331,6.32,12.615,13.205c0.264,6.412,0.264,6.412,6.609,6.412c3.166,0,6.34-0.146,9.494,0.053
		c2.079,0.131,2.482-0.651,2.377-2.506c-0.113-1.986-0.162-3.992,0.265-5.987c1.503-7.034,7.753-11.833,14.69-11.206
		c7.393,0.666,12.661,6.161,12.945,13.498c0.238,6.148,0.238,6.148,6.327,6.148c3.377,0,6.757-0.089,10.13,0.038
		c1.709,0.063,2.178-0.547,2.096-2.163c-0.092-1.785-0.041-3.594,0.15-5.371c0.74-6.798,6.361-11.95,13.188-12.184
		c7.021-0.24,13.141,4.543,14.279,11.331c0.346,2.063,0.406,4.203,0.328,6.3c-0.064,1.711,0.551,2.115,2.158,2.083
		c4.746-0.095,9.498-0.097,14.244,0.001c1.656,0.033,2.189-0.462,2.141-2.137c-0.068-2.411-0.285-4.85,0.359-7.239
		c1.799-6.653,7.914-10.93,14.771-10.312c6.936,0.627,12.262,6.119,12.701,13.128c0.131,2.081-0.613,5.003,0.477,6.046
		c1.484,1.422,4.385,0.451,6.668,0.452c4.441,0.001,8.863,0.012,13.135,1.454c11.299,3.813,18.316,14.002,18.324,26.765
		c0.021,37.885,0.008,75.769,0.008,113.654C310.568,214.776,310.568,215.92,310.568,217.894z M78.965,346.344
		c0.379,0.041,0.767,0.12,1.154,0.12c33.351,0.007,66.701-0.005,100.051,0.042c1.431,0.003,2.336-0.558,3.267-1.488
		c38.737-38.724,77.483-77.44,116.267-116.119c1.172-1.169,1.502-2.347,1.486-3.908c-0.064-6.648-0.027-13.299-0.027-19.947
		c0-35.25,0.014-70.5-0.008-105.749c-0.004-8.843-5.359-15.701-13.465-17.568c-2.723-0.626-5.455-0.51-8.189-0.465
		c-2.393,0.038-5.539-1.05-6.955,0.493c-1.184,1.291-0.404,4.387-0.492,6.681c-0.248,6.621-5.23,12.246-11.574,13.063
		c-7.465,0.961-13.715-2.931-15.73-9.699c-0.836-2.806-0.578-5.656-0.533-8.487c0.025-1.65-0.455-2.189-2.129-2.114
		c-2.949,0.134-5.91-0.018-8.863,0.055c-2.398,0.06-5.438-1.001-7.012,0.452c-1.455,1.344-0.334,4.389-0.463,6.68
		c-0.43,7.686-6.502,13.407-14.127,13.267c-7.771-0.142-13.574-5.838-13.791-13.562c-0.047-1.688-0.086-3.381,0.004-5.064
		c0.076-1.392-0.453-1.829-1.818-1.813c-4.961,0.06-9.922,0.063-14.881-0.001c-1.366-0.019-1.842,0.419-1.828,1.794
		c0.021,2.314,0.048,4.658-0.259,6.945c-0.92,6.853-6.628,11.705-13.548,11.704c-7.182-0.004-12.983-4.803-13.917-11.697
		c-0.31-2.286-0.276-4.629-0.257-6.944c0.014-1.365-0.442-1.838-1.82-1.803c-3.164,0.081-6.332,0.025-9.498,0.025
		c-7.002,0-7.002,0-7.197,6.843c-0.225,7.783-6.084,13.621-13.698,13.646c-7.845,0.025-13.943-5.777-14.219-13.551
		c-0.05-1.371-0.141-2.76,0.013-4.113c0.242-2.123-0.355-3.039-2.69-2.844c-2.621,0.219-5.273,0.034-7.911,0.054
		c-11.131,0.08-18.455,7.36-18.506,18.427c-0.033,6.859-0.008,13.72-0.008,20.579c0,5.111,0.021,5.396,5.133,5.055
		c10.561-0.705,16.97,6.93,16.929,17.021c-0.214,52.452-0.108,104.905-0.07,157.359c0.002,2.491-0.512,4.739-1.536,7
		c-5.512,12.168-10.943,24.372-16.37,36.575C79.465,344.209,78.701,345.062,78.965,346.344z M346.91,195.946
		c-50.277,50.274-100.363,100.358-150.535,150.527c6.449,0,13.043,0,19.639,0c6.127,0,6.127,0,6.525-5.927
		c0.186-2.796,1.953-4.682,4.475-4.777c2.518-0.098,4.41,1.677,4.912,4.41c0.379,2.078-1.145,4.967,0.883,6.075
		c1.709,0.935,4.326,0.211,6.541,0.219c1.057,0.002,2.109,0,3.166,0c6.121,0,6.121,0,6.553-5.921
		c0.023-0.315,0.029-0.637,0.094-0.944c0.492-2.373,2.014-3.707,4.377-3.805c2.373-0.097,4.08,1.103,4.623,3.464
		c0.305,1.315,0.385,2.735,0.26,4.08c-0.215,2.336,0.361,3.441,3.021,3.184c2.717-0.262,5.48-0.058,8.223-0.058
		c5.525,0,5.525,0,5.893-5.628c0.027-0.42,0.057-0.844,0.146-1.254c0.543-2.523,2.178-3.855,4.697-3.784
		c2.367,0.067,3.992,1.388,4.359,3.786c0.236,1.551,0.234,3.16,0.145,4.731c-0.09,1.614,0.4,2.253,2.117,2.185
		c3.16-0.127,6.328-0.036,9.492-0.036c5.227,0,5.225,0,5.514-5.335c0.023-0.421,0.039-0.849,0.117-1.258
		c0.508-2.644,2.111-4.186,4.803-4.067c2.658,0.119,4.244,1.695,4.443,4.419c0.102,1.363,0.141,2.749,0.025,4.109
		c-0.139,1.65,0.432,2.231,2.121,2.167c3.162-0.12,6.33-0.035,9.494-0.035c5.238,0,5.238,0,5.504-5.329
		c0.17-3.422,2.055-5.478,4.928-5.377c2.738,0.096,4.416,2.104,4.508,5.396c0.15,5.288,0.15,5.288,5.588,5.28
		c0.318,0,0.643-0.047,0.949,0.008c2,0.345,2.48-0.548,2.443-2.454c-0.119-5.693-0.043-11.393-0.043-17.089
		c0-6.09,0-6.09-5.959-6.43c-0.422-0.024-0.854-0.015-1.258-0.114c-2.572-0.64-4.104-2.235-3.924-4.948
		c0.178-2.682,1.781-4.203,4.496-4.371c1.473-0.091,2.965-0.151,4.428-0.003c1.869,0.188,2.307-0.576,2.254-2.325
		c-0.119-3.9-0.168-7.812,0.012-11.706c0.105-2.343-0.381-3.526-3.012-3.133c-1.338,0.201-2.766,0.185-4.1-0.047
		c-2.607-0.446-4.178-2.086-4.092-4.791c0.088-2.686,1.672-4.28,4.354-4.529c1.674-0.157,3.377-0.128,5.059-0.023
		c1.402,0.086,1.813-0.429,1.77-1.794c-0.092-2.844,0.035-5.697-0.049-8.544c-0.064-2.18,0.939-4.941-0.445-6.354
		c-1.012-1.032-3.771-0.352-5.752-0.434c-0.105-0.003-0.211,0.003-0.316-0.007c-2.77-0.238-4.609-2.067-4.658-4.627
		c-0.053-2.657,1.879-4.625,4.805-4.798c1.367-0.081,2.752-0.12,4.111,0.008c1.732,0.163,2.43-0.357,2.316-2.22
		c-0.158-2.628-0.02-5.272-0.045-7.91c-0.025-2.204,0.666-4.932-0.377-6.466c-1.029-1.52-3.926-0.349-5.996-0.525
		c-2.857-0.243-4.666-1.88-4.799-4.463c-0.137-2.665,1.719-4.711,4.635-4.969c1.361-0.118,2.754-0.158,4.109-0.012
		c1.9,0.207,2.576-0.354,2.486-2.389c-0.18-4.001-0.053-8.017-0.053-12.024C346.91,209.933,346.91,202.906,346.91,195.946z
		 M75.831,235.049c0,18.033-0.019,36.066,0.019,54.1c0.006,2.718-1.166,6.289,0.459,7.934c1.775,1.795,5.406,0.267,8.189,0.632
		c2.961,0.388,3.856-0.501,3.846-3.668c-0.129-37.331-0.069-74.664-0.108-111.997c-0.003-2.912,1.307-6.891-0.575-8.449
		c-1.777-1.473-5.639-0.243-8.535-0.604c-3.025-0.376-3.363,0.928-3.35,3.523C75.877,196.028,75.831,215.538,75.831,235.049z
		 M66.396,235.365c0-19.835-0.031-39.67,0.045-59.506c0.008-2.107-0.375-3.078-2.712-2.844c-2.089,0.21-4.248,0.275-6.319-0.011
		c-2.958-0.407-3.357,0.843-3.352,3.472c0.086,37.351,0.055,74.7,0.068,112.049c0,2.938-0.994,6.888,0.498,8.543
		c1.734,1.923,5.77,0.271,8.768,0.646c2.637,0.33,3.063-0.799,3.052-3.159C66.357,274.826,66.396,255.097,66.396,235.365z
		 M71.053,163.549c5.056,0,10.111-0.063,15.165,0.037c1.661,0.032,2.142-0.463,2.118-2.128c-0.09-6.949,0.013-13.901-0.059-20.853
		c-0.038-3.785-1.889-5.726-5.595-5.768c-7.688-0.084-15.378-0.083-23.063,0.006c-3.615,0.042-5.447,1.925-5.48,5.49
		c-0.063,7.057,0.035,14.113-0.061,21.168c-0.023,1.689,0.504,2.114,2.126,2.084C61.152,163.487,66.104,163.549,71.053,163.549z
		 M56.662,307.33c4.808,10.735,9.501,21.215,14.449,32.265c4.926-11.012,9.617-21.501,14.434-32.265
		C75.791,307.33,66.459,307.33,56.662,307.33z M169.848,76.996c0-3.367,0.049-6.734-0.014-10.101
		c-0.063-3.429-1.748-5.345-4.508-5.288c-2.842,0.058-4.561,1.939-4.586,5.263c-0.054,6.734-0.059,13.47,0.002,20.203
		c0.03,3.302,1.602,5.022,4.348,5.062c2.959,0.041,4.662-1.695,4.739-5.036C169.908,83.733,169.847,80.364,169.848,76.996z
		 M114.375,77.012c0,3.473-0.059,6.945,0.018,10.416c0.066,3.021,1.674,4.68,4.352,4.706c2.878,0.029,4.588-1.628,4.616-4.757
		c0.062-6.943,0.06-13.889,0.003-20.832c-0.025-3.185-1.766-5.01-4.455-4.933c-2.717,0.079-4.47,1.948-4.521,4.984
		C114.328,70.067,114.373,73.541,114.375,77.012z M207.26,76.984c0,3.578-0.037,7.156,0.012,10.732
		c0.039,2.76,1.486,4.316,4.27,4.414c2.75,0.096,4.645-1.583,4.682-4.412c0.096-7.152,0.086-14.309,0.01-21.461
		c-0.031-2.87-1.932-4.691-4.48-4.645c-2.664,0.051-4.4,1.757-4.473,4.641C207.191,69.829,207.258,73.408,207.26,76.984z
		 M253.613,76.91c0,3.47-0.039,6.941,0.012,10.411c0.049,3.214,1.654,4.894,4.494,4.849c2.697-0.041,4.35-1.69,4.379-4.688
		c0.064-7.046,0.061-14.094-0.002-21.141c-0.025-2.911-1.777-4.694-4.367-4.736c-2.746-0.045-4.453,1.753-4.502,4.893
		C253.572,69.967,253.613,73.438,253.613,76.91z"/>
	<path fill-rule="evenodd" clip-rule="evenodd" fill="#040404" d="M122.889,248.397c0.008-1.964,1.315-3.288,2.361-4.72
		c5.741-7.862,5.713-7.838,1.75-16.403c-0.571-1.233-1.525-1.356-2.504-1.563c-2.783-0.58-5.592-1.041-8.381-1.596
		c-3.004-0.598-4.533-2.317-4.432-5.526c0.282-8.86,0.473-17.722,0.67-26.585c0.067-2.998,1.524-4.701,4.492-5.123
		c0.521-0.074,1.044-0.291,1.556-0.262c7.142,0.43,11.089-3.145,12.917-9.834c0.406-1.488,0.492-2.424-0.41-3.658
		c-1.613-2.208-3.07-4.535-4.545-6.843c-1.939-3.037-1.811-4.88,0.691-7.296c6.301-6.083,12.666-12.102,18.99-18.161
		c2.148-2.059,4.408-2.253,6.837-0.546c0.517,0.362,1.026,0.738,1.536,1.111c7.668,5.604,7.652,5.566,16.379,1.797
		c1.353-0.584,1.521-1.594,1.748-2.721c0.561-2.786,1.145-5.569,1.659-8.365c0.545-2.962,2.374-4.43,5.286-4.396
		c8.862,0.102,17.725,0.255,26.586,0.473c3.059,0.075,4.877,1.718,5.201,4.851c0.043,0.42,0.193,0.841,0.168,1.253
		c-0.441,7.123,3.135,11.08,9.793,12.903c1.334,0.365,2.252,0.611,3.43-0.226c2.488-1.769,5.057-3.43,7.607-5.11
		c2.377-1.564,4.584-1.295,6.539,0.746c6.203,6.478,12.408,12.955,18.576,19.467c1.939,2.05,1.975,4.307,0.381,6.607
		c-0.299,0.433-0.553,0.927-0.938,1.268c-5.553,4.923-5.695,10.438-2.084,16.568c0.613,1.041,1.09,1.563,2.244,1.767
		c3.006,0.533,5.988,1.199,8.977,1.827c2.754,0.578,4.234,2.255,4.172,5.103c-0.197,9.073-0.406,18.146-0.672,27.217
		c-0.072,2.523-1.457,4.137-3.969,4.599c-3.213,0.592-6.439,1.104-9.662,1.638c-0.709,0.117-1.512-0.021-1.893,0.838
		c-1.316,2.976-2.65,5.947-3.951,8.932c-0.424,0.973,0.412,1.566,0.838,2.237c1.584,2.489,3.201,4.956,4.848,7.402
		c1.68,2.496,1.396,4.769-0.734,6.811c-6.398,6.134-12.814,12.25-19.232,18.362c-2.131,2.028-4.412,2.292-6.828,0.479
		c-0.506-0.38-1.014-0.758-1.527-1.127c-7.602-5.485-7.588-5.453-16.313-1.731c-1.16,0.495-1.537,1.153-1.738,2.293
		c-0.512,2.901-1.225,5.77-1.744,8.671c-0.555,3.104-2.367,4.582-5.469,4.514c-8.862-0.19-17.723-0.388-26.584-0.607
		c-2.662-0.064-4.33-1.399-4.873-4.053c-0.127-0.618-0.393-1.252-0.346-1.86c0.547-7.156-2.953-11.151-9.67-13
		c-1.475-0.405-2.412-0.538-3.663,0.391c-2.279,1.695-4.718,3.177-7.073,4.768c-2.551,1.72-4.903,1.617-7.078-0.663
		c-6.043-6.339-12.086-12.679-18.149-18.998C123.589,251.199,122.91,249.954,122.889,248.397z M247.625,166.343
		c0.029-0.921-0.67-1.332-1.156-1.852c-1.799-1.93-3.619-3.84-5.451-5.738c-2.121-2.199-3.992-5.7-6.473-6.21
		c-2.697-0.556-5.273,2.82-7.869,4.524c-2.285,1.5-4.393,1.662-6.764,0.224c-3.701-2.245-7.658-3.974-11.818-5.184
		c-2.66-0.774-4.006-2.534-4.361-5.2c-0.305-2.299-0.707-4.588-0.953-6.892c-0.184-1.741-0.803-2.495-2.766-2.446
		c-4.744,0.114-9.508,0.111-14.24-0.202c-2.637-0.175-3.477,0.817-3.726,3.214c-0.226,2.192-0.815,4.345-1.258,6.513
		c-0.442,2.157-1.698,3.616-3.841,4.172c-4.605,1.193-9.013,2.875-13.196,5.145c-2.093,1.135-4.035,0.809-5.894-0.604
		c-2.1-1.595-4.27-3.098-6.346-4.722c-0.961-0.754-1.617-0.946-2.621,0.046c-3.902,3.857-7.867,7.652-11.889,11.382
		c-0.997,0.925-0.973,1.589-0.256,2.611c1.512,2.153,2.895,4.397,4.387,6.566c1.406,2.041,1.461,4.044,0.244,6.212
		c-1.182,2.106-2.731,4.197-3.193,6.481c-1.562,7.739-6.125,11.231-13.887,10.962c-1.965-0.068-2.992,0.851-2.865,3.075
		c0.145,2.521-0.091,5.063-0.143,7.593c-0.063,3.043-1.232,6.821,0.145,8.933c1.542,2.365,5.782,1.636,8.82,2.365
		c2.388,0.57,4.004,1.72,4.629,4.151c1.155,4.502,2.836,8.808,4.953,12.941c1.063,2.074,0.92,4.023-0.517,5.908
		c-1.598,2.094-3.044,4.311-4.709,6.346c-0.935,1.146-0.868,1.864,0.146,2.896c3.695,3.763,7.365,7.557,10.918,11.456
		c1.117,1.226,1.884,1.177,3.103,0.259c1.849-1.391,3.894-2.525,5.737-3.924c2.524-1.919,4.938-1.881,7.583-0.221
		c1.772,1.114,3.646,2.43,5.631,2.785c8.205,1.471,11.237,6.696,11.13,14.432c-0.022,1.651,0.691,2.12,2.285,2.13
		c4.959,0.03,9.925,0.085,14.871,0.397c2.324,0.146,3.188-0.561,3.357-2.857c0.152-2.084,0.807-4.128,1.18-6.2
		c0.496-2.771,1.943-4.511,4.805-5.162c2.143-0.489,4.484-0.916,6.25-2.097c6.783-4.54,12.68-3.64,18.09,2.219
		c1.146,1.241,2.146,1.142,3.396-0.116c3.645-3.666,7.387-7.24,11.18-10.752c1.135-1.053,1.391-1.825,0.416-3.144
		c-1.564-2.113-2.916-4.386-4.398-6.563c-1.33-1.949-1.41-3.854-0.156-5.898c1.928-3.148,3.793-6.406,4.635-9.987
		c1.045-4.446,3.443-6.81,8.051-6.856c0.838-0.01,1.678-0.188,2.51-0.313c4.629-0.682,4.625-0.686,4.707-5.487
		c0.031-1.794,0.076-3.588,0.113-5.38c0.064-3.054,1.268-6.859-0.117-8.96c-1.523-2.317-5.746-1.753-8.801-2.408
		c-2.488-0.532-4.082-1.828-4.74-4.435c-1.109-4.396-2.762-8.609-4.898-12.622c-1.098-2.055-0.986-4.007,0.467-5.896
		c1.541-2.005,3.008-4.067,4.502-6.106C246.934,167.341,247.289,166.819,247.625,166.343z"/>
	<path fill-rule="evenodd" clip-rule="evenodd" fill="#040404" d="M289.438,320.773c-8.332,0-16.662-0.028-24.994,0.018
		c-2.535,0.014-4.996-0.123-6.111-2.854c-1.08-2.649,0.305-4.55,2.152-6.391c17.176-17.128,34.313-34.294,51.434-51.475
		c1.801-1.805,3.629-3.355,6.359-2.204c2.668,1.125,3.066,3.443,3.061,6.022c-0.027,16.873-0.004,33.747-0.02,50.621
		c-0.006,4.689-1.557,6.241-6.256,6.255C306.521,320.791,297.979,320.773,289.438,320.773z M274.604,311.413
		c12.012,0,23.781-0.026,35.549,0.022c2.121,0.009,1.674-1.393,1.676-2.58c0.012-10.75,0.018-21.499-0.018-32.25
		c-0.002-0.751,0.422-1.649-0.262-2.209C299.316,286.65,287.133,298.859,274.604,311.413z"/>
	<path fill-rule="evenodd" clip-rule="evenodd" fill="#040404" d="M228.021,207.175c-0.252,20.755-16.807,37.164-37.346,37.013
		c-20.756-0.154-37.238-16.963-36.971-37.708c0.261-20.366,17.315-36.864,37.842-36.605
		C211.627,170.129,228.264,187.141,228.021,207.175z M190.172,234.721c15.119,0.62,27.9-11.537,28.424-27.038
		c0.496-14.696-11.57-27.714-26.239-28.304c-15.452-0.623-28.49,11.115-29.189,26.281
		C162.446,221.293,174.32,234.071,190.172,234.721z"/>
</g>
</svg>
