<?xml version="1.0" encoding="utf-8"?>
<!-- Generator: Adobe Illustrator 16.0.0, SVG Export Plug-In . SVG Version: 6.00 Build 0)  -->
<!DOCTYPE svg PUBLIC "-//W3C//DTD SVG 1.1//EN" "http://www.w3.org/Graphics/SVG/1.1/DTD/svg11.dtd">
<svg version="1.1" id="Layer_1" xmlns="http://www.w3.org/2000/svg" xmlns:xlink="http://www.w3.org/1999/xlink" x="0px" y="0px"
	 width="400px" height="400px" viewBox="0 0 400 400" enable-background="new 0 0 400 400" xml:space="preserve">
<g>
	<path fill="#B26C00" d="M44.48,289.605c0-76.342,0-152.686,0-229.027c0.206-0.19,0.507-0.341,0.602-0.576
		c4.717-11.537,10.182-15.222,22.61-15.222c88.374,0,176.748,0,265.123,0c14.686,0,22.729,8.014,22.704,22.67
		c-0.112,71.671-0.235,143.342-0.358,215.013c-0.002,1.012-0.008,2.025-0.064,3.036c-0.504,9.149-5.146,15.269-13.643,18.528
		c-0.846,0.324-1.582,0.386-1.795,1.625c-1.441,8.397-3.492,10.062-12.039,10.062c-26.117,0-52.235,0.044-78.352-0.071
		c-2.506-0.012-2.684,0.879-2.715,2.922c-0.033,2.139,0.34,3.072,2.768,2.896c3.324-0.243,6.679-0.128,10.019-0.046
		c8.81,0.215,15.646,5.329,17.14,13.005c0.912,4.69,0.77,9.491,0.336,14.222c-0.371,4.033-3.418,6.574-7.33,6.574
		c-46.465,0.008-92.929,0.008-139.396-0.001c-4.001,0-7.135-2.907-7.265-6.938c-0.127-3.942-0.164-7.903,0.075-11.838
		c0.455-7.469,6.697-13.789,14.18-14.73c4.342-0.547,8.696-0.316,13.04-0.254c2.24,0.033,3.258-0.364,3.077-2.924
		c-0.25-3.526-0.226-7.092-0.005-10.622c0.146-2.363-0.671-2.835-2.887-2.816c-13.16,0.104-26.319,0.071-39.479,0.039
		c-3.858-0.009-5.984-1.67-6.028-4.512c-0.044-2.83,2.126-4.519,5.921-4.603c0.607-0.013,1.215-0.002,1.822-0.002
		c14.071,0,28.142,0,42.213,0c16.197,0,32.395-0.095,48.589,0.084c3.053,0.033,3.842-0.863,3.52-3.693
		c-0.238-2.1-0.064-4.246-0.045-6.372c0.065-6.837,3.433-10.351,10.236-10.331c2.073,0.006,2.67-0.651,2.397-2.542
		c-0.085-0.595-0.103-1.229,0.002-1.818c0.504-2.841-0.472-3.649-3.481-3.64c-35.025,0.126-70.051,0.081-105.077,0.081
		c-18.222,0-36.443,0.036-54.665-0.05c-2.077-0.01-2.785,0.42-2.692,2.617c0.187,4.446,0.044,8.905,0.058,13.359
		c0.027,7.875,4.267,12.188,12.155,12.292c4.454,0.06,8.908,0.009,13.362,0.013c0.81,0,1.62,0,2.427,0.049
		c2.728,0.166,4.324,1.66,4.598,4.33c0.248,2.412-1.726,4.563-4.557,4.641c-5.764,0.158-11.544,0.261-17.301-0.008
		c-9.485-0.445-15.833-5.31-18.93-14.336C45.199,290.242,45.131,289.676,44.48,289.605z M199.882,106.732
		c-47.784,0-95.569,0.015-143.354-0.05c-2.279-0.003-2.999,0.442-2.994,2.899c0.083,48.797,0.074,97.594,0.02,146.392
		c-0.002,1.967,0.244,2.752,2.528,2.748c49.506-0.074,99.012-0.068,148.518-0.012c2.01,0.002,2.524-0.542,2.471-2.518
		c-0.188-6.779-0.243-13.564-0.225-20.347c0.016-5.278,2.821-8.612,7.467-9.653c1.701-0.379,4.088,0.842,4.957-0.909
		c0.729-1.466,0.162-3.571,0.17-5.394c0-0.305-0.043-0.615,0.006-0.91c0.32-1.939-0.408-2.494-2.42-2.511
		c-6.789-0.058-10.166-3.603-10.202-10.419c-0.032-6.277-0.019-12.554-0.003-18.831c0.018-7.408,3.332-10.721,10.756-10.726
		c19.033-0.012,38.064-0.005,57.099,0.001c0.909,0,1.831-0.015,2.728,0.117c2.35,0.346,3.606,1.928,3.732,4.128
		c0.126,2.2-0.951,3.939-3.25,4.489c-1.162,0.278-2.396,0.347-3.6,0.348c-18.526,0.021-37.053,0.058-55.58-0.042
		c-2.282-0.012-2.919,0.552-2.846,2.846c0.18,5.563,0.141,11.137,0.014,16.702c-0.044,1.923,0.589,2.362,2.418,2.36
		c36.648-0.049,73.297-0.049,109.946,0.002c1.83,0.002,2.442-0.412,2.399-2.336c-0.131-5.667-0.168-11.341,0.013-17.004
		c0.071-2.274-0.769-2.589-2.755-2.559c-7.391,0.112-14.78,0.106-22.172,0.014c-3.268-0.041-5.301-2.02-5.223-4.688
		c0.076-2.62,1.996-4.345,5.162-4.363c8.402-0.046,16.807-0.085,25.207,0.036c4.979,0.073,8.66,3.648,8.768,8.623
		c0.162,7.489,0.138,14.985,0.01,22.475c-0.075,4.526-3.12,7.743-7.473,8.68c-1.654,0.355-3.994-0.646-4.805,0.766
		c-0.797,1.382-0.267,3.53-0.313,5.341c-0.008,0.304,0.041,0.614-0.008,0.91c-0.342,2.082,0.447,2.698,2.604,2.722
		c6.643,0.074,10.035,3.644,10.03,10.234c-0.002,6.479,0.046,12.962-0.147,19.436c-0.07,2.324,0.463,3.254,2.918,2.981
		c1.932-0.214,3.688,0.571,3.678-2.883c-0.149-48.696-0.127-97.392-0.035-146.087c0.006-2.606-0.721-3.07-3.166-3.066
		C295.25,106.752,247.566,106.732,199.882,106.732z M199.976,97.611c47.685,0,95.37-0.013,143.053,0.042
		c2.203,0.002,3.119-0.31,3.069-2.87c-0.178-9.412-0.053-18.83-0.075-28.245C346,58.023,341.853,53.9,333.341,53.899
		c-88.891-0.003-177.781-0.003-266.67,0c-8.477,0.001-12.695,4.169-12.722,12.618c-0.031,9.314,0.128,18.632-0.089,27.941
		c-0.066,2.826,0.848,3.211,3.366,3.208C104.81,97.591,152.393,97.611,199.976,97.611z M199.701,346.365c20.436,0,40.871,0,61.306,0
		c6.964,0,6.964,0,6.87-6.942c-0.078-5.845-3.133-8.894-9.048-8.917c-7.89-0.033-15.781-0.009-23.672-0.009
		c-31.159,0-62.318,0.083-93.476-0.077c-5.561-0.029-10.526,2.678-9.813,9.969c0.098,1.002,0.127,2.037-0.01,3.03
		c-0.319,2.308,0.45,3.021,2.896,3.008C156.402,346.318,178.052,346.365,199.701,346.365z M272.896,256.915
		c18.412,0,36.826-0.031,55.238,0.044c1.969,0.008,2.558-0.48,2.506-2.486c-0.143-5.56-0.143-11.13-0.002-16.69
		c0.054-2.076-0.457-2.774-2.641-2.718c-5.965,0.154-11.938,0.054-17.906,0.054c-30.351,0-60.703,0.03-91.055-0.056
		c-2.497-0.008-3.273,0.612-3.178,3.151c0.199,5.253,0.195,10.524,0,15.779c-0.092,2.43,0.654,2.989,3.011,2.978
		C236.877,256.87,254.887,256.915,272.896,256.915z M273.16,306.594c18.308,0,36.613-0.025,54.922,0.038
		c1.871,0.007,2.625-0.319,2.564-2.424c-0.16-5.66-0.142-11.329-0.009-16.99c0.045-1.96-0.469-2.509-2.475-2.505
		c-36.615,0.064-73.229,0.066-109.845-0.003c-2.096-0.004-2.479,0.694-2.44,2.577c0.11,5.459,0.168,10.927-0.021,16.383
		c-0.084,2.4,0.605,2.996,2.985,2.982C236.95,306.547,255.055,306.594,273.16,306.594z M199.703,321.396
		c11.83,0,23.66-0.078,35.488,0.059c2.623,0.029,2.312-1.387,2.332-3.041c0.021-1.621,0.136-2.834-2.256-2.762
		c-6.162,0.185-12.334,0.092-18.5,0.052c-5.729-0.037-9.076-2.888-9.848-8.546c-0.199-1.471-0.486-2.061-2.113-2.053
		c-13.549,0.067-27.098,0.072-40.646-0.002c-1.737-0.01-1.956,0.688-1.929,2.129c0.072,3.84,0.146,7.688-0.024,11.522
		c-0.092,2.077,0.423,2.72,2.613,2.697C176.447,321.333,188.076,321.396,199.703,321.396z M273.232,275.641
		c12.742,0,25.484,0,38.227,0c6.516,0,6.387-0.004,6.559-6.574c0.068-2.586-0.739-3.098-3.202-3.088
		c-26.495,0.095-52.993,0.059-79.488,0.059c-6.82,0-6.685,0.003-6.853,6.945c-0.059,2.439,0.785,2.719,2.891,2.705
		C245.32,275.596,259.275,275.641,273.232,275.641z M273.182,216.532c-12.748,0-25.494,0-38.242,0c-6.4,0-6.272,0.003-6.455,6.38
		c-0.07,2.479,0.506,3.158,3.084,3.146c26.506-0.108,53.012-0.066,79.518-0.066c6.922,0,6.832-0.001,6.92-6.838
		c0.027-2.1-0.475-2.693-2.637-2.678C301.307,216.583,287.244,216.532,273.182,216.532z M339.695,294.9
		c3.815-2.149,5.973-4.832,6.121-8.637c0.221-5.642,0.135-11.293,0.229-16.939c0.021-1.18-0.408-1.57-1.584-1.561
		c-5.246,0.047-10.494,0.061-15.74-0.006c-1.375-0.017-1.776,0.52-1.676,1.782c0.07,0.901,0.131,1.834-0.01,2.72
		c-0.433,2.721,0.565,3.516,3.361,3.467c5.553-0.096,9.17,3.729,9.286,9.334C339.75,288.163,339.695,291.268,339.695,294.9z"/>
	<path fill="#B26C00" d="M230.665,135.212c15.276,0,30.553-0.002,45.83,0.004c1.01,0,2.044-0.062,3.026,0.124
		c2.265,0.43,3.558,1.912,3.67,4.187c0.104,2.139-0.933,3.745-3.025,4.364c-1.139,0.335-2.387,0.408-3.585,0.409
		c-30.554,0.021-61.106,0.021-91.66-0.001c-1.198,0-2.447-0.084-3.581-0.429c-2.096-0.638-3.107-2.331-2.966-4.403
		c0.15-2.203,1.404-3.781,3.737-4.136c0.992-0.151,2.018-0.114,3.028-0.114C200.313,135.21,215.488,135.212,230.665,135.212z"/>
	<path fill="#B26C00" d="M146.363,177.096c8.604,0,17.208,0.014,25.812-0.009c2.044-0.005,3.805,0.435,4.872,2.382
		c1.289,2.352,0.238,5.303-2.279,6.275c-1.25,0.483-2.571,0.46-3.893,0.46c-16.5-0.01-32.999-0.002-49.499-0.017
		c-1.003-0.001-2.027-0.055-3.006-0.254c-2.427-0.495-3.691-2.083-3.574-4.525c0.125-2.593,1.645-4.144,4.239-4.232
		c3.943-0.136,7.893-0.073,11.841-0.08C136.038,177.089,141.2,177.096,146.363,177.096z"/>
	<path fill="#B26C00" d="M88.053,126.334c-0.079,1.632-0.973,2.931-2.156,4.103c-2.947,2.923-5.813,5.932-8.838,8.771
		c-1.217,1.143-1.079,1.8,0.037,2.867c3,2.868,5.916,5.824,8.82,8.789c2.57,2.623,2.813,5.145,0.783,7.187
		c-2.035,2.048-4.563,1.825-7.178-0.75c-4.328-4.262-8.641-8.542-12.894-12.88c-2.521-2.573-2.6-4.905-0.156-7.424
		c4.442-4.576,8.993-9.047,13.517-13.544c1.484-1.476,3.261-2.048,5.263-1.236C87.014,122.93,87.833,124.4,88.053,126.334z"/>
	<path fill="#B26C00" d="M175.393,215.328c6.375,0.001,12.749-0.031,19.122,0.014c3.617,0.026,5.573,1.706,5.528,4.57
		c-0.042,2.734-1.958,4.494-5.368,4.511c-12.749,0.063-25.497,0.062-38.245,0.002c-3.349-0.016-5.392-1.854-5.446-4.503
		c-0.057-2.775,2.036-4.554,5.589-4.58C162.848,215.296,169.121,215.328,175.393,215.328z"/>
	<path fill="#B26C00" d="M117.69,159.448c-3.375,0.049-5.654-3.757-3.93-6.702c0.599-1.023,1.534-1.855,2.339-2.753
		c2.94-3.271,6.553-5.907,9.057-9.59c-3.056-3.085-6.111-6.17-9.167-9.254c-0.284-0.287-0.579-0.564-0.856-0.858
		c-2.437-2.584-2.647-5.179-0.586-7.17c1.962-1.896,4.512-1.708,6.935,0.674c4.394,4.32,8.755,8.673,13.064,13.077
		c2.458,2.512,2.533,4.954,0.133,7.418c-4.439,4.558-8.994,9.005-13.504,13.493C120.211,158.742,119.026,159.259,117.69,159.448z"/>
	<path fill="#B26C00" d="M120.236,205.307c-6.063,0-12.125,0.025-18.187-0.011c-3.629-0.022-5.658-1.646-5.705-4.437
		c-0.049-2.766,2.049-4.639,5.57-4.654c12.327-0.053,24.655-0.054,36.981,0.001c3.536,0.015,5.586,1.872,5.531,4.673
		c-0.054,2.811-2.041,4.396-5.7,4.417C132.563,205.331,126.4,205.305,120.236,205.307z"/>
	<path fill="#B26C00" d="M244.734,155.244c5.97,0,11.939-0.014,17.908,0.005c3.885,0.012,5.963,1.564,6.01,4.418
		c0.051,2.908-2.055,4.657-5.844,4.668c-12.039,0.032-24.08,0.038-36.119-0.002c-4.424-0.014-6.818-2.733-5.549-6.119
		c0.887-2.364,2.766-2.99,5.08-2.979C232.393,155.263,238.564,155.244,244.734,155.244z"/>
	<path fill="#B26C00" d="M165.912,155.244c5.152,0.001,10.305-0.036,15.457,0.014c3.4,0.033,5.305,1.687,5.321,4.452
		c0.017,2.759-1.893,4.586-5.247,4.609c-10.405,0.071-20.811,0.075-31.215-0.001c-3.293-0.025-5.254-1.962-5.184-4.684
		c0.071-2.743,1.986-4.347,5.412-4.377C155.607,155.211,160.759,155.244,165.912,155.244z"/>
	<path fill="#B26C00" d="M111.267,126.528c-0.248,0.813-0.479,1.799-0.844,2.733c-3.408,8.732-6.821,17.461-10.273,26.176
		c-1.273,3.216-3.154,4.432-5.64,3.807c-3.127-0.787-4.277-3.384-2.889-6.97c3.458-8.93,6.985-17.832,10.519-26.731
		c0.328-0.827,0.794-1.648,1.376-2.315c1.276-1.463,3-1.692,4.72-1.083C110.131,122.816,111.009,124.388,111.267,126.528z"/>
	<path fill="#B26C00" d="M303.076,200.971c-4.754,0-9.508,0.026-14.26-0.01c-3.498-0.027-5.637-1.831-5.576-4.595
		c0.06-2.694,2.086-4.478,5.432-4.497c9.709-0.053,19.418-0.053,29.127,0c3.308,0.019,5.394,1.853,5.445,4.508
		c0.055,2.776-2.07,4.557-5.605,4.583C312.783,200.998,307.93,200.971,303.076,200.971z"/>
	<path fill="#B26C00" d="M124.792,215.329c4.757,0,9.515-0.041,14.271,0.014c3.402,0.039,5.384,1.703,5.453,4.404
		c0.067,2.625-2.01,4.642-5.264,4.67c-9.716,0.084-19.433,0.082-29.148,0.002c-3.28-0.026-5.346-2-5.306-4.637
		c0.042-2.685,2.053-4.4,5.42-4.439C115.076,215.287,119.934,215.329,124.792,215.329z"/>
	<path fill="#B26C00" d="M87.21,177.098c4.857,0,9.714-0.043,14.57,0.016c3.147,0.038,5.111,1.732,5.221,4.306
		c0.114,2.67-1.91,4.712-5.162,4.74c-9.814,0.087-19.631,0.09-29.446-0.002c-3.168-0.03-5-1.879-5.012-4.527
		c-0.012-2.808,1.853-4.479,5.255-4.52C77.495,177.054,82.353,177.098,87.21,177.098z"/>
	<path fill="#B26C00" d="M83.559,215.331c3.746,0.001,7.493-0.062,11.237,0.021c3.225,0.07,5.003,1.722,5.031,4.438
		c0.027,2.685-1.752,4.56-4.933,4.612c-7.491,0.123-14.985,0.115-22.476,0.008c-3.188-0.046-5.011-1.874-5.032-4.52
		c-0.022-2.824,1.821-4.483,5.237-4.545C76.268,215.279,79.913,215.33,83.559,215.331z"/>
	<path fill="#B26C00" d="M238.788,200.969c-3.431,0-6.863,0.049-10.293-0.014c-3.156-0.057-5.062-1.73-5.149-4.363
		c-0.091-2.676,1.956-4.675,5.174-4.714c6.86-0.083,13.725-0.085,20.586,0.001c3.25,0.04,5.179,1.973,5.092,4.739
		c-0.084,2.641-1.959,4.284-5.115,4.338C245.65,201.014,242.219,200.969,238.788,200.969z"/>
	<path fill="#B26C00" d="M157.375,135.242c2.625,0,5.253-0.082,7.874,0.023c2.549,0.103,4.137,1.474,4.401,4.077
		c0.253,2.511-1.264,4.672-3.958,4.79c-5.537,0.239-11.098,0.233-16.635,0c-2.646-0.111-4.243-2.354-3.963-4.787
		c0.295-2.571,1.826-3.999,4.409-4.084C152.125,135.174,154.751,135.242,157.375,135.242z"/>
	<path fill="#B26C00" d="M186.32,205.261c-2.519,0.003-5.043,0.095-7.556-0.024c-2.549-0.12-4.134-1.525-4.312-4.131
		c-0.178-2.608,1.172-4.41,3.714-4.656c5.41-0.528,10.86-0.518,16.271-0.005c2.555,0.242,3.909,2.059,3.74,4.642
		c-0.169,2.573-1.729,4.037-4.303,4.15C191.36,205.346,188.838,205.259,186.32,205.261z"/>
	<path fill="#B26C00" d="M204.34,155.295c2.227,0,4.458-0.101,6.676,0.027c2.446,0.143,3.938,1.587,4.151,4.012
		c0.228,2.588-1.086,4.461-3.647,4.744c-4.922,0.545-9.895,0.514-14.82,0.019c-2.581-0.26-3.948-2.181-3.753-4.683
		c0.195-2.491,1.779-4.043,4.414-4.122c2.325-0.069,4.654-0.015,6.98-0.015C204.34,155.284,204.34,155.29,204.34,155.295z"/>
	<path fill="#B26C00" d="M78.236,205.243c-2.226,0-4.458,0.103-6.677-0.027c-2.446-0.144-3.922-1.557-4.119-4.019
		c-0.208-2.602,1.053-4.437,3.636-4.734c4.822-0.556,9.692-0.528,14.517-0.012c2.585,0.276,3.944,2.16,3.736,4.688
		c-0.206,2.506-1.781,4.035-4.414,4.113c-2.225,0.064-4.453,0.014-6.679,0.014C78.236,205.258,78.236,205.25,78.236,205.243z"/>
	<path fill="#B26C00" d="M160.154,205.209c-1.41,0.001-2.833,0.118-4.229-0.025c-2.309-0.238-3.645-1.682-3.884-3.932
		c-0.241-2.265,0.77-4.097,3.011-4.616c3.554-0.826,7.221-0.823,10.776-0.002c2.237,0.516,3.294,2.366,3.049,4.595
		c-0.242,2.191-1.534,3.752-3.887,3.955C163.389,205.318,161.767,205.208,160.154,205.209z"/>
	<path fill="#B26C00" d="M268.371,200.904c-1.211,0-2.436,0.121-3.629-0.025c-2.268-0.277-3.693-1.632-3.95-3.908
		c-0.274-2.434,0.882-4.245,3.249-4.761c3.16-0.691,6.434-0.721,9.588,0.037c2.232,0.535,3.246,2.298,3.066,4.587
		c-0.18,2.31-1.535,3.723-3.791,4.023c-1.486,0.199-3.021,0.039-4.534,0.039C268.371,200.898,268.371,200.9,268.371,200.904z"/>
	<path fill="#B26C00" d="M125.357,75.553c0.026,7.303-5.974,13.403-13.231,13.451c-7.188,0.049-13.384-6.094-13.447-13.331
		c-0.063-7.229,6.022-13.324,13.326-13.349C119.389,62.299,125.332,68.188,125.357,75.553z M112.06,79.842
		c2.245,0.005,4.262-2.018,4.142-4.299c-0.13-2.472-1.523-3.887-3.987-4.066c-2.278-0.164-4.34,1.816-4.385,4.062
		C107.784,77.725,109.863,79.838,112.06,79.842z"/>
	<path fill="#B26C00" d="M159.358,75.826c-0.084,7.29-6.312,13.366-13.493,13.167c-7.314-0.204-13.348-6.432-13.168-13.593
		c0.184-7.339,6.244-13.169,13.592-13.079C153.644,62.412,159.445,68.406,159.358,75.826z M146.093,71.463
		c-2.308-0.012-4.294,1.954-4.256,4.209c0.037,2.203,2.181,4.256,4.366,4.181c2.137-0.073,3.983-1.973,4.026-4.143
		C150.277,73.337,148.462,71.474,146.093,71.463z"/>
	<path fill="#B26C00" d="M91.337,75.638c-0.007,7.283-5.981,13.319-13.231,13.366c-7.173,0.047-13.308-6.014-13.428-13.265
		c-0.12-7.306,6.064-13.464,13.477-13.419C85.497,62.363,91.345,68.272,91.337,75.638z M82.206,75.659
		c0.023-2.376-1.805-4.208-4.186-4.194c-2.303,0.012-4.363,2.014-4.168,4.256c0.21,2.422,1.661,3.872,4.082,4.086
		C80.183,80.006,82.184,77.967,82.206,75.659z"/>
	<path fill="#B26C00" d="M303.309,241.557c4.854-0.002,9.709-0.035,14.563,0.01c3.291,0.033,5.373,1.832,5.369,4.502
		c-0.002,2.666-2.064,4.548-5.371,4.568c-9.81,0.063-19.619,0.068-29.429-0.007c-3.239-0.024-5.279-2.036-5.186-4.719
		c0.092-2.582,2.072-4.306,5.188-4.341C293.396,241.518,298.354,241.557,303.309,241.557z"/>
	<path fill="#B26C00" d="M239.023,241.559c3.43,0,6.861-0.055,10.291,0.017c2.951,0.062,4.754,1.707,4.875,4.254
		c0.127,2.687-1.656,4.717-4.715,4.774c-7.061,0.131-14.125,0.119-21.188,0.013c-3.044-0.046-4.995-2.052-4.949-4.619
		c0.045-2.633,1.971-4.369,5.09-4.427C231.959,241.508,235.491,241.559,239.023,241.559z"/>
	<path fill="#B26C00" d="M268.699,241.602c1.313,0,2.634-0.105,3.933,0.022c2.423,0.239,3.872,1.638,4.067,4.081
		c0.195,2.445-0.989,4.169-3.375,4.65c-2.975,0.603-6.039,0.584-9.014,0.024c-2.524-0.474-3.817-2.276-3.504-4.856
		c0.291-2.402,1.825-3.752,4.26-3.922c1.205-0.084,2.42-0.015,3.633-0.015C268.699,241.592,268.699,241.598,268.699,241.602z"/>
	<path fill="#B26C00" d="M303.195,300.209c-4.752,0-9.504,0.043-14.254-0.014c-3.596-0.043-5.659-1.731-5.688-4.483
		c-0.026-2.755,2.047-4.555,5.599-4.575c9.604-0.055,19.211-0.057,28.813,0.002c3.508,0.021,5.639,1.91,5.563,4.637
		c-0.071,2.644-2.096,4.363-5.475,4.414C312.904,300.264,308.051,300.208,303.195,300.209z"/>
	<path fill="#B26C00" d="M238.868,291.12c3.327,0.001,6.657-0.065,9.983,0.019c3.479,0.088,5.297,1.672,5.346,4.447
		c0.05,2.891-1.838,4.568-5.479,4.604c-6.655,0.065-13.313,0.069-19.968-0.002c-3.404-0.037-5.352-1.742-5.407-4.434
		c-0.056-2.777,1.985-4.541,5.541-4.619C232.21,291.061,235.54,291.118,238.868,291.12z"/>
	<path fill="#B26C00" d="M268.852,300.107c-1.308,0-2.627,0.107-3.924-0.021c-2.558-0.256-4.104-1.736-4.154-4.314
		c-0.051-2.564,1.375-4.174,3.953-4.486c2.705-0.326,5.436-0.318,8.144,0.006c2.479,0.297,3.794,1.861,3.835,4.275
		c0.044,2.564-1.318,4.174-3.93,4.496c-1.295,0.16-2.612,0.143-3.92,0.205C268.854,300.214,268.854,300.161,268.852,300.107z"/>
</g>
</svg>
