<?xml version="1.0" encoding="utf-8"?>
<!-- Generator: Adobe Illustrator 16.0.0, SVG Export Plug-In . SVG Version: 6.00 Build 0)  -->
<!DOCTYPE svg PUBLIC "-//W3C//DTD SVG 1.1//EN" "http://www.w3.org/Graphics/SVG/1.1/DTD/svg11.dtd">
<svg version="1.1" id="Layer_1" xmlns="http://www.w3.org/2000/svg" xmlns:xlink="http://www.w3.org/1999/xlink" x="0px" y="0px"
	 width="400px" height="400px" viewBox="0 0 400 400" enable-background="new 0 0 400 400" xml:space="preserve">
<g>
	<path fill="#313B49" d="M310.377,214.427c12.34-12.354,24.105-24.132,35.875-35.904c0.744-0.746,1.451-1.555,2.299-2.166
		c3.141-2.271,7.1-0.489,7.492,3.341c0.076,0.73,0.021,1.477,0.021,2.215c0.002,54.453,0.002,108.905,0,163.358
		c0,5.772-1.297,7.084-7.037,7.084c-91.916,0-183.831-0.018-275.747,0.058c-3.935,0.005-6.149-1.4-7.722-5.018
		c-6.543-15.045-13.293-29.999-20.023-44.961c-0.757-1.684-1.123-3.345-1.123-5.174c0.02-53.294,0.008-106.586,0.025-159.878
		c0.002-9.484,5.919-15.421,15.328-15.504c6.271-0.056,6.18-0.056,6.293-6.475c0.146-8.22-0.807-16.497,0.486-24.648
		c2.059-12.986,12.754-22.047,25.949-22.414c3.162-0.09,6.336-0.13,9.494,0.023c1.994,0.099,2.81-0.374,2.671-2.559
		c-0.158-2.501-0.251-5.038,0.56-7.523c2.036-6.238,8.277-10.357,14.678-9.577c7.124,0.869,12.331,6.32,12.615,13.205
		c0.264,6.412,0.264,6.412,6.609,6.412c3.166,0,6.34-0.146,9.494,0.053c2.079,0.131,2.482-0.65,2.377-2.506
		c-0.113-1.986-0.162-3.992,0.265-5.987c1.503-7.033,7.753-11.833,14.69-11.206c7.393,0.666,12.661,6.161,12.945,13.498
		c0.238,6.148,0.238,6.148,6.327,6.148c3.377,0,6.757-0.089,10.13,0.038c1.709,0.063,2.178-0.547,2.096-2.163
		c-0.092-1.785-0.041-3.594,0.15-5.371c0.74-6.798,6.361-11.95,13.188-12.184c7.021-0.24,13.142,4.543,14.278,11.331
		c0.347,2.063,0.406,4.202,0.328,6.3c-0.063,1.711,0.551,2.115,2.158,2.083c4.746-0.095,9.498-0.098,14.244,0.001
		c1.656,0.033,2.189-0.462,2.141-2.138c-0.067-2.41-0.285-4.85,0.359-7.238c1.799-6.653,7.914-10.931,14.771-10.313
		c6.936,0.627,12.262,6.119,12.701,13.128c0.131,2.081-0.613,5.003,0.477,6.046c1.484,1.423,4.385,0.451,6.668,0.452
		c4.441,0.001,8.863,0.013,13.135,1.454c11.299,3.813,18.316,14.002,18.324,26.765c0.021,37.886,0.008,75.77,0.008,113.654
		C310.377,211.31,310.377,212.453,310.377,214.427z M78.774,342.877c0.379,0.041,0.767,0.12,1.154,0.12
		c33.351,0.007,66.701-0.005,100.051,0.042c1.431,0.003,2.336-0.558,3.267-1.488c38.736-38.724,77.482-77.439,116.268-116.118
		c1.172-1.169,1.502-2.348,1.485-3.908c-0.063-6.648-0.026-13.299-0.026-19.947c0-35.25,0.014-70.5-0.009-105.749
		c-0.004-8.843-5.358-15.701-13.465-17.568c-2.724-0.626-5.455-0.51-8.188-0.465c-2.394,0.038-5.539-1.05-6.955,0.493
		c-1.185,1.291-0.404,4.387-0.492,6.681c-0.248,6.621-5.23,12.246-11.574,13.063c-7.465,0.961-13.715-2.931-15.73-9.699
		c-0.836-2.806-0.578-5.656-0.533-8.487c0.025-1.649-0.455-2.188-2.129-2.113c-2.948,0.134-5.91-0.019-8.862,0.055
		c-2.397,0.06-5.438-1.001-7.013,0.452c-1.455,1.344-0.334,4.389-0.463,6.68c-0.43,7.687-6.502,13.407-14.127,13.268
		c-7.771-0.143-13.574-5.839-13.791-13.563c-0.047-1.688-0.086-3.381,0.004-5.063c0.076-1.393-0.453-1.829-1.818-1.813
		c-4.961,0.06-9.922,0.063-14.881-0.001c-1.366-0.019-1.842,0.419-1.828,1.794c0.021,2.314,0.048,4.658-0.259,6.945
		c-0.92,6.853-6.628,11.705-13.548,11.704c-7.182-0.004-12.983-4.804-13.917-11.697c-0.31-2.286-0.276-4.629-0.257-6.944
		c0.014-1.364-0.442-1.838-1.82-1.803c-3.164,0.081-6.332,0.025-9.498,0.025c-7.002,0-7.002,0-7.197,6.843
		c-0.225,7.783-6.084,13.621-13.698,13.646c-7.845,0.025-13.943-5.776-14.219-13.551c-0.05-1.371-0.141-2.76,0.013-4.112
		c0.242-2.123-0.355-3.039-2.69-2.845c-2.621,0.22-5.273,0.034-7.911,0.055c-11.131,0.079-18.455,7.359-18.506,18.427
		c-0.033,6.858-0.008,13.72-0.008,20.579c0,5.11,0.021,5.396,5.133,5.055c10.561-0.705,16.97,6.93,16.929,17.021
		c-0.214,52.452-0.108,104.905-0.07,157.359c0.002,2.491-0.512,4.739-1.536,7c-5.512,12.168-10.943,24.372-16.37,36.575
		C79.274,340.742,78.51,341.596,78.774,342.877z M346.719,192.479c-50.277,50.273-100.363,100.357-150.535,150.526
		c6.449,0,13.042,0,19.639,0c6.127,0,6.127,0,6.524-5.927c0.187-2.796,1.953-4.682,4.476-4.777c2.519-0.098,4.409,1.678,4.911,4.41
		c0.38,2.078-1.145,4.967,0.884,6.075c1.709,0.936,4.325,0.211,6.541,0.219c1.058,0.002,2.108,0,3.166,0
		c6.121,0,6.121,0,6.553-5.921c0.022-0.314,0.029-0.637,0.095-0.943c0.491-2.373,2.014-3.707,4.377-3.806
		c2.373-0.097,4.08,1.104,4.623,3.464c0.305,1.315,0.385,2.735,0.26,4.08c-0.215,2.336,0.361,3.441,3.021,3.185
		c2.718-0.263,5.479-0.059,8.224-0.059c5.524,0,5.524,0,5.893-5.628c0.027-0.42,0.057-0.844,0.146-1.254
		c0.543-2.522,2.178-3.854,4.696-3.784c2.367,0.067,3.992,1.389,4.359,3.786c0.235,1.552,0.233,3.16,0.146,4.731
		c-0.091,1.614,0.399,2.253,2.116,2.185c3.16-0.127,6.328-0.036,9.492-0.036c5.228,0,5.226,0,5.514-5.335
		c0.023-0.421,0.039-0.849,0.117-1.258c0.508-2.644,2.11-4.186,4.804-4.067c2.657,0.119,4.243,1.695,4.442,4.42
		c0.103,1.362,0.142,2.749,0.024,4.108c-0.139,1.65,0.433,2.231,2.121,2.167c3.162-0.12,6.33-0.035,9.494-0.035
		c5.238,0,5.238,0,5.504-5.328c0.17-3.423,2.055-5.479,4.928-5.378c2.738,0.097,4.416,2.104,4.509,5.396
		c0.149,5.288,0.149,5.288,5.588,5.28c0.317,0,0.644-0.047,0.948,0.008c2,0.345,2.48-0.548,2.443-2.454
		c-0.119-5.693-0.043-11.393-0.043-17.089c0-6.09,0-6.09-5.959-6.43c-0.422-0.024-0.854-0.016-1.258-0.114
		c-2.572-0.641-4.104-2.235-3.924-4.948c0.178-2.682,1.781-4.203,4.496-4.371c1.473-0.091,2.965-0.15,4.428-0.003
		c1.869,0.188,2.307-0.576,2.254-2.325c-0.119-3.899-0.168-7.812,0.012-11.706c0.105-2.343-0.381-3.525-3.012-3.133
		c-1.338,0.201-2.766,0.186-4.1-0.047c-2.607-0.446-4.178-2.086-4.092-4.791c0.088-2.686,1.672-4.28,4.354-4.529
		c1.674-0.156,3.377-0.128,5.059-0.022c1.402,0.086,1.813-0.43,1.771-1.794c-0.092-2.845,0.035-5.697-0.049-8.544
		c-0.063-2.181,0.938-4.941-0.445-6.354c-1.012-1.032-3.771-0.352-5.752-0.434c-0.104-0.003-0.211,0.003-0.315-0.007
		c-2.771-0.238-4.609-2.067-4.658-4.627c-0.053-2.657,1.879-4.625,4.805-4.799c1.367-0.081,2.752-0.119,4.111,0.009
		c1.732,0.163,2.43-0.357,2.316-2.221c-0.158-2.628-0.021-5.271-0.046-7.909c-0.024-2.204,0.666-4.933-0.377-6.467
		c-1.028-1.52-3.926-0.349-5.995-0.524c-2.857-0.243-4.666-1.88-4.8-4.463c-0.137-2.665,1.72-4.712,4.636-4.97
		c1.36-0.117,2.754-0.158,4.108-0.012c1.899,0.207,2.575-0.354,2.485-2.389c-0.18-4.001-0.053-8.018-0.053-12.024
		C346.719,206.466,346.719,199.439,346.719,192.479z M75.64,231.582c0,18.033-0.019,36.066,0.019,54.101
		c0.006,2.718-1.166,6.288,0.459,7.934c1.775,1.795,5.406,0.267,8.189,0.632c2.961,0.389,3.856-0.501,3.846-3.668
		c-0.129-37.331-0.069-74.664-0.108-111.997c-0.003-2.912,1.307-6.891-0.575-8.449c-1.777-1.473-5.639-0.242-8.535-0.604
		c-3.025-0.376-3.363,0.928-3.35,3.522C75.686,192.562,75.64,212.071,75.64,231.582z M66.205,231.898
		c0-19.835-0.031-39.67,0.045-59.506c0.008-2.107-0.375-3.078-2.712-2.845c-2.089,0.21-4.248,0.275-6.319-0.011
		c-2.958-0.407-3.357,0.843-3.352,3.472c0.086,37.352,0.055,74.7,0.068,112.05c0,2.938-0.994,6.888,0.498,8.543
		c1.734,1.923,5.77,0.271,8.768,0.646c2.637,0.33,3.063-0.799,3.052-3.159C66.166,271.359,66.205,251.63,66.205,231.898z
		 M70.862,160.082c5.056,0,10.111-0.063,15.165,0.037c1.661,0.032,2.142-0.463,2.118-2.128c-0.09-6.949,0.013-13.901-0.059-20.853
		c-0.038-3.785-1.889-5.727-5.595-5.769c-7.688-0.084-15.378-0.083-23.063,0.006c-3.615,0.042-5.447,1.925-5.48,5.49
		c-0.063,7.057,0.035,14.113-0.061,21.168c-0.023,1.689,0.504,2.114,2.126,2.084C60.961,160.021,65.913,160.082,70.862,160.082z
		 M56.471,303.863c4.808,10.735,9.501,21.215,14.449,32.265c4.926-11.012,9.617-21.501,14.434-32.265
		C75.6,303.863,66.268,303.863,56.471,303.863z M169.657,73.529c0-3.367,0.049-6.734-0.014-10.102
		c-0.063-3.429-1.748-5.345-4.508-5.287c-2.842,0.058-4.561,1.938-4.586,5.263c-0.054,6.733-0.059,13.47,0.002,20.203
		c0.03,3.302,1.602,5.021,4.348,5.062c2.959,0.041,4.662-1.695,4.739-5.036C169.717,80.267,169.656,76.897,169.657,73.529z
		 M114.184,73.545c0,3.474-0.059,6.945,0.018,10.416c0.066,3.021,1.674,4.681,4.352,4.706c2.878,0.029,4.588-1.628,4.616-4.757
		c0.062-6.943,0.06-13.889,0.003-20.832c-0.025-3.185-1.766-5.01-4.455-4.933c-2.717,0.079-4.47,1.948-4.521,4.983
		C114.137,66.601,114.182,70.074,114.184,73.545z M207.068,73.518c0,3.578-0.036,7.155,0.013,10.731
		c0.039,2.76,1.485,4.316,4.271,4.414c2.75,0.096,4.645-1.583,4.682-4.412c0.096-7.151,0.086-14.309,0.01-21.461
		c-0.031-2.87-1.932-4.69-4.48-4.645c-2.664,0.051-4.399,1.757-4.473,4.641C207,66.362,207.066,69.941,207.068,73.518z
		 M253.422,73.443c0,3.47-0.039,6.94,0.012,10.411c0.049,3.214,1.654,4.894,4.494,4.849c2.697-0.041,4.35-1.689,4.379-4.688
		c0.064-7.047,0.062-14.095-0.002-21.142c-0.024-2.911-1.777-4.693-4.367-4.735c-2.746-0.046-4.453,1.753-4.502,4.893
		C253.381,66.5,253.422,69.971,253.422,73.443z"/>
	<path fill="#313B49" d="M122.698,244.93c0.008-1.964,1.315-3.287,2.361-4.72c5.741-7.861,5.713-7.838,1.75-16.402
		c-0.571-1.233-1.525-1.356-2.504-1.563c-2.783-0.58-5.592-1.041-8.381-1.596c-3.004-0.599-4.533-2.317-4.432-5.526
		c0.282-8.86,0.473-17.722,0.67-26.585c0.067-2.998,1.524-4.701,4.492-5.123c0.521-0.074,1.044-0.291,1.556-0.262
		c7.142,0.43,11.089-3.146,12.917-9.834c0.406-1.488,0.492-2.424-0.41-3.658c-1.613-2.208-3.07-4.535-4.545-6.843
		c-1.939-3.037-1.811-4.88,0.691-7.296c6.301-6.083,12.666-12.103,18.99-18.161c2.148-2.06,4.408-2.253,6.837-0.546
		c0.517,0.361,1.026,0.737,1.536,1.11c7.668,5.604,7.652,5.566,16.379,1.797c1.353-0.584,1.521-1.594,1.748-2.721
		c0.561-2.786,1.145-5.569,1.659-8.365c0.545-2.962,2.374-4.43,5.286-4.396c8.862,0.102,17.725,0.255,26.587,0.473
		c3.059,0.075,4.877,1.719,5.2,4.852c0.043,0.42,0.192,0.841,0.168,1.253c-0.44,7.123,3.136,11.08,9.793,12.902
		c1.334,0.365,2.252,0.611,3.431-0.226c2.487-1.769,5.057-3.43,7.606-5.11c2.377-1.563,4.584-1.295,6.539,0.746
		c6.203,6.479,12.408,12.955,18.576,19.467c1.938,2.051,1.975,4.308,0.381,6.607c-0.299,0.433-0.554,0.927-0.938,1.268
		c-5.553,4.924-5.695,10.438-2.084,16.568c0.613,1.041,1.09,1.563,2.244,1.767c3.006,0.533,5.988,1.199,8.977,1.827
		c2.755,0.578,4.234,2.255,4.173,5.104c-0.197,9.073-0.406,18.146-0.673,27.217c-0.071,2.523-1.457,4.137-3.969,4.599
		c-3.213,0.593-6.438,1.104-9.662,1.639c-0.709,0.117-1.512-0.021-1.893,0.838c-1.316,2.976-2.65,5.947-3.951,8.932
		c-0.424,0.974,0.412,1.566,0.838,2.237c1.584,2.489,3.201,4.956,4.849,7.402c1.68,2.495,1.396,4.769-0.734,6.811
		c-6.397,6.134-12.813,12.25-19.231,18.362c-2.131,2.027-4.412,2.292-6.828,0.479c-0.506-0.38-1.014-0.758-1.527-1.127
		c-7.602-5.484-7.588-5.453-16.313-1.73c-1.16,0.494-1.537,1.152-1.738,2.293c-0.512,2.9-1.225,5.77-1.744,8.671
		c-0.555,3.104-2.367,4.582-5.469,4.514c-8.862-0.19-17.723-0.388-26.584-0.606c-2.662-0.064-4.33-1.399-4.873-4.054
		c-0.127-0.618-0.393-1.252-0.346-1.859c0.547-7.156-2.953-11.151-9.67-13c-1.475-0.405-2.412-0.538-3.663,0.391
		c-2.279,1.695-4.718,3.177-7.073,4.768c-2.551,1.721-4.903,1.617-7.078-0.663c-6.043-6.339-12.086-12.679-18.149-18.997
		C123.398,247.732,122.719,246.487,122.698,244.93z M247.434,162.876c0.029-0.921-0.67-1.332-1.156-1.852
		c-1.799-1.931-3.618-3.84-5.45-5.738c-2.121-2.199-3.992-5.7-6.474-6.21c-2.696-0.556-5.272,2.82-7.869,4.524
		c-2.284,1.5-4.393,1.661-6.764,0.224c-3.701-2.245-7.658-3.974-11.818-5.184c-2.659-0.774-4.006-2.534-4.36-5.2
		c-0.305-2.299-0.707-4.588-0.953-6.893c-0.184-1.741-0.803-2.495-2.766-2.445c-4.744,0.113-9.508,0.11-14.24-0.202
		c-2.637-0.175-3.477,0.816-3.726,3.214c-0.226,2.192-0.815,4.345-1.258,6.513c-0.442,2.157-1.698,3.616-3.841,4.172
		c-4.605,1.193-9.013,2.875-13.196,5.146c-2.093,1.135-4.035,0.809-5.894-0.604c-2.1-1.595-4.27-3.098-6.346-4.722
		c-0.961-0.754-1.617-0.946-2.621,0.046c-3.902,3.857-7.867,7.652-11.889,11.382c-0.997,0.925-0.973,1.589-0.256,2.611
		c1.512,2.153,2.895,4.397,4.387,6.566c1.406,2.041,1.461,4.044,0.244,6.212c-1.182,2.105-2.731,4.196-3.193,6.48
		c-1.562,7.739-6.125,11.231-13.887,10.962c-1.965-0.067-2.992,0.852-2.865,3.075c0.145,2.521-0.091,5.063-0.143,7.593
		c-0.063,3.043-1.232,6.821,0.145,8.934c1.542,2.364,5.782,1.636,8.82,2.364c2.388,0.57,4.004,1.721,4.629,4.151
		c1.155,4.502,2.836,8.808,4.953,12.941c1.063,2.073,0.92,4.022-0.517,5.907c-1.598,2.095-3.044,4.312-4.709,6.347
		c-0.935,1.146-0.868,1.864,0.146,2.896c3.695,3.764,7.365,7.558,10.918,11.456c1.117,1.227,1.884,1.177,3.103,0.259
		c1.849-1.391,3.894-2.524,5.737-3.924c2.524-1.919,4.938-1.881,7.583-0.221c1.772,1.114,3.646,2.43,5.631,2.785
		c8.205,1.471,11.237,6.695,11.13,14.432c-0.022,1.651,0.691,2.12,2.285,2.13c4.959,0.03,9.925,0.085,14.871,0.397
		c2.324,0.146,3.188-0.562,3.357-2.857c0.152-2.084,0.807-4.128,1.18-6.2c0.496-2.771,1.944-4.511,4.805-5.162
		c2.143-0.488,4.484-0.916,6.25-2.097c6.783-4.54,12.68-3.64,18.09,2.219c1.146,1.241,2.146,1.143,3.396-0.115
		c3.645-3.666,7.387-7.24,11.18-10.752c1.135-1.054,1.391-1.825,0.416-3.145c-1.564-2.113-2.916-4.386-4.398-6.563
		c-1.33-1.949-1.41-3.854-0.156-5.898c1.929-3.148,3.793-6.406,4.636-9.987c1.045-4.445,3.442-6.81,8.051-6.855
		c0.838-0.011,1.679-0.188,2.511-0.313c4.629-0.682,4.625-0.686,4.707-5.486c0.03-1.795,0.075-3.589,0.112-5.381
		c0.063-3.054,1.269-6.858-0.117-8.96c-1.522-2.316-5.745-1.753-8.801-2.407c-2.487-0.532-4.082-1.828-4.739-4.436
		c-1.109-4.396-2.763-8.609-4.898-12.622c-1.098-2.055-0.986-4.007,0.467-5.896c1.541-2.005,3.008-4.067,4.502-6.106
		C246.743,163.874,247.098,163.353,247.434,162.876z"/>
	<path fill="#313B49" d="M289.246,317.307c-8.332,0-16.662-0.028-24.994,0.018c-2.535,0.014-4.996-0.123-6.111-2.854
		c-1.08-2.649,0.306-4.551,2.152-6.392c17.176-17.128,34.313-34.294,51.434-51.475c1.801-1.806,3.629-3.355,6.359-2.204
		c2.668,1.125,3.066,3.443,3.061,6.021c-0.026,16.873-0.004,33.747-0.02,50.621c-0.006,4.689-1.557,6.241-6.256,6.255
		C306.33,317.324,297.788,317.307,289.246,317.307z M274.413,307.946c12.013,0,23.78-0.026,35.549,0.021
		c2.121,0.01,1.675-1.393,1.677-2.579c0.012-10.75,0.018-21.5-0.019-32.25c-0.002-0.752,0.422-1.649-0.263-2.209
		C299.125,283.184,286.941,295.393,274.413,307.946z"/>
	<path fill="#313B49" d="M227.83,203.708c-0.252,20.755-16.807,37.164-37.346,37.013c-20.756-0.153-37.238-16.963-36.971-37.707
		c0.261-20.366,17.315-36.864,37.842-36.605C211.436,166.662,228.073,183.674,227.83,203.708z M189.981,231.254
		c15.119,0.62,27.9-11.537,28.424-27.038c0.495-14.695-11.57-27.714-26.239-28.304c-15.452-0.623-28.49,11.115-29.189,26.281
		C162.255,217.826,174.129,230.604,189.981,231.254z"/>
</g>
</svg>
