<?xml version="1.0" encoding="utf-8"?>
<!-- Generator: Adobe Illustrator 16.0.0, SVG Export Plug-In . SVG Version: 6.00 Build 0)  -->
<!DOCTYPE svg PUBLIC "-//W3C//DTD SVG 1.1//EN" "http://www.w3.org/Graphics/SVG/1.1/DTD/svg11.dtd">
<svg version="1.1" id="Layer_1" xmlns="http://www.w3.org/2000/svg" xmlns:xlink="http://www.w3.org/1999/xlink" x="0px" y="0px"
	 width="400px" height="400px" viewBox="0 0 400 400" enable-background="new 0 0 400 400" xml:space="preserve">
<g>
	<path fill="#B2012D" d="M200.113,42.525c45.577,0,91.153-0.013,136.729,0.01c11.202,0.005,19.596,6.507,21.831,16.908
		c0.391,1.811,0.421,3.723,0.421,5.588c0.02,86.409,0.03,172.818,0.005,259.228c-0.006,20.048-13.18,34.862-32.734,37.011
		c-19.467,2.142-38.153-13.924-38.802-33.502c-0.229-6.944-0.164-13.902-0.041-20.854c0.039-2.199-0.355-3.008-2.808-2.984
		c-14.454,0.127-28.911,0.1-43.368,0.021c-2.043-0.013-2.857,0.345-2.81,2.651c0.159,7.61,0.142,15.229,0.007,22.842
		c-0.038,2.105,0.626,2.774,2.611,2.515c0.867-0.114,1.767,0.031,2.646-0.026c15.322-1.029,23.333,11.732,23.755,23.646
		c0.127,3.581-1.729,5.563-5.273,5.859c-0.877,0.072-1.766,0.024-2.647,0.024c-39.727,0-79.456,0.001-119.184-0.001
		c-6.757,0-8.568-2.083-7.544-8.646c2.171-13.912,10.271-20.877,24.282-20.877c4.435,0,4.435,0,4.435-4.586
		c0.001-6.731-0.135-13.469,0.068-20.193c0.078-2.633-0.688-3.232-3.254-3.225c-31.673,0.09-63.345,0.074-95.018,0.049
		c-11.242-0.008-19.627-6.467-21.869-16.854c-0.392-1.81-0.423-3.72-0.423-5.587c-0.021-72.173-0.024-144.345-0.011-216.518
		c0.002-13.702,8.833-22.487,22.595-22.492C109.18,42.516,154.646,42.525,200.113,42.525z M349.228,260.047c0-1.275,0-1.811,0-2.348
		c0-64.336,0.009-128.672-0.01-193.01c-0.003-7.97-4.475-12.22-12.71-12.22c-90.932-0.004-181.863-0.004-272.797,0
		c-8.409,0.001-12.713,4.365-12.715,12.905c-0.006,63.344,0.024,126.688-0.086,190.031c-0.005,3.092,0.944,3.516,3.693,3.511
		c55.398-0.079,110.796-0.061,166.194-0.061c25.051,0,50.102,0.002,75.152-0.002c1.519,0,2.957,0.121,4.314-1.08
		c4.627-4.104,10.101-6.653,16.143-7.854c1.625-0.32,2.148-0.836,2.146-2.502c-0.054-23.836,0.006-47.672-0.068-71.509
		c-0.021-6.214-4.193-10.363-10.369-10.549c-4.41-0.131-8.831,0.063-13.24-0.07c-1.827-0.057-2.203,0.649-2.179,2.277
		c0.039,2.534-0.094,5.075-0.237,7.607c-0.163,2.904-1.604,4.696-4.606,5.116c-2.729,0.383-5.431,1.072-8.166,1.25
		c-3.643,0.236-6.082,1.421-6.928,5.386c-0.469,2.199-1.768,4.262-2.908,6.261c-0.771,1.347-0.65,2.316,0.209,3.543
		c2.086,2.976,4.074,6.021,6.03,9.084c2.017,3.16,1.853,5.094-0.782,7.641c-7.461,7.208-14.982,14.352-22.469,21.531
		c-2.343,2.25-4.795,2.461-7.419,0.529c-3.019-2.223-6.052-4.425-9.056-6.67c-0.916-0.684-1.629-1.082-2.934-0.508
		c-3.707,1.637-8.666,2.021-11,4.734c-2.34,2.721-2.111,7.652-3.002,11.617c-0.072,0.321-0.076,0.656-0.141,0.98
		c-0.618,3.159-2.465,4.782-5.762,4.706c-10.479-0.239-20.958-0.442-31.438-0.668c-2.936-0.063-4.766-1.47-5.275-4.423
		c-0.225-1.303-0.587-2.611-0.58-3.917c0.033-6.668-2.233-11.546-9.462-12.886c-0.936-0.176-1.854-0.733-2.658-1.293
		c-1.398-0.972-2.526-0.744-3.865,0.22c-3.041,2.187-6.184,4.226-9.303,6.302c-2.583,1.719-4.962,1.453-7.115-0.809
		c-7.158-7.504-14.346-14.983-21.473-22.521c-2.586-2.735-2.618-4.764-0.336-7.916c2.003-2.767,3.971-5.567,6.111-8.226
		c1.111-1.38,1.293-2.501,0.521-4.155c-1.299-2.78-2.396-5.677-3.309-8.607c-0.501-1.61-1.298-2.326-2.919-2.595
		c-3.583-0.591-7.139-1.357-10.711-2.029c-3.034-0.571-4.742-2.375-4.674-5.464c0.242-10.811,0.562-21.621,0.904-32.428
		c0.08-2.522,1.49-4.074,3.98-4.558c1.297-0.252,2.604-0.554,3.915-0.606c6.542-0.266,11.989-1.923,13.181-9.579
		c0.144-0.932,0.757-1.842,1.321-2.642c1.055-1.499,0.777-2.677-0.274-4.121c-2.14-2.935-4.064-6.026-6.04-9.077
		c-1.667-2.577-1.463-4.974,0.8-7.138c7.577-7.244,15.157-14.486,22.716-21.749c2.375-2.281,4.801-2.378,7.407-0.424
		c2.383,1.785,4.943,3.358,7.159,5.323c2.244,1.988,4.222,2.501,6.97,0.877c2.146-1.266,4.646-2.005,7.068-2.696
		c1.736-0.497,2.48-1.405,2.76-3.144c0.576-3.587,1.328-7.146,2.041-10.708c0.564-2.823,2.147-4.585,5.189-4.536
		c10.813,0.177,21.623,0.372,32.434,0.61c2.66,0.059,4.328,1.483,4.793,4.13c0.479,2.714,1.072,5.429,1.242,8.165
		c0.238,3.847,1.379,6.601,5.668,7.432c1.994,0.387,3.899,1.52,5.69,2.574c1.517,0.896,2.625,0.965,4.112-0.15
		c2.818-2.11,5.807-3.998,8.766-5.915c3.292-2.133,5.186-1.953,7.871,0.839c7.114,7.396,14.202,14.817,21.264,22.266
		c2.486,2.622,2.588,4.665,0.451,7.655c-2.115,2.958-4.268,5.893-6.511,8.758c-0.931,1.188-1.044,2.135-0.405,3.562
		c1.607,3.592,2.01,8.472,4.678,10.637c2.816,2.285,7.697,2.027,11.68,2.881c0.105,0.024,0.217,0.04,0.324,0.063
		c3.931,0.87,5.146,2.381,5.061,6.427c-0.061,2.758-0.016,5.536-0.35,8.266c-0.323,2.639,0.726,3.161,3.109,3.047
		c3.854-0.186,7.727-0.131,11.585-0.026c12.469,0.342,20.521,8.515,20.697,20.987c0.067,4.745,0.012,9.49,0.014,14.236
		c0,18.649-0.014,37.301,0.027,55.948c0.002,1.234-0.747,2.824,1.628,3.234C337.197,251.055,343.389,254.475,349.228,260.047z
		 M198.085,239.84c0,0.171,0,0.342,0,0.514c3.196,0,6.401-0.138,9.588,0.049c1.937,0.113,2.74-0.479,3.039-2.399
		c0.491-3.151,1.326-6.246,1.861-9.392c0.44-2.576,1.774-4.146,4.313-4.813c5.338-1.399,10.461-3.385,15.342-5.964
		c2.299-1.216,4.392-1.05,6.461,0.521c2.635,1.996,5.396,3.832,7.959,5.912c1.352,1.098,2.137,0.855,3.283-0.264
		c4.813-4.702,9.682-9.352,14.617-13.92c1.249-1.157,1.27-1.98,0.307-3.313c-1.933-2.677-3.688-5.479-5.51-8.235
		c-1.402-2.124-1.562-4.296-0.223-6.516c2.859-4.732,5.059-9.757,6.641-15.053c0.707-2.371,2.354-3.637,4.754-3.999
		c3.159-0.479,6.308-1.067,9.481-1.39c2.041-0.207,2.784-0.967,2.778-3.103c-0.01-6.507,0.146-13.018,0.395-19.521
		c0.072-1.888-0.605-2.437-2.359-2.692c-2.936-0.427-5.804-1.322-8.739-1.734c-3.022-0.424-4.757-1.987-5.486-4.884
		c-1.292-5.144-3.196-10.065-5.72-14.721c-1.403-2.591-1.034-4.785,0.693-7.017c1.955-2.526,3.752-5.174,5.713-7.697
		c0.854-1.096,1.164-1.815-0.015-3.011c-4.796-4.872-9.491-9.846-14.166-14.838c-1.028-1.102-1.794-1.2-3.042-0.286
		c-2.662,1.948-5.482,3.685-8.191,5.571c-2.238,1.558-4.479,1.637-6.793,0.25c-4.553-2.73-9.379-4.855-14.453-6.375
		c-2.768-0.826-4.225-2.554-4.584-5.386c-0.387-3.06-1.016-6.094-1.295-9.162c-0.166-1.804-0.811-2.467-2.637-2.476
		c-6.729-0.031-13.456-0.153-20.182-0.336c-1.529-0.041-2.134,0.482-2.39,1.97c-0.559,3.253-1.369,6.464-1.93,9.717
		c-0.471,2.727-1.995,4.254-4.624,4.953c-5.223,1.389-10.26,3.276-15.022,5.858c-2.267,1.229-4.389,1.059-6.464-0.521
		c-2.631-2-5.384-3.841-7.971-5.894c-1.323-1.049-2.144-0.901-3.315,0.252c-4.799,4.717-9.648,9.385-14.596,13.943
		c-1.325,1.219-1.135,2.053-0.244,3.32c1.774,2.52,3.353,5.177,5.136,7.69c1.73,2.443,1.824,4.76,0.242,7.346
		c-2.706,4.425-4.809,9.155-6.226,14.151c-0.834,2.938-2.721,4.354-5.643,4.742c-3.057,0.407-6.087,1.06-9.152,1.34
		c-1.85,0.169-2.366,0.871-2.385,2.666c-0.069,6.507-0.216,13.017-0.529,19.516c-0.095,1.976,0.516,2.736,2.401,3.031
		c3.151,0.494,6.257,1.279,9.406,1.794c2.591,0.424,4.117,1.783,4.778,4.327c1.385,5.34,3.333,10.479,5.883,15.374
		c1.2,2.303,0.986,4.406-0.58,6.467c-1.935,2.541-3.726,5.194-5.718,7.688c-1.056,1.324-1.275,2.194,0.076,3.557
		c4.743,4.771,9.378,9.65,13.958,14.58c1.058,1.141,1.787,1.213,3.011,0.33c2.68-1.932,5.504-3.66,8.187-5.588
		c2.35-1.688,4.6-1.73,7.05-0.23c4.523,2.768,9.354,4.909,14.439,6.393c2.842,0.826,4.127,2.672,4.501,5.442
		c0.409,3.058,1.04,6.093,1.288,9.16c0.154,1.896,0.901,2.396,2.677,2.335C191.465,239.759,194.775,239.84,198.085,239.84z
		 M171.222,268.702c-23.715,0-47.429,0-71.145,0c-15.442,0-30.885,0.039-46.326-0.045c-2.093-0.013-2.886,0.433-2.767,2.679
		c0.198,3.74,0.016,7.499,0.066,11.247c0.092,6.786,4.67,11.474,11.417,11.476c74.121,0.025,148.245,0.004,222.369,0.066
		c2.219,0.003,2.744-0.643,2.678-2.753c-0.212-6.616-0.433-13.31,2.525-19.472c1.449-3.021,0.439-3.256-2.339-3.25
		C248.875,268.727,210.048,268.702,171.222,268.702z M323.448,303.992c-7.827,0-15.657,0.049-23.483-0.036
		c-1.842-0.021-2.729,0.171-2.667,2.42c0.185,6.722-0.04,13.452,0.125,20.175c0.341,13.896,12.101,25.146,26.018,25.047
		c13.844-0.096,25.352-11.242,25.682-25.025c0.158-6.611-0.078-13.233,0.127-19.844c0.075-2.467-0.796-2.826-2.979-2.787
		C338.664,304.073,331.056,303.992,323.448,303.992z M199.984,331.938c8.606,0,17.215-0.074,25.821,0.053
		c2.213,0.033,3.028-0.385,2.973-2.818c-0.174-7.498-0.146-15.007-0.012-22.508c0.039-2.153-0.533-2.734-2.709-2.723
		c-17.322,0.092-34.647,0.103-51.973-0.008c-2.324-0.017-2.649,0.793-2.619,2.809c0.104,7.502,0.12,15.007-0.01,22.509
		c-0.036,2.138,0.513,2.774,2.707,2.742C182.769,331.857,191.376,331.938,199.984,331.938z M143.555,351.492
		c37.705,0,75.395,0,113.107,0c-1.365-6.328-5.314-9.604-11.574-9.607c-30.125-0.01-60.25-0.01-90.374,0.004
		C148.74,341.891,144.792,345.299,143.555,351.492z M328.218,276.744c0,5.066,0.038,10.135-0.023,15.205
		c-0.019,1.476,0.288,2.167,1.984,2.139c5.729-0.098,11.46-0.083,17.188-0.007c1.478,0.021,1.888-0.485,1.841-1.894
		c-0.11-3.302,0.078-6.621-0.155-9.912c-0.723-10.256-8.957-19.896-18.77-22.354c-1.716-0.43-2.114-0.049-2.091,1.616
		C328.262,266.604,328.218,271.674,328.218,276.744z M318.393,276.714c0-4.962-0.074-9.926,0.036-14.887
		c0.048-2.083-0.528-2.399-2.468-1.771c-8.417,2.738-14.146,8.183-17.229,16.478c-1.945,5.235-1.186,10.672-1.389,16.041
		c-0.072,1.87,1.192,1.466,2.221,1.469c5.515,0.017,11.029-0.083,16.543,0.056c2.012,0.049,2.354-0.734,2.319-2.496
		C318.33,286.643,318.393,281.678,318.393,276.714z"/>
	<path fill="#B2012D" d="M97.471,93.464c-8.049,0-16.098,0.018-24.146-0.009c-3.715-0.012-5.807-1.75-5.88-4.771
		c-0.075-3.13,2.128-5.085,5.949-5.092c16.209-0.025,32.417-0.024,48.624-0.002c3.881,0.005,6.056,1.866,6.04,5
		c-0.019,3.146-2.128,4.857-6.11,4.867C113.789,93.476,105.63,93.464,97.471,93.464z"/>
	<path fill="#B2012D" d="M79.914,116.954c-2.537,0-5.084,0.133-7.611-0.034c-3.151-0.209-4.983-2.274-4.857-5.139
		c0.123-2.756,1.933-4.523,5.023-4.578c5.075-0.092,10.153-0.086,15.228-0.008c3.236,0.049,5.145,1.898,5.188,4.76
		c0.042,2.847-1.81,4.797-5.026,4.98c-2.641,0.151-5.295,0.031-7.943,0.031C79.914,116.964,79.914,116.958,79.914,116.954z"/>
	<path fill="#B2012D" d="M108.08,107.175c0.658-0.003,1.315-0.016,1.973-0.002c3.553,0.079,5.79,1.968,5.775,4.871
		c-0.014,2.879-2.248,4.813-5.798,4.936c-1.53,0.053-3.077,0.089-4.595-0.066c-3.094-0.317-4.878-2.368-4.705-5.217
		c0.164-2.688,2.017-4.354,5.051-4.514C106.545,107.142,107.314,107.177,108.08,107.175z"/>
	<path fill="#B2012D" d="M152.08,157.441c-0.498-25.471,20.874-47.662,46.382-48.167c27.216-0.536,49.054,20.177,49.749,47.187
		c0.671,25.992-20.818,48.451-46.757,48.863C174.156,205.756,152.616,184.867,152.08,157.441z M178.852,188.202
		c0.604-1.012,0.294-2.125,0.302-3.176c0.054-7.613,0.092-15.228,0.069-22.841c-0.007-2.271,0.496-4.293,1.686-6.267
		c4.773-7.92,9.428-15.911,14.159-23.855c3.136-5.262,7.167-5.266,10.247-0.012c4.677,7.979,9.283,15.997,13.984,23.957
		c1.221,2.064,1.803,4.187,1.775,6.582c-0.082,7.614-0.09,15.228-0.064,22.842c0.004,1.003-0.49,2.179,0.529,3.035
		c13.751-8.512,20.121-26.874,14.952-42.979c-5.454-16.997-21.261-27.438-39.812-26.295c-16.542,1.018-31.146,14.468-34.136,31.438
		C159.942,165.39,167.625,183.131,178.852,188.202z M211.066,179.495c0.022,0,0.045,0,0.067,0c0-4.081-0.055-8.162,0.026-12.24
		c0.031-1.576-0.514-2.119-2.094-2.103c-5.953,0.066-11.908,0.082-17.861-0.008c-1.773-0.026-2.239,0.613-2.229,2.304
		c0.058,8.048,0.066,16.1-0.057,24.146c-0.027,1.836,0.674,2.443,2.318,2.813c5.801,1.308,11.552,1.255,17.373,0.055
		c2.132-0.439,2.55-1.472,2.49-3.393C210.982,187.216,211.066,183.353,211.066,179.495z M200.221,142.969
		c-2.548,4.308-4.816,8.146-7.206,12.184c5.08,0,9.5,0,14.273,0C204.91,151.053,202.725,147.282,200.221,142.969z"/>
	<path fill="#B2012D" d="M199.852,286.193c-1.545,0-3.098,0.099-4.633-0.021c-2.673-0.21-4.258-1.727-4.485-4.402
		c-0.227-2.672,1.034-4.67,3.661-5.104c3.804-0.63,7.71-0.684,11.507,0.04c2.63,0.503,3.809,2.538,3.527,5.198
		c-0.267,2.508-1.781,4.011-4.285,4.244c-1.75,0.164-3.526,0.031-5.292,0.031C199.852,286.186,199.852,286.188,199.852,286.193z"/>
</g>
</svg>
