<?xml version="1.0" encoding="utf-8"?>
<!-- Generator: Adobe Illustrator 16.0.0, SVG Export Plug-In . SVG Version: 6.00 Build 0)  -->
<!DOCTYPE svg PUBLIC "-//W3C//DTD SVG 1.1//EN" "http://www.w3.org/Graphics/SVG/1.1/DTD/svg11.dtd">
<svg version="1.1" id="Layer_1" xmlns="http://www.w3.org/2000/svg" xmlns:xlink="http://www.w3.org/1999/xlink" x="0px" y="0px"
	 width="400px" height="400px" viewBox="0 0 400 400" enable-background="new 0 0 400 400" xml:space="preserve">
<g>
	<path fill-rule="evenodd" clip-rule="evenodd" fill="#B26C00" d="M212.374,367.779c-45.736,0-91.472,0.027-137.207-0.012
		c-18.472-0.018-33.185-11.461-37.553-29.035c-0.787-3.166-1.069-6.387-1.068-9.65c0.014-56.721-0.018-113.443,0.023-170.164
		c0.016-22.475,17.246-39.358,39.258-38.634c19.194,0.632,35.291,16.585,35.986,35.786c0.19,5.262,0.143,10.537,0.037,15.803
		c-0.035,1.792,0.514,2.262,2.251,2.215c4.368-0.118,8.743-0.075,13.114-0.027c3.874,0.042,6.29,2.25,6.183,5.535
		c-0.103,3.142-2.448,5.162-6.183,5.206c-4.035,0.047-8.08,0.18-12.104-0.05c-2.605-0.149-3.291,0.59-3.283,3.246
		c0.102,32.06,0.066,64.118,0.066,96.181c0,14.795-0.016,29.592,0.017,44.389c0.005,2.086-0.14,4.078-1.846,5.518
		c-1.659,1.398-3.534,1.861-5.62,0.93c-2.471-1.105-3.231-3.113-3.354-5.682c-0.578-12.104-7.992-21.783-19.411-24.998
		c-10.696-3.01-20.093-0.291-27.447,7.914c-7.472,8.334-9.073,18.189-4.654,28.461c4.359,10.133,12.513,15.451,23.536,16.271
		c1.114,0.082,2.24,0.031,3.361,0.031c89.453,0.002,178.908-0.02,268.361,0.088c3.303,0.006,3.92-0.832,3.913-3.994
		c-0.109-56.945-0.079-113.893-0.077-170.837c0-1.121-0.107-2.261,0.058-3.359c0.438-2.92,2.189-4.617,5.148-4.822
		c2.784-0.191,5.141,1.911,5.501,4.813c0.124,0.995,0.054,2.016,0.054,3.024c0.002,59.301,0.002,118.6,0.001,177.898
		c0,6.461-1.471,7.955-7.838,7.955C305.19,367.779,258.782,367.779,212.374,367.779z M101.132,303.529c0-1.01,0-1.432,0-1.854
		c-0.001-47.863-0.005-95.729,0.002-143.593c0-2.598-0.375-5.129-1.102-7.616c-3.723-12.733-16.303-21.094-29.044-19.305
		c-13.561,1.905-23.594,12.84-23.622,26.339c-0.1,48.088-0.045,96.176-0.039,144.264c0,0.508-0.224,1.148,0.544,1.369
		C62.231,289.447,84.568,288.275,101.132,303.529z"/>
	<path fill-rule="evenodd" clip-rule="evenodd" fill="#B26C00" d="M284.1,153.904c0-27.353-0.073-54.707,0.028-82.059
		c0.059-15.492,12.509-27.368,27.899-26.921c13.784,0.401,25.558,11.787,25.779,25.609c0.291,18.156,0.114,36.32,0.086,54.48
		c-0.006,3.652-2.25,6-5.415,5.968c-3.167-0.033-5.27-2.369-5.315-6.067c-0.056-4.372-0.116-8.748,0.033-13.114
		c0.067-1.963-0.601-2.353-2.441-2.372c-8.367-0.087-8.367-0.148-8.367,8.169c0,37.442,0.038,74.885-0.076,112.327
		c-0.009,2.879,0.77,3.465,3.491,3.391c7.344-0.195,7.347-0.061,7.347-7.527c0-25.336,0-50.672,0.001-76.007
		c0-1.008-0.063-2.026,0.042-3.024c0.31-2.934,2.565-4.992,5.364-4.975c2.802,0.016,5.009,2.078,5.315,5.034
		c0.093,0.888,0.039,1.792,0.039,2.689c0.001,28.922-0.011,57.846,0.024,86.768c0.003,2.283-0.396,4.389-1.254,6.514
		c-6.771,16.781-13.46,33.596-20.2,50.391c-1.692,4.217-4.806,5.703-8.028,3.977c-1.492-0.799-2.222-2.131-2.815-3.615
		c-6.928-17.326-13.854-34.652-20.812-51.965c-0.693-1.721-0.734-3.475-0.733-5.273C284.1,208.834,284.097,181.369,284.1,153.904z
		 M305.622,171.699c0-18.271,0-36.542,0-54.814c0-7.42-0.004-7.272-7.394-7.486c-2.808-0.081-3.446,0.654-3.438,3.445
		c0.106,37.552,0.07,75.104,0.07,112.656c0,7.781,0.003,7.66,7.73,7.814c2.523,0.051,3.112-0.592,3.098-3.104
		C305.569,210.709,305.622,191.204,305.622,171.699z M310.814,77.186c3.586,0,7.173,0,10.759,0c5.775,0,5.868-0.005,5.536-5.863
		c-0.392-6.892-3.766-11.887-10.215-14.463c-6.333-2.53-12.095-1.209-17.071,3.379c-4.316,3.981-5.215,9.149-5.015,14.739
		c0.061,1.706,0.412,2.305,2.222,2.252C301.622,77.098,306.219,77.186,310.814,77.186z M310.668,98.711c2.801,0,5.603,0,8.404,0
		c8.289,0,8.223,0.001,8.128-8.406c-0.023-1.895-0.514-2.43-2.412-2.4c-7.17,0.111-14.343,0.044-21.515,0.044
		c-8.842,0-8.79-0.002-8.459,8.743c0.061,1.604,0.455,2.091,2.07,2.055C301.478,98.644,306.073,98.711,310.668,98.711z
		 M324.505,244.113c-9.103,0-17.901,0-26.994,0c1.289,3.258,2.562,6.328,3.708,9.447c0.466,1.264,1.354,1.223,2.385,1.219
		c4.929-0.02,9.857-0.018,14.786-0.002c1.02,0.002,1.922,0.074,2.391-1.203C321.926,250.457,323.204,247.389,324.505,244.113z
		 M310.977,277.883c1.793-4.441,3.327-8.246,4.905-12.158c-3.376,0-6.425,0-9.745,0
		C307.714,269.686,309.187,273.387,310.977,277.883z"/>
	<path fill-rule="evenodd" clip-rule="evenodd" fill="#B26C00" d="M177.001,215.582c-13.634-5.766-21.148-15.426-21.992-29.884
		c-0.086-1.468-0.61-2.076-1.834-2.713c-5.744-2.991-8.905-7.782-8.938-14.28c-0.033-6.359,3.032-11.076,8.523-14.226
		c2.944-1.689,3.055-2.64,0.53-5.167c-10.226-10.24-14.982-22.667-14.371-37.045c1.49-35.082,40.509-56.937,71.266-39.999
		c3.938,2.169,5.212,5.07,3.561,8.101c-1.643,3.013-4.66,3.492-8.732,1.388c-26.212-13.538-56.186,5.085-55.4,34.539
		c0.275,10.321,4.418,19.125,12.078,26.073c2.555,2.319,4.572,4.586,4.023,8.273c-0.39,2.607,1.563,1.692,2.816,1.89
		c1.854,0.292,1.938-0.659,1.765-2.135c-1.478-12.682-2.845-25.376-4.364-38.052c-0.814-6.789,2.586-10.013,8.798-7.21
		c8.517,3.842,16.467,3.829,24.981,0.01c6.228-2.794,9.639,0.408,8.827,7.174c-1.517,12.676-2.888,25.371-4.363,38.053
		c-0.167,1.441-0.131,2.454,1.736,2.154c1.234-0.199,3.21,0.775,2.846-1.859c-0.483-3.495,1.2-5.79,3.751-8.045
		c12.61-11.149,15.961-29.757,8.275-44.794c-2.503-4.897-2.182-7.899,1.022-9.565c3.261-1.694,5.997-0.211,8.509,4.615
		c9.543,18.332,6.027,41.24-8.574,55.865c-3.295,3.299-3.239,3.775,0.713,6.171c10.735,6.513,10.379,21.811-0.725,27.853
		c-1.555,0.846-2.213,1.616-2.301,3.463c-0.732,15.406-11.618,27.585-26.946,30.347c-1.315,0.236-2.513,0.475-3.472,1.701
		c-9.285,11.859-21.8,18.127-36.314,21.109c-8.76,1.801-13.862,7.846-13.877,15.689c-0.017,8.473,6.638,15.484,15.117,15.793
		c3.693,0.135,7.397-0.008,11.096,0.053c3.693,0.061,6.021,2.164,6.041,5.34c0.021,3.166-2.327,5.436-5.98,5.383
		c-5.254-0.08-10.53,0.512-15.761-0.527c-11.717-2.324-20.694-12.463-21.284-24.098c-0.641-12.654,6.819-23.604,18.617-27.174
		c4.705-1.422,9.53-2.461,14.19-4.008C166.968,223.813,172.269,220.377,177.001,215.582z M187.473,184.817
		c-6.265,0-12.538,0.177-18.792-0.077c-3.029-0.123-3.204,1.012-2.74,3.456c2.032,10.68,10.789,18.166,21.384,18.132
		c10.572-0.035,19.329-7.623,21.215-18.321c0.384-2.177,0.362-3.414-2.609-3.276C199.789,185.015,193.626,184.817,187.473,184.817z
		 M186.983,174.047c8.727,0,17.453,0.023,26.181-0.011c3.938-0.016,6.336-2.107,6.333-5.375c-0.004-3.275-2.391-5.354-6.341-5.359
		c-17.231-0.024-34.462-0.021-51.691-0.002c-4.019,0.003-6.394,1.954-6.495,5.203c-0.107,3.379,2.363,5.523,6.504,5.537
		C169.977,174.066,178.479,174.047,186.983,174.047z M197.132,116.901c-6.402,3.494-12.223,3.952-18.166,0.876
		c-1.623-0.84-1.406,0.632-1.295,1.637c0.895,7.996,1.781,15.995,2.683,23.991c0.343,3.041-0.521,7.268,1.67,8.743
		c2.163,1.457,6.051,0.354,9.183,0.374c0.111,0,0.225-0.013,0.336,0.001c1.252,0.156,1.683-0.348,1.821-1.65
		C194.529,139.89,195.786,128.916,197.132,116.901z"/>
	<path fill-rule="evenodd" clip-rule="evenodd" fill="#B26C00" d="M272.84,263.668c0.041,2.6-1.002,4.111-2.732,5.174
		c-1.62,0.994-3.233,2.029-4.952,2.824c-2.084,0.961-2.668,2.355-2.705,4.666c-0.038,2.391,0.842,3.527,2.764,4.637
		c9.546,5.51,9.574,5.76,4.043,15.377c-2.453,4.264-4.878,8.545-7.392,12.773c-2.183,3.67-4.665,4.291-8.459,2.242
		c-1.182-0.637-2.502-1.146-3.459-2.037c-2.905-2.705-5.357-1.123-7.979,0.463c-1.03,0.623-0.904,1.418-0.911,2.275
		c-0.021,2.24,0.042,4.484-0.02,6.725c-0.104,3.783-2.078,5.877-5.802,5.918c-6.949,0.08-13.899,0.086-20.849-0.008
		c-3.534-0.047-5.491-2.154-5.615-5.748c-0.07-2.018-0.146-4.047,0.021-6.051c0.161-1.936-0.685-2.801-2.256-3.869
		c-2.313-1.576-4.06-1.527-6.223,0.082c-1.597,1.189-3.439,2.098-5.269,2.916c-2.792,1.252-5.143,0.33-6.625-2.182
		c-1.492-2.529-1.143-5.221,1.324-6.857c3.906-2.59,8.023-4.883,12.167-7.082c1.771-0.939,3.753-0.57,5.375,0.736
		c2.636,2.119,5.521,3.795,8.661,5.035c3.353,1.326,3.652,4.109,3.602,7.195c-0.084,5.09-0.019,5.09,4.98,5.09
		c5.729,0,5.856-0.004,5.716-5.682c-0.091-3.646,1.299-5.955,4.771-7.131c2.233-0.756,4.367-1.869,6.094-3.465
		c3.085-2.855,6.071-2.557,9.431-0.479c4.262,2.635,4.332,2.521,6.806-1.77c2.843-4.928,2.881-4.998-2.077-7.789
		c-3.1-1.746-4.631-4.004-3.742-7.693c0.553-2.295,0.587-4.74,0.042-7.018c-0.91-3.787,0.441-6.189,3.725-8.014
		c4.931-2.74,4.883-2.826,2.009-7.809c-2.459-4.262-2.535-4.383-6.832-1.709c-3.386,2.107-6.319,2.24-9.446-0.518
		c-1.562-1.375-3.5-2.541-5.47-3.189c-4.091-1.344-5.535-3.949-5.33-8.127c0.239-4.934,0.053-4.941-4.759-4.941
		c-5.893,0-6.013,0.002-5.896,5.836c0.07,3.521-1.315,5.754-4.609,6.908c-2.23,0.785-4.376,1.854-6.107,3.436
		c-3.188,2.908-6.234,2.715-9.717,0.473c-4.071-2.621-4.165-2.475-6.584,1.721c-2.908,5.045-2.948,5.113,2.124,8.014
		c3.13,1.789,4.411,4.135,3.586,7.781c-0.569,2.508-0.45,5.135,0.098,7.684c0.62,2.889-0.366,5.076-2.861,6.555
		c-3.463,2.053-6.924,4.113-10.467,6.023c-2.999,1.613-6.076,0.705-7.531-2.006c-1.353-2.521-0.49-5.541,2.159-7.273
		c1.308-0.855,2.628-1.795,4.081-2.307c3.244-1.139,3.904-3.414,3.58-6.514c-0.13-1.248-0.382-2.043-1.519-2.641
		c-2.075-1.094-4.134-2.238-6.106-3.504c-2.87-1.84-3.643-4.512-1.967-7.537c3.412-6.16,6.924-12.27,10.537-18.314
		c1.877-3.141,4.468-3.688,7.786-1.957c1.485,0.773,3.034,1.502,4.349,2.518c2.159,1.67,3.921,1.475,6.221,0
		c1.679-1.078,2.276-2.07,2.164-3.926c-0.128-2.123-0.114-4.262,0.003-6.387c0.173-3.188,2.154-5.26,5.351-5.309
		c7.173-0.107,14.35-0.107,21.521-0.002c3.187,0.049,5.164,2.133,5.358,5.313c0.108,1.789,0.194,3.605-0.009,5.375
		c-0.305,2.648,0.564,4.244,3.063,5.443c1.686,0.809,2.881,1.092,4.476,0.016c1.848-1.25,3.81-2.354,5.807-3.348
		c2.696-1.346,5.275-0.752,6.794,1.725c3.916,6.383,7.567,12.928,11.27,19.439C272.787,262.512,272.776,263.373,272.84,263.668z"/>
	<path fill-rule="evenodd" clip-rule="evenodd" fill="#B26C00" d="M263.362,346.25c-10.524,0.004-21.052,0.014-31.577,0
		c-4.443-0.006-6.96-2.057-6.862-5.525c0.094-3.352,2.503-5.229,6.817-5.23c20.492-0.01,40.984,0,61.477-0.006
		c8.246-0.004,12.385-4.143,12.405-12.369c0.009-3.135-0.103-6.275,0.057-9.404c0.151-2.975,2.405-5.049,5.206-5.113
		c2.798-0.064,5.365,1.963,5.403,4.879c0.069,5.244,0.661,10.529-0.45,15.736c-2.105,9.859-10.487,16.877-20.563,16.998
		C284.641,346.344,274.001,346.244,263.362,346.25z"/>
	<path fill-rule="evenodd" clip-rule="evenodd" fill="#B26C00" d="M224.766,260.17c8.947-0.064,16.246,7.186,16.272,16.162
		c0.025,8.762-7.238,16.076-15.988,16.102c-8.973,0.023-16.285-7.24-16.274-16.166C208.786,267.477,215.979,260.234,224.766,260.17z
		 M224.862,281.656c2.89,0.029,5.331-2.34,5.4-5.238c0.069-2.891-2.263-5.377-5.152-5.494c-3.023-0.121-5.597,2.379-5.567,5.406
		C219.571,279.234,221.961,281.625,224.862,281.656z"/>
	<path fill-rule="evenodd" clip-rule="evenodd" fill="#B26C00" d="M165.688,324.848c-0.054,8.789-7.284,15.982-16.087,16.002
		c-8.929,0.023-16.189-7.277-16.173-16.262c0.015-8.748,7.327-16.021,16.083-15.998
		C158.483,308.613,165.741,315.908,165.688,324.848z M154.923,324.674c-0.037-2.902-2.432-5.283-5.336-5.305
		c-3.027-0.025-5.517,2.553-5.389,5.58c0.122,2.893,2.607,5.217,5.5,5.141C152.597,330.014,154.96,327.564,154.923,324.674z"/>
	<path fill-rule="evenodd" clip-rule="evenodd" fill="#B26C00" d="M254.509,184.816c-4.137,0-8.274,0.026-12.412-0.008
		c-3.969-0.032-6.354-2.028-6.413-5.285c-0.062-3.286,2.329-5.446,6.222-5.464c8.387-0.039,16.773-0.039,25.159,0
		c3.902,0.018,6.298,2.163,6.252,5.441c-0.046,3.254-2.442,5.274-6.397,5.308C262.783,184.844,258.646,184.816,254.509,184.816z"/>
	<path fill-rule="evenodd" clip-rule="evenodd" fill="#B26C00" d="M187.374,44.914c2.9,0.08,5.257,2.526,5.223,5.424
		c-0.036,3.023-2.67,5.484-5.678,5.303c-2.893-0.174-5.175-2.702-5.05-5.591C181.995,47.141,184.469,44.833,187.374,44.914z"/>
	<path fill-rule="evenodd" clip-rule="evenodd" fill="#B26C00" d="M155.001,53.603c2.957,0.032,5.295,2.366,5.312,5.301
		c0.017,2.875-2.391,5.355-5.259,5.418c-2.977,0.065-5.564-2.546-5.48-5.535C149.653,55.861,152.052,53.572,155.001,53.603z"/>
	<path fill-rule="evenodd" clip-rule="evenodd" fill="#B26C00" d="M219.503,53.607c2.939-0.009,5.329,2.309,5.385,5.228
		c0.059,2.985-2.558,5.588-5.52,5.492c-2.865-0.095-5.247-2.588-5.214-5.458C214.188,55.948,216.559,53.615,219.503,53.607z"/>
	<path fill-rule="evenodd" clip-rule="evenodd" fill="#B26C00" d="M131.23,77.192c2.873-0.035,5.38,2.348,5.479,5.21
		c0.104,2.964-2.494,5.591-5.484,5.543c-2.91-0.047-5.244-2.444-5.242-5.385C125.987,79.602,128.308,77.228,131.23,77.192z"/>
	<path fill-rule="evenodd" clip-rule="evenodd" fill="#B26C00" d="M243.057,87.927c-2.878-0.056-5.314-2.525-5.305-5.379
		c0.01-2.991,2.67-5.507,5.661-5.354c2.929,0.149,5.157,2.59,5.068,5.549C248.394,85.69,245.993,87.983,243.057,87.927z"/>
	<path fill-rule="evenodd" clip-rule="evenodd" fill="#B26C00" d="M122.649,120.221c-2.896-0.003-5.313-2.388-5.355-5.29
		c-0.047-3.042,2.494-5.542,5.532-5.442c2.904,0.095,5.243,2.551,5.194,5.451C127.971,117.834,125.54,120.224,122.649,120.221z"/>
	<path fill-rule="evenodd" clip-rule="evenodd" fill="#B26C00" d="M251.772,109.49c2.901-0.02,5.334,2.344,5.4,5.246
		c0.068,3.023-2.479,5.563-5.5,5.485c-2.903-0.076-5.256-2.515-5.228-5.419C246.475,111.891,248.863,109.51,251.772,109.49z"/>
	<path fill-rule="evenodd" clip-rule="evenodd" fill="#B26C00" d="M136.704,147.21c-0.044,2.853-2.531,5.306-5.384,5.311
		c-3.056,0.005-5.464-2.53-5.339-5.617c0.12-2.942,2.544-5.211,5.482-5.129C134.337,141.853,136.748,144.354,136.704,147.21z"/>
	<path fill-rule="evenodd" clip-rule="evenodd" fill="#B26C00" d="M248.481,147.228c-0.044,2.95-2.401,5.292-5.329,5.293
		c-2.852,0-5.345-2.447-5.396-5.299c-0.057-2.987,2.562-5.55,5.565-5.448C246.259,141.873,248.525,144.268,248.481,147.228z"/>
</g>
</svg>
