<?xml version="1.0" encoding="utf-8"?>
<!-- Generator: Adobe Illustrator 16.0.0, SVG Export Plug-In . SVG Version: 6.00 Build 0)  -->
<!DOCTYPE svg PUBLIC "-//W3C//DTD SVG 1.1//EN" "http://www.w3.org/Graphics/SVG/1.1/DTD/svg11.dtd">
<svg version="1.1" id="Layer_1" xmlns="http://www.w3.org/2000/svg" xmlns:xlink="http://www.w3.org/1999/xlink" x="0px" y="0px"
	 width="400px" height="400px" viewBox="0 0 400 400" enable-background="new 0 0 400 400" xml:space="preserve">
<g>
	<path fill="#036BB0" stroke="#036BB0" stroke-width="2" d="M283.294,153.116c3.022-1.899,4.272-3.992,4.752-6.629
		c0.593-3.255,2.29-4.468,5.736-3.693c8.309,1.868,16.008,5.07,23.191,9.618c2.708,1.713,3.207,3.643,1.539,6.42
		c-2.854,4.744-2.474,8.995,0.871,12.374c3.271,3.303,7.892,3.802,12.399,1.023c2.762-1.701,4.723-1.333,6.45,1.364
		c4.588,7.164,7.789,14.898,9.676,23.18c0.694,3.049,0.044,5.102-3.564,5.855c-5.159,1.078-8.067,4.813-8.029,9.498
		c0.037,4.692,2.929,8.146,8.159,9.354c2.999,0.691,4.153,2.373,3.532,5.285c-1.849,8.68-5.178,16.756-10.089,24.16
		c-1.739,2.626-3.74,2.405-6.258,0.874c-6.232-3.794-13.375-0.827-14.891,6.009c-0.594,2.68,0.088,5.113,1.607,7.297
		c1.971,2.826,1.35,4.893-1.484,6.69c-7.287,4.63-15.16,7.795-23.563,9.683c-2.757,0.619-4.563-0.399-5.119-3.231
		c-0.561-2.845-1.661-5.294-4.918-7.169c0,1.646,0,2.9,0,4.156c-0.002,17,0.084,34.002-0.025,51.002
		c-0.105,16.277-9.899,28.904-25.172,32.771c-3.099,0.784-6.26,1.015-9.447,1.015c-34.735-0.006-69.471,0.019-104.207-0.013
		c-20.337-0.016-34.315-13.952-34.34-34.315c-0.048-39.139-0.057-78.276,0.065-117.414c0.01-3.142-0.851-3.873-3.842-3.735
		c-5.493,0.254-11.006,0.116-16.508,0.062c-9.435-0.094-16.132-6.734-16.184-16.214c-0.079-14.554-0.092-29.109,0.007-43.663
		c0.063-9.156,6.493-15.658,15.673-15.919c5.868-0.169,11.746-0.18,17.609,0.009c2.659,0.087,3.236-0.852,3.215-3.336
		c-0.107-13.82-0.068-27.642-0.047-41.463c0.036-21.066,13.833-34.815,34.943-34.821c34.369-0.009,68.736-0.008,103.105-0.001
		c21.234,0.005,35.129,13.87,35.147,35.1c0.021,21.404,0.006,42.808,0.006,64.211C283.294,149.814,283.294,151.122,283.294,153.116z
		 M276.033,154.031c0-18.637-0.047-36.733,0.056-54.832c0.013-2.416-0.644-3.066-3.051-3.063
		c-50.871,0.065-101.744,0.073-152.617-0.012c-2.722-0.005-3.196,0.947-3.16,3.366c0.126,8.559,0.165,17.122-0.015,25.68
		c-0.06,2.84,0.671,3.69,3.614,3.662c15.897-0.152,31.796-0.108,47.692-0.059c10.778,0.035,17.149,6.38,17.178,17.053
		c0.034,13.941,0.04,27.883-0.002,41.823c-0.032,10.415-6.565,16.939-16.94,16.957c-15.776,0.025-31.553,0.147-47.326-0.099
		c-3.691-0.057-4.253,1.056-4.236,4.427c0.149,27.147,0.147,54.297,0.006,81.444c-0.019,3.461,0.514,4.636,4.412,4.623
		c50.015-0.166,100.032-0.108,150.049-0.11c0.733,0,1.472-0.054,2.199,0.012c1.467,0.132,2.198-0.24,2.178-1.967
		c-0.09-6.848-0.082-13.697-0.014-20.543c0.021-2.188-0.762-2.211-2.354-1.269c-2.739,1.621-4.065,4.104-4.644,7.118
		c-0.55,2.871-2.363,3.841-5.103,3.227c-8.524-1.912-16.509-5.122-23.854-9.902c-2.563-1.668-2.886-3.599-1.373-6.193
		c2.877-4.938,2.459-9.313-1.027-12.654c-3.387-3.244-7.655-3.59-12.414-0.695c-2.695,1.638-4.557,1.039-6.163-1.433
		c-4.629-7.136-7.86-14.864-9.709-23.151c-0.856-3.85-0.035-4.994,3.819-5.969c4.733-1.195,7.744-4.832,7.764-9.38
		c0.02-4.481-2.977-8.155-7.714-9.459c-4.027-1.108-4.761-2.203-3.815-6.264c1.871-8.021,5-15.522,9.414-22.502
		c1.777-2.813,3.704-3.446,6.669-1.609c4.476,2.772,9.144,2.238,12.39-1.076c3.205-3.272,3.684-7.75,1.004-12.083
		c-1.76-2.843-1.51-4.869,1.42-6.72c7.085-4.473,14.674-7.62,22.837-9.53c3.493-0.817,5.407,0.171,6.063,3.699
		C269.941,150.205,272.098,152.584,276.033,154.031z M196.849,302.195c-25.433,0-50.868,0.033-76.3-0.053
		c-2.416-0.009-3.395,0.359-3.307,3.098c0.22,6.841,0.032,13.693,0.082,20.539c0.115,16.326,10.828,26.957,27.216,26.996
		c13.083,0.033,26.167,0.008,39.25,0.008c22.009,0,44.021,0.087,66.028-0.031c15.111-0.082,26.045-11.143,26.199-26.234
		c0.068-6.724-0.149-13.455,0.082-20.172c0.11-3.173-0.543-4.27-4.055-4.244C246.982,302.279,221.914,302.195,196.849,302.195z
		 M326.927,181.257c-12.034,0.016-19.982-10.49-16.823-21.638c0.543-1.912,0.449-2.752-1.362-3.672
		c-3.82-1.938-7.747-3.555-11.813-4.883c-1.611-0.525-2.387-0.297-3.332,1.374c-6.99,12.354-22.865,12.319-29.924-0.019
		c-0.768-1.346-1.29-1.987-2.98-1.449c-4.316,1.372-8.467,3.075-12.481,5.165c-1.548,0.804-1.563,1.622-1.142,3.188
		c3.726,13.739-7.369,24.802-21.154,21.122c-1.497-0.4-2.398-0.448-3.199,1.12c-2.055,4.029-3.777,8.178-5.172,12.479
		c-0.521,1.611,0.059,2.271,1.46,3.08c12.363,7.13,12.396,22.762,0.015,29.874c-1.728,0.993-1.854,1.849-1.348,3.43
		c1.311,4.07,2.917,8.007,4.9,11.798c0.752,1.434,1.318,2.01,3.302,1.461c13.688-3.791,24.974,7.441,21.209,21.062
		c-0.517,1.87-0.146,2.593,1.405,3.394c3.587,1.848,7.295,3.36,11.097,4.698c2.065,0.728,3.166,0.659,4.438-1.672
		c5.691-10.413,19.906-11.606,27.598-2.704c1.404,1.628,1.285,4.963,4.107,4.828c2.223-0.105,4.428-1.264,6.574-2.121
		c2.034-0.811,3.959-1.893,5.978-2.75c1.964-0.836,2.497-1.72,1.817-4.126c-3.288-11.64,6.09-22.668,17.879-21.5
		c2.018,0.199,4.167,2.44,5.963,0.524c1.439-1.534,2.148-3.799,3.022-5.808c0.873-2.007,1.445-4.145,2.336-6.141
		c1.011-2.261,0.657-3.445-1.734-4.798c-10.356-5.857-11.398-20.081-2.353-27.618c1.573-1.31,4.694-1.281,4.622-3.891
		c-0.058-2.095-1.208-4.182-1.986-6.229c-0.69-1.818-1.644-3.542-2.292-5.373c-1.021-2.886-2.557-4.103-5.646-2.567
		C328.883,181.402,327.506,181.198,326.927,181.257z M129.75,197.315c13.208,0,26.416,0.027,39.623-0.013
		c4.858-0.016,8.093-2.633,8.958-6.995c0.51-2.574,0.224-3.971-3.139-3.879c-9.287,0.252-18.586,0.082-27.879,0.089
		c-2.344,0.001-4.631-0.267-4.846-3.212c-0.245-3.37,2.074-3.993,4.815-3.99c9.293,0.013,18.59-0.129,27.879,0.083
		c2.871,0.066,3.41-0.818,3.364-3.475c-0.162-9.536-0.061-19.076-0.065-28.615c-0.002-8.651-2.703-11.346-11.409-11.348
		c-24.825-0.006-49.65-0.004-74.475-0.001c-9.188,0.001-12.055,3.049-11.724,12.165c0.063,1.724,0.449,2.326,2.242,2.265
		c3.787-0.132,7.581-0.024,11.371-0.044c2.573-0.014,4.465,1.063,4.409,3.75c-0.055,2.695-1.995,3.624-4.566,3.568
		c-3.544-0.076-7.101,0.13-10.635-0.072c-2.261-0.129-2.871,0.508-2.833,2.802c0.149,8.925,0.048,17.853,0.065,26.78
		c0.014,7.154,3.049,10.135,10.321,10.14C104.068,197.325,116.909,197.317,129.75,197.315z M196.458,88.958
		c10.761,0,21.524,0,32.287,0c14.675,0,29.349,0.018,44.026-0.028c1.358-0.005,3.092,0.819,3.321-1.964
		c1.478-17.932-9.915-30.522-27.881-30.53c-34.487-0.016-68.976,0.002-103.463-0.016c-3.075-0.002-6.103,0.241-9.056,1.113
		c-12.028,3.548-18.362,13.303-18.452,27.893c-0.019,2.912,0.784,3.61,3.637,3.598C146.071,88.91,171.265,88.958,196.458,88.958z"/>
	<path fill="#036BB0" stroke="#036BB0" stroke-width="2" d="M66.512,269.695c11.929,0.019,21.696,9.805,21.65,21.688
		c-0.046,11.842-9.962,21.701-21.784,21.658c-11.91-0.042-21.568-9.813-21.547-21.796C44.852,279.225,54.458,269.677,66.512,269.695
		z M52.083,291.355c0.026,7.977,6.5,14.468,14.404,14.439c7.871-0.027,14.406-6.619,14.393-14.518
		c-0.015-7.918-6.544-14.411-14.475-14.393C58.415,276.906,52.058,283.329,52.083,291.355z"/>
	<path fill="#036BB0" stroke="#036BB0" stroke-width="2" d="M337.527,70.979c10.063,0.04,18.007,8.169,17.897,18.315
		c-0.106,9.866-8.209,17.789-18.139,17.737c-10.039-0.054-18.014-8.221-17.91-18.344C319.479,78.826,327.563,70.94,337.527,70.979z
		 M348.158,88.884c-0.046-5.948-4.799-10.645-10.77-10.637c-5.927,0.007-10.707,4.761-10.733,10.675
		c-0.028,6.092,4.846,10.902,10.956,10.816C343.537,99.655,348.206,94.851,348.158,88.884z"/>
	<path fill="#036BB0" stroke="#036BB0" stroke-width="2" d="M88.183,354.441c0.048-2.957,2.416-5.287,5.369-5.28
		c2.95,0.007,5.365,2.37,5.415,5.298c0.052,2.982-2.659,5.646-5.623,5.523C90.427,359.861,88.135,357.4,88.183,354.441z"/>
	<path fill="#036BB0" stroke="#036BB0" stroke-width="2" d="M317.41,60.056c-2.911-0.066-5.327-2.536-5.302-5.426
		c0.023-2.873,2.515-5.382,5.376-5.415c2.979-0.035,5.635,2.706,5.498,5.671C322.847,57.783,320.327,60.121,317.41,60.056z"/>
	<path fill="#036BB0" stroke="#036BB0" stroke-width="2" d="M86.398,92.58c2.831,0.049,5.373,2.62,5.369,5.436
		c0,3.035-2.632,5.499-5.723,5.361c-2.922-0.132-5.239-2.625-5.14-5.537C81.002,94.948,83.529,92.53,86.398,92.58z"/>
	<path fill="#036BB0" stroke="#036BB0" stroke-width="2" d="M308.45,347.443c-0.067,2.918-2.533,5.349-5.404,5.324
		c-2.834-0.024-5.366-2.556-5.401-5.4c-0.035-3.008,2.651-5.605,5.66-5.477C306.21,342.018,308.517,344.508,308.45,347.443z"/>
	<path fill="#036BB0" stroke="#036BB0" stroke-width="2" d="M55.577,61.734c0.084,2.89-2.265,5.443-5.144,5.591
		c-2.882,0.148-5.418-2.166-5.581-5.09c-0.172-3.101,2.232-5.744,5.262-5.786C52.972,56.409,55.491,58.846,55.577,61.734z"/>
	<path fill="#036BB0" stroke="#036BB0" stroke-width="2" d="M59.14,224.359c0.055,3.02-2.152,5.365-5.146,5.467
		c-3.167,0.107-5.558-2.239-5.526-5.422c0.033-3.043,2.253-5.243,5.304-5.254C56.823,219.141,59.084,221.336,59.14,224.359z"/>
	<path fill="#036BB0" stroke="#036BB0" stroke-width="2" d="M331.966,135.888c-3.025-0.017-5.272-2.249-5.311-5.279
		c-0.04-3.169,2.352-5.503,5.536-5.403c2.988,0.095,5.246,2.464,5.182,5.442C337.31,133.615,334.949,135.904,331.966,135.888z"/>
	<path fill="#036BB0" stroke="#036BB0" stroke-width="2" d="M348.156,282.432c-0.072,3.016-2.358,5.219-5.38,5.188
		c-3.171-0.032-5.445-2.474-5.279-5.661c0.156-2.969,2.604-5.188,5.577-5.061C346.045,277.027,348.231,279.407,348.156,282.432z"/>
	<path fill="#036BB0" stroke="#036BB0" stroke-width="2" d="M160.135,237.092c-7.806,0.001-15.612-0.02-23.418,0.012
		c-2.642,0.012-5.193-0.293-5.138-3.654c0.056-3.334,2.661-3.59,5.262-3.588c15.734,0.011,31.469,0.021,47.201-0.01
		c2.703-0.006,5.226,0.526,5.176,3.713c-0.05,3.203-2.625,3.572-5.3,3.551C175.992,237.051,168.063,237.092,160.135,237.092z"/>
	<path fill="#036BB0" stroke="#036BB0" stroke-width="2" d="M160.897,258.852c7.81,0,15.618,0.053,23.426-0.031
		c2.653-0.027,4.866,0.64,4.891,3.57c0.023,2.918-2.194,3.707-4.832,3.701c-15.983-0.025-31.964-0.019-47.947-0.008
		c-2.569,0.002-4.83-0.604-4.86-3.646c-0.029-3.08,2.194-3.623,4.799-3.606C144.549,258.883,152.724,258.852,160.897,258.852z"/>
	<path fill="#036BB0" stroke="#036BB0" stroke-width="2" d="M160.534,244.285c7.81,0,15.622,0.039,23.432-0.021
		c2.71-0.021,5.214,0.506,5.235,3.661c0.021,3.16-2.435,3.692-5.176,3.685c-15.744-0.057-31.488-0.045-47.232-0.012
		c-2.655,0.006-5.189-0.302-5.205-3.608c-0.015-3.271,2.471-3.728,5.147-3.716C144.668,244.307,152.6,244.285,160.534,244.285z"/>
	<path fill="#036BB0" stroke="#036BB0" stroke-width="2" d="M160.118,273.262c7.561-0.002,15.123-0.003,22.686-0.001
		c0.853,0,1.707,0.001,2.559,0.021c2.294,0.057,3.85,1.229,3.873,3.499c0.025,2.477-1.625,3.662-4.077,3.662
		c-16.465,0.002-32.931,0.004-49.396,0c-2.362,0-4.174-0.892-4.205-3.498c-0.034-2.836,1.927-3.678,4.412-3.682
		C144.018,273.258,152.069,273.264,160.118,273.262z"/>
	<path fill="#036BB0" stroke="#036BB0" stroke-width="2" d="M196.617,313.068c8.06-0.053,14.507,6.24,14.597,14.25
		c0.091,7.914-6.413,14.51-14.349,14.554c-7.967,0.043-14.532-6.379-14.616-14.3C182.165,319.656,188.637,313.122,196.617,313.068z
		 M196.807,334.568c3.957-0.023,7.216-3.287,7.177-7.188c-0.039-3.921-3.318-7.095-7.299-7.063c-3.989,0.031-7.183,3.246-7.145,7.19
		C189.578,331.477,192.789,334.596,196.807,334.568z"/>
	<path fill="#036BB0" stroke="#036BB0" stroke-width="2" d="M242.169,211.941c0.062-20.186,16.646-36.663,36.692-36.454
		c20.113,0.21,36.249,16.458,36.261,36.516c0.016,20.229-16.343,36.633-36.503,36.614C258.45,248.6,242.109,232.157,242.169,211.941
		z M307.882,211.902c-0.08-16.189-13.396-29.375-29.481-29.193c-16.01,0.181-29.014,13.316-29.021,29.318
		c-0.008,16.213,13.116,29.328,29.33,29.312C294.913,241.323,307.964,228.154,307.882,211.902z"/>
	<path fill="#036BB0" stroke="#036BB0" stroke-width="2" d="M115.374,166.483c0-3.662-0.042-7.324,0.012-10.985
		c0.063-4.299,2.467-5.854,6.135-3.814c6.705,3.726,13.361,7.542,19.953,11.462c3.461,2.059,3.435,4.972-0.052,7.053
		c-6.584,3.931-13.232,7.765-19.918,11.522c-3.498,1.966-6.017,0.479-6.111-3.521C115.303,174.297,115.374,170.39,115.374,166.483z
		 M122.829,172.613c3.559-2.064,6.72-3.899,10.247-5.944c-3.519-2.026-6.703-3.861-10.247-5.902
		C122.829,164.873,122.829,168.45,122.829,172.613z"/>
	<path fill="#036BB0" stroke="#036BB0" stroke-width="2" d="M196.789,70.978c3.421-0.002,6.845,0.025,10.266-0.011
		c2.508-0.027,4.051,1.161,4.059,3.646c0.005,2.33-1.579,3.543-3.827,3.563c-7.087,0.064-14.179,0.084-21.266-0.004
		c-2.378-0.03-4.018-1.284-3.863-3.88c0.143-2.38,1.714-3.33,3.997-3.318C189.698,70.991,193.244,70.978,196.789,70.978z"/>
	<path fill="#036BB0" stroke="#036BB0" stroke-width="2" d="M298.861,212.172c-0.047,11.139-9.342,20.328-20.409,20.184
		c-11.153-0.149-20.091-9.347-19.999-20.576c0.092-11.031,9.104-19.904,20.207-19.891C289.911,191.9,298.91,200.934,298.861,212.172
		z M265.729,212.004c-0.015,7.24,5.787,13.104,12.948,13.084c7.16-0.02,12.944-5.914,12.898-13.146
		c-0.044-7.098-5.665-12.752-12.775-12.851C271.563,198.99,265.744,204.738,265.729,212.004z"/>
</g>
</svg>
