<?xml version="1.0" encoding="utf-8"?>
<!-- Generator: Adobe Illustrator 16.0.0, SVG Export Plug-In . SVG Version: 6.00 Build 0)  -->
<!DOCTYPE svg PUBLIC "-//W3C//DTD SVG 1.1//EN" "http://www.w3.org/Graphics/SVG/1.1/DTD/svg11.dtd">
<svg version="1.1" id="Layer_1" xmlns="http://www.w3.org/2000/svg" xmlns:xlink="http://www.w3.org/1999/xlink" x="0px" y="0px"
	 width="400px" height="400px" viewBox="0 0 400 400" enable-background="new 0 0 400 400" xml:space="preserve">
<g>
	<path fill="#08B265" d="M157.035,300.221c-3.219,3.246-5.947,6.008-8.687,8.759c-2.85,2.86-5.976,5.494-8.519,8.605
		c-9.615,11.768-21.834,19.047-36.288,23.712c-15.194,4.901-29.88,11.366-44.841,17.006c-9.918,3.737-19.682-3.312-19.039-13.548
		c0.114-1.834,0.714-3.534,1.36-5.212c7.986-20.755,16.012-41.494,23.968-62.261c0.628-1.639,1.505-2.966,2.732-4.189
		c13.923-13.88,27.819-27.788,41.71-41.7c0.925-0.927,2.147-1.617,1.41-3.439c-5.458-13.494-5.836-27.468-3.608-41.956
		c-9.422,0-18.744,0.057-28.066-0.024c-4.663-0.04-9.333,0.351-13.99-0.462c-13.602-2.373-23.732-13.067-25.408-26.953
		c-1.575-13.07,6.183-26.203,18.762-31.311c2.357-0.957,2.671-1.901,2.289-4.329c-5.135-32.563,20.152-60.941,53.074-59.22
		c17.24,0.901,30.679,9.13,40.043,23.656c1.537,2.386,2.677,3.048,5.662,2.55c17.375-2.894,31.268,3.072,41.439,17.438
		c1.246,1.761,2.521,2.541,4.594,2.645c6.283,0.313,12.443,1.503,18.412,3.431c2.081,0.672,3.224,0.21,4.657-1.231
		c18.895-18.979,37.796-37.952,56.806-56.814c15.162-15.047,38.428-16.363,54.801-3.29c19.425,15.507,21.037,43.679,3.347,61.554
		c-18.615,18.807-37.364,37.48-56.16,56.107c-1.992,1.975-2.579,3.618-1.667,6.301c1.883,5.542,2.888,11.308,3.22,17.156
		c0.12,2.093,0.455,3.291,3.069,3.08c2.474-0.199,5.931-1.207,7.267,0.452c1.26,1.564,0.368,4.854,0.438,7.386
		c0.041,1.484-0.09,3.009,0.2,4.445c1.492,7.401,10.408,10.462,16.205,5.524c2.342-1.992,4.466-4.248,6.59-6.479
		c0.998-1.047,1.583-1.238,2.733-0.062c6.243,6.379,12.55,12.698,18.94,18.932c1.303,1.271,0.989,1.924-0.12,2.959
		c-1.941,1.811-3.792,3.721-5.645,5.626c-3.107,3.201-4.107,6.933-2.302,11.09c1.779,4.097,5.026,6.166,9.539,6.154
		c2.02-0.005,4.072,0.236,6.05-0.053c3.463-0.507,4.138,0.939,3.996,4.125c-0.266,6.045-0.021,12.112-0.103,18.169
		c-0.036,2.724,1.2,6.334-0.526,7.913c-1.469,1.342-5.028,0.397-7.663,0.457c-0.851,0.02-1.703-0.028-2.55,0.021
		c-4.084,0.25-7.043,2.229-8.678,5.968c-1.634,3.733-1.188,7.318,1.519,10.398c2.029,2.313,4.259,4.454,6.476,6.593
		c0.99,0.959,1.342,1.536,0.116,2.731c-6.462,6.313-12.837,12.713-19.171,19.15c-1.031,1.05-1.594,0.898-2.497-0.059
		c-1.972-2.084-4.001-4.116-6.084-6.088c-3.146-2.979-6.822-3.869-10.851-2.127c-4.096,1.771-6.187,5.003-6.181,9.52
		c0.003,2.656-0.115,5.32,0.041,7.969c0.103,1.755-0.563,2.085-2.157,2.071c-8.82-0.067-17.644-0.084-26.462,0.011
		c-1.75,0.02-2.135-0.564-2.067-2.162c0.113-2.759,0.078-5.526,0.017-8.288c-0.096-4.225-2.088-7.318-5.937-9.024
		c-3.981-1.765-7.7-1.094-10.896,1.873c-2.104,1.951-4.16,3.964-6.086,6.085c-1.154,1.271-1.92,1.188-2.953-0.064
		c-1.271-1.54-2.678-2.969-4.508-4.976c-0.496,7.951-3.863,13.115-10.718,15.66c-1.241,0.462-1.313,1.521-1.752,2.438
		c-5.776,12.013-15.271,18.753-28.646,18.712c-13.373-0.041-22.853-6.826-28.492-18.896c-0.579-1.239-1.194-2.036-2.463-2.593
		c-9.619-4.221-12.536-14.008-6.906-22.93c0.41-0.648,1.354-1.13,0.506-2.16c-1.36-1.654-2.247-3.554-2.854-5.629
		C156.888,305.092,157.02,303.015,157.035,300.221z M138.77,175.779c23.169,0,46.337,0.061,69.505-0.031
		c7.801-0.032,14.258-6.188,14.963-13.821c0.714-7.716-4.381-14.61-12.107-16.389c-7.207-1.659-14.639,2.475-17.462,9.521
		c-0.714,1.782-0.005,4.503-1.83,5.253c-1.819,0.748-4.185,0.173-6.31,0.177c-0.213,0.001-0.434-0.032-0.639,0.006
		c-2.347,0.454-2.593-0.796-2.322-2.688c1.142-8.027,4.957-14.386,11.843-18.718c1.67-1.052,2.534-2.156,2.882-4.151
		c2.791-15.989-7.982-31.917-23.81-35.006c-16.536-3.226-32.577,7.023-36.137,23.049c-0.403,1.813-0.081,2.731,1.859,3.522
		c6.77,2.764,10.858,7.896,12.325,15.085c0.734,3.596,0.732,3.596-3.03,3.599c-1.382,0.001-2.771-0.094-4.144,0.022
		c-1.813,0.155-2.639-0.256-3.058-2.353c-0.886-4.438-4.665-7.476-8.934-7.843c-4.238-0.363-8.926,1.784-9.908,5.889
		c-1.092,4.561-3.754,4.603-7.178,4.288c-0.422-0.039-0.86-0.066-1.273,0.005c-2.608,0.451-3.271-0.607-2.766-3.104
		c1.556-7.678,5.854-13.039,13.122-15.965c1.185-0.478,2.314-0.649,2.566-2.327c1.806-12.02,7.975-21.308,18.015-28.024
		c1.461-0.979,1.426-1.649,0.576-2.938c-7.714-11.699-18.543-18.341-32.514-18.96c-26.153-1.163-45.941,21.23-42.24,47.223
		c0.395,2.766,1.395,3.779,4.164,4.21c13.939,2.165,24.037,12.84,25.82,26.863c0.281,2.213,0.153,3.696-2.737,3.257
		c-1.558-0.237-3.194-0.169-4.773-0.01c-1.979,0.201-2.527-0.442-2.787-2.499c-1.083-8.603-7.187-15.362-15.206-17.3
		c-8.239-1.986-16.543,0.922-21.414,7.747c-4.717,6.612-5.427,13.804-1.79,21.055c3.753,7.479,10.122,11.311,18.501,11.338
		C93.284,175.835,116.027,175.786,138.77,175.779z M203.48,237.01c-8.502,0-17.004-0.033-25.504,0.016
		c-3.476,0.021-5.693,2.104-5.674,5.109c0.02,3.004,2.232,4.997,5.731,5.061c2.867,0.055,5.738,0,8.607,0.015
		c9.737,0.045,16.199,6.439,16.241,16.124c0.033,7.438,0.091,14.879-0.048,22.313c-0.037,2.028,0.557,2.45,2.479,2.418
		c6.479-0.107,12.965-0.092,19.443,0.063c1.574,0.038,1.936-0.717,2.438-1.843c2.435-5.452,5.615-10.442,9.303-15.142
		c5.863-7.469,12.835-13.873,19.521-20.552c6.555-6.547,12.825-13.315,17.063-21.679c7.308-14.431,7.614-29.558,4.402-45.013
		c-6.767-32.563-36.026-59.659-68.471-63.455c-1.432-0.167-2.438-0.379-1.822,1.796c0.569,2.016,0.664,4.194,0.738,6.31
		c0.071,2.009-0.994,4.826-0.033,5.837c1.162,1.222,3.931,0.91,6,1.283c0.414,0.075,0.812,0.242,1.219,0.361
		c11.921,3.544,19.785,15.301,18.252,27.283c-1.655,12.929-12.153,22.466-25.092,22.65c-7.756,0.11-15.518,0.11-23.271-0.03
		c-2.154-0.039-2.65,0.632-2.564,2.65c0.158,3.713,0.035,7.438,0.049,11.154c0.018,4.966,1.705,6.645,6.72,6.648
		c12.856,0.01,25.717-0.026,38.573,0.014c9.004,0.028,15.854,6.604,15.91,15.17c0.059,8.718-6.816,15.383-15.982,15.426
		C219.634,237.038,211.557,237.009,203.48,237.01z M202.148,226.802c8.287,0,16.574,0.01,24.86-0.005
		c4.076-0.008,6.386-1.809,6.466-4.976c0.08-3.282-2.31-5.212-6.539-5.216c-12.854-0.01-25.711,0.022-38.565-0.012
		c-9.533-0.024-16.022-6.483-16.088-15.949c-0.028-4.249-0.073-8.501,0.031-12.748c0.038-1.559-0.463-1.938-1.969-1.935
		c-16.893,0.051-33.785,0.043-50.679,0.011c-1.364-0.002-2.006,0.25-2.278,1.819c-3.516,20.271,0.259,38.595,14.153,54.328
		c5.423,6.141,11.4,11.729,17.172,17.521c7.981,8.013,15.292,16.516,19.807,27.056c0.5,1.169,1.168,1.427,2.413,1.405
		c6.479-0.104,12.962-0.126,19.441-0.05c1.691,0.02,2.387-0.279,2.357-2.2c-0.117-7.541-0.013-15.086-0.064-22.629
		c-0.025-3.913-1.958-5.751-5.948-5.803c-2.975-0.04-5.948,0.018-8.924-0.016c-8.941-0.097-15.741-6.759-15.712-15.369
		c0.028-8.577,6.861-15.181,15.842-15.229C185.999,226.768,194.074,226.802,202.148,226.802z M249.125,272.575
		c-4.605,3.769-12.079,15.082-13.553,20.054c-0.383,1.287,0.275,1.993,0.797,2.877c1.604,2.72,2.799,5.723,2.087,8.784
		c-0.665,2.865,0.304,4.583,2.321,6.205c0.74,0.595,1.449,1.271,2.022,2.025c1.253,1.648,2.183,1.776,3.996,0.326
		c11.019-8.806,27.595-3.571,31.788,9.833c0.635,2.027-0.283,5.04,1.672,5.938c1.932,0.889,4.595,0.076,6.919,0.251
		c1.881,0.142,2.363-0.393,2.58-2.354c1.589-14.412,17.228-22.464,29.83-15.588c1.757,0.96,3.048,3.647,5.133,2.816
		c1.813-0.726,2.985-2.94,4.6-4.313c1.65-1.403,1.881-2.3,0.334-4.255c-8.66-10.942-3.444-27.333,9.783-31.618
		c2.082-0.675,5.157,0.327,6.101-1.858c0.85-1.973,0.07-4.604,0.227-6.932c0.117-1.758-0.438-2.183-2.211-2.38
		c-14.49-1.619-22.593-17.066-15.77-29.724c0.969-1.796,3.61-3.234,2.916-5.158c-0.688-1.9-2.955-3.23-4.528-4.812
		c-0.075-0.076-0.162-0.143-0.224-0.227c-1.07-1.507-1.926-1.521-3.508-0.261c-10.904,8.678-26.498,4.399-31.563-8.522
		c-0.369-0.94-0.373-2.136-1.785-2.636c-0.953,7.163-2.843,14.021-5.87,20.604c25.744,0.718,37.515,21.035,37.016,36.909
		c-0.566,17.993-14.773,33.18-32.778,34.661C268.822,304.759,252.744,292.007,249.125,272.575z M314.912,53.268
		c-1.57,0.144-2.945,0.235-4.313,0.398c-9.221,1.095-15.865,6.486-22.001,12.919c-1.688,1.771-1.575,2.557,0.075,4.188
		c11.716,11.564,23.297,23.268,34.985,34.859c2.229,2.214,4.348,6.373,6.845,6.01c2.62-0.381,4.917-4.014,7.061-6.48
		c8.594-9.895,10.687-21.155,5.479-33.145C337.766,59.875,327.854,53.979,314.912,53.268z M116.501,239.108
		c-0.424,0.313-0.798,0.521-1.091,0.813c-12.169,12.15-24.312,24.33-36.523,36.438c-1.272,1.261-1.025,1.899,0.111,3.011
		c5.086,4.971,10.151,9.968,15.071,15.102c1.459,1.523,2.171,1.204,3.474-0.111c11.283-11.386,22.623-22.717,33.997-34.012
		c1.201-1.193,1.519-1.884,0.129-3.239C126.053,251.623,120.842,245.772,116.501,239.108z M72.124,287.64
		c0.086-0.079-0.144,0.034-0.212,0.211c-4.04,10.456-8.029,20.934-12.143,31.36c-0.569,1.444-0.01,2.111,0.865,2.979
		c4.074,4.031,8.51,7.782,12.055,12.239c3.871,4.866,7.553,5.346,13.104,2.771c8.406-3.896,17.256-6.839,25.762-10.126
		C98.338,313.855,85.236,300.753,72.124,287.64z M156.729,285.824c-0.383-0.652-0.697-1.206-1.026-1.749
		c-3.825-6.316-8.795-11.688-13.907-16.955c-1.179-1.216-1.812-0.817-2.781,0.156c-11.472,11.521-22.949,23.034-34.502,34.474
		c-1.369,1.354-1.122,2.043,0.104,3.236c5.096,4.974,10.127,10.013,15.102,15.104c1.118,1.145,1.757,1.37,3.014,0.102
		c10.918-11.021,21.913-21.965,32.875-32.942C156.038,286.814,156.371,286.282,156.729,285.824z M258.867,267.562
		c0.229,1.678,0.378,3.369,0.697,5.029c2.506,13.016,15.287,22.263,28.094,20.354c13.932-2.074,23.746-14.376,22.257-27.894
		c-1.521-13.79-13.748-24.021-27.374-22.873c-3.793,0.32-6.961,1.438-9.469,4.83c-2.947,3.985-6.456,7.638-10.131,10.981
		C259.975,260.689,258.936,263.789,258.867,267.562z M307.719,135.042c-0.33-0.415-0.552-0.758-0.834-1.038
		c-5.397-5.413-10.826-10.797-16.188-16.247c-0.979-0.994-1.532-0.63-2.313,0.153c-7.037,7.079-14.079,14.148-21.17,21.175
		c-0.955,0.944-0.968,1.475-0.063,2.512c4.969,5.696,9.203,11.912,12.514,18.715c0.876,1.8,1.434,1.512,2.617,0.316
		c7.992-8.077,16.047-16.092,24.078-24.131C306.793,136.06,307.202,135.595,307.719,135.042z M258.698,132.896
		c0.46-0.376,0.965-0.721,1.391-1.145c6.987-6.972,13.942-13.975,20.968-20.904c1.117-1.104,1.025-1.739-0.041-2.785
		c-5.152-5.053-10.279-10.135-15.307-15.313c-1.287-1.326-1.982-1.233-3.234,0.033c-7.898,8.012-15.863,15.959-23.863,23.868
		c-1.258,1.245-1.649,1.852,0.313,2.809c6.695,3.27,12.8,7.471,18.455,12.319C257.78,132.123,258.186,132.462,258.698,132.896z
		 M323.229,118.995c-0.606-0.396-1.429-0.748-2.018-1.337c-11.957-11.911-23.871-23.865-35.837-35.769
		c-1.937-1.925-3.623-5.299-5.968-5.295c-2.344,0.003-3.84,3.596-6.01,5.248c-2.199,1.676-1.474,2.775,0.141,4.373
		c11.764,11.652,23.431,23.404,35.168,35.085c2.086,2.077,3.995,5.789,6.406,5.697c2.605-0.101,4.411-3.861,6.67-5.916
		c0.233-0.214,0.476-0.432,0.666-0.683C322.627,120.163,322.745,119.878,323.229,118.995z M197.797,298.226
		c-8.061,0-16.121-0.012-24.183,0.004c-4.052,0.008-6.354,1.827-6.413,5.002c-0.06,3.212,2.256,5.182,6.231,5.186
		c16.228,0.017,32.455,0.017,48.683,0c3.974-0.003,6.305-1.969,6.257-5.163c-0.046-3.18-2.353-5.016-6.394-5.022
		C213.918,298.214,205.857,298.226,197.797,298.226z M197.438,328.827c8.271,0,16.545,0.02,24.817-0.008
		c3.774-0.012,6.048-1.906,6.117-4.982c0.069-3.194-2.271-5.195-6.218-5.199c-16.227-0.016-32.453-0.016-48.681-0.001
		c-3.99,0.004-6.307,1.939-6.273,5.14c0.033,3.183,2.344,5.038,6.372,5.047C181.527,328.841,189.482,328.827,197.438,328.827z
		 M179.934,339.159c4.59,6.854,10.701,10.222,18.543,9.994c7.303-0.211,12.951-3.606,17.155-9.994
		C203.576,339.159,191.966,339.159,179.934,339.159z M55.137,331.45c-1.506,3.846-2.993,7.64-4.476,11.435
		c-0.231,0.592-0.508,1.176-0.653,1.79c-0.66,2.788,1.737,5.252,4.466,4.32c4.426-1.51,8.744-3.33,13.06-5.002
		C63.322,339.731,59.308,335.67,55.137,331.45z"/>
	<path fill="#08B265" d="M299.808,267.569c0.021,8.465-6.946,15.398-15.418,15.345c-8.321-0.054-15.161-6.93-15.179-15.262
		c-0.018-8.47,6.938-15.389,15.416-15.337C292.957,252.366,299.787,259.23,299.808,267.569z M284.574,262.533
		c-2.741-0.038-5.063,2.188-5.145,4.935c-0.08,2.73,2.119,5.101,4.854,5.228c2.845,0.133,5.313-2.237,5.304-5.095
		C289.58,264.858,287.314,262.57,284.574,262.533z"/>
</g>
</svg>
