<svg xmlns="http://www.w3.org/2000/svg" xmlns:xlink="http://www.w3.org/1999/xlink" viewBox="-414.75 24.34 608.23 76.18"><defs><style>.a{fill:none;}.b{clip-path:url(#a);}.c{fill:#d0021b;}.d{clip-path:url(#b);}.e{fill:#55585a;}.f{fill:#686b6d;}.g{fill:#db2023;}</style><clipPath id="a"><path class="a" d="M119.37,173.34h1.06v-76H29v76h1.06c8.87-14.36,25.54-24,44.66-24S110.51,159,119.37,173.34Z" transform="translate(-1.75 5)"/></clipPath><clipPath id="b"><ellipse class="a" cx="9.12" cy="8.59" rx="9.12" ry="8.59" transform="translate(63.25 161.34)"/></clipPath></defs><g class="b" transform="translate(-442 -78)"><rect class="c" width="101.43" height="86" transform="translate(22.25 97.34)"/></g><g class="d" transform="translate(-442 -78)"><rect class="e" width="28.24" height="27.17" transform="translate(58.25 156.34)"/></g><path class="f" d="M163.56,113.33v46.21h-3.73V113.33h-19v-3.44H182.5v3.44Z" transform="translate(-443.75 -73)"/><path class="f" d="M231.22,159.54V135.37H195v24.16h-3.73V109.89H195V132h36.17V109.89H235v49.65Z" transform="translate(-443.75 -73)"/><path class="f" d="M247.69,159.54V109.89h3.73v49.65Z" transform="translate(-443.75 -73)"/><path class="f" d="M297,135.3q7.69,3,7.69,11.64v12.59H301V147.09q0-9.74-13.62-9.74H267.83v22.19H264.1V109.89H288q17.43,0,17.43,13Q305.47,132,297,135.3Zm-8.86-22H267.83v20.43H287q6.3,0,10.11-2.34a9.06,9.06,0,0,0,4.61-8.27q.01-9.79-13.53-9.79Z" transform="translate(-443.75 -73)"/><path class="f" d="M334.9,159.54H317.69V109.89h20q12.23,0,18.6,6.66,6.08,6.44,6.08,18.23,0,12.16-7.76,18.67Q347.35,159.54,334.9,159.54ZM353.58,119q-5.35-5.71-16-5.71H321.43V156.1h13.69q11.13,0,17.32-5.42t6.19-15.89Q358.63,124.39,353.58,119Z" transform="translate(-443.75 -73)"/><path class="g" d="M421.46,159.54h-3.15l-11.64-26.65-11.35,26.65h-3.15L370.5,109.89h4l19.33,44.23,10.84-25.85-8-18.38h4L420,154.19l18.67-44.3h3.88Z" transform="translate(-445.75 -73)"/><path class="g" d="M492.41,159.54l-7.1-15.6H458.8l-7.25,15.6H447.3l23.29-49.65H474l22.48,49.65Zm-20.06-44.23-11.94,25.12h23.36Z" transform="translate(-453.75 -73)"/><path class="g" d="M523.6,113.33v46.21h-3.73V113.33h-19v-3.44h41.67v3.44Z" transform="translate(-457.75 -73)"/><path class="g" d="M595.59,120.87q-5.57-8.05-17.87-8.05-10.54,0-16.81,5.93t-6.26,16q0,10,6,15.89t16.29,5.93q11.79,0,18-8.2l3.22,2.05q-7.4,9.59-21.16,9.59-12,0-19-6.74t-7-18.23q0-11.79,7.25-18.75t19.55-7q14.28,0,21,9.52Z" transform="translate(-460.75 -73)"/><path class="g" d="M650.5,159.54V135.37H614.33v24.16H610.6V109.89h3.73V132H650.5V109.89h3.73v49.65Z" transform="translate(-460.75 -73)"/></svg>