<?xml version="1.0" encoding="utf-8"?>
<!-- Generator: Adobe Illustrator 16.0.0, SVG Export Plug-In . SVG Version: 6.00 Build 0)  -->
<!DOCTYPE svg PUBLIC "-//W3C//DTD SVG 1.1//EN" "http://www.w3.org/Graphics/SVG/1.1/DTD/svg11.dtd">
<svg version="1.1" id="Layer_1" xmlns="http://www.w3.org/2000/svg" xmlns:xlink="http://www.w3.org/1999/xlink" x="0px" y="0px"
	 width="400px" height="400px" viewBox="0 0 400 400" enable-background="new 0 0 400 400" xml:space="preserve">
<g>
	<path fill="#B2012D" d="M163.727,45.619c4.582,1.085,9.295,1.301,13.913,2.249c18.935,3.885,35.567,12.356,49.894,25.184
		c15.704,14.063,26.415,31.378,31.782,51.796c7.097,26.989,4.037,52.944-8.699,77.75c-1.447,2.819-3.186,5.495-4.902,8.163
		c-0.77,1.192-0.771,1.925,0.311,2.992c8.146,8.031,16.236,16.116,24.275,24.252c1.084,1.097,1.967,1.187,3.387,0.763
		c5.938-1.775,11.293-0.449,15.649,3.885c20.237,20.136,40.386,40.358,60.593,60.523c2.455,2.45,3.72,5.495,4.811,8.667
		c0,1.989,0,3.979,0,5.97c-1.866,4.672-5.184,8.227-8.743,11.647c-4.496,4.325-8.904,8.744-13.235,13.231
		c-3.493,3.623-7.053,7.074-12.045,8.547c-2.188,0-4.378,0-6.565,0c-6.385-2.729-10.628-8.051-15.364-12.756
		c-10.092-10.021-20.131-20.099-30.174-30.168c-0.836-0.838-1.693-1.715-2.287-2.722c-1.252-2.122-0.995-4.263,0.724-5.991
		c1.82-1.83,4.032-2.098,6.251-0.689c0.909,0.576,1.68,1.392,2.45,2.16c12.317,12.3,24.62,24.611,36.934,36.914
		c4.044,4.043,6.266,4.058,10.252,0.078c6.337-6.324,12.674-12.646,18.989-18.99c3.473-3.486,3.502-5.946,0.047-9.406
		c-19.605-19.639-39.229-39.262-58.856-58.879c-3.581-3.579-6.104-3.585-9.653-0.051c-6.415,6.386-12.796,12.805-19.208,19.191
		c-3.669,3.655-5.957,3.664-9.623,0.01c-8.595-8.565-17.274-17.053-25.678-25.804c-2.276-2.372-3.715-2.598-6.521-0.823
		c-18.396,11.639-38.572,16.859-60.318,16.098c-2.205-0.077-4.144-0.506-5.375-2.532c-1.023-1.685-0.996-3.435-0.048-5.092
		c1.162-2.033,3.109-2.666,5.34-2.585c6.574,0.24,13.124,0.002,19.61-1.161c26.461-4.747,47.738-17.817,63.323-39.808
		c14.605-20.607,20.235-43.645,16.988-68.582c-3.074-23.613-13.678-43.551-31.492-59.489
		c-14.124-12.636-30.553-20.784-49.314-23.375c-34.661-4.786-64.302,5.491-87.695,31.698
		c-19.086,21.383-26.751,46.834-23.501,75.259c2.694,23.566,13.007,43.518,30.453,59.693c1.386,1.285,2.837,2.504,4.158,3.852
		c2.232,2.273,2.441,5.126,0.636,7.206c-1.87,2.151-4.994,2.334-7.462,0.229c-5.762-4.912-11.111-10.238-15.766-16.23
		c-12.748-16.404-20.083-34.976-22.244-55.615c-0.044-0.418-0.126-0.768-0.604-0.861c0-6.367,0-12.734,0-19.102
		c1.427-2.474,1.04-5.3,1.511-7.956c2.926-16.475,9.048-31.607,18.999-45.102c16.357-22.183,37.975-36.271,65.009-41.897
		c4.3-0.896,8.646-1.566,12.971-2.342C152.983,45.619,158.355,45.619,163.727,45.619z M249.632,260.02
		c0.259-0.225,0.571-0.465,0.849-0.74c4.082-4.073,8.131-8.18,12.259-12.205c0.983-0.959,0.802-1.5-0.073-2.367
		c-7.624-7.563-15.227-15.148-22.781-22.779c-1.007-1.018-1.597-1.104-2.542,0.029c-3.577,4.279-7.495,8.236-11.795,11.793
		c-1.262,1.043-1.069,1.697-0.001,2.754c7.496,7.409,14.932,14.881,22.4,22.316C248.411,259.284,248.757,259.956,249.632,260.02z"/>
	<path fill="#B2012D" d="M76.578,351.239c-3.149-1.573-6.548-2.724-8.753-5.781c-1.845-2.56-3.211-5.287-3.218-8.479
		c-0.038-17.604-0.161-35.213,0.035-52.814c0.084-7.6,5.931-13.402,13.479-14.207c0.987-0.105,2.032-0.398,2.962-0.197
		c4.745,1.026,6.904-1.525,9.053-5.361c11.44-20.432,23.15-40.713,34.775-61.041c0.589-1.029,1.16-2.098,1.911-3.003
		c1.386-1.677,3.214-2.358,5.331-1.631c2.038,0.7,3.327,2.136,3.511,4.364c0.081,0.99,0.055,1.988,0.055,2.981
		c0.003,20.195,0.048,40.39-0.057,60.582c-0.013,2.435,0.503,3.149,3.048,3.132c17.109-0.124,34.22-0.087,51.33-0.056
		c8.474,0.017,14.196,3.773,16.215,10.866c1.462,5.14,1.089,10.444,0.503,15.677c-0.299,2.67-2.34,3.834-4.843,3.951
		c-2.478,0.116-4.581-1.712-4.815-4.334c-0.256-2.863-0.188-5.758-0.209-8.639c-0.044-5.742-1.541-7.29-7.225-7.293
		c-18.701-0.01-37.403-0.003-56.105-0.004c-6.681-0.001-8.018-1.342-8.018-8.031c0-16.016,0-32.029,0-48.316
		c-1.101,0.543-1.338,1.535-1.773,2.295c-9.465,16.533-18.968,33.047-28.296,49.656c-1.787,3.182-4.029,4.663-7.639,4.43
		c-2.575-0.166-5.176-0.129-7.756,0.004c-3.499,0.178-5.343,1.998-5.354,5.467c-0.052,16.712-0.05,33.425,0.005,50.137
		c0.012,3.408,1.962,5.229,5.407,5.455c0.693,0.046,1.392,0.012,2.089,0.012c35.712,0,71.425,0,107.138-0.002
		c6.021,0,7.505-1.513,7.523-7.623c0.007-2.586-0.089-5.182,0.092-7.754c0.215-3.063,2.181-4.895,4.94-4.92
		c2.644-0.023,4.688,1.613,4.97,4.536c0.456,4.749,0.793,9.61-0.367,14.246c-1.511,6.022-5.334,10.079-11.766,11.163
		c-0.217,0.036-0.39,0.35-0.583,0.535C154.973,351.239,115.775,351.239,76.578,351.239z"/>
	<path fill="#B2012D" d="M171.255,208.609c-6.168,0-12.336,0.01-18.503-0.002c-4.313-0.008-6.742-1.807-6.798-5
		c-0.058-3.267,2.483-5.167,6.957-5.171c10.445-0.008,20.892-0.051,31.336,0.041c1.915,0.018,2.486-0.448,2.467-2.43
		c-0.104-10.644,0.003-21.289-0.065-31.933c-0.067-10.368-6.209-16.483-16.52-16.526c-9.351-0.039-18.703-0.041-28.054,0.001
		c-10.26,0.045-16.476,6.303-16.524,16.571c-0.023,5.074,0.028,10.148-0.016,15.221c-0.032,3.747-2.061,6.014-5.188,5.938
		c-2.986-0.071-5.057-2.307-4.935-5.893c0.268-7.824-1.092-15.747,1.068-23.459c2.264-8.083,7.426-13.675,15.252-16.691
		c1.914-0.737,2.381-1.118,0.853-3c-14.611-17.993-4.846-45.022,17.759-49.371c12.532-2.412,25.393,3.343,31.944,14.294
		c6.585,11.008,5.54,25.156-2.597,35.121c-0.824,1.008-2.289,1.765,0.293,2.749c10.893,4.154,16.762,12.781,16.883,24.854
		c0.128,12.732,0.062,25.467,0.014,38.2c-0.018,4.714-1.844,6.463-6.526,6.479C183.989,208.628,177.622,208.609,171.255,208.609z
		 M176.423,117.047c0.058-11.135-8.91-20.234-20.137-20.43c-11.065-0.194-20.617,9.295-20.549,20.413
		c0.067,11.049,9.345,20.294,20.385,20.31C167.186,137.356,176.365,128.181,176.423,117.047z"/>
	<path fill="#B2012D" d="M69.644,149.392c1.546-39.539,29.289-72.842,67.911-81.307c20.802-4.559,40.64-1.61,59.462,8.294
		c3.213,1.691,4.354,4.327,3.101,7.034c-1.303,2.814-4.313,3.786-7.633,2.034c-10.81-5.703-22.279-9.018-34.487-9.159
		c-35.83-0.414-65.757,21.396-75.291,56.066c-7.583,27.574-0.814,52.219,18.637,73.275c1.213,1.314,2.58,2.485,3.792,3.801
		c2.189,2.377,2.285,5.127,0.334,7.209c-1.988,2.12-5.074,2.168-7.451-0.002c-9.993-9.121-17.577-19.958-22.494-32.554
		C71.179,172.956,69.196,161.364,69.644,149.392z"/>
	<path fill="#B2012D" d="M242.666,153.614c-1.158,30.553-14.087,54.747-39.616,71.756c-13.865,9.235-29.442,13.588-46.141,13.728
		c-3.452,0.027-5.587-1.734-5.757-4.679c-0.176-3.047,1.827-5.296,5.4-5.43c5.379-0.202,10.719-0.604,15.966-1.813
		c22.082-5.092,38.905-17.417,50.146-37.077c8.46-14.795,11.225-30.814,9.074-47.682c-0.338-2.649-1.047-5.25-1.565-7.877
		c-0.771-3.901,0.704-6.676,3.808-7.197c3.226-0.541,5.312,1.317,6.219,5.262C241.784,139.507,242.707,146.471,242.666,153.614z"/>
	<path fill="#B2012D" d="M122.876,305.35c-5.569,0-11.139,0.03-16.708-0.011c-3.767-0.028-6.073-2.038-6.022-5.121
		c0.048-2.96,2.302-5.011,5.876-5.028c11.337-0.058,22.674-0.057,34.011,0c3.566,0.02,5.797,2.064,5.837,5.039
		c0.043,3.143-2.178,5.084-5.99,5.109C134.213,305.377,128.544,305.348,122.876,305.35z"/>
	<path fill="#B2012D" d="M110.162,325.711c-4.772,0-9.544,0.043-14.315-0.016c-3.6-0.043-5.823-1.973-5.882-4.938
		c-0.059-2.928,2.188-5.168,5.692-5.202c9.742-0.096,19.486-0.095,29.227-0.003c3.55,0.033,5.735,2.19,5.705,5.163
		c-0.031,3.02-2.187,4.936-5.813,4.98C119.905,325.757,115.033,325.711,110.162,325.711z"/>
	<path fill="#B2012D" d="M171.394,305.34c-3.276-0.001-6.553,0.063-9.826-0.02c-3.147-0.08-5.254-2.035-5.399-4.813
		c-0.146-2.797,2.047-5.218,5.269-5.282c6.648-0.14,13.302-0.144,19.949,0.002c3.283,0.071,5.306,2.365,5.181,5.297
		c-0.122,2.856-2.113,4.719-5.348,4.801C177.947,305.404,174.669,305.341,171.394,305.34z"/>
	<path fill="#B2012D" d="M155.984,325.693c-3.276-0.002-6.555,0.082-9.827-0.025c-3.118-0.102-5.003-1.889-5.175-4.636
		c-0.18-2.88,1.587-5.263,4.736-5.366c6.94-0.229,13.896-0.211,20.837-0.014c2.889,0.084,4.887,2.551,4.84,5.09
		c-0.05,2.763-2.159,4.83-5.285,4.929C162.738,325.775,159.36,325.693,155.984,325.693z"/>
	<path fill="#B2012D" d="M166.299,172.833c-1.879-0.002-3.769,0.123-5.635-0.032c-2.808-0.231-4.301-2.103-4.427-4.708
		c-0.118-2.466,1.109-4.518,3.741-4.962c4.206-0.711,8.483-0.746,12.678,0.013c2.717,0.491,3.918,2.55,3.67,5.262
		c-0.239,2.605-1.79,4.167-4.392,4.398C170.07,172.969,168.178,172.836,166.299,172.833z"/>
	<path fill="#B2012D" d="M298.934,203.386c-5.36,0-10.729,0.169-16.078-0.069c-2.769-0.123-4.56-2.502-4.476-5.018
		c0.085-2.544,1.938-4.459,4.763-4.827c0.979-0.127,1.98-0.121,2.973-0.122c8.348-0.009,16.695-0.096,25.041,0.053
		c2.373,0.042,2.985-0.641,2.945-2.976c-0.122-7.274-0.021-7.276-7.237-7.276c-7.056,0-14.111,0.013-21.167-0.011
		c-1.188-0.003-2.416,0.017-3.551-0.271c-2.402-0.609-3.696-2.36-3.722-4.77c-0.022-2.277,1.162-4.021,3.397-4.726
		c1.109-0.35,2.345-0.419,3.523-0.422c8.942-0.033,17.887-0.035,26.83-0.014c8.114,0.02,12.037,3.977,12.057,12.107
		c0.005,2.385,0.021,4.77-0.005,7.154c-0.07,7.166-4.075,11.237-11.283,11.362c-4.669,0.08-9.341,0.015-14.013,0.015
		C298.934,203.514,298.934,203.449,298.934,203.386z"/>
	<path fill="#B2012D" d="M296.109,86.367c-7.446-0.003-14.896,0.068-22.342-0.032c-4.05-0.055-6.49-3.303-5.242-6.687
		c0.975-2.638,3.137-3.427,5.681-3.464c3.476-0.048,6.95-0.012,10.426-0.012c10.726,0,21.448-0.008,32.172,0.011
		c1.082,0.003,2.183,0.077,3.242,0.276c2.771,0.521,4.046,2.427,4.082,5.07c0.035,2.563-2.014,4.656-4.787,4.734
		c-5.655,0.156-11.315,0.087-16.976,0.106C300.279,86.378,298.193,86.372,296.109,86.367z"/>
	<path fill="#B2012D" d="M296.471,101.706c7.146,0,14.295-0.019,21.442,0.008c3.811,0.014,6.147,1.887,6.261,4.915
		c0.117,3.126-2.332,5.235-6.252,5.241c-14.493,0.024-28.986,0.024-43.48,0.001c-3.932-0.006-6.334-2.079-6.236-5.235
		c0.093-3.035,2.412-4.908,6.229-4.922C281.777,101.687,289.124,101.706,296.471,101.706z"/>
	<path fill="#B2012D" d="M306.45,127.188c3.975,0.001,7.951-0.062,11.925,0.021c3.574,0.074,5.813,2.104,5.8,5.052
		c-0.013,2.777-2.204,5.024-5.526,5.078c-8.147,0.131-16.299,0.128-24.446,0.008c-3.476-0.05-5.75-2.383-5.644-5.262
		c0.111-2.958,2.309-4.821,5.967-4.885C298.498,127.132,302.475,127.185,306.45,127.188z"/>
	<path fill="#B2012D" d="M306.088,162.755c-3.876,0-7.752,0.047-11.626-0.014c-3.616-0.058-5.836-1.972-5.905-4.939
		c-0.067-2.912,2.215-5.162,5.711-5.205c8.047-0.1,16.099-0.097,24.146-0.004c3.492,0.041,5.797,2.266,5.763,5.16
		c-0.036,2.955-2.284,4.93-5.866,4.986C314.236,162.804,310.161,162.755,306.088,162.755z"/>
</g>
</svg>
